<svg version="1.2" xmlns="http://www.w3.org/2000/svg" viewBox="0 0 68 40" width="68" height="40">
	<title>benefits-car-svg</title>
	<defs>
		<clipPath clipPathUnits="userSpaceOnUse" id="cp1">
			<path d="m0-14h68v68h-68z"/>
		</clipPath>
	</defs>
	<style>
		.s0 { fill: #ba9e76 } 
	</style>
	<g id="Clip-Path" clip-path="url(#cp1)">
		<g>
			<path fill-rule="evenodd" class="s0" d="m58.4 38.8c-1.2 0-2.3-0.3-3.3-1-0.9-0.6-1.7-1.5-2.1-2.6-0.4-1-0.6-2.2-0.3-3.3 0.2-1.2 0.7-2.2 1.6-3 0.8-0.8 1.8-1.4 2.9-1.6 1.2-0.2 2.3-0.1 3.4 0.3 1.1 0.5 2 1.2 2.6 2.2 0.7 0.9 1 2 1 3.2 0 1.5-0.6 3-1.7 4.1-1.1 1.1-2.6 1.7-4.1 1.7zm0-9.5c-0.7 0-1.5 0.2-2.1 0.6-0.6 0.4-1.1 1-1.3 1.7-0.3 0.7-0.4 1.4-0.3 2.1 0.2 0.7 0.5 1.4 1.1 1.9 0.5 0.5 1.1 0.9 1.9 1 0.7 0.2 1.4 0.1 2.1-0.2 0.7-0.3 1.2-0.7 1.7-1.3 0.4-0.7 0.6-1.4 0.6-2.1 0-1-0.4-1.9-1.1-2.6-0.7-0.7-1.6-1.1-2.6-1.1z"/>
			<path fill-rule="evenodd" class="s0" d="m27.7 38.8c-1.2 0-2.3-0.3-3.3-1-0.9-0.6-1.7-1.5-2.1-2.6-0.4-1-0.6-2.2-0.3-3.3 0.2-1.2 0.7-2.2 1.6-3 0.8-0.8 1.8-1.4 2.9-1.6 1.2-0.2 2.3-0.1 3.4 0.3 1.1 0.5 2 1.2 2.6 2.2 0.7 0.9 1 2 1 3.2 0 1.5-0.6 3-1.7 4.1-1.1 1.1-2.6 1.7-4.1 1.7zm0-9.5c-0.7 0-1.5 0.2-2.1 0.6-0.6 0.4-1.1 1-1.3 1.7-0.3 0.7-0.4 1.4-0.3 2.1 0.2 0.7 0.5 1.4 1.1 1.9 0.5 0.5 1.1 0.9 1.9 1 0.7 0.2 1.4 0.1 2.1-0.2 0.7-0.3 1.2-0.7 1.7-1.3 0.4-0.7 0.6-1.4 0.6-2.1 0-1-0.4-1.9-1.1-2.6-0.7-0.7-1.6-1.1-2.6-1.1z"/>
			<path class="s0" d="m66 34.1h-2.9c-0.2 0-0.5-0.2-0.7-0.3-0.2-0.2-0.3-0.5-0.3-0.8 0-0.3 0.1-0.6 0.3-0.8 0.2-0.2 0.5-0.3 0.7-0.3h2.6v-5.6c0-0.8-0.1-1.5-0.5-2.2l-5.8-10.3q0-0.1-0.2-0.2-0.1-0.1-0.3-0.1h-7.8v18.4h2.5c0.3 0 0.6 0.2 0.8 0.4 0.2 0.2 0.3 0.4 0.3 0.7 0 0.3-0.1 0.6-0.3 0.8-0.2 0.2-0.5 0.3-0.8 0.3h-3.6c-0.2 0-0.5-0.1-0.7-0.3-0.2-0.2-0.3-0.5-0.3-0.8v-20.5c0-0.3 0.1-0.6 0.3-0.8 0.2-0.2 0.5-0.3 0.7-0.3h8.9q0.8 0 1.4 0.4 0.6 0.3 1 1l5.7 10.3c0.6 1 0.9 2.1 0.9 3.2v5.9c0 0.5-0.2 1-0.6 1.3-0.3 0.4-0.8 0.6-1.3 0.6z"/>
			<path class="s0" d="m22.9 34.1h-10.2c-0.2 0-0.5-0.2-0.7-0.3-0.2-0.2-0.3-0.5-0.3-0.8v-8.2c0-0.3 0.1-0.5 0.3-0.7 0.2-0.2 0.5-0.3 0.7-0.3 0.3 0 0.6 0.1 0.8 0.3 0.2 0.2 0.3 0.4 0.3 0.7v7.1h9.1c0.3 0 0.6 0.1 0.8 0.3 0.2 0.2 0.3 0.5 0.3 0.8 0 0.3-0.1 0.6-0.3 0.8-0.2 0.1-0.5 0.3-0.8 0.3z"/>
			<path class="s0" d="m12.7 21.1c-0.2 0-0.5-0.2-0.7-0.4-0.2-0.2-0.3-0.4-0.3-0.7v-7.1c0-0.3 0.1-0.6 0.3-0.8 0.2-0.2 0.5-0.3 0.7-0.3 0.3 0 0.6 0.1 0.8 0.3 0.2 0.2 0.3 0.5 0.3 0.8v7.1c0 0.3-0.1 0.6-0.3 0.7-0.2 0.2-0.5 0.4-0.8 0.4z"/>
			<path class="s0" d="m50 34.1h-17.6c-0.2 0-0.5-0.2-0.7-0.3-0.2-0.2-0.3-0.5-0.3-0.8 0-0.3 0.1-0.6 0.3-0.8 0.2-0.2 0.5-0.3 0.7-0.3h16.6v-27.8h-35.2v4.4c0 0.3-0.1 0.6-0.3 0.8-0.2 0.2-0.5 0.3-0.8 0.3-0.2 0-0.5-0.1-0.7-0.3-0.2-0.2-0.3-0.5-0.3-0.8v-4.6c0-0.5 0.2-1 0.5-1.3 0.4-0.4 0.9-0.6 1.4-0.6h35.6c0.5 0 1 0.2 1.3 0.6 0.4 0.3 0.6 0.8 0.6 1.3v29.1c0 0.3-0.1 0.6-0.3 0.8-0.2 0.1-0.5 0.3-0.8 0.3z"/>
			<path class="s0" d="m16.9 25.9h-13.4c-0.3 0-0.6-0.1-0.8-0.3-0.2-0.2-0.3-0.5-0.3-0.8 0-0.3 0.1-0.5 0.3-0.7 0.2-0.2 0.5-0.3 0.8-0.3h13.4c0.3 0 0.6 0.1 0.8 0.3 0.2 0.2 0.3 0.4 0.3 0.7 0 0.3-0.1 0.6-0.3 0.8-0.2 0.2-0.5 0.3-0.8 0.3z"/>
			<path class="s0" d="m8.3 15.4h-7.4c-0.2 0-0.5-0.1-0.7-0.3-0.2-0.2-0.3-0.4-0.3-0.7 0-0.3 0.1-0.6 0.3-0.8 0.2-0.2 0.5-0.3 0.7-0.3h7.4c0.3 0 0.5 0.1 0.7 0.3 0.2 0.2 0.3 0.5 0.3 0.8 0 0.3-0.1 0.5-0.3 0.7-0.2 0.2-0.4 0.3-0.7 0.3z"/>
			<path class="s0" d="m20.1 9.6h-13c-0.3 0-0.6-0.1-0.8-0.3-0.2-0.2-0.3-0.5-0.3-0.8 0-0.3 0.1-0.5 0.3-0.7 0.2-0.2 0.5-0.3 0.8-0.3h13c0.2 0 0.5 0.1 0.7 0.3 0.2 0.2 0.3 0.4 0.3 0.7 0 0.3-0.1 0.6-0.3 0.8-0.2 0.2-0.5 0.3-0.7 0.3z"/>
		</g>
	</g>
</svg>