<svg width="68" height="68" viewBox="0 0 68 68" fill="none" xmlns="http://www.w3.org/2000/svg">
<g clip-path="url(#clip0_604_310)">
<path d="M58.3828 52.8247C57.2305 52.8256 56.1038 52.4846 55.1453 51.8451C54.1867 51.2055 53.4394 50.296 52.9979 49.2316C52.5563 48.1672 52.4403 46.9958 52.6646 45.8655C52.8889 44.7353 53.4434 43.6969 54.2579 42.8818C55.0724 42.0667 56.1104 41.5114 57.2405 41.2863C58.3707 41.0612 59.5421 41.1763 60.6068 41.6171C61.6715 42.0579 62.5816 42.8045 63.2218 43.7626C63.8621 44.7206 64.2039 45.8471 64.2039 46.9994C64.2031 48.5434 63.5897 50.024 62.4984 51.1162C61.407 52.2084 59.9268 52.8229 58.3828 52.8247ZM58.3828 43.2991C57.6508 43.2982 56.9349 43.5145 56.3259 43.9206C55.7168 44.3267 55.2418 44.9043 54.9611 45.5804C54.6804 46.2565 54.6065 47.0006 54.7488 47.7187C54.8911 48.4368 55.2432 49.0965 55.7605 49.6144C56.2779 50.1324 56.9372 50.4852 57.6551 50.6283C58.373 50.7715 59.1172 50.6984 59.7936 50.4185C60.47 50.1385 61.0482 49.6643 61.455 49.0556C61.8618 48.447 62.0789 47.7314 62.0789 46.9994C62.0785 46.0189 61.6891 45.0785 60.9962 44.3848C60.3032 43.691 59.3633 43.3006 58.3828 43.2991Z" fill="#BA9E76"/>
<path d="M27.684 52.8247C26.5316 52.8259 25.4048 52.4852 24.4461 51.8457C23.4874 51.2063 22.7399 50.2969 22.2981 49.2326C21.8563 48.1683 21.7401 46.9968 21.9643 45.8664C22.1884 44.736 22.7428 43.6975 23.5572 42.8823C24.3717 42.067 25.4097 41.5117 26.5398 41.2864C27.67 41.0612 28.8415 41.1762 29.9063 41.617C30.9711 42.0577 31.8812 42.8043 32.5216 43.7624C33.1619 44.7205 33.5037 45.847 33.5037 46.9994C33.5026 48.5431 32.8893 50.0232 31.7983 51.1153C30.7073 52.2073 29.2277 52.8221 27.684 52.8247ZM27.684 43.2991C26.9519 43.2979 26.236 43.514 25.6267 43.9199C25.0174 44.3259 24.5423 44.9034 24.2613 45.5794C23.9804 46.2555 23.9063 46.9997 24.0484 47.7178C24.1906 48.436 24.5426 49.0959 25.0598 49.6139C25.5771 50.132 26.2364 50.485 26.9544 50.6282C27.6723 50.7715 28.4166 50.6985 29.0931 50.4186C29.7696 50.1387 30.3478 49.6644 30.7547 49.0558C31.1615 48.4471 31.3787 47.7315 31.3787 46.9994C31.3779 46.0192 30.9886 45.0793 30.2961 44.3857C29.6035 43.6921 28.6642 43.3013 27.684 43.2991Z" fill="#BA9E76"/>
<path d="M66.0462 48.0618H63.1406C62.8588 48.0618 62.5886 47.9499 62.3893 47.7506C62.1901 47.5514 62.0781 47.2811 62.0781 46.9993C62.0781 46.7175 62.1901 46.4473 62.3893 46.248C62.5886 46.0488 62.8588 45.9368 63.1406 45.9368H65.7459V40.3027C65.7452 39.541 65.5502 38.7921 65.1792 38.1267L59.4276 27.8148C59.3784 27.7268 59.3067 27.6535 59.2198 27.6025C59.1329 27.5514 59.0339 27.5245 58.9331 27.5244H51.0947V45.9411H53.6249C53.9067 45.9411 54.1769 46.053 54.3762 46.2523C54.5755 46.4515 54.6874 46.7218 54.6874 47.0036C54.6874 47.2854 54.5755 47.5556 54.3762 47.7549C54.1769 47.9541 53.9067 48.0661 53.6249 48.0661H50.0322C49.7504 48.0661 49.4802 47.9541 49.2809 47.7549C49.0817 47.5556 48.9697 47.2854 48.9697 47.0036V26.4619C48.9697 26.1801 49.0817 25.9099 49.2809 25.7106C49.4802 25.5114 49.7504 25.3994 50.0322 25.3994H58.9331C59.4125 25.3992 59.8832 25.527 60.2966 25.7695C60.71 26.0121 61.0512 26.3607 61.2848 26.7792L67.0351 37.0926C67.5817 38.0742 67.8689 39.1791 67.8695 40.3027V46.2386C67.8687 46.7219 67.6764 47.1852 67.3346 47.527C66.9929 47.8687 66.5295 48.0611 66.0462 48.0618Z" fill="#BA9E76"/>
<path d="M22.9265 48.0618H12.7393C12.4575 48.0618 12.1872 47.9499 11.988 47.7506C11.7887 47.5514 11.6768 47.2811 11.6768 46.9993V38.828C11.6768 38.5462 11.7887 38.276 11.988 38.0767C12.1872 37.8774 12.4575 37.7655 12.7393 37.7655C13.0211 37.7655 13.2913 37.8774 13.4906 38.0767C13.6898 38.276 13.8018 38.5462 13.8018 38.828V45.9368H22.9265C23.2083 45.9368 23.4786 46.0488 23.6778 46.248C23.8771 46.4473 23.989 46.7175 23.989 46.9993C23.989 47.2811 23.8771 47.5514 23.6778 47.7506C23.4786 47.9499 23.2083 48.0618 22.9265 48.0618Z" fill="#BA9E76"/>
<path d="M12.7393 35.0583C12.4575 35.0583 12.1872 34.9463 11.988 34.7471C11.7887 34.5478 11.6768 34.2776 11.6768 33.9958V26.8615C11.6768 26.5797 11.7887 26.3094 11.988 26.1101C12.1872 25.9109 12.4575 25.799 12.7393 25.799C13.0211 25.799 13.2913 25.9109 13.4906 26.1101C13.6898 26.3094 13.8018 26.5797 13.8018 26.8615V34C13.8006 34.2811 13.6882 34.5502 13.4891 34.7486C13.2899 34.9469 13.0203 35.0583 12.7393 35.0583Z" fill="#BA9E76"/>
<path d="M50.033 48.0618H32.4423C32.1605 48.0618 31.8902 47.9499 31.691 47.7506C31.4917 47.5513 31.3798 47.2811 31.3798 46.9993C31.3798 46.7175 31.4917 46.4473 31.691 46.248C31.8902 46.0487 32.1605 45.9368 32.4423 45.9368H48.9705V18.1404H13.8018V22.5165C13.8018 22.7983 13.6898 23.0685 13.4906 23.2678C13.2913 23.467 13.0211 23.579 12.7393 23.579C12.4575 23.579 12.1872 23.467 11.988 23.2678C11.7887 23.0685 11.6768 22.7983 11.6768 22.5165V17.9449C11.6775 17.4331 11.8812 16.9426 12.2432 16.5808C12.6052 16.2191 13.0959 16.0158 13.6077 16.0154H49.166C49.6775 16.0161 50.1679 16.2197 50.5295 16.5813C50.8912 16.943 51.0948 17.4334 51.0955 17.9449V46.9993C51.0955 47.2811 50.9836 47.5513 50.7843 47.7506C50.585 47.9499 50.3148 48.0618 50.033 48.0618Z" fill="#BA9E76"/>
<path d="M16.9398 39.8905H3.45459C3.1728 39.8905 2.90255 39.7786 2.70329 39.5793C2.50403 39.38 2.39209 39.1098 2.39209 38.828C2.39209 38.5462 2.50403 38.276 2.70329 38.0767C2.90255 37.8774 3.1728 37.7655 3.45459 37.7655H16.9398C17.2216 37.7655 17.4919 37.8774 17.6911 38.0767C17.8904 38.276 18.0023 38.5462 18.0023 38.828C18.0023 39.1098 17.8904 39.38 17.6911 39.5793C17.4919 39.7786 17.2216 39.8905 16.9398 39.8905Z" fill="#BA9E76"/>
<path d="M8.28184 29.4482H0.933594C0.651801 29.4482 0.38155 29.3363 0.182293 29.137C-0.0169646 28.9378 -0.128906 28.6675 -0.128906 28.3857C-0.128906 28.1039 -0.0169646 27.8337 0.182293 27.6344C0.38155 27.4352 0.651801 27.3232 0.933594 27.3232H8.28184C8.56364 27.3232 8.83389 27.4352 9.03314 27.6344C9.2324 27.8337 9.34434 28.1039 9.34434 28.3857C9.34434 28.6675 9.2324 28.9378 9.03314 29.137C8.83389 29.3363 8.56364 29.4482 8.28184 29.4482Z" fill="#BA9E76"/>
<path d="M20.0643 23.579H7.09326C6.81147 23.579 6.54122 23.467 6.34196 23.2678C6.1427 23.0685 6.03076 22.7983 6.03076 22.5165C6.03076 22.2347 6.1427 21.9644 6.34196 21.7652C6.54122 21.5659 6.81147 21.454 7.09326 21.454H20.0643C20.3461 21.454 20.6163 21.5659 20.8156 21.7652C21.0148 21.9644 21.1268 22.2347 21.1268 22.5165C21.1268 22.7983 21.0148 23.0685 20.8156 23.2678C20.6163 23.467 20.3461 23.579 20.0643 23.579Z" fill="#BA9E76"/>
</g>
<defs>
<clipPath id="clip0_604_310">
<rect width="68" height="68" fill="white"/>
</clipPath>
</defs>
</svg>
