<svg width="87" height="77" viewBox="0 0 87 77" fill="none" xmlns="http://www.w3.org/2000/svg">
<path d="M85.7215 22.7508C71.011 3.97991 71.6411 4.44846 70.8516 4.37638L47.8261 1.29114C42.0245 0.512625 38.0771 1.52181 36.0635 1.70203C35.3899 1.79574 34.9119 2.40846 35.006 3.08606C35.1002 3.75645 35.7158 4.23221 36.3967 4.1385C38.4392 3.95108 42.0969 2.99956 47.5002 3.72761L63.3117 5.84691C62.1311 6.08479 44.6827 9.62416 43.4948 9.86925L23.678 5.84691L30.5299 4.93143C31.2035 4.83772 31.6815 4.225 31.5873 3.5474C31.4932 2.87701 30.8703 2.40125 30.1967 2.49496L16.1308 4.37638H16.1091C16.1091 4.37638 16.0728 4.38359 16.0511 4.3908C16.0366 4.3908 16.0294 4.3908 16.0149 4.3908C16.0076 4.3908 15.9932 4.3908 15.9859 4.3908C15.9714 4.3908 15.9569 4.398 15.9425 4.40521C15.9207 4.40521 15.899 4.41963 15.8773 4.42684C15.87 4.42684 15.8628 4.42684 15.8483 4.43405C15.8483 4.43405 15.8411 4.43405 15.8338 4.43405C15.8193 4.43405 15.8121 4.44126 15.7976 4.44846C15.7759 4.45567 15.7541 4.47009 15.7324 4.4773C15.7252 4.4773 15.7107 4.48451 15.7034 4.49171C15.6962 4.49171 15.6817 4.49892 15.6745 4.50613C15.6672 4.50613 15.6527 4.52055 15.6455 4.52055C15.1095 4.83051 15.3703 4.85214 1.2609 22.7364C0.96394 23.1113 0.920482 23.6231 1.13053 24.0412C1.6303 25.0215 0.304827 23.0824 27.5457 59.0744C27.9586 59.6151 28.7336 59.7232 29.2768 59.3123C29.82 58.9014 29.9287 58.1301 29.5158 57.5895L5.59946 26.0451L24.9383 32.1075C25.4018 33.3257 39.5619 70.4999 39.8299 71.1919L33.0142 62.2029C32.6014 61.6623 31.8264 61.5542 31.2831 61.9651C30.7399 62.3759 30.6313 63.1473 31.0441 63.6879C38.1785 73.095 38.91 74.0753 38.968 74.1258C39.8661 75.135 41.1191 75.7765 42.307 75.9784C42.4808 76.0072 44.5523 76.0072 44.7261 75.9784C46.2327 75.69 47.5002 74.8394 48.1014 74.0537L72.1988 42.2642C72.6117 41.7236 72.503 40.9523 71.9598 40.5414C71.4166 40.1305 70.6416 40.2386 70.2287 40.7793L47.1743 71.1919C47.9131 69.2601 61.5227 33.5275 62.0659 32.1075L81.4047 26.0451L73.7054 36.2019C73.2925 36.7425 73.4012 37.5138 73.9444 37.9247C74.4876 38.3356 75.2626 38.2275 75.6755 37.6868C86.0185 24.0339 85.4608 24.8629 85.8664 24.0628C86.0837 23.6375 86.033 23.1257 85.736 22.7508H85.7215ZM43.4948 12.9761L58.3864 29.8872H28.6032L43.4948 12.9761ZM4.17983 23.0248L15.8918 8.07434L23.8301 29.1808L4.17983 23.0176V23.0248ZM18.2095 7.23815C20.6504 7.73554 38.1785 11.2893 41.1626 11.8948L26.3072 28.7627L18.2095 7.23815ZM43.6252 73.5347H43.35L27.6544 32.3381H59.3135L43.618 73.5347H43.6252ZM60.6752 28.7555L45.8198 11.8876C47.7972 11.484 65.7308 7.85087 68.7729 7.23094L60.6752 28.7555ZM63.1523 29.1808L71.0907 8.07434L82.8026 23.0248L63.1523 29.188V29.1808Z" fill="#342F2C" stroke="#342F2C" stroke-width="0.5"/>
</svg>
