<svg width="89" height="89" viewBox="0 0 89 89" fill="none" xmlns="http://www.w3.org/2000/svg">
<path d="M83.4125 59.2322C79.0213 54.8658 72.3692 53.516 66.6068 55.7521L65.5539 54.7032C65.7579 54.5568 65.9457 54.3942 66.1334 54.2153L72.4263 47.9625C73.4548 46.938 74.0261 45.572 74.0261 44.1165C74.0261 42.661 73.4548 41.295 72.4263 40.2705C71.2837 39.1322 69.7492 38.6118 68.2474 38.6931C68.2882 38.4166 68.3127 38.1402 68.3127 37.8556C68.3127 36.2375 67.6842 34.7251 66.5415 33.5868C65.4314 32.4809 63.9868 31.9036 62.5257 31.8386C63.2277 29.7326 62.7461 27.3177 61.0729 25.6589C59.7098 24.3092 57.857 23.74 56.0777 23.9433C56.1022 23.7156 56.1185 23.4798 56.1185 23.244C56.1185 21.6259 55.49 20.1135 54.3473 18.9752C51.9803 16.6253 48.136 16.6253 45.769 18.9752L41.7451 22.9757L41.4349 22.6667C39.9331 21.1706 37.4763 21.1706 35.9663 22.6667L34.6278 23.9921L32.8811 22.2601C35.1256 16.5359 33.7707 9.92529 29.3795 5.55889C25.7393 1.90803 20.4992 0.314339 15.3816 1.27381C14.647 1.41204 12.4187 1.82672 11.9617 3.52612C11.5128 5.18486 13.1044 6.55088 13.8716 7.20137C13.9451 7.26642 14.0104 7.32334 14.0512 7.36399L20.1482 13.4217C21.7562 15.0235 21.8704 17.601 20.4094 19.3248C18.6709 20.7722 16.0754 20.6665 14.4593 19.0646L8.3622 13.007C8.3622 13.007 8.26425 12.9013 8.19895 12.8281C7.53782 12.0719 6.17476 10.4945 4.50153 10.9335C2.79566 11.3889 2.37939 13.6005 2.24064 14.3323C1.26935 19.4224 2.87728 24.6344 6.54205 28.269C10.9332 32.6354 17.5853 33.977 23.3478 31.7491L25.7066 34.0909C25.1598 35.5057 24.8986 37.0587 24.9883 38.6199C25.2006 42.1325 23.3314 45.572 18.7444 50.1335L13.9451 54.8983C12.329 54.0771 10.2966 54.321 8.94986 55.6627L2.25696 62.3139C1.44891 63.1189 1 64.2003 1 65.3387C1 66.477 1.44891 67.5584 2.25696 68.3634L20.7522 86.7478C21.5929 87.5853 22.6948 88 23.7967 88C24.8986 88 26.0004 87.5853 26.8411 86.7478L33.5422 80.0884C34.3503 79.2835 34.7992 78.2102 34.7992 77.0637C34.7992 76.3725 34.6196 75.7139 34.3094 75.1204L42.4552 67.0218C44.863 64.6231 45.263 64.6882 47.8095 65.111C48.2503 65.1842 48.7318 65.2655 49.2705 65.3387C51.4988 65.6558 54.0943 64.5255 55.5553 63.745L57.049 65.2329C56.2654 67.2332 55.8981 69.4123 55.9961 71.5915C56.0287 72.2989 56.6082 72.8437 57.3102 72.8437C57.3265 72.8437 57.351 72.8437 57.3673 72.8437C58.0937 72.8111 58.6569 72.2013 58.6243 71.4858C58.5345 69.4123 58.9426 67.3389 59.7996 65.485C60.0282 64.989 59.922 64.3955 59.5384 64.0133L39.9902 44.58C40.8473 42.97 41.3288 41.2706 41.3778 39.5956C43.7775 41.6528 47.7442 43.4335 51.2539 42.7017C51.2539 42.718 51.2539 42.7261 51.2539 42.7424C51.2539 44.3523 51.8824 45.8728 53.0251 47.0031C54.1025 48.0764 55.5145 48.6862 57.0327 48.7512C56.8776 49.2635 56.796 49.8001 56.796 50.3531C56.796 51.8085 57.3673 53.1745 58.3957 54.1991C59.465 55.2561 60.8607 55.7928 62.2646 55.7928C62.4768 55.7928 62.689 55.7765 62.9012 55.7521L65.3825 58.2158C65.7743 58.598 66.3619 58.7037 66.8598 58.476C71.8142 56.2156 77.7235 57.2564 81.5597 61.0698C84.6042 64.0946 85.9427 68.4285 85.1347 72.6648C84.9959 73.3722 84.849 73.7462 84.7511 73.9251C84.5634 73.8031 84.2532 73.5267 83.7471 72.9412C83.6247 72.803 83.5268 72.6892 83.4533 72.616L77.3562 66.5502C74.7525 63.9564 70.5327 63.8181 67.7576 66.2249C67.7168 66.2656 67.6679 66.3063 67.6352 66.3469C65.2111 69.1115 65.3498 73.299 67.9617 75.8928L74.0588 81.9505C74.1322 82.0155 74.2383 82.1212 74.3852 82.2432C74.9648 82.7392 75.2423 83.0482 75.3729 83.2352C75.1851 83.3328 74.8097 83.4872 74.0996 83.6173C69.8308 84.4223 65.4723 83.0888 62.4278 80.0641C61.4647 79.1046 60.6648 78.0069 60.0445 76.8035C59.7098 76.1611 58.9263 75.9091 58.2733 76.2343C57.6285 76.5677 57.3755 77.3564 57.702 77.9988C58.4447 79.438 59.4078 80.7552 60.5668 81.9098C63.5215 84.8533 67.5128 86.4551 71.6346 86.4551C72.6141 86.4551 73.6017 86.3657 74.5811 86.1786C75.3157 86.0404 77.544 85.6257 78.001 83.9263C78.45 82.2676 76.8584 80.9016 76.0911 80.2511C76.0177 80.186 75.9524 80.1291 75.9116 80.0884L69.8145 74.0308C68.2066 72.429 68.1004 69.8514 69.5533 68.1276C71.2918 66.6803 73.8874 66.786 75.5034 68.3878L81.6005 74.4455C81.6413 74.4861 81.6985 74.5512 81.7638 74.6244C82.4249 75.3806 83.788 76.9661 85.4612 76.5189C87.1671 76.0636 87.5833 73.8519 87.7221 73.1201C88.6934 68.03 87.0854 62.818 83.4207 59.1834L83.4125 59.2322ZM59.2201 27.4966C60.5342 28.8138 60.5587 30.9604 59.2772 32.2777L58.5998 32.9444H58.5916C58.5916 32.9444 58.5671 32.9769 58.5508 32.9932L58.4202 33.1233C58.3876 33.1639 58.3549 33.2127 58.3223 33.2534C58.1998 33.3591 58.0774 33.4648 57.9631 33.5786L55.0493 36.4733C54.3229 35.4244 53.1965 34.3186 51.9232 33.0582L50.3398 31.4889L54.3555 27.4966C55.6941 26.1631 57.8815 26.1631 59.2201 27.4966ZM47.63 20.8209C48.9685 19.4874 51.156 19.4874 52.4946 20.8209C53.1394 21.4633 53.4985 22.3171 53.4985 23.2359C53.4985 24.1547 53.1475 25.0085 52.5027 25.6508L50.0296 28.1145L48.487 29.6432L43.6224 24.8133L47.6381 20.8209H47.63ZM24.5721 29.2854C24.1803 28.9032 23.5926 28.7975 23.0947 29.0252C18.1404 31.2857 12.231 30.2449 8.39484 26.4314C5.35039 23.4066 4.01181 19.0728 4.81985 14.8283C4.95861 14.1209 5.10553 13.7469 5.20347 13.568C5.3912 13.69 5.70136 13.9664 6.20741 14.5519C6.32984 14.6901 6.42778 14.8039 6.50124 14.8771L12.5983 20.9348C15.202 23.5286 19.4218 23.6668 22.1969 21.26C22.2377 21.2194 22.2867 21.1787 22.3193 21.1381C24.7435 18.3735 24.6047 14.186 21.9929 11.5922L15.8958 5.5345C15.8223 5.46945 15.7162 5.36374 15.5693 5.24178C14.9898 4.74578 14.7123 4.4368 14.5817 4.24979C14.7694 4.15221 15.1449 3.99772 15.855 3.86762C20.1238 3.06265 24.4823 4.39615 27.5268 7.42091C31.3629 11.2344 32.4158 17.105 30.1386 22.0243C29.9101 22.5203 30.0162 23.1139 30.3998 23.4961L32.7668 25.846L27.8777 30.7083C27.5594 31.0173 27.2819 31.367 27.0125 31.7247L24.5639 29.2935L24.5721 29.2854ZM42.7409 37.3189C42.6592 37.2376 39.476 34.0827 39.2801 33.8795C39.2801 33.8795 39.272 33.8713 39.2638 33.8632C39.2393 33.8388 39.2067 33.8144 39.174 33.79C39.1414 33.7656 39.1087 33.7331 39.0679 33.7087C39.0271 33.6843 38.9863 33.6681 38.9537 33.6437C38.921 33.6274 38.8802 33.603 38.8476 33.5868C38.8067 33.5705 38.7659 33.5624 38.7251 33.5461C38.6843 33.538 38.6435 33.5217 38.6109 33.5136C38.57 33.5054 38.5292 33.5054 38.4884 33.4973C38.4476 33.4973 38.3986 33.4892 38.3578 33.4811C38.317 33.4811 38.2844 33.4811 38.2436 33.4811C38.1946 33.4811 38.1538 33.4811 38.1048 33.4973C38.0722 33.4973 38.0313 33.5136 37.9987 33.5298C37.9497 33.538 37.9089 33.5542 37.8681 33.5705C37.8273 33.5868 37.7947 33.603 37.762 33.6274C37.7212 33.6437 37.6804 33.6681 37.6477 33.6925C37.6069 33.7169 37.5743 33.7494 37.5335 33.7819C37.509 33.8063 37.4763 33.8226 37.4518 33.847C37.4518 33.847 37.4518 33.8551 37.4355 33.8632C37.4355 33.8632 37.4192 33.8713 37.4192 33.8795C37.3865 33.912 37.3702 33.9445 37.3457 33.9689C37.3212 34.0014 37.2886 34.034 37.2641 34.0665C37.2396 34.1071 37.2151 34.1397 37.1988 34.1803C37.1825 34.2128 37.158 34.2535 37.1417 34.286C37.1254 34.3267 37.1172 34.3673 37.1009 34.408C37.0845 34.4487 37.0764 34.4893 37.0682 34.53C37.0601 34.5706 37.0601 34.6113 37.0519 34.6519C37.0519 34.6926 37.0437 34.7332 37.0437 34.782C37.0437 34.8227 37.0437 34.8633 37.0437 34.904C37.0437 34.9446 37.0437 34.9934 37.0601 35.0341C37.0601 35.0747 37.0764 35.1073 37.0927 35.1479C37.1009 35.1886 37.1172 35.2292 37.1335 35.278C37.1498 35.3187 37.1662 35.3512 37.1907 35.3919C37.207 35.4325 37.2315 35.4732 37.256 35.5057C37.2804 35.5382 37.3049 35.5707 37.3376 35.6114C37.3621 35.6439 37.3784 35.6764 37.4029 35.7008C37.4029 35.7008 37.4192 35.7171 37.4355 35.7334C38.3333 36.6278 38.8067 37.8718 38.8067 39.3436C38.8067 41.6528 37.6232 44.2141 35.6317 46.1899C35.1175 46.7022 35.1175 47.5316 35.6317 48.0438C35.8847 48.2959 36.2275 48.426 36.5622 48.426C36.8968 48.426 37.2315 48.2959 37.4927 48.0438C37.8763 47.6617 38.2191 47.2632 38.5537 46.8567L53.6454 61.8585C52.1109 62.5741 50.6336 62.94 49.6868 62.8018C49.1644 62.7286 48.6992 62.6473 48.2829 62.5822C45.2385 62.0781 43.8754 61.9968 40.6351 65.2167L32.6444 73.1608L26.0413 66.599C25.527 66.0867 24.6945 66.0867 24.1885 66.599C23.6743 67.1112 23.6743 67.9406 24.1885 68.4447L31.7221 75.9335C32.0322 76.2424 32.2118 76.6653 32.2118 77.1125C32.2118 77.5597 32.0404 77.9744 31.7221 78.2915L25.021 84.9508C24.368 85.6013 23.2988 85.6013 22.6458 84.9508L4.10975 66.5177C3.79143 66.2087 3.62003 65.7859 3.62003 65.3387C3.62003 64.8914 3.79143 64.4768 4.10975 64.1596L10.8108 57.5003C11.4638 56.8498 12.533 56.8498 13.186 57.5003L19.8054 64.0865C20.3196 64.5987 21.1522 64.5987 21.6582 64.0865C22.1724 63.5742 22.1724 62.7448 21.6582 62.2407L15.9693 56.5815L20.5972 51.9793C25.7719 46.8323 27.8696 42.7911 27.6084 38.4573C27.4778 36.2456 28.294 33.977 29.7387 32.5378L37.8273 24.5043C38.3007 24.0327 39.1087 24.0246 39.5821 24.5043L47.5238 32.3996C47.5238 32.3996 47.532 32.4159 47.5402 32.4159C47.5483 32.4159 47.5565 32.424 47.5565 32.4321L50.0623 34.9203C51.1478 35.9936 52.7149 37.5385 53.1394 38.3597L53.0251 38.4735C52.6904 38.8069 52.4129 39.1728 52.1681 39.555C49.3685 41.3113 44.9283 39.4086 42.7327 37.3027L42.7409 37.3189ZM53.8821 42.7586C53.8821 41.8398 54.2412 40.986 54.886 40.3356L59.8159 35.4325C60.4852 34.7658 61.3667 34.4324 62.2482 34.4324C63.1297 34.4324 64.0112 34.7658 64.6805 35.4325C65.3253 36.0749 65.6845 36.9286 65.6845 37.8474C65.6845 38.7663 65.3253 39.62 64.6805 40.2624L64.2643 40.6771L59.7506 45.1573C59.1058 45.7997 58.2407 46.1574 57.3183 46.1574C56.396 46.1574 55.5308 45.7997 54.886 45.1573C54.2412 44.5149 53.8821 43.6612 53.8821 42.7505V42.7586ZM59.4242 50.3775C59.4242 49.6213 59.718 48.9139 60.2567 48.3772L66.1579 42.5066L66.5497 42.1244C67.1047 41.5715 67.8393 41.295 68.5657 41.295C69.2921 41.295 70.0267 41.5715 70.5817 42.1244C71.1123 42.6529 71.4061 43.3685 71.4061 44.1246C71.4061 44.8808 71.1123 45.5882 70.5817 46.1249L64.2888 52.3777C63.1787 53.4835 61.3749 53.4835 60.2567 52.3777C59.7262 51.8492 59.4323 51.1418 59.4323 50.3775H59.4242Z" fill="#342F2C" stroke="#342F2C" stroke-width="0.5"/>
</svg>
