<svg width="86" height="86" viewBox="0 0 86 86" fill="none" xmlns="http://www.w3.org/2000/svg">
<g clip-path="url(#clip0_604_192)">
<path d="M29.3999 56.7761C30.0566 57.4316 31.1202 57.4316 31.775 56.7761C32.4318 56.1193 32.4318 55.0564 31.775 54.4009C31.1202 53.7441 30.0566 53.7441 29.3999 54.4009C28.745 55.0564 28.745 56.1193 29.3999 56.7761Z" fill="#342F2C"/>
<path d="M36.5281 52.0244L52.6013 35.9407C53.2567 35.2846 53.2567 34.221 52.6006 33.5648C51.9438 32.9094 50.8809 32.91 50.2248 33.5655L34.1516 49.6492C33.4954 50.3053 33.4961 51.3689 34.1522 52.0251C34.8083 52.6805 35.8719 52.6805 36.5281 52.0244Z" fill="#342F2C"/>
<path d="M26.4584 45.4651L11.9914 59.9321C11.8307 60.0928 11.6968 60.2949 11.6109 60.5213C11.6082 60.5265 11.6056 60.5318 11.6037 60.537C10.2678 64.1497 6.21486 75.1084 4.62047 79.4191C4.39345 80.0346 4.54501 80.7268 5.00955 81.19C5.47015 81.6506 6.16171 81.8061 6.7811 81.5765C10.9593 80.0247 22.0177 75.9174 25.6409 74.5716C25.8522 74.4936 26.0726 74.3564 26.2439 74.1852L40.7096 59.7195L66.5014 85.6576C66.817 85.9745 67.2454 86.153 67.6929 86.153H67.6942C68.1417 86.1523 68.5708 85.9732 68.8857 85.6556L85.5134 68.8732C86.1643 68.2164 86.1616 67.1574 85.5081 66.5032C84.226 65.2211 60.7353 41.7291 59.7176 40.7114C64.1039 36.3252 74.6761 25.753 78.708 21.7211C82.6474 17.7862 82.65 11.4047 78.7086 7.46795C74.7712 3.52855 68.3956 3.52789 64.4555 7.46795L45.4632 26.4603C44.4895 25.4866 21.1307 2.12706 19.6629 0.659951C19.0094 0.00578979 17.9504 0.00316527 17.2936 0.654046L0.498004 17.2797C0.179781 17.5947 0.000657932 18.0238 1.8028e-06 18.4719C-0.000654327 18.9194 0.177813 19.3491 0.49538 19.6647L26.4584 45.4651ZM46.6508 30.0237C46.6508 30.0237 46.6515 30.0231 46.6515 30.0224L57.1259 19.5486L66.6273 29.0507L56.1549 39.5225C56.1549 39.5232 56.1555 39.5225 56.1549 39.5225L56.1542 39.5238L25.0563 70.6217L15.5549 61.1197L46.6508 30.0237ZM63.0652 13.6093L72.5666 23.1114L69.0032 26.6748L59.5011 17.1734L63.0652 13.6093ZM15.0897 74.9069L11.2802 71.0974L13.845 64.1615L22.0177 72.3342L15.0897 74.9069ZM9.99745 74.5657L11.6253 76.1936L9.04016 77.1535L9.99745 74.5657ZM61.2385 46.9834L54.0415 54.1791C53.3853 54.8346 53.3853 55.8982 54.0415 56.5543C54.6969 57.2105 55.7605 57.2105 56.4166 56.555L63.6137 49.3592L68.7007 54.4462L63.8795 59.2668C63.224 59.9229 63.224 60.9865 63.8795 61.6426C64.5356 62.2987 65.5992 62.2981 66.2553 61.6426L71.0765 56.8214L76.1642 61.9097L68.9678 69.1054C68.3116 69.7609 68.3116 70.8245 68.9678 71.4806C69.6232 72.1367 70.6868 72.1367 71.3429 71.4806L78.54 64.2855L81.9506 67.6967C67.767 81.8678 67.6909 82.0889 67.6909 82.0889L43.0854 57.3437L57.3424 43.0866L61.2385 46.9834ZM76.3335 9.8438C78.9593 12.4663 78.9606 16.72 76.3328 19.3452L74.9425 20.7355L65.4404 11.2341L66.8314 9.84314C69.4566 7.21731 73.707 7.21534 76.3335 9.8438ZM22.2172 7.9653L15.0214 15.1591C14.366 15.8146 14.366 16.8782 15.0214 17.5343C15.6776 18.1904 16.7411 18.1904 17.3973 17.535L24.5931 10.3405L29.68 15.4281L24.8601 20.2467C24.204 20.9029 24.204 21.9664 24.8594 22.6226C25.5156 23.2781 26.5785 23.2787 27.2353 22.6226L32.0559 17.8033L36.8043 22.5524L29.6098 29.7475C28.9543 30.4036 28.9543 31.4672 29.6098 32.1233C30.2659 32.7788 31.3295 32.7795 31.9857 32.1227L39.1801 24.9276L43.088 28.8355L28.8336 43.0899L4.06472 18.4758C4.06472 18.4758 4.29765 18.3997 18.4694 4.21683L22.2172 7.9653Z" fill="#342F2C"/>
</g>
<defs>
<clipPath id="clip0_604_192">
<rect width="86" height="86" fill="white"/>
</clipPath>
</defs>
</svg>
