<svg width="81" height="81" viewBox="0 0 81 81" fill="none" xmlns="http://www.w3.org/2000/svg">
<g clip-path="url(#clip0_604_190)">
<path d="M79.5596 81H1.44035C0.6447 81 0 80.3553 0 79.5596V1.44035C0 0.6447 0.6447 0 1.44035 0H79.5596C80.3553 0 81 0.6447 81 1.44035V79.5596C81 80.3553 80.3553 81 79.5596 81ZM60.5626 78.1193H78.1193V60.5626L61.8341 76.8478C61.8318 76.8501 61.8295 76.853 61.8267 76.8553C61.8244 76.8576 61.8215 76.8604 61.8192 76.8627L60.5626 78.1193ZM38.1416 78.1193H56.4893L58.772 75.8366L49.5981 66.6628L38.1416 78.1193ZM17.2087 78.1193H34.0677L59.1079 53.0791L50.6784 44.6496L24.0901 71.2379L17.2087 78.1193ZM2.8807 78.1193H13.1348L21.0348 70.2193L12.1842 61.3686L2.8807 70.6721V78.1193ZM51.6348 64.6255L60.8086 73.7994L78.1193 56.4887V38.1416L62.1631 54.0978L51.6348 64.6255ZM14.2214 59.3314L23.0715 68.1821L67.2458 24.0077L58.3952 15.1571L41.077 32.4758C41.0753 32.477 41.0741 32.4781 41.073 32.4793L14.2214 59.3314ZM2.8807 47.2486V66.5977L11.1506 58.3272C11.1558 58.3226 11.1604 58.3174 11.165 58.3128C11.1696 58.3076 11.1748 58.303 11.1794 58.2984L38.0171 31.4601L28.5448 21.9878L2.8807 47.2486ZM52.715 42.6124L61.1445 51.0419L78.0772 34.1097C78.0911 34.0959 78.1055 34.0821 78.1193 34.0688V17.2081L52.715 42.6124ZM2.8807 23.7415V43.2064L14.2871 31.9792L4.5129 22.2044L2.8807 23.7415ZM6.61062 20.2283L16.3405 29.9581L43.7532 2.97634H24.9267L6.61062 20.2283ZM30.5976 19.9667L40.0544 29.4234L66.5977 2.8807H47.9567L30.5976 19.9667ZM60.4318 13.1204L69.2825 21.9711L78.1193 13.1342V2.8807H70.6715L60.4318 13.1204ZM2.8807 2.8807V19.7846L3.41939 19.2776C3.44992 19.2407 3.48161 19.2056 3.51618 19.171C3.57149 19.1157 3.63025 19.0656 3.6919 19.0212L20.8263 2.8807H2.8807Z" fill="#342F2C"/>
</g>
<defs>
<clipPath id="clip0_604_190">
<rect width="81" height="81" fill="white"/>
</clipPath>
</defs>
</svg>
