<svg width="191" height="225" viewBox="0 0 191 225" fill="none" xmlns="http://www.w3.org/2000/svg">
<g clip-path="url(#clip0_604_284)">
<path d="M209.601 161.167L95.3897 225L-18.8213 161.167V0H209.601V161.167Z" fill="#FFFBEF"/>
<path d="M26.875 127.903C26.631 127.903 26.5091 128.057 26.5091 128.366C26.5091 128.447 26.5172 128.545 26.5334 128.659C26.566 128.773 26.631 128.96 26.7286 129.22L29.3389 136.002H29.3877L31.9736 129.122C32.0549 128.911 32.1037 128.756 32.12 128.659C32.1525 128.545 32.1688 128.447 32.1688 128.366C32.1688 128.057 32.063 127.903 31.8516 127.903V127.464H36.0232V127.903C35.9094 127.903 35.828 127.943 35.7793 128.025C35.7305 128.106 35.7061 128.195 35.7061 128.293C35.7061 128.456 35.7874 128.732 35.95 129.122L38.5603 136.002H38.6091L41.2438 128.976C41.3576 128.732 41.4146 128.512 41.4146 128.317C41.4146 128.22 41.3739 128.13 41.2926 128.049C41.2113 127.951 41.1137 127.903 40.9998 127.903V127.464H44.6103V127.903C44.4314 127.903 44.2932 128 44.1956 128.195C44.1143 128.391 44.0167 128.634 43.9029 128.927L40.39 138.246C40.2924 138.506 40.2029 138.734 40.1216 138.929C40.0566 139.124 40.024 139.287 40.024 139.417C40.024 139.531 40.0647 139.637 40.146 139.734C40.2273 139.816 40.3412 139.856 40.4875 139.856V140.295H36.6331V139.856C36.7307 139.824 36.8282 139.775 36.9258 139.71C37.0397 139.645 37.0966 139.555 37.0966 139.442C37.0966 139.311 37.0641 139.165 36.999 139.002C36.9502 138.84 36.8608 138.612 36.7307 138.319L33.9252 131.123H33.8764L31.2173 138.173C30.9734 138.807 30.8514 139.206 30.8514 139.368C30.8514 139.629 30.9571 139.791 31.1685 139.856V140.295H27.3873V139.856C27.4849 139.856 27.5824 139.832 27.68 139.783C27.7776 139.734 27.8264 139.653 27.8264 139.539C27.8264 139.409 27.7939 139.271 27.7288 139.124C27.68 138.978 27.6231 138.824 27.558 138.661L23.6548 128.586C23.5898 128.407 23.5166 128.26 23.4353 128.147C23.3702 128.016 23.2564 127.935 23.0937 127.903V127.464H26.875V127.903ZM54.8645 129.561C54.2465 129.561 53.6285 129.659 53.0105 129.854C52.3925 130.049 51.8314 130.334 51.3272 130.708C50.8393 131.066 50.4409 131.513 50.1319 132.05C49.8229 132.587 49.6684 133.196 49.6684 133.879C49.6684 134.563 49.8229 135.172 50.1319 135.709C50.4409 136.246 50.8393 136.701 51.3272 137.075C51.8314 137.433 52.3925 137.71 53.0105 137.905C53.6285 138.1 54.2465 138.197 54.8645 138.197C55.4826 138.197 56.1006 138.1 56.7186 137.905C57.3366 137.71 57.8896 137.433 58.3775 137.075C58.8816 136.701 59.2882 136.246 59.5972 135.709C59.9062 135.172 60.0607 134.563 60.0607 133.879C60.0607 133.196 59.9062 132.587 59.5972 132.05C59.2882 131.513 58.8816 131.066 58.3775 130.708C57.8896 130.334 57.3366 130.049 56.7186 129.854C56.1006 129.659 55.4826 129.561 54.8645 129.561ZM54.8645 127.317C55.759 127.317 56.6698 127.455 57.5968 127.732C58.5238 127.992 59.3695 128.391 60.1339 128.927C60.8983 129.464 61.5245 130.147 62.0124 130.976C62.5003 131.79 62.7442 132.757 62.7442 133.879C62.7442 135.002 62.5003 135.977 62.0124 136.807C61.5245 137.62 60.8983 138.295 60.1339 138.832C59.3695 139.368 58.5238 139.759 57.5968 140.003C56.6698 140.247 55.759 140.369 54.8645 140.369C53.9701 140.369 53.0593 140.247 52.1323 140.003C51.2053 139.759 50.3596 139.368 49.5952 138.832C48.8308 138.295 48.2046 137.62 47.7167 136.807C47.2288 135.977 46.9849 135.002 46.9849 133.879C46.9849 132.757 47.2288 131.79 47.7167 130.976C48.2046 130.147 48.8308 129.464 49.5952 128.927C50.3596 128.391 51.2053 127.992 52.1323 127.732C53.0593 127.455 53.9701 127.317 54.8645 127.317ZM73.8519 129.561C73.2339 129.561 72.6158 129.659 71.9978 129.854C71.3798 130.049 70.8187 130.334 70.3146 130.708C69.8267 131.066 69.4282 131.513 69.1192 132.05C68.8102 132.587 68.6557 133.196 68.6557 133.879C68.6557 134.563 68.8102 135.172 69.1192 135.709C69.4282 136.246 69.8267 136.701 70.3146 137.075C70.8187 137.433 71.3798 137.71 71.9978 137.905C72.6158 138.1 73.2339 138.197 73.8519 138.197C74.4699 138.197 75.0879 138.1 75.7059 137.905C76.3239 137.71 76.8769 137.433 77.3648 137.075C77.869 136.701 78.2755 136.246 78.5846 135.709C78.8936 135.172 79.0481 134.563 79.0481 133.879C79.0481 133.196 78.8936 132.587 78.5846 132.05C78.2755 131.513 77.869 131.066 77.3648 130.708C76.8769 130.334 76.3239 130.049 75.7059 129.854C75.0879 129.659 74.4699 129.561 73.8519 129.561ZM73.8519 127.317C74.7464 127.317 75.6571 127.455 76.5841 127.732C77.5112 127.992 78.3569 128.391 79.1212 128.927C79.8856 129.464 80.5118 130.147 80.9997 130.976C81.4876 131.79 81.7315 132.757 81.7315 133.879C81.7315 135.002 81.4876 135.977 80.9997 136.807C80.5118 137.62 79.8856 138.295 79.1212 138.832C78.3569 139.368 77.5112 139.759 76.5841 140.003C75.6571 140.247 74.7464 140.369 73.8519 140.369C72.9574 140.369 72.0466 140.247 71.1196 140.003C70.1926 139.759 69.3469 139.368 68.5825 138.832C67.8181 138.295 67.192 137.62 66.7041 136.807C66.2162 135.977 65.9722 135.002 65.9722 133.879C65.9722 132.757 66.2162 131.79 66.7041 130.976C67.192 130.147 67.8181 129.464 68.5825 128.927C69.3469 128.391 70.1926 127.992 71.1196 127.732C72.0466 127.455 72.9574 127.317 73.8519 127.317ZM92.2781 138.197C93.0425 138.197 93.7093 138.132 94.2785 138.002C94.8477 137.872 95.3194 137.644 95.6934 137.319C96.0675 136.978 96.344 136.53 96.5229 135.977C96.718 135.424 96.8156 134.725 96.8156 133.879C96.8156 133.034 96.718 132.334 96.5229 131.781C96.344 131.229 96.0675 130.789 95.6934 130.464C95.3194 130.123 94.8477 129.887 94.2785 129.757C93.7093 129.627 93.0425 129.561 92.2781 129.561H88.4968V138.197H92.2781ZM93.2539 127.464C94.1484 127.464 94.9779 127.594 95.7422 127.854C96.5229 128.114 97.1978 128.512 97.767 129.049C98.3363 129.57 98.7835 130.236 99.1088 131.05C99.4341 131.847 99.5967 132.79 99.5967 133.879C99.5967 134.969 99.4341 135.921 99.1088 136.734C98.7835 137.531 98.3363 138.197 97.767 138.734C97.1978 139.255 96.5229 139.645 95.7422 139.905C94.9779 140.165 94.1484 140.295 93.2539 140.295H85.1547V139.856C85.5288 139.856 85.7158 139.71 85.7158 139.417V128.342C85.7158 128.049 85.5288 127.903 85.1547 127.903V127.464H93.2539ZM114.958 140.759C114.958 140.515 114.877 140.377 114.714 140.344C114.568 140.312 114.372 140.295 114.128 140.295H102.516V139.856C103.004 139.856 103.248 139.71 103.248 139.417V128.342C103.248 128.049 103.004 127.903 102.516 127.903V127.464H106.712V127.903C106.257 127.903 106.029 128.049 106.029 128.342V138.051H114.128C114.372 138.051 114.568 137.994 114.714 137.88C114.877 137.766 114.958 137.612 114.958 137.417H115.397V140.759H114.958ZM125.578 135.319L123.529 130.781L121.235 135.319H125.578ZM116.381 139.856C116.592 139.824 116.755 139.718 116.869 139.539C116.999 139.36 117.121 139.157 117.235 138.929L121.748 129.44C121.862 129.228 121.959 129.033 122.041 128.854C122.138 128.675 122.187 128.521 122.187 128.391C122.187 128.228 122.13 128.114 122.016 128.049C121.902 127.984 121.78 127.935 121.65 127.903V127.464H125.773V127.903C125.659 127.935 125.545 127.984 125.431 128.049C125.318 128.098 125.261 128.212 125.261 128.391C125.261 128.521 125.285 128.651 125.334 128.781C125.399 128.911 125.488 129.082 125.602 129.293L130.676 139.222C130.758 139.401 130.863 139.531 130.994 139.612C131.14 139.694 131.303 139.775 131.481 139.856V140.295H127.188V139.856C127.253 139.856 127.334 139.832 127.432 139.783C127.529 139.734 127.578 139.661 127.578 139.564C127.578 139.401 127.513 139.189 127.383 138.929L126.456 137.124H120.504L119.625 138.856C119.463 139.198 119.381 139.442 119.381 139.588C119.381 139.767 119.536 139.856 119.845 139.856V140.295H116.381V139.856ZM134.36 139.856C134.669 139.856 134.823 139.71 134.823 139.417V128.342C134.823 128.049 134.669 127.903 134.36 127.903V127.464H138.532V127.903C138.401 127.903 138.336 127.984 138.336 128.147C138.336 128.277 138.499 128.504 138.824 128.83L145.826 136.099V128.342C145.826 128.049 145.614 127.903 145.191 127.903V127.464H148.875V127.903C148.566 127.903 148.412 128.049 148.412 128.342V139.417C148.412 139.71 148.566 139.856 148.875 139.856V140.295H144.923V139.856C145.135 139.856 145.24 139.783 145.24 139.637C145.24 139.523 145.11 139.336 144.85 139.076L137.409 131.318V139.417C137.409 139.71 137.596 139.856 137.97 139.856V140.295H134.36V139.856ZM160.056 138.197C160.82 138.197 161.487 138.132 162.056 138.002C162.626 137.872 163.097 137.644 163.471 137.319C163.845 136.978 164.122 136.53 164.301 135.977C164.496 135.424 164.593 134.725 164.593 133.879C164.593 133.034 164.496 132.334 164.301 131.781C164.122 131.229 163.845 130.789 163.471 130.464C163.097 130.123 162.626 129.887 162.056 129.757C161.487 129.627 160.82 129.561 160.056 129.561H156.275V138.197H160.056ZM161.032 127.464C161.926 127.464 162.756 127.594 163.52 127.854C164.301 128.114 164.976 128.512 165.545 129.049C166.114 129.57 166.561 130.236 166.887 131.05C167.212 131.847 167.375 132.79 167.375 133.879C167.375 134.969 167.212 135.921 166.887 136.734C166.561 137.531 166.114 138.197 165.545 138.734C164.976 139.255 164.301 139.645 163.52 139.905C162.756 140.165 161.926 140.295 161.032 140.295H152.933V139.856C153.307 139.856 153.494 139.71 153.494 139.417V128.342C153.494 128.049 153.307 127.903 152.933 127.903V127.464H161.032Z" fill="#BA9E76"/>
<path d="M60.86 152.932C60.86 152.773 60.8177 152.668 60.7331 152.615C60.6167 152.53 60.4528 152.488 60.2412 152.488H56.862V155.724C56.862 155.841 56.8885 155.936 56.9413 156.01C56.9942 156.073 57.0947 156.105 57.2428 156.105V156.295H55.1486V156.105C55.2967 156.105 55.3972 156.073 55.45 156.01C55.5029 155.936 55.5294 155.841 55.5294 155.724V148.522C55.5294 148.405 55.5029 148.315 55.45 148.252C55.3972 148.178 55.2967 148.141 55.1486 148.141V147.95H61.9705C62.2455 147.95 62.42 147.929 62.4941 147.887C62.5681 147.834 62.6051 147.749 62.6051 147.633H62.7955V149.442H62.6051C62.6051 149.304 62.5628 149.198 62.4782 149.124C62.3936 149.04 62.2297 148.998 61.9864 148.998H56.862V151.441H60.2254C60.5004 151.441 60.6749 151.42 60.7489 151.377C60.823 151.324 60.86 151.24 60.86 151.123H61.0504V152.932H60.86ZM72.1452 154.074C72.1452 154.519 72.0394 154.889 71.8279 155.185C71.6163 155.481 71.3413 155.719 71.0029 155.899C70.6644 156.068 70.289 156.184 69.8765 156.248C69.464 156.311 69.0568 156.343 68.6549 156.343C68.253 156.343 67.8458 156.311 67.4333 156.248C67.0208 156.184 66.6453 156.068 66.3069 155.899C65.9684 155.719 65.6934 155.481 65.4819 155.185C65.2703 154.889 65.1646 154.519 65.1646 154.074V149.949C65.1646 149.77 65.1434 149.653 65.1011 149.6C65.0588 149.537 64.9689 149.505 64.8314 149.505V149.315H66.4814V149.505C66.3439 149.505 66.254 149.537 66.2117 149.6C66.1694 149.653 66.1482 149.77 66.1482 149.949V153.868C66.1482 154.471 66.3756 154.894 66.8304 155.137C67.2852 155.381 67.8934 155.502 68.6549 155.502C69.4164 155.502 70.0245 155.381 70.4793 155.137C70.9341 154.894 71.1615 154.471 71.1615 153.868V149.949C71.1615 149.77 71.1404 149.653 71.0981 149.6C71.0558 149.537 70.9659 149.505 70.8284 149.505V149.315H72.4783V149.505C72.3408 149.505 72.2509 149.537 72.2086 149.6C72.1663 149.653 72.1452 149.77 72.1452 149.949V154.074ZM76.8093 155.661C76.8093 155.841 76.8305 155.962 76.8728 156.026C76.9257 156.079 77.0367 156.105 77.2059 156.105V156.295H75.4291V156.105C75.5983 156.105 75.7041 156.079 75.7464 156.026C75.7993 155.962 75.8257 155.841 75.8257 155.661V149.949C75.8257 149.77 75.7993 149.653 75.7464 149.6C75.7041 149.537 75.5983 149.505 75.4291 149.505V149.315H80.2837C80.9818 149.315 81.4895 149.489 81.8068 149.838C82.1241 150.187 82.2827 150.663 82.2827 151.266C82.2827 151.88 82.1135 152.345 81.775 152.662C81.4472 152.969 80.9765 153.133 80.3631 153.154L82.1082 155.819C82.1822 155.936 82.2457 156.015 82.2986 156.057C82.3515 156.089 82.4202 156.105 82.5048 156.105V156.295H80.7914V156.105C80.9078 156.105 80.9765 156.1 80.9977 156.089C81.0294 156.068 81.0453 156.031 81.0453 155.978C81.0453 155.925 81.0294 155.872 80.9977 155.819C80.9659 155.767 80.9236 155.693 80.8707 155.597L79.316 153.154H76.8093V155.661ZM80.1886 152.266C80.5693 152.266 80.839 152.181 80.9977 152.012C81.1563 151.843 81.2356 151.584 81.2356 151.234C81.2356 150.854 81.151 150.579 80.9818 150.41C80.8232 150.23 80.5059 150.14 80.0299 150.14H76.8093V152.266H80.1886ZM85.096 156.105C85.2653 156.105 85.3763 156.079 85.4292 156.026C85.4926 155.962 85.5244 155.841 85.5244 155.661V149.949C85.5244 149.77 85.4926 149.653 85.4292 149.6C85.3763 149.537 85.2653 149.505 85.096 149.505V149.315H87.4123V149.505C87.2431 149.505 87.1267 149.521 87.0633 149.553C87.0104 149.574 86.984 149.606 86.984 149.648C86.984 149.68 87.0421 149.77 87.1585 149.918L91.4579 154.852V149.949C91.4579 149.77 91.4261 149.653 91.3627 149.6C91.3098 149.537 91.1987 149.505 91.0295 149.505V149.315H92.7747V149.505C92.6054 149.505 92.4891 149.537 92.4256 149.6C92.3727 149.653 92.3463 149.77 92.3463 149.949V155.661C92.3463 155.841 92.3727 155.962 92.4256 156.026C92.4891 156.079 92.6054 156.105 92.7747 156.105V156.295H90.6488V156.105C90.8603 156.105 90.9872 156.094 91.0295 156.073C91.0718 156.052 91.093 156.015 91.093 155.962C91.093 155.909 91.0718 155.867 91.0295 155.835C90.9978 155.793 90.9555 155.74 90.9026 155.677L86.4128 150.552V155.661C86.4128 155.841 86.4393 155.962 86.4921 156.026C86.5556 156.079 86.6719 156.105 86.8412 156.105V156.295H85.096V156.105ZM95.9634 156.105C96.1326 156.105 96.2384 156.079 96.2807 156.026C96.3336 155.962 96.36 155.841 96.36 155.661V149.949C96.36 149.77 96.3336 149.653 96.2807 149.6C96.2384 149.537 96.1326 149.505 95.9634 149.505V149.315H97.7403V149.505C97.571 149.505 97.46 149.537 97.4071 149.6C97.3648 149.653 97.3436 149.77 97.3436 149.949V155.661C97.3436 155.841 97.3648 155.962 97.4071 156.026C97.46 156.079 97.571 156.105 97.7403 156.105V156.295H95.9634V156.105ZM106.847 150.584C106.847 150.447 106.82 150.351 106.768 150.298C106.715 150.235 106.609 150.203 106.45 150.203H103.991V155.661C103.991 155.841 104.012 155.962 104.055 156.026C104.108 156.079 104.219 156.105 104.388 156.105V156.295H102.547V156.105C102.717 156.105 102.822 156.079 102.865 156.026C102.918 155.962 102.944 155.841 102.944 155.661V150.203H100.485C100.326 150.203 100.221 150.235 100.168 150.298C100.115 150.351 100.088 150.447 100.088 150.584H99.898V148.934H100.088C100.088 149.072 100.115 149.172 100.168 149.236C100.221 149.288 100.326 149.315 100.485 149.315H106.45C106.609 149.315 106.715 149.288 106.768 149.236C106.82 149.172 106.847 149.072 106.847 148.934H107.037V150.584H106.847ZM116.223 154.074C116.223 154.519 116.117 154.889 115.906 155.185C115.694 155.481 115.419 155.719 115.081 155.899C114.742 156.068 114.367 156.184 113.954 156.248C113.542 156.311 113.135 156.343 112.733 156.343C112.331 156.343 111.924 156.311 111.511 156.248C111.099 156.184 110.723 156.068 110.385 155.899C110.046 155.719 109.771 155.481 109.56 155.185C109.348 154.889 109.242 154.519 109.242 154.074V149.949C109.242 149.77 109.221 149.653 109.179 149.6C109.137 149.537 109.047 149.505 108.909 149.505V149.315H110.559V149.505C110.422 149.505 110.332 149.537 110.29 149.6C110.247 149.653 110.226 149.77 110.226 149.949V153.868C110.226 154.471 110.453 154.894 110.908 155.137C111.363 155.381 111.971 155.502 112.733 155.502C113.494 155.502 114.102 155.381 114.557 155.137C115.012 154.894 115.239 154.471 115.239 153.868V149.949C115.239 149.77 115.218 149.653 115.176 149.6C115.134 149.537 115.044 149.505 114.906 149.505V149.315H116.556V149.505C116.419 149.505 116.329 149.537 116.286 149.6C116.244 149.653 116.223 149.77 116.223 149.949V154.074ZM120.887 155.661C120.887 155.841 120.908 155.962 120.951 156.026C121.004 156.079 121.115 156.105 121.284 156.105V156.295H119.507V156.105C119.676 156.105 119.782 156.079 119.824 156.026C119.877 155.962 119.904 155.841 119.904 155.661V149.949C119.904 149.77 119.877 149.653 119.824 149.6C119.782 149.537 119.676 149.505 119.507 149.505V149.315H124.362C125.06 149.315 125.567 149.489 125.885 149.838C126.202 150.187 126.361 150.663 126.361 151.266C126.361 151.88 126.191 152.345 125.853 152.662C125.525 152.969 125.054 153.133 124.441 153.154L126.186 155.819C126.26 155.936 126.324 156.015 126.376 156.057C126.429 156.089 126.498 156.105 126.583 156.105V156.295H124.869V156.105C124.986 156.105 125.054 156.1 125.076 156.089C125.107 156.068 125.123 156.031 125.123 155.978C125.123 155.925 125.107 155.872 125.076 155.819C125.044 155.767 125.002 155.693 124.949 155.597L123.394 153.154H120.887V155.661ZM124.266 152.266C124.647 152.266 124.917 152.181 125.076 152.012C125.234 151.843 125.314 151.584 125.314 151.234C125.314 150.854 125.229 150.579 125.06 150.41C124.901 150.23 124.584 150.14 124.108 150.14H120.887V152.266H124.266ZM129.571 149.949C129.571 149.77 129.544 149.653 129.491 149.6C129.449 149.537 129.354 149.505 129.206 149.505V149.315H135.599C135.758 149.315 135.864 149.288 135.917 149.236C135.969 149.172 135.996 149.072 135.996 148.934H136.186V150.584H135.996C135.996 150.447 135.969 150.351 135.917 150.298C135.864 150.235 135.758 150.203 135.599 150.203H130.618V152.266H134.124C134.282 152.266 134.388 152.239 134.441 152.186C134.494 152.123 134.52 152.022 134.52 151.885H134.711V153.535H134.52C134.52 153.397 134.494 153.302 134.441 153.249C134.388 153.186 134.282 153.154 134.124 153.154H130.618V155.407H135.774C135.932 155.407 136.038 155.381 136.091 155.328C136.144 155.264 136.17 155.164 136.17 155.026H136.361V156.629H136.17C136.17 156.491 136.144 156.401 136.091 156.359C136.038 156.317 135.932 156.295 135.774 156.295H129.206V156.105C129.354 156.105 129.449 156.079 129.491 156.026C129.544 155.962 129.571 155.841 129.571 155.661V149.949Z" fill="#342F2C"/>
<path d="M111.265 42H59.7412V110.76H128.501V42H111.265ZM61.4067 43.6655H79.1913C76.3224 45.5888 74.4581 47.6572 72.2715 50.0855C70.0402 52.564 67.4543 55.4347 63.0094 58.9268C62.4883 59.3351 61.9511 59.7129 61.4067 60.0568V43.6655ZM126.836 109.095H93.1274C93.824 108.488 94.56 107.977 95.3265 107.542C97.0528 106.559 98.9672 105.93 100.921 105.4C105.491 104.159 111.311 101.759 116.999 98.7939C120.427 97.0067 123.808 95.0135 126.836 92.9451V109.095ZM126.836 90.3377C123.584 92.6622 119.828 94.9132 116.012 96.9028C110.475 99.7896 104.809 102.127 100.362 103.334C98.2706 103.901 96.2058 104.584 94.2717 105.685C92.7746 106.537 91.376 107.63 90.1367 109.095H71.5409C76.1701 97.8161 88.3208 96.0343 99.8035 94.3509L99.9826 94.324C103.36 93.828 112.345 91.1883 117.101 88.8406C118.475 88.1636 119.544 87.4813 120.111 86.8348C121.155 85.6529 121.103 84.6142 119.537 83.8281C118.496 83.3051 116.309 82.9989 112.579 83.0276L112.466 83.0347C98.4264 84.6017 90.7331 84.4477 87.4899 83.5666C86.6589 83.341 86.2847 83.2335 86.2847 83.2246C86.3169 83.0061 86.8864 82.6354 87.8767 82.1716C91.3043 80.5616 98.5303 79.1505 106.668 79.5015C107.021 79.5444 116.256 80.6279 126.836 74.4424V90.3377ZM126.836 71.946C116.268 78.6114 106.936 77.3793 106.908 77.3758L106.829 77.3722C98.31 76.9943 90.6507 78.5129 86.9723 80.2375C85.3123 81.0165 84.3112 81.9477 84.1679 82.9165C83.9942 84.0949 84.8359 85.0637 86.9294 85.6314C90.3821 86.5698 98.3458 86.7596 112.667 85.1604C115.643 85.1407 117.431 85.3144 118.312 85.6225C117.882 86.0021 117.126 86.4462 116.155 86.9244C111.571 89.188 102.921 91.7309 99.6728 92.2073L99.4937 92.2341C87.1264 94.0465 74.0248 95.968 69.2433 109.095H61.4067V96.6915C62.7408 95.608 64.2415 94.6428 65.676 93.7205C69.6856 91.1382 73.2404 88.8513 72.4506 84.9008C72.4417 84.8542 72.4291 84.8076 72.4148 84.7647C70.4664 78.8568 74.5942 75.4094 81.5515 73.1082C88.0683 70.9539 96.9705 69.7899 105.876 68.624C113.287 67.6534 120.701 66.6828 126.836 65.1373V71.946ZM126.836 62.9364C120.736 64.5267 113.167 65.517 105.6 66.5073C96.5783 67.6874 87.5597 68.8676 80.8836 71.0757C72.7389 73.7691 67.9539 77.9614 70.359 85.3664C70.8174 87.8681 67.859 89.7736 64.5209 91.9225C63.493 92.5834 62.431 93.2657 61.4067 94.0053V62.546C62.4042 61.9837 63.3981 61.3426 64.3311 60.6084C68.9173 57.0052 71.5695 54.0593 73.86 51.5164C76.6232 48.4505 78.8403 45.9881 83.4659 43.6655H103.679C93.7058 48.9931 82.4219 55.5618 75.8496 59.387L74.4993 60.1732C72.0781 61.5808 70.0975 63.2856 69.2737 64.6968C68.8475 65.4292 68.6827 66.1438 68.8439 66.801C69.0248 67.5424 69.5549 68.1011 70.4968 68.4056C71.7504 68.8085 73.9925 68.7422 77.5168 67.9292C84.9827 66.2047 91.3688 64.002 97.5811 61.8583C106.782 58.685 115.602 55.6424 126.836 54.55V62.9364ZM96.8881 59.8347C90.7116 61.964 84.3631 64.1542 77.0405 65.8447C73.9209 66.5664 72.062 66.6667 71.1505 66.3712L70.9177 66.2996C70.898 66.2172 70.9732 66.0327 71.1236 65.7749C71.7701 64.6663 73.4571 63.2498 75.5702 62.0213L76.9187 61.2369C84.2861 56.9479 97.5811 49.2116 108.258 43.6655H126.836V52.4046C115.253 53.5006 106.265 56.6005 96.8881 59.8347Z" fill="#342F2C"/>
</g>
<defs>
<clipPath id="clip0_604_284">
<rect width="190.779" height="225" fill="white"/>
</clipPath>
</defs>
</svg>
