<svg width="70" height="85" viewBox="0 0 70 85" fill="none" xmlns="http://www.w3.org/2000/svg">
<path fill-rule="evenodd" clip-rule="evenodd" d="M41.0965 82.4671C51.0027 74.3535 69.5 56.3849 69.5 35.3335C69.5 16.2797 54.0538 0.833496 35 0.833496C15.9462 0.833496 0.5 16.2797 0.5 35.3335C0.5 56.3849 18.9973 74.3535 28.9035 82.4671C32.4951 85.4088 37.5049 85.4088 41.0965 82.4671ZM35 43.0002C41.3513 43.0002 46.5 37.8514 46.5 31.5002C46.5 25.1489 41.3513 20.0002 35 20.0002C28.6487 20.0002 23.5 25.1489 23.5 31.5002C23.5 37.8514 28.6487 43.0002 35 43.0002Z" fill="#FFFBEF"/>
</svg>
