<svg width="57" height="57" viewBox="0 0 57 57" fill="none" xmlns="http://www.w3.org/2000/svg">
    <g clip-path="url(#vp5gzxyzea)">
        <path d="m36.523 21.606 7.869-7.87H57V9.47a5.759 5.759 0 0 0-5.752-5.752H5.752A5.759 5.759 0 0 0 0 9.469v4.268h23.49v27.168c0 4.984-4.054 9.038-9.037 9.038H9.977v3.34H47.12v-3.34h-4.488c-4.998 0-9.065-4.054-9.065-9.038V18.65l2.956 2.957zm14.55-14.55h.175A2.415 2.415 0 0 1 53.66 9.47v.928h-5.928l3.34-3.34zM3.34 10.397V9.47a2.415 2.415 0 0 1 2.412-2.412h16.222l3.34 3.34H3.34zm30.826 39.547H22.9a12.345 12.345 0 0 0 3.93-9.038V13.737h1.824l1.573 1.572v25.596c0 3.563 1.517 6.778 3.939 9.038zM26.697 7.057H46.35l-9.826 9.826-9.826-9.826z" fill="rgb(52, 47, 44)"/>
    </g>
    <defs>
        <clipPath id="vp5gzxyzea">
            <path fill="rgb(52, 47, 44)" d="M0 0h57v57H0z"/>
        </clipPath>
    </defs>
</svg>
