<svg width="53" height="53" viewBox="0 0 53 53" fill="none" xmlns="http://www.w3.org/2000/svg">
<g clip-path="url(#clip0_604_118)">
<path d="M46.789 21.8416C46.2511 21.8416 45.729 21.9109 45.2309 22.0401L46.3125 10.0269C46.313 10.0216 46.3134 10.0162 46.3138 10.0109C46.6707 5.66613 43.5706 1.76898 39.2562 1.13846C35.7021 0.619023 30.5861 0 26.3967 0C22.2287 0 17.2062 0.612812 13.7268 1.12697C9.42217 1.76287 6.32912 5.65899 6.68542 9.99681C6.68584 10.0023 6.68636 10.0076 6.68687 10.013L7.76965 22.0401C7.27143 21.9109 6.7494 21.8416 6.21132 21.8416C2.78661 21.8416 0.000488281 24.6278 0.000488281 28.0524C0.000488281 36.7322 5.47823 42.4098 7.97595 44.5473L6.2932 50.3527C5.97489 51.4509 6.60717 52.5992 7.70536 52.9175C7.8979 52.9733 8.09179 52.9999 8.28267 52.9999C9.18056 52.9999 10.0077 52.4111 10.2702 51.5054L11.9075 45.8569H41.0931L42.7304 51.5054C42.993 52.4112 43.8199 52.9999 44.7179 52.9999C44.9087 52.9999 45.1028 52.9733 45.2952 52.9175C46.3934 52.5992 47.0256 51.4509 46.7074 50.3527L44.6371 43.2102C44.3694 42.2868 43.5144 41.6953 42.5965 41.719C42.5793 41.7186 42.5625 41.7164 42.5451 41.7164H11.0515C10.3701 41.1654 9.05873 40.0058 7.76716 38.3116C5.36104 35.1555 4.14101 31.7037 4.14101 28.0523C4.14101 26.9107 5.06975 25.982 6.21132 25.982C7.35289 25.982 8.28164 26.9107 8.28164 28.0523C8.28164 28.1341 8.2865 28.2158 8.29613 28.297L8.43784 29.4875C8.4778 30.796 9.07353 32.0169 10.0861 32.8546C11.1358 33.7233 12.5056 34.0752 13.8447 33.8203C18.7941 32.8778 23.052 32.4 26.5003 32.4C29.9486 32.4 34.2065 32.8778 39.1558 33.8203C40.4948 34.0757 41.8646 33.7234 42.9144 32.8547C43.927 32.0169 44.5228 30.796 44.5627 29.4876L44.7044 28.2971C44.7141 28.2159 44.7189 28.1342 44.7189 28.0524C44.7189 26.9109 45.6477 25.9821 46.7892 25.9821C47.9308 25.9821 48.8596 26.9109 48.8596 28.0524C48.8596 30.5887 48.258 33.0595 47.0716 35.3963C46.5541 36.416 46.961 37.662 47.9805 38.1796C49.0003 38.6975 50.2461 38.2902 50.7637 37.2708C52.2477 34.3476 53.0002 31.2462 53.0002 28.0524C53 24.6278 50.2137 21.8416 46.789 21.8416ZM42.1878 9.66484L40.4326 29.1611C40.432 29.1672 40.4323 29.1732 40.4318 29.1793C40.4273 29.235 40.4242 29.2908 40.4242 29.3467C40.4242 29.5073 40.3428 29.6084 40.2746 29.6648C40.2058 29.7219 40.0899 29.7838 39.9304 29.7529C34.7264 28.7619 30.2078 28.2595 26.5002 28.2595C22.7926 28.2595 18.2741 28.7619 13.07 29.753C12.9102 29.7832 12.7946 29.7218 12.7258 29.6648C12.6576 29.6084 12.5762 29.5073 12.5762 29.3467C12.5762 29.2908 12.5731 29.235 12.5685 29.1793C12.568 29.1732 12.5684 29.1672 12.5678 29.1611L10.8115 9.65086C10.6372 7.4847 12.1824 5.54047 14.332 5.22298C17.6742 4.72932 22.4803 4.14062 26.3967 4.14062C30.3374 4.14062 35.2392 4.73605 38.6575 5.23561C40.8129 5.55051 42.3622 7.49536 42.1878 9.66484Z" fill="#342F2C"/>
</g>
<defs>
<clipPath id="clip0_604_118">
<rect width="53" height="53" fill="white"/>
</clipPath>
</defs>
</svg>
