<svg width="71" height="71" viewBox="0 0 71 71" fill="none" xmlns="http://www.w3.org/2000/svg">
<path d="M64.4125 32.2291V16.418C64.4125 12.9322 61.5766 10.0962 58.0908 10.0962H12.9092C9.42345 10.0962 6.58747 12.9322 6.58747 16.418V32.2291C2.79396 33.2792 0 36.7599 0 40.8829V52.8964C0 54.0604 0.943801 55.0042 2.10781 55.0042H6.58747V58.7961C6.58747 59.9601 7.53127 60.9039 8.69528 60.9039C9.85929 60.9039 10.8031 59.9601 10.8031 58.7961V55.0042H60.1969V58.7961C60.1969 59.9601 61.1407 60.9039 62.3047 60.9039C63.4687 60.9039 64.4125 59.9601 64.4125 58.7961V55.0042H68.8922C70.0562 55.0042 71 54.0604 71 52.8964V40.8829C71 36.7599 68.2059 33.2792 64.4125 32.2291ZM10.8031 16.418C10.8031 15.2567 11.748 14.3118 12.9092 14.3118H58.0909C59.2521 14.3118 60.197 15.2567 60.197 16.418V31.9029H55.2582V27.6719C55.2582 23.9928 52.2652 20.9997 48.586 20.9997H40.0645C38.3001 20.9997 36.6945 21.6893 35.5001 22.8118C34.3058 21.6894 32.7002 20.9997 30.9358 20.9997H22.4142C18.7351 20.9997 15.742 23.9929 15.742 27.6719V31.9029H10.8031V16.418ZM51.0426 27.6719V31.9029H37.6078V27.6719C37.6078 26.3172 38.71 25.2153 40.0644 25.2153H48.5859C49.9406 25.2153 51.0426 26.3173 51.0426 27.6719ZM33.392 27.6719V31.9029H19.9572V27.6719C19.9572 26.3172 21.0594 25.2153 22.4138 25.2153H30.9353C32.29 25.2153 33.392 26.3173 33.392 27.6719ZM66.7844 50.7886H4.21562V40.8829C4.21562 38.2559 6.35284 36.1185 8.97998 36.1185H62.02C64.647 36.1185 66.7844 38.2557 66.7844 40.8829V50.7886Z" fill="#342F2C"/>
</svg>
