<svg width="727" height="862" viewBox="0 0 727 862" fill="none" xmlns="http://www.w3.org/2000/svg">
<g opacity="0.15">
<path d="M420.733 590.431C423.937 584.157 427.399 577.849 430.758 571.731C439.37 555.927 448.396 539.571 453.976 522.009C470.925 468.581 452.891 406.018 410.123 369.842C391.486 354.09 369.129 343.404 349.39 333.977C321.555 320.689 296.322 309.848 269.193 312.019C256.206 313.053 243.736 317.19 231.679 321.119C222.209 324.513 212.495 327.181 202.621 329.099C182.779 332.443 162.178 329.53 142.336 326.721C124.56 324.204 106.165 321.55 88.0275 323.274C42.0212 327.548 -1.74592 358.329 -45.737 417.428C-51.7999 425.58 -57.794 434.042 -63.7192 442.246C-89.8658 478.835 -116.908 516.666 -155.146 540.036C-168.03 547.912 -182.188 554.1 -195.882 560.097C-205.235 564.182 -214.829 568.405 -224.164 573.162C-235.36 578.918 -250.724 588.363 -254.755 603.926C-257.356 613.939 -254.651 624.452 -251.672 633.414C-246.022 650.356 -238.168 666.953 -230.572 682.999C-216.792 712.298 -202.41 742.511 -201.91 774.809C-201.445 805.504 -213.864 836.734 -236.204 861.793H-229.314C-208.008 836.372 -196.261 805.315 -196.726 774.723C-197.243 741.305 -211.797 710.54 -225.887 680.793C-233.414 664.885 -241.199 648.426 -246.745 631.777C-249.484 623.539 -251.999 613.939 -249.742 605.218C-246.298 591.672 -232.105 583.054 -221.787 577.763C-212.675 573.075 -203.082 568.887 -193.798 564.837C-180.018 558.77 -165.619 552.514 -152.459 544.448C-113.308 520.526 -85.9559 482.265 -59.4476 445.245C-53.6085 437.075 -47.5627 428.63 -41.517 420.513C1.54396 362.673 44.1053 332.615 88.5614 328.41C106.13 326.79 124.199 329.34 141.681 331.857C161.989 334.718 183.02 337.682 203.689 334.218C213.82 332.252 223.787 329.522 233.505 326.049C245.269 322.188 257.446 318.172 269.796 317.19C295.633 315.122 320.229 325.687 347.306 338.664C366.752 347.954 388.799 358.484 406.919 373.806C448.155 408.672 465.482 468.977 449.188 520.457C443.762 537.537 434.926 553.669 426.366 569.266C422.921 575.402 419.476 581.762 416.272 588.104C391.814 636.572 378.502 689.9 377.311 744.183C376.329 784.019 381.815 823.75 393.553 861.828H398.979C371.231 773.396 378.723 672.71 420.733 590.431Z" fill="#FFFBEF"/>
<path d="M-34.8168 17.8036C-37.7105 22.0261 -40.7075 26.421 -43.429 30.7642C-57.5231 53.2792 -66.4692 78.6333 -69.6272 105.012C-70.9534 116.266 -71.3496 127.951 -71.5735 139.257C-72.2969 166.04 -72.9687 191.358 -85.8181 213.126C-107.865 250.474 -156.025 259.281 -182.774 261.228C-197.398 262.28 -212.417 262.159 -226.954 262.038C-250.328 261.849 -274.511 261.642 -297.919 266.347C-303.586 267.485 -309.27 268.915 -314.765 270.311C-323.524 272.732 -332.43 274.585 -341.428 275.861C-360.047 278.067 -379.115 275.223 -398.63 271.828C-415.389 268.915 -431.735 265.83 -447.289 260.022C-477.517 248.75 -503.182 227.638 -527.985 207.232C-539.904 197.442 -552.099 187.429 -564.897 178.381V184.706C-553.305 193.099 -542.178 202.251 -531.275 211.213C-506.127 231.895 -480.118 253.283 -449.08 264.865C-433.13 270.828 -416.526 273.965 -399.508 276.929C-384.54 279.532 -369.814 281.807 -355.207 281.807C-350.396 281.821 -345.587 281.55 -340.808 280.997C-331.589 279.698 -322.464 277.804 -313.49 275.326C-308.064 273.948 -302.449 272.534 -296.903 271.414C-274.029 266.812 -250.121 267.019 -226.989 267.209C-212.365 267.329 -197.225 267.45 -182.395 266.382C-154.647 264.365 -104.61 255.127 -81.3742 215.746C-67.8531 192.823 -67.1124 165.661 -66.4062 139.395C-66.0962 128.21 -65.7862 116.645 -64.4943 105.615C-61.4243 80.0024 -52.7371 55.3847 -39.0539 33.5217C-36.3669 29.2475 -33.4043 24.9044 -30.5451 20.7335C-25.9461 14.0119 -21.2784 7.20416 -17.3685 0.0517024H-23.328C-26.8418 6.1356 -30.9068 12.0127 -34.8168 17.8036Z" fill="#FFFBEF"/>
<path d="M409.09 0.275764C382.322 34.5516 366.066 75.8608 362.291 119.196C361.706 126.262 361.413 133.811 363.342 141.102C366.787 154.01 376.346 163.955 386.216 172.796C390.436 176.554 394.828 180.294 399.065 183.896C413.31 195.96 428.054 208.576 438.354 224.225C442.872 231.435 446.939 238.918 450.532 246.63C456.715 259.195 463.105 272.19 473.371 282.255C488.356 296.939 508.664 302.333 523.046 304.264C528.527 305.003 534.051 305.378 539.582 305.384C572.515 305.384 603.312 292.13 622.672 268.967C647.441 239.306 649.197 194.202 626.702 166.282C619.813 157.819 611.2 150.994 602.795 144.393C591.823 135.776 581.454 127.624 574.926 116.146C560.664 91.1205 569.896 59.0121 579.645 30.8848L590.325 0.0861794H584.864L574.771 29.1786C564.643 58.3916 555.118 91.8099 570.43 118.713C577.475 131.054 588.723 139.895 599.608 148.461C607.773 154.872 616.23 161.525 622.672 169.522C643.686 195.598 641.946 237.823 618.71 265.64C597.611 290.924 560.337 304.074 523.735 299.145C510.128 297.318 491.009 292.251 476.988 278.567C467.36 269.122 461.486 257.092 455.165 244.338C451.485 236.444 447.314 228.788 442.677 221.416C431.964 205.146 416.944 192.358 402.407 180.052C398.187 176.45 393.794 172.745 389.661 169.022C380.377 160.732 371.386 151.46 368.337 139.878C366.904 133.255 366.602 126.437 367.441 119.713C371.137 77.3826 387.009 37.0297 413.137 3.53315L415.859 0.0861794H409.228C409.228 0.0861794 409.124 0.206824 409.09 0.275764Z" fill="#FFFBEF"/>
<path d="M602.382 604.408C567.778 610.389 536.326 640.601 519.894 664.627C499.707 694.202 489.011 728.982 481.225 759.091C478.797 768.484 476.644 779.221 481.828 788.063C485.755 794.715 493.041 798.404 498.174 800.558C508.397 804.807 519.366 806.969 530.435 806.918C553.93 806.918 577.751 797.352 589.791 775.895C594.131 768.191 596.543 759.642 598.868 751.387C599.919 747.699 600.986 743.89 602.209 740.236C607.347 725.072 615.556 711.131 626.324 699.286C628.718 696.666 631.319 694.116 633.833 691.513C642.153 683.154 650.765 674.502 654.64 663.024C659.308 649.236 655.846 633.604 645.391 621.35C634.143 608.286 617.694 601.789 602.382 604.408ZM649.714 661.421C646.269 671.762 638.432 679.604 630.165 687.911C627.598 690.479 624.997 693.081 622.5 695.856C611.252 708.228 602.678 722.791 597.318 738.633C596.043 742.408 594.958 746.285 593.873 750.025C591.53 758.367 589.308 766.243 585.261 773.413C568.863 802.592 528.317 807.762 500.172 795.818C492.99 792.768 488.701 789.579 486.272 785.477C482.069 778.342 484.033 768.811 486.272 760.435C493.954 730.74 504.461 696.494 524.166 667.591C540.012 644.376 570.241 615.232 603.26 609.544C616.764 607.218 631.405 612.991 641.446 624.797C650.713 635.62 653.814 649.322 649.714 661.421Z" fill="#FFFBEF"/>
<path d="M-468.905 497.638C-491.192 539.321 -498.112 587.519 -488.455 633.794C-484.08 654.251 -476.846 667.402 -465.667 675.157C-458.554 680.104 -449.562 682.965 -438.108 683.913C-435.645 684.119 -433.234 684.223 -430.891 684.223C-421.724 684.416 -412.636 682.494 -404.331 678.604C-381.94 667.626 -373.327 643.307 -365.008 619.816C-361.909 610.518 -358.297 601.398 -354.191 592.499C-344.614 572.903 -329.25 556.444 -314.403 540.536C-306.807 532.401 -298.901 523.973 -291.891 515.166C-265.434 482.213 -257.201 446.641 -269.878 420.013C-280.212 398.383 -295.973 387.129 -316.866 386.595C-373.31 385.164 -450.165 462.996 -468.905 497.638ZM-317.038 391.765C-298.246 392.248 -283.95 402.502 -274.58 422.236C-257.097 458.981 -286.517 500.189 -295.956 511.857C-302.845 520.475 -310.682 528.868 -318.227 536.934C-333.333 553.135 -348.938 569.87 -358.859 590.155C-363.059 599.226 -366.751 608.524 -369.917 618.007C-378.271 641.584 -386.177 663.834 -406.639 673.899C-415.165 678.087 -425.586 679.707 -437.643 678.69C-448.133 677.829 -456.314 675.243 -462.636 670.849C-472.678 663.955 -479.257 651.718 -483.305 632.622C-492.713 587.519 -485.97 540.543 -464.255 499.913C-446.755 467.564 -371.949 391.765 -318.554 391.765H-317.038Z" fill="#FFFBEF"/>
<path d="M-70.2817 36.7791C-76.4308 46.8788 -82.7866 57.323 -87.2305 68.5257C-94.2236 86.1569 -96.3594 105.374 -98.4264 123.953C-99.1326 130.261 -99.8559 136.793 -100.752 143.17C-105.282 174.916 -115.168 196.839 -130.98 210.213C-146.482 223.329 -166.997 227.948 -186.684 231.567C-249.601 243.086 -313.615 247.469 -377.513 244.631C-394.238 243.873 -413.546 242.563 -431.236 236.358C-448.925 230.154 -464.393 219.503 -480.084 208.162C-508.986 187.291 -537.424 165.179 -564.914 142.274V144.531C-537.734 167.126 -509.641 188.945 -481.1 209.558C-465.288 220.968 -449.614 231.74 -431.804 237.979C-413.994 244.218 -394.427 245.596 -377.599 246.337C-364.968 246.912 -352.337 247.193 -339.705 247.182C-288.256 247.187 -236.913 242.526 -186.305 233.256C-167.358 229.809 -145.638 224.932 -129.809 211.54C-113.653 197.873 -103.576 175.588 -98.9775 143.411C-98.0819 137.017 -97.3412 130.468 -96.635 124.143C-94.5853 105.667 -92.4667 86.5705 -85.5597 69.1634C-81.1847 58.0986 -74.8633 47.7232 -68.7487 37.6753C-64.5287 30.7814 -60.1366 23.5945 -56.4506 16.218C-53.8325 11.022 -51.6267 5.62812 -49.8536 0.0861794H-51.576C-53.3243 5.35578 -55.4602 10.4886 -57.9663 15.4424C-61.7385 22.75 -66.0789 29.8852 -70.2817 36.7791Z" fill="#FFFBEF"/>
<path d="M-119.991 18.6826C-126.131 27.2845 -131.607 36.3417 -136.372 45.7757C-143.261 60.3564 -145.552 76.4365 -147.791 91.9823C-148.618 97.7043 -149.514 103.616 -150.547 109.355C-155.629 136.638 -164.568 154.665 -178.692 166.109C-192.471 177.26 -211.143 181.379 -227.558 184.361C-282.623 194.366 -338.638 198.147 -394.548 195.633C-411.221 194.891 -428.996 193.495 -445.291 188.411C-453.75 185.696 -461.953 182.235 -469.801 178.07C-477.449 174.141 -484.907 169.78 -492.193 165.558L-499.737 161.163C-511.57 154.269 -523.162 147.496 -534.289 140.964C-545.416 134.432 -554.166 129.141 -562.589 123.867L-564.862 122.453V124.487L-563.381 125.418C-554.941 130.692 -546.157 135.983 -535.047 142.532C-523.937 149.081 -512.328 155.837 -500.478 162.731L-492.933 167.126C-485.699 171.366 -478.224 175.744 -470.542 179.69C-462.598 183.856 -454.304 187.316 -445.756 190.031C-429.186 195.202 -411.307 196.58 -394.599 197.322C-383.415 197.827 -372.231 198.074 -361.046 198.063C-316.164 198.059 -271.373 194.021 -227.213 185.998C-210.591 182.965 -191.662 178.777 -177.572 167.367C-163.121 155.665 -153.992 137.31 -148.825 109.596C-147.74 103.84 -146.878 97.8939 -146.052 92.1547C-143.83 76.7295 -141.522 60.7872 -134.787 46.4479C-130.057 37.0913 -124.621 28.109 -118.527 19.5788C-114.273 13.2708 -109.915 6.77331 -106.074 0.0172517H-108.055C-111.775 6.48031 -115.926 12.6676 -119.991 18.6826Z" fill="#FFFBEF"/>
<path d="M-169.856 0.327466C-175.569 7.53999 -180.799 15.1226 -185.513 23.0257C-192.092 34.711 -194.642 47.8094 -197.122 60.4598C-198.087 65.4407 -199.103 70.5766 -200.326 75.523C-203.771 89.6039 -210.368 109.734 -226.403 122.057C-238.46 131.243 -254.41 134.707 -268.431 137.241C-315.648 145.658 -363.655 148.791 -411.565 146.582C-426.137 145.927 -443.207 144.686 -459.311 140.412C-467.274 138.229 -475.083 135.517 -482.685 132.295C-487.852 130.157 -493.019 127.9 -497.963 125.711L-504.146 122.988C-517.926 116.99 -531.378 111.664 -543.952 107.114L-549.843 104.995C-555.01 103.168 -559.833 101.41 -564.897 99.4622V101.306C-560.039 103.168 -555.337 104.857 -550.428 106.615L-544.537 108.735C-531.998 113.267 -518.701 118.593 -504.921 124.573L-498.738 127.296C-493.76 129.485 -488.627 131.743 -483.425 133.897C-475.754 137.143 -467.877 139.878 -459.845 142.084C-443.586 146.393 -426.396 147.651 -411.738 148.288C-401.977 148.737 -392.217 148.955 -382.456 148.943C-344.142 148.963 -305.903 145.572 -268.19 138.809C-253.98 136.241 -237.789 132.708 -225.422 123.298C-208.955 110.734 -202.306 90.2244 -198.724 75.885C-197.484 70.9041 -196.485 65.7337 -195.503 60.7356C-193.057 48.2231 -190.525 35.2625 -184.083 23.8185C-179.416 15.9825 -174.238 8.46329 -168.581 1.30986L-167.599 0.034477H-169.77L-169.856 0.327466Z" fill="#FFFBEF"/>
<path d="M-234.637 0.275764C-240.751 9.20341 -243.593 19.3892 -246.349 29.2303C-247.503 33.3666 -248.692 37.6236 -250.104 41.6738C-254.238 53.5831 -260.714 68.474 -274.098 77.867C-284.432 85.1228 -297.695 87.9321 -309.304 89.9314C-348.673 96.8677 -388.686 99.4397 -428.618 97.6008C-443.664 97.1324 -458.644 95.4029 -473.401 92.4304C-481.221 90.7069 -488.696 88.6043 -495.62 86.5188L-499.737 85.2607C-505.455 83.5373 -510.847 81.8137 -516.255 80.4177C-528.534 76.951 -541.093 74.5636 -553.787 73.2825C-556.75 73.0068 -559.574 72.8344 -562.399 72.6448L-564.931 72.4897V74.2132L-562.503 74.3683C-559.712 74.5407 -556.905 74.7302 -553.89 74.9887C-541.299 76.2917 -528.842 78.6614 -516.651 82.0723C-511.277 83.5545 -505.886 85.1918 -500.185 86.9153L-496.068 88.1562C-489.178 90.2588 -481.583 92.4304 -473.677 94.1194C-458.828 97.0993 -443.755 98.8289 -428.618 99.2899C-420.247 99.669 -411.904 99.8529 -403.59 99.8414C-371.831 99.8802 -340.131 97.1176 -308.856 91.5859C-297.058 89.4832 -283.588 86.6223 -272.961 79.1768C-259.009 69.4047 -252.292 53.3246 -248.33 42.1564C-246.9 38.0545 -245.695 33.763 -244.541 29.6095C-241.819 19.9062 -239.012 9.85834 -233.069 1.17198L-232.225 0H-234.344C-234.455 0.0762811 -234.554 0.169304 -234.637 0.275764Z" fill="#FFFBEF"/>
<path d="M-299.848 7.79015C-304.309 16.4076 -310.82 27.007 -321.792 33.6424C-330.404 38.9335 -340.98 41.0878 -350.178 42.6907C-381.696 48.1004 -413.708 50.0767 -445.652 48.585C-459.651 48.0043 -473.608 46.6464 -487.456 44.5176C-492.52 43.7248 -497.549 42.7941 -502.407 41.8979L-508.573 40.7776C-516.393 39.3816 -522.68 38.4682 -528.364 37.8994C-542.143 36.6068 -553.942 37.1583 -563.674 39.6229L-564.914 39.9676V41.6911L-563.192 41.243C-553.787 38.9335 -541.764 38.3648 -528.45 39.6401C-522.818 40.1917 -516.582 41.1051 -508.797 42.5011L-502.648 43.6214C-497.773 44.5004 -492.744 45.431 -487.663 46.2411C-473.752 48.3772 -459.732 49.7352 -445.67 50.3085C-438.711 50.6417 -431.775 50.8026 -424.863 50.7911C-399.71 50.8303 -374.602 48.6967 -349.816 44.4142C-340.463 42.7769 -329.732 40.588 -320.827 35.1246C-309.494 28.2306 -302.811 17.2521 -298.246 8.51401C-296.817 5.75644 -295.542 2.861 -294.285 0.0172517H-296.179C-297.385 2.68865 -298.556 5.25663 -299.848 7.79015Z" fill="#FFFBEF"/>
<path d="M-556.043 0.0861794H-561.659C-562.778 0.499815 -563.863 0.930677 -564.914 1.39602V3.25738C-562.035 1.99355 -559.071 0.933872 -556.043 0.0861794Z" fill="#FFFBEF"/>
<path d="M-462.773 1.39602C-445.838 2.16963 -428.869 1.73191 -411.996 0.0861794H-482.616C-476.053 0.637694 -469.388 1.10302 -462.773 1.39602Z" fill="#FFFBEF"/>
<path d="M-469.215 605.546C-467.028 621.057 -462.463 632.57 -455.264 641.015C-451.94 645.052 -447.792 648.332 -443.099 650.636C-438.405 652.939 -433.274 654.213 -428.049 654.372C-425.444 654.384 -422.85 654.018 -420.35 653.286C-410.015 650.236 -401.179 640.688 -396.063 627.055C-393.952 620.983 -392.227 614.783 -390.896 608.493C-389.604 603.047 -388.261 597.428 -386.418 592.103C-378.77 569.956 -362.304 551.963 -347.508 536.848C-345.613 534.9 -343.684 532.953 -341.755 531.005C-327.717 516.804 -313.18 502.12 -303.362 484.471C-293.854 467.357 -282.262 431.043 -306.479 416.014C-328.027 402.657 -360.53 420.616 -377.995 432.525C-400.99 448.192 -418.834 469.304 -431.821 485.953C-440.61 496.833 -448.371 508.505 -455.005 520.819C-468.327 546.931 -473.289 576.514 -469.215 605.546ZM-453.403 521.578C-446.82 509.359 -439.117 497.779 -430.392 486.987C-417.491 470.442 -399.75 449.45 -376.996 433.904C-359.892 422.253 -328.079 404.605 -307.358 417.445C-284.26 431.784 -295.611 466.978 -304.843 483.592C-314.558 501.085 -328.957 515.683 -342.961 529.799L-348.731 535.641C-363.682 550.894 -380.269 569.06 -388.037 591.534C-389.897 596.946 -391.241 602.616 -392.55 608.097C-393.883 614.318 -395.609 620.449 -397.717 626.452C-402.626 639.567 -411.083 648.753 -420.884 651.632C-433.63 655.389 -446.72 648.461 -453.989 639.912C-460.965 631.708 -465.409 620.402 -467.545 605.304C-471.538 576.605 -466.6 547.371 -453.403 521.578Z" fill="#FFFBEF"/>
<path d="M-442.569 570.8C-441.605 579.797 -438.9 586.88 -434.543 591.896C-432.503 594.202 -429.998 596.049 -427.192 597.315C-424.386 598.58 -421.344 599.236 -418.266 599.238C-415.769 599.248 -413.292 598.792 -410.963 597.893L-410.291 597.618C-402.04 594.085 -396.959 585.553 -394.152 578.987C-392.929 576.16 -391.912 573.161 -390.827 569.99C-389.553 566.268 -388.244 562.424 -386.521 558.581C-380.803 545.896 -370.778 534.814 -361.821 525.421L-359.307 522.819C-351.022 514.201 -342.461 505.36 -336.777 495.019C-330.904 484.316 -324.858 463.996 -339.413 455.706C-345.458 452.259 -353.192 452.07 -362.338 455.172C-369.693 457.671 -377.737 462.238 -386.883 469.149C-398.67 478.345 -409.178 489.073 -418.128 501.051C-423.278 507.478 -427.887 514.321 -431.908 521.509C-434.955 527.153 -437.414 533.096 -439.245 539.243C-441.92 547.923 -443.165 556.981 -442.931 566.061C-442.793 567.629 -442.69 569.232 -442.569 570.8ZM-437.574 539.778C-435.778 533.743 -433.366 527.91 -430.375 522.37C-426.406 515.266 -421.855 508.504 -416.767 502.154C-407.865 490.305 -397.428 479.693 -385.729 470.597C-376.721 463.807 -368.849 459.308 -361.615 456.809C-353.003 453.862 -345.699 454 -340.084 457.188C-326.701 464.823 -332.557 484.04 -338.103 494.192C-343.65 504.343 -352.176 513.15 -360.375 521.612L-362.889 524.232C-371.949 533.728 -382.095 544.914 -387.916 557.874C-389.639 561.787 -391 565.682 -392.291 569.439C-393.359 572.575 -394.375 575.523 -395.564 578.297C-398.251 584.571 -403.074 592.723 -410.808 596.032L-411.428 596.291C-415.178 597.625 -419.24 597.811 -423.096 596.826C-426.952 595.841 -430.427 593.728 -433.079 590.758C-437.195 586.019 -439.762 579.245 -440.675 570.611C-440.847 569.094 -440.95 567.526 -441.019 565.992C-441.289 557.104 -440.108 548.233 -437.522 539.726L-437.574 539.778Z" fill="#FFFBEF"/>
<path d="M-408.034 545.086C-405.184 545.02 -402.444 543.966 -400.283 542.104C-397.961 539.884 -395.992 537.321 -394.444 534.504C-393.738 533.349 -392.998 532.143 -392.205 531.057C-390.581 529.118 -388.856 527.266 -387.038 525.507C-383.731 522.215 -379.649 518.131 -376.135 513.994C-370.416 507.221 -368.039 502.344 -368.883 499.052C-369.129 498.189 -369.587 497.403 -370.216 496.764C-370.845 496.126 -371.625 495.656 -372.483 495.398C-376.049 494.036 -380.097 494.485 -384.54 496.777C-388.813 499.194 -392.669 502.284 -395.96 505.928C-401.733 512.249 -406.953 519.053 -411.565 526.266L-412.013 526.938C-413.684 529.194 -414.933 531.734 -415.699 534.435C-416.101 535.876 -416.142 537.395 -415.818 538.856C-415.493 540.317 -414.813 541.676 -413.839 542.811C-413.089 543.582 -412.184 544.184 -411.182 544.577C-410.181 544.969 -409.108 545.143 -408.034 545.086ZM-413.891 534.745C-413.156 532.262 -411.99 529.929 -410.446 527.851L-409.998 527.179C-405.434 520.058 -400.277 513.336 -394.582 507.083C-391.42 503.578 -387.716 500.604 -383.61 498.276C-381.466 497.068 -379.06 496.399 -376.6 496.329C-375.369 496.318 -374.148 496.54 -373 496.984C-372.402 497.147 -371.855 497.458 -371.41 497.889C-370.964 498.32 -370.634 498.856 -370.451 499.448C-369.779 502.12 -372.173 506.618 -377.341 512.84C-380.785 516.924 -384.85 520.992 -388.123 524.249C-390.06 526.066 -391.884 528 -393.583 530.04C-394.393 531.195 -395.151 532.418 -395.874 533.608C-397.331 536.268 -399.184 538.691 -401.368 540.795C-404.521 543.5 -409.705 544.483 -412.427 541.605C-413.199 540.671 -413.735 539.565 -413.99 538.38C-414.245 537.195 -414.211 535.966 -413.891 534.797V534.745Z" fill="#FFFBEF"/>
<path d="M361.912 667.246C369.112 646.565 378.981 626.383 388.524 606.925C398.531 586.536 408.866 565.561 416.083 543.587C433.1 492.606 427.761 444.348 401.769 414.515C391.865 403.14 379.378 394.574 367.114 386.284C332.338 362.604 298.01 341.801 260.478 347.247C253.751 348.374 247.106 349.94 240.584 351.935C236.295 353.142 231.851 354.4 227.441 355.382C209.373 359.363 190.392 358.95 172.031 358.553L164.349 358.398C137.272 357.933 109.851 358.812 82.8428 361.001C72.3532 361.845 62.1737 362.948 52.9758 367.05C44.7254 370.721 37.715 376.633 31.807 381.872C12.5674 398.952 -9.10082 425.2 -3.03784 453.207C1.59552 474.664 22.6438 492.399 53.217 500.655C61.4847 502.895 70.0797 504.55 78.399 506.17C94.8139 509.341 111.78 512.633 126.627 520.44C156.357 535.952 177.939 570.542 184.363 612.888C188.893 642.911 186.396 673.865 183.984 703.802C183.382 711.213 182.761 718.865 182.262 726.396C180.161 758.039 179.954 789.779 181.642 821.446C182.331 834.424 183.485 848.471 187.154 861.81H188.876C185.138 848.488 183.984 834.373 183.295 821.36C181.61 789.779 181.817 758.125 183.915 726.569C184.415 719.054 185.035 711.402 185.638 704.008C188.049 673.968 190.564 642.911 185.982 612.664C179.489 569.784 157.579 534.745 127.42 518.958C112.262 511.03 95.1584 507.721 78.623 504.515C70.338 502.912 61.7774 501.241 53.5614 499.035C23.6082 490.934 3.04242 473.682 -1.47036 452.88C-7.34387 425.683 13.9454 399.969 32.8578 383.199C38.6624 378.029 45.5349 372.238 53.527 368.653C62.5009 364.672 72.4738 363.586 82.8085 362.742C109.765 360.57 137.117 359.691 164.159 360.156L171.824 360.311C190.289 360.708 209.356 361.121 227.648 357.089C232.109 356.123 236.553 354.865 240.876 353.642C247.331 351.669 253.908 350.12 260.564 349.005C297.476 343.645 331.477 364.275 365.977 387.766C378.034 395.988 390.539 404.502 400.305 415.704C425.883 445.003 431.102 492.692 414.274 543.087C407.006 564.872 396.688 585.881 386.715 606.201C377.156 625.693 367.269 645.841 360.035 666.695C337.35 732.187 341.191 801.54 351.422 861.845H353.145C343.189 801.678 339.314 732.411 361.912 667.246Z" fill="#FFFBEF"/>
<path d="M160.111 744.028C159.974 710.161 159.836 675.088 155.719 641.256C154.1 627.934 151.723 613.887 145.384 601.461C139.718 590.293 130.899 580.107 116.809 568.439C94.5037 549.964 72.0259 538.244 49.7892 533.608C14.7549 526.283 -22.5531 535.969 -52.3685 543.742C-91.6056 553.945 -140.454 566.647 -182.068 590.19C-194.297 597.084 -209.041 606.994 -214.553 622.333C-217.154 629.588 -217.722 638.206 -216.276 648.702C-213.055 672.331 -202.031 694.598 -191.369 716.142C-177.125 744.889 -163.69 772.051 -166.962 802.316C-169.374 824.583 -180.897 844.386 -193.987 861.759H-191.817C-178.916 844.524 -167.703 824.721 -165.257 802.505C-161.915 771.672 -176.108 743.011 -189.819 715.314C-200.429 693.892 -211.384 671.745 -214.57 648.392C-215.948 638.189 -215.397 629.83 -212.848 622.85C-207.543 608.045 -193.126 598.376 -181.155 591.62C-139.817 568.181 -91.0199 555.427 -51.8689 545.345C-22.1397 537.606 14.8755 527.989 49.4964 535.228C71.4058 539.812 93.6942 551.394 115.793 569.697C129.693 581.21 138.357 591.224 143.92 602.168C150.121 614.353 152.533 628.227 154.048 641.394C158.165 675.192 158.303 710.161 158.441 743.959C158.596 783.013 158.768 822.963 165.072 861.759H166.794C160.439 823.067 160.284 783.082 160.111 744.028Z" fill="#FFFBEF"/>
<path d="M130.141 767.622C129.641 740.822 129.125 713.126 125.973 686.239C125.508 682.12 125.043 678.794 124.526 675.743C123.382 667.743 121.097 659.948 117.739 652.597C113.158 643.014 105.837 634.018 94.676 624.263C76.8315 608.751 58.3498 598.566 39.7303 594.274C12.1713 587.932 -16.1111 593.912 -45.0997 601.168C-81.512 610.147 -119.819 621.264 -153.217 641.67C-163.724 648.081 -175.058 656.371 -179.415 669.056C-181.499 675.14 -181.93 682.361 -180.759 691.134C-178.124 710.592 -169.373 729.051 -160.899 746.802C-158.763 751.284 -156.576 755.902 -154.509 760.452C-146.241 778.721 -139.007 798.524 -141.436 819.637C-143.244 834.89 -149.944 848.678 -158.987 861.862H-156.903C-148.067 848.764 -141.522 835.062 -139.679 819.844C-137.13 798.317 -144.519 778.239 -152.89 759.746C-154.957 755.179 -157.161 750.542 -159.297 746.061C-167.703 728.378 -176.401 710.092 -178.985 690.91C-180.139 682.43 -179.725 675.398 -177.727 669.625C-173.559 657.457 -162.518 649.408 -152.27 643.152C-119.061 622.867 -80.9092 611.802 -44.6346 602.857C-15.8527 595.687 12.2058 589.759 39.403 595.963C57.7298 600.186 75.9704 610.147 93.5909 625.573C104.563 635.155 111.763 643.979 116.241 653.338C119.526 660.543 121.765 668.18 122.89 676.019C123.389 679.052 123.837 682.361 124.319 686.36C127.454 713.177 127.971 740.822 128.47 767.57C129.039 798.8 129.659 830.702 134.464 861.759H136.187C131.33 830.805 130.709 798.869 130.141 767.622Z" fill="#FFFBEF"/>
<path d="M99.9984 790.234C99.2577 770.828 98.4826 750.749 96.3296 731.222C95.9678 727.775 95.6234 725.155 95.2444 722.605C94.3574 716.086 92.6201 709.713 90.0771 703.646C86.6322 695.632 80.8448 687.894 72.5255 680.017C59.2972 667.471 44.467 658.767 29.6712 654.872C7.27954 648.978 -15.9389 653.407 -37.8483 658.439C-74.3468 666.85 -102.664 678.156 -124.384 692.995C-132.427 698.493 -141.074 705.473 -144.295 715.625C-145.904 721.414 -146.216 727.487 -145.208 733.411C-143.175 748.681 -136.596 763.21 -130.395 777.256C-128.672 781.186 -126.812 785.271 -125.124 789.321C-118.992 803.901 -113.618 819.723 -115.892 836.785C-117.208 845.617 -120.195 854.116 -124.694 861.828H-122.73C-118.358 854.168 -115.439 845.765 -114.118 837.044C-111.792 819.585 -117.235 803.488 -123.471 788.786C-125.193 784.754 -126.915 780.669 -128.758 776.722C-134.994 762.779 -141.436 748.371 -143.434 733.359C-144.407 727.684 -144.112 721.863 -142.572 716.314C-139.524 706.663 -131.135 699.906 -123.35 694.598C-101.802 679.862 -73.6922 668.642 -37.3832 660.301C-15.6978 655.303 7.31404 650.908 29.2923 656.716C43.8125 660.542 58.3843 669.091 71.4059 681.448C79.5531 689.152 85.1854 696.701 88.6303 704.508C91.0798 710.435 92.7418 716.659 93.5737 723.018C93.9526 725.466 94.2971 728.189 94.6588 731.498C96.7947 750.973 97.5698 771 98.3104 790.389C99.2233 814.104 100.153 838.285 103.633 861.914H105.355C101.721 838.199 100.825 813.984 99.9984 790.234Z" fill="#FFFBEF"/>
<path d="M69.1151 810.399C68.3917 799.162 67.6338 787.563 66.5142 776.205C66.2903 773.999 66.0664 771.793 65.7735 769.604C65.2111 764.594 64.0903 759.663 62.432 754.903C59.7089 747.846 55.6104 741.402 50.375 735.945C42.0353 726.632 31.4328 719.632 19.595 715.625C3.04239 710.299 -15.0604 712.781 -30.5968 715.9C-48.7685 719.554 -74.7945 727.499 -95.6016 744.545C-101.423 749.302 -107.09 754.765 -109.192 762.4C-110.26 766.813 -110.43 771.397 -109.691 775.878C-108.244 786.908 -103.99 797.49 -99.8732 807.728C-98.478 811.175 -97.0485 814.759 -95.7567 818.275C-91.9328 828.616 -88.2985 840.956 -90.3654 853.986C-90.8044 856.642 -91.4552 859.259 -92.3118 861.811H-90.5893C-89.7832 859.345 -89.167 856.821 -88.7463 854.262C-86.6105 840.836 -90.3137 828.237 -94.2237 817.672C-95.5327 814.225 -96.9623 810.554 -98.3574 807.09C-102.44 796.939 -106.66 786.408 -108.072 775.654C-108.775 771.404 -108.623 767.056 -107.624 762.865C-105.643 755.678 -100.183 750.456 -94.5853 745.872C-73.9677 729.119 -48.1312 721.226 -30.2351 717.607C-14.9226 714.539 2.90463 712.074 19.0955 717.279C30.6457 721.208 40.9907 728.046 49.1347 737.134C54.2006 742.427 58.1696 748.671 60.8129 755.506C62.4346 760.142 63.5267 764.947 64.0683 769.828C64.3439 772 64.5851 774.189 64.809 776.377C65.9286 787.701 66.6692 799.3 67.3926 810.502C68.495 827.548 69.6146 844.834 72.1121 861.828H73.8345C71.3542 844.817 70.2174 827.479 69.1151 810.399Z" fill="#FFFBEF"/>
<path d="M36.785 821.205C36.6644 819.654 36.5438 818.103 36.3888 816.569C36.1236 813.046 35.588 809.548 34.787 806.108C33.509 801.005 31.3081 796.18 28.2933 791.872C23.5605 785.13 17.1149 779.775 9.62219 776.36C0.734416 772.379 -10.0309 771.397 -23.2764 773.327C-40.5008 775.843 -56.7261 784.357 -66.8196 796.111C-70.348 799.748 -72.8502 804.256 -74.0711 809.175C-74.5606 812.2 -74.5606 815.285 -74.0711 818.31C-73.0441 824.907 -71.4183 831.397 -69.2138 837.699C-68.232 840.801 -67.1986 844.007 -66.3546 847.144C-64.988 851.91 -64.1958 856.822 -63.9949 861.776H-62.2724C-62.4637 856.67 -63.2734 851.606 -64.6838 846.696C-65.5278 843.507 -66.5613 840.284 -67.5603 837.165C-69.7531 830.942 -71.3787 824.533 -72.4175 818.017C-72.8755 815.163 -72.8755 812.254 -72.4175 809.399C-71.2361 804.775 -68.86 800.543 -65.5277 797.128C-55.6926 785.684 -39.8118 777.377 -23.0525 774.93C-10.1342 773.034 0.320955 773.982 8.89869 777.825C16.1317 781.146 22.3417 786.348 26.8809 792.888C29.7742 797.032 31.8873 801.67 33.1162 806.573C33.8924 809.924 34.4164 813.329 34.6836 816.759C34.8214 818.293 34.9419 819.827 35.0625 821.378C36.1304 834.821 37.2328 848.471 39.248 861.862H40.9705C38.9552 848.402 37.8529 834.717 36.785 821.205Z" fill="#FFFBEF"/>
<path d="M6.24623 848.04C4.89838 843.165 2.01513 838.855 -1.9753 835.75C-5.96573 832.645 -10.8505 830.911 -15.9043 830.805C-20.964 830.904 -25.8566 832.635 -29.854 835.74C-33.8513 838.846 -36.7397 843.159 -38.0893 848.04C-39.0762 852.631 -39.1872 857.368 -38.4166 862H-36.6941C-37.4896 857.516 -37.4019 852.921 -36.4358 848.471C-35.1771 843.969 -32.5014 839.994 -28.806 837.134C-25.1105 834.275 -20.5922 832.684 -15.9215 832.597C-11.2457 832.697 -6.72679 834.304 -3.03689 837.179C0.653008 840.055 3.31685 844.045 4.55827 848.557C5.36112 852.449 5.62188 856.434 5.33329 860.397C5.33329 860.931 5.33329 861.466 5.33329 862H7.05572C7.05572 861.483 7.05572 860.966 7.05572 860.449C7.36155 856.295 7.08915 852.119 6.24623 848.04Z" fill="#FFFBEF"/>
<path d="M375.399 530.919C379.105 530.542 382.715 529.509 386.061 527.868C392.072 524.525 396.189 517.528 397.963 507.445C402.458 482.041 392.571 452.949 372.126 431.612C355.263 413.722 331.27 400.279 300.852 391.317C281.095 385.509 263.75 383.079 247.852 383.906C235.416 384.544 223.067 387.249 211.13 389.835C203.551 391.558 195.714 393.195 187.929 394.367C170.911 396.918 153.342 396.987 136.359 397.056C126.024 397.056 115.449 397.056 105.011 397.728C93.9698 398.349 82.3261 399.624 71.8882 404.743C60.5718 410.292 52.5797 420.254 51.064 430.595C46.4478 462.238 84.2036 472.958 106.768 479.37L107.801 479.663C120.909 483.403 133.276 488.901 145.247 494.226C152.739 497.57 160.49 501.12 168.431 504.05C220.672 523.939 276.083 534.418 326.533 534.418C342.887 534.506 359.224 533.336 375.399 530.919ZM145.936 492.761C133.879 487.418 121.494 481.886 108.266 478.111L107.233 477.818C85.2199 471.562 48.3597 461.083 52.7692 430.957C54.216 421.081 61.8291 411.654 72.646 406.346C82.8084 401.365 94.2454 400.107 105.114 399.452C115.449 398.866 126.11 398.814 136.376 398.78C153.411 398.78 171.032 398.642 188.187 396.074C196.024 394.902 203.879 393.178 211.492 391.524C223.376 388.938 235.606 386.267 247.956 385.629C263.63 384.819 280.785 387.215 300.369 392.971C330.495 401.813 354.23 415.17 370.903 432.612C390.952 453.638 400.667 482.144 396.275 507.014C395.103 513.632 392.227 522.353 385.217 526.231C382.054 527.775 378.642 528.744 375.14 529.092C313.701 538.623 238.586 528.885 169.034 502.413C161.162 499.517 153.394 496.07 145.936 492.744V492.761Z" fill="#FFFBEF"/>
<path d="M333.802 492.33C340.468 476.422 336.541 458.188 323.467 444.728C313.942 434.852 300.301 427.303 282.904 422.322C273.193 419.303 263.068 417.832 252.899 417.962C245.637 418.36 238.416 419.317 231.3 420.823C227.269 421.581 223.101 422.357 219.002 422.891C211.213 423.785 203.382 424.257 195.542 424.304H193.113C186.224 424.442 179.213 424.58 172.306 425.166C165.853 425.445 159.503 426.893 153.566 429.44C147.004 432.594 142.319 437.937 141.061 443.745C140.467 446.191 140.41 448.737 140.895 451.206C141.38 453.676 142.394 456.011 143.869 458.05C149.656 466.15 162.075 470.442 170.274 473.286C176.847 475.686 183.286 478.436 189.565 481.524C194.061 483.644 198.711 485.833 203.465 487.746C232.418 499.598 263.354 505.849 294.634 506.17C302.552 506.191 310.463 505.696 318.317 504.688C320.384 504.475 322.408 503.964 324.329 503.171C328.325 501.361 331.546 497.707 333.802 492.33ZM323.467 501.603C321.689 502.328 319.815 502.792 317.904 502.981C283.128 507.549 241.635 501.413 204.034 486.16C199.331 484.247 194.715 482.075 190.254 479.973C183.937 476.863 177.457 474.096 170.842 471.683C162.833 468.908 150.741 464.789 145.281 457.068C143.937 455.231 143.014 453.121 142.576 450.887C142.138 448.653 142.198 446.35 142.749 444.142C143.886 438.851 148.21 433.956 154.307 431.026C160.057 428.577 166.201 427.182 172.444 426.907C179.334 426.338 186.344 426.2 193.113 426.045H195.542C203.445 425.999 211.34 425.521 219.191 424.615C223.342 424.08 227.528 423.287 231.593 422.546C238.617 421.049 245.746 420.099 252.916 419.703C262.966 419.53 272.978 420.961 282.577 423.942C299.681 428.889 313.081 436.283 322.382 445.917C334.904 458.877 338.694 476.405 332.303 491.658C330.133 496.622 327.205 499.896 323.553 501.62L323.467 501.603Z" fill="#FFFBEF"/>
<path d="M244.89 451.535C241.628 451.973 238.44 452.855 235.416 454.155C231.834 455.62 229.905 457.464 229.491 459.791C229.078 462.117 230.129 464.237 232.626 466.685C239.791 473.734 250.264 477.939 262.114 478.542H263.027C269.641 478.542 276.083 474.957 278.253 469.925C279.976 465.944 278.805 461.652 274.912 457.86C269.038 452.173 252.003 450.691 244.89 451.535ZM276.686 469.304C274.705 473.837 268.349 477.129 262.2 476.819C250.781 476.25 240.704 472.2 233.832 465.461C231.782 463.427 230.904 461.669 231.196 460.084C231.489 458.498 233.074 456.964 236.071 455.741C238.949 454.508 241.978 453.668 245.079 453.242C246.487 453.093 247.901 453.024 249.316 453.035C257.309 453.035 269.331 454.862 273.706 459.136C277.099 462.462 278.133 465.978 276.686 469.304Z" fill="#FFFBEF"/>
<path d="M321.314 717.452C323.037 706.456 325.345 695.27 327.532 684.447C333.354 655.648 339.383 625.848 336.558 596.239C335.938 589.742 334.732 582.313 330.46 576.591C325.396 569.801 317.008 566.612 310.256 564.527C288.726 558.098 267.523 558.512 250.539 565.716C242.375 569.163 236.26 573.799 232.402 579.504C227.51 586.691 226.184 595.515 225.512 603.185C224.698 615.63 224.623 628.113 225.288 640.567C225.616 649.977 225.943 659.715 225.598 669.263C224.754 692.289 219.932 715.297 215.264 737.53C212.663 749.957 209.959 762.814 207.978 775.567C202.621 810.037 204.154 838.526 212.646 861.742H214.489C205.877 838.613 204.326 810.278 209.683 775.757C211.664 763.055 214.351 750.232 216.952 737.84C221.637 715.435 226.46 692.444 227.287 669.28C227.631 659.663 227.286 649.908 226.976 640.446C226.314 628.061 226.383 615.648 227.183 603.271C227.821 595.825 229.095 587.277 233.78 580.435C237.449 575.057 243.288 570.645 251.16 567.302C267.781 560.27 288.571 559.856 309.722 566.181C316.216 568.129 324.277 571.162 329.031 577.556C333.044 582.934 334.198 590.069 334.784 596.342C337.591 625.642 331.58 655.372 325.793 684.05C323.588 694.874 321.332 706.077 319.575 717.107C311.974 765.136 313.141 814.146 323.02 861.759H324.742C314.886 814.26 313.725 765.366 321.314 717.452Z" fill="#FFFBEF"/>
<path d="M283.972 860.966C282.766 854.072 279.717 847.747 276.755 841.646C275.716 839.011 274.083 836.651 271.984 834.752C270.809 833.748 269.332 833.169 267.789 833.107C266.246 833.044 264.727 833.502 263.475 834.407C260.908 836.648 261.201 840.405 261.839 843.766L265.197 861.793H266.92L263.475 843.455C262.941 840.56 262.648 837.372 264.56 835.7C265.509 835.061 266.642 834.755 267.783 834.83C268.923 834.905 270.007 835.356 270.864 836.113C272.744 837.851 274.21 839.989 275.153 842.37C278.064 848.367 281.061 854.572 282.215 861.225C282.215 861.414 282.215 861.604 282.215 861.793H283.937C284.041 861.535 284.024 861.242 283.972 860.966Z" fill="#FFFBEF"/>
<path d="M305.898 822.636C301.894 762.94 306.922 702.982 320.815 644.79L321.332 642.618C323.381 634.121 325.483 625.383 325.379 616.421C325.224 605.46 321.349 595.843 314.735 590.017C310.652 586.45 305.209 583.882 297.614 581.969C281.474 577.918 267.557 580.814 260.34 589.759C255.552 595.705 254.191 603.547 253.209 611.13C251.693 622.901 250.643 634.948 249.626 646.599C247.542 670.452 245.389 695.098 239.102 718.52C237.38 724.587 235.537 730.585 233.677 736.565C231.816 742.545 229.853 748.629 228.217 754.679C218.934 789.778 218.828 826.675 227.907 861.828H229.629C220.502 826.839 220.567 790.083 229.818 755.127C231.438 749.06 233.367 742.976 235.244 737.082C237.122 731.188 239.051 725.018 240.687 718.968C247.008 695.391 249.179 670.711 251.263 646.754C252.279 635.121 253.33 623.091 254.863 611.354C255.793 604.046 257.102 596.429 261.615 590.827C271.639 578.401 291.327 582.21 297.131 583.64C304.452 585.485 309.653 587.932 313.529 591.327C319.781 596.808 323.45 605.959 323.588 616.438C323.691 625.056 321.607 633.811 319.592 642.29L319.075 644.445C305.149 702.808 300.103 762.939 304.107 822.808C304.748 835.978 306.71 849.05 309.963 861.828H311.686C308.155 849.074 306.777 835.596 305.898 822.636Z" fill="#FFFBEF"/>
<path d="M290.586 806.125C290.212 793.477 290.545 780.818 291.585 768.208L295.03 714.591C295.805 702.25 296.752 686.911 289.777 674.554C288.948 672.853 287.651 671.424 286.039 670.435C282.353 668.487 277.995 670.745 275.136 673.503C266.903 681.465 264.44 693.047 262.045 704.267C261.511 706.766 260.977 709.248 260.323 711.678C257.343 723.949 252.296 735.807 247.422 747.388C241.342 761.728 235.072 776.567 232.695 792.199C229.25 815.001 233.987 837.544 241.1 861.845H242.823C235.692 837.561 230.904 815.07 234.331 792.458C236.674 776.946 242.943 762.297 248.937 748.043C253.829 736.462 258.91 724.466 261.925 712.057C262.51 709.627 263.044 707.111 263.647 704.612C265.99 693.65 268.418 682.31 276.273 674.726C278.684 672.382 282.301 670.418 285.16 671.934C286.475 672.78 287.53 673.973 288.209 675.381C294.978 687.273 294.014 702.337 293.239 714.453L289.794 768.053C288.752 780.744 288.418 793.483 288.795 806.211C289.708 825.169 293.738 843.679 298.716 861.828H300.438C295.564 843.628 291.482 825.049 290.586 806.125Z" fill="#FFFBEF"/>
<path d="M281.302 831.27C280.837 830.254 280.355 829.237 279.872 828.22C277.531 823.777 275.755 819.058 274.585 814.173C273.877 809.614 273.64 804.994 273.878 800.385C274.016 792.199 274.154 783.737 268.987 777.274L268.659 776.86L268.143 776.963C260.478 778.566 254.07 785.822 251.022 796.37C246.388 812.364 249.006 829.116 251.556 845.368C252.4 850.78 253.278 856.278 253.864 861.776H255.586C254.983 856.175 254.122 850.591 253.261 845.11C250.746 829.064 248.094 812.467 252.675 796.852C255.483 787.166 261.167 780.445 267.971 778.773C272.414 784.685 272.294 792.302 272.156 800.368C271.918 805.075 272.166 809.794 272.897 814.449C274.097 819.474 275.914 824.331 278.305 828.909C278.787 829.926 279.27 830.926 279.735 831.942C284.02 841.575 287.477 851.556 290.069 861.776H291.792C289.155 851.332 285.646 841.127 281.302 831.27Z" fill="#FFFBEF"/>
<path d="M-28.0647 94.2056C-32.0636 110.275 -35.2143 126.545 -37.5038 142.946C-39.7429 157.233 -42.0682 172.004 -45.5648 186.274C-54.5042 222.846 -70.2817 249.078 -92.4839 264.227C-107.073 274.189 -124.642 279.273 -139.903 282.927C-182.688 293.164 -227.265 297.008 -270.36 300.713L-330.886 305.884C-375.894 309.762 -426.912 314.156 -471.162 293.974C-490.832 284.995 -508.194 271.569 -524.988 258.471L-564.914 227.448V229.637L-526.056 259.85C-509.176 272.948 -491.728 286.512 -471.885 295.56C-445.67 307.504 -417.198 310.934 -388.984 310.934C-369.142 310.934 -349.368 309.21 -330.731 307.625L-270.205 302.454C-227.144 298.749 -182.361 294.905 -139.506 284.633C-124.091 280.945 -106.332 275.809 -91.5194 265.675C-68.9554 250.284 -52.9367 223.708 -43.8939 186.705C-40.4491 172.366 -38.055 157.561 -35.7986 143.221C-33.2666 127.176 -30.6312 110.579 -26.394 94.6537C-16.9382 59.6275 0.481179 27.2626 24.504 0.0861794H22.2132C-1.47845 27.2272 -18.6736 59.4161 -28.0647 94.2056Z" fill="#FFFBEF"/>
<path d="M5.07493 162.094C3.69698 167.557 2.4396 173.158 1.19945 178.587C-2.91718 196.822 -7.18882 215.694 -16.0249 232.36C-32.8704 264.227 -62.8408 282.531 -84.9224 292.286C-114.6 305.332 -147.102 310.916 -175.247 315.104C-206.664 319.792 -238.77 323.515 -269.878 327.169C-321.224 333.115 -374.309 339.233 -426.861 337.337C-479.412 335.442 -525.884 325.273 -564.88 307.073V308.969C-525.832 326.996 -479.516 337.131 -426.93 339.061C-420.178 339.302 -413.426 339.423 -406.674 339.423C-360.65 339.423 -314.489 334.08 -269.602 328.875C-238.598 325.29 -206.44 321.567 -174.989 316.811C-146.741 312.605 -114.101 307.004 -84.2335 293.871C-61.8418 284.013 -31.5097 265.468 -14.4403 233.153C-5.51809 216.297 -1.22919 197.322 2.92189 178.967C4.14482 173.555 5.40218 167.953 6.78013 162.507C22.2329 101.466 53.2823 45.4947 96.8808 0.0861794H94.5038C51.2714 45.4984 20.4705 101.297 5.07493 162.094Z" fill="#FFFBEF"/>
<path d="M-372.276 776.498C-371.22 761.585 -370.996 746.625 -371.605 731.688C-372.139 708.162 -372.69 683.826 -366.334 660.921C-356.585 625.762 -331.885 597.48 -307.771 570.128C-292.442 552.652 -276.612 534.573 -264.538 514.649C-251.844 493.709 -242.146 468.977 -235.033 439.04C-231.932 426.011 -229.573 412.223 -233.31 399.555C-237.461 385.767 -249.45 373.393 -265.365 366.637C-280.35 360.242 -297.04 358.95 -311.388 358.536C-352.313 357.364 -393.755 362.742 -433.819 367.981C-476.76 373.565 -521.009 379.321 -564.725 376.943V378.667C-520.837 381.045 -476.536 375.22 -433.544 369.687C-393.531 364.517 -352.176 359.088 -311.388 360.26C-297.213 360.673 -280.712 361.983 -265.985 368.222C-250.483 374.789 -238.925 386.698 -234.981 400.055C-231.123 412.929 -233.827 426.717 -236.704 438.644C-243.817 468.391 -253.394 492.968 -265.985 513.753C-278.042 533.539 -293.785 551.566 -309.046 569.008C-333.16 596.497 -358.049 624.918 -367.902 660.456C-374.326 683.602 -373.775 708.076 -373.241 731.739C-372.633 746.625 -372.851 761.533 -373.896 776.395C-376.7 806.717 -386.487 835.977 -402.488 861.879H-400.473C-384.681 835.947 -375.035 806.74 -372.276 776.498Z" fill="#FFFBEF"/>
<path d="M-451.181 391.593C-463.617 388.146 -476.846 390.714 -488.507 393.04L-564.862 408.276V409.999L-488.162 394.695C-476.691 392.403 -463.686 389.8 -451.664 393.213C-440.365 396.418 -429.565 407.001 -430.995 419.168C-432.062 427.906 -438.918 434.8 -444.981 440.884C-503.423 499.569 -544.193 563.613 -564.793 627.71V633.57C-544.865 567.957 -503.63 502.223 -443.758 442.091C-437.505 435.817 -430.426 428.699 -429.272 419.375C-427.808 406.328 -439.245 394.988 -451.181 391.593Z" fill="#FFFBEF"/>
<path d="M-423.33 827.151C-429.207 839.096 -435.799 850.676 -443.069 861.828H-440.985C-433.94 850.907 -427.534 839.588 -421.797 827.927C-413.649 811.709 -406.019 794.181 -405.175 775.722C-404.262 755.351 -412.961 736.375 -427.36 727.465C-434.87 722.777 -443.654 720.692 -452.163 718.675C-461.103 716.555 -470.335 714.366 -477.845 709.144C-484.511 704.508 -489.454 697.735 -494.242 691.168C-496.637 687.894 -499.1 684.516 -501.787 681.413C-509.434 672.503 -522.732 663.782 -535.013 668.539C-542.66 671.503 -547.517 678.88 -550.514 684.257C-557.404 696.322 -561.59 709.679 -564.931 723.156V730.619C-561.349 714.866 -556.922 699.165 -549.016 685.102C-546.157 679.931 -541.523 672.9 -534.41 670.142C-522.973 665.713 -510.399 674.054 -503.096 682.534C-500.478 685.584 -498.032 688.945 -495.655 692.185C-490.78 698.855 -485.751 705.749 -478.844 710.558C-471.058 715.969 -461.62 718.193 -452.577 720.347C-444.206 722.329 -435.559 724.397 -428.29 728.964C-414.407 737.582 -406.036 756.006 -406.915 775.757C-407.724 793.767 -415.286 811.106 -423.33 827.151Z" fill="#FFFBEF"/>
<path d="M-507.109 424.976C-502.269 427.613 -499.72 432.732 -498.497 436.558C-493.519 451.346 -499.324 466.064 -503.233 473.527C-508.762 484.075 -516.858 493.244 -524.678 502.102L-526.642 504.326C-540.421 520.044 -554.665 537.658 -564.983 557.047V560.787C-554.648 540.381 -539.818 521.888 -525.367 505.463L-523.403 503.257C-515.515 494.312 -507.35 485.057 -501.718 474.32C-497.687 466.616 -491.693 451.397 -496.878 436.007C-498.273 431.888 -501.046 426.372 -506.368 423.46C-510.485 421.202 -515.325 420.978 -519.907 421.047C-535.422 421.33 -550.736 424.619 -565 430.733V432.68C-550.754 426.45 -535.417 423.099 -519.872 422.822C-515.428 422.701 -510.881 422.908 -507.109 424.976Z" fill="#FFFBEF"/>
<path d="M-488.024 861.828H-486.026C-481.938 855.102 -478.406 848.052 -475.468 840.75C-470.387 827.806 -465.615 808.296 -471.868 788.838C-476.027 775.953 -484.51 764.902 -495.879 757.557C-501.644 753.577 -508.399 751.275 -515.394 750.904C-532.911 750.611 -545.261 766.157 -549.739 772.896C-556.431 783.44 -561.544 794.908 -564.914 806.935V813.036C-561.021 799.248 -556.302 785.719 -548.31 773.844C-543.986 767.346 -532.188 752.266 -515.428 752.628C-508.752 752.991 -502.307 755.198 -496.809 759.005C-485.825 766.206 -477.628 776.944 -473.573 789.441C-467.458 808.4 -472.144 827.496 -477.121 840.181C-480.138 847.692 -483.786 854.933 -488.024 861.828Z" fill="#FFFBEF"/>
<path d="M-520.63 861.828H-518.908L-517.564 857.364C-514.119 845.816 -509.848 831.512 -513.43 818.086C-513.743 816.593 -514.41 815.198 -515.377 814.018C-517.237 811.985 -520.544 811.399 -524.351 812.295C-539.129 816.069 -546.346 832.528 -549.808 845.679C-550.29 847.488 -550.738 849.315 -551.203 851.142C-552.082 854.692 -552.926 858.26 -554.028 861.759H-552.306C-551.307 858.312 -550.446 854.968 -549.602 851.573C-549.136 849.729 -548.689 847.919 -548.206 846.11C-544.865 833.407 -537.872 817.517 -523.989 813.967C-522.473 813.587 -518.822 812.915 -516.72 815.121C-515.947 816.097 -515.415 817.243 -515.17 818.465C-511.725 831.339 -515.911 845.455 -519.287 856.795L-520.63 861.828Z" fill="#FFFBEF"/>
<path d="M-306.41 631.484C-329.129 636.93 -344.752 674.089 -350.419 695.253C-356.551 718.106 -357.412 744.286 -352.985 773.068C-349.816 793.647 -340.17 829.857 -311.113 840.991C-305.824 842.989 -300.213 844 -294.56 843.972C-276.457 843.972 -257.493 834.183 -246.039 817.586C-233.207 799.024 -229.107 773.723 -234.481 746.354C-239.27 722.071 -250.397 699.631 -261.145 677.932C-262.488 675.243 -263.866 672.124 -265.313 668.815C-273.254 650.77 -284.105 626.141 -306.41 631.484ZM-236.17 746.63C-233.121 762.141 -230.503 792.009 -247.451 816.552C-262.075 837.699 -289.169 847.488 -310.493 839.319C-338.741 828.496 -348.162 792.957 -351.28 772.741C-355.672 744.2 -354.725 718.262 -348.748 695.632C-343.202 674.95 -327.941 638.43 -306.014 633.173C-304.154 632.713 -302.246 632.475 -300.33 632.467C-283.209 632.467 -274.235 652.804 -266.898 669.453C-265.434 672.762 -264.038 675.916 -262.695 678.639C-251.981 700.234 -240.906 722.553 -236.17 746.63Z" fill="#FFFBEF"/>
<path d="M-300.899 686.877C-303.432 686.952 -305.922 687.553 -308.211 688.642C-310.5 689.731 -312.538 691.284 -314.196 693.202C-324.651 705.266 -322.532 731.119 -321.275 746.63C-321.103 748.767 -320.948 750.68 -320.844 752.3C-320.104 764.365 -318.674 774.223 -314.161 783.134C-308.77 793.785 -299.245 800.799 -289.324 801.437H-287.98C-285.701 801.502 -283.443 800.986 -281.418 799.938C-277.095 797.559 -275.183 792.578 -273.977 788.494C-271.152 778.859 -269.792 767.812 -269.671 753.8C-269.671 746.182 -270.067 707.386 -285.69 692.496C-287.679 690.53 -290.065 689.011 -292.688 688.042C-295.31 687.073 -298.11 686.676 -300.899 686.877ZM-271.393 753.834C-271.514 767.726 -272.857 778.584 -275.631 788.063C-276.733 791.82 -278.49 796.404 -282.245 798.404C-284.383 799.446 -286.768 799.876 -289.135 799.644C-300.262 798.921 -308.529 790.2 -312.542 782.272C-316.917 773.654 -318.313 763.986 -319.053 752.128C-319.139 750.491 -319.312 748.56 -319.484 746.423C-320.707 731.188 -322.791 705.697 -312.818 694.254C-311.312 692.517 -309.463 691.109 -307.389 690.118C-305.314 689.128 -303.058 688.576 -300.761 688.497C-298.208 688.325 -295.647 688.696 -293.248 689.588C-290.849 690.479 -288.666 691.869 -286.844 693.667C-271.462 708.438 -271.359 749.25 -271.393 753.834Z" fill="#FFFBEF"/>
<path d="M42.0728 130.967C38.8347 141.067 35.9582 151.494 33.1851 161.594C26.2092 186.86 19.0095 212.988 5.62612 235.876C-16.0938 273.275 -55.8477 304.091 -109.329 324.997C-112.671 326.296 -116.047 327.582 -119.457 328.858C-144.433 338.32 -170.252 348.092 -185.048 369.928C-192.816 381.39 -196.519 395.005 -199.396 406.863C-205.774 433.249 -209.963 460.118 -211.918 487.194C-213.003 502.206 -209.644 511.633 -201.945 515.218C-199.892 516.158 -197.657 516.635 -195.4 516.614C-189.853 516.614 -184.273 514.098 -180.104 511.909C-139.903 490.727 -111.62 453.035 -84.2679 416.583C-56.1405 379.115 -27.0658 340.353 14.8584 320.068C49.7205 303.161 90.6456 300.782 126.731 298.662C202.983 294.199 289.398 289.149 363.393 325.187C385.286 335.855 405.679 350.057 425.401 363.776C443.246 376.202 461.693 389.059 481.26 399.297C522.52 420.54 568.667 430.471 615.007 428.079C654.083 426.433 692.314 416.169 726.965 398.021V396.074C651.85 436.248 557.943 437.437 482.156 397.711C462.692 387.525 444.262 374.702 426.486 362.311C406.73 348.523 386.285 334.304 364.255 323.584C289.863 287.391 203.207 292.423 126.748 296.887C90.5767 299.007 49.4105 301.42 14.2383 318.465C-28.0647 338.975 -57.2774 377.908 -85.5253 415.549C-112.757 451.846 -140.919 489.383 -180.793 510.341C-186.305 513.253 -194.4 516.735 -201.084 513.632C-208.077 510.375 -211.108 501.568 -210.075 487.298C-208.129 460.309 -203.958 433.526 -197.604 407.225C-194.762 395.522 -191.111 382.079 -183.498 370.859C-169.012 349.471 -143.451 339.836 -118.717 330.443C-115.272 329.151 -111.827 327.875 -108.572 326.566C-54.7454 305.522 -14.6814 274.447 7.24522 236.72C20.663 213.626 27.9145 187.394 34.8042 162.007C37.5773 151.942 40.4537 141.515 43.6747 131.45C56.9375 90.2071 82.7741 35.2108 132.208 0.0861794H129.28C80.776 35.521 55.215 89.9658 42.0728 130.967Z" fill="#FFFBEF"/>
<path d="M66.6521 141.946C64.4646 151.391 62.7766 161.128 61.1575 170.556C58.0054 188.877 54.75 207.835 47.4986 225.19C34.9764 255.144 10.0355 282.169 -28.7538 307.797C-42.1543 316.656 -56.3128 324.877 -69.9889 332.839C-88.8151 343.783 -108.279 355.106 -126.123 368.239C-156.025 390.231 -171.01 413.395 -170.665 437.075V437.713L-170.028 437.885C-167.116 438.686 -164.109 439.092 -161.089 439.092C-141.935 439.092 -124.676 422.977 -110.001 406.57C-58.328 348.833 -0.316298 292.251 74.5064 269.294C102.186 260.797 132.983 256.558 174.408 255.506C271.467 253.128 346.496 270.914 403.802 309.917C412.19 315.639 420.372 321.981 428.278 328.065C435.374 333.528 442.694 339.199 450.17 344.404C494.385 375.288 547.729 392.661 604.431 394.574C646.377 396.204 688.179 388.731 726.965 372.669V370.635C638.467 407.742 529.919 397.969 451.152 342.956C443.728 337.785 436.408 332.115 429.328 326.652C421.405 320.533 413.206 314.208 404.766 308.469C347.151 269.243 271.794 251.353 174.373 253.748C132.828 254.765 101.893 259.04 74.0413 267.536C-1.16033 290.614 -59.4476 347.402 -111.241 405.312C-127.656 423.684 -147.309 441.66 -168.908 436.334C-168.908 413.481 -154.199 391.024 -125.038 369.566C-107.28 356.502 -87.8505 345.196 -69.076 334.287C-55.2965 326.307 -41.2069 318.069 -27.7375 309.176C11.3446 283.323 36.4921 256.092 49.152 225.794C56.4724 208.266 59.7622 189.204 62.9315 170.797C64.5506 161.387 66.2214 151.667 68.4089 142.274C81.9376 85.2506 115.229 34.8718 162.368 0.0861794H159.491C112.945 35.0799 80.1012 85.2658 66.6521 141.946Z" fill="#FFFBEF"/>
<path d="M136.394 46.9132C121.305 69.5081 109.248 95.9808 97.2597 132.76C90.1805 154.493 84.5309 179.294 96.433 198.873C109.368 220.106 136.514 224.139 155.116 224.139C159.974 224.139 164.263 223.863 167.57 223.553C214.713 219.106 249.041 205.939 275.584 182.086C326.826 136.052 359.639 68.8704 365.03 0.103405H363.307C357.916 68.3878 325.31 135.087 274.43 180.811C248.18 204.388 214.144 217.435 167.397 221.847C151.758 223.312 113.675 223.932 97.8626 197.994C86.3395 179.035 91.903 154.665 98.8616 133.311C110.798 96.6874 122.803 70.3526 137.789 47.8784C149.913 29.3165 165.316 13.1212 183.244 0.0861794H180.35C163.076 13.0047 148.198 28.8537 136.394 46.9132Z" fill="#FFFBEF"/>
<path d="M133.224 134.001C132.102 138.918 131.564 143.951 131.622 148.995C132.535 171.728 154.29 188.17 174.787 190.927C177.727 191.323 180.691 191.519 183.657 191.513C199.676 191.513 216.952 185.895 236.14 174.485C296.666 138.499 336.592 70.4388 338.849 0.0861794H337.126C334.87 69.8528 295.271 137.327 235.261 173.003C212.87 186.343 193.113 191.651 174.976 189.221C155.185 186.55 134.189 170.745 133.31 148.926C133.254 144.015 133.78 139.115 134.878 134.328C146.346 79.4092 178.921 31.1979 225.581 0.0861794H222.498C176.583 31.5232 144.595 79.5071 133.224 134.001Z" fill="#FFFBEF"/>
<path d="M226.753 32.591C215.264 43.3111 203.379 54.3759 194.267 67.595C187.102 77.9359 178.765 94.2228 179.575 112.647C179.57 117.54 180.866 122.346 183.33 126.573C187.257 132.743 195.025 136.483 203.551 136.483C204.395 136.483 205.274 136.483 206.118 136.379C215.023 135.586 223.032 131.295 229.698 127.193C251.724 113.454 270.32 94.8593 284.067 72.8301C297.814 50.8009 306.347 25.9195 309.016 0.0861794H307.294C302.126 50.6359 272.035 99.1347 228.819 125.728C222.326 129.727 214.523 133.915 205.98 134.656C197.109 135.449 188.756 131.898 184.794 125.642C182.514 121.668 181.325 117.16 181.349 112.578C180.522 94.6192 188.721 78.7287 195.731 68.5774C204.74 55.5134 216.556 44.4486 227.975 33.8492L264.147 0.0861794H261.615L226.753 32.591Z" fill="#FFFBEF"/>
<path d="M255.879 42.0357C232.592 38.1751 219.828 75.1956 216.866 89.7763C216.584 90.6027 216.509 91.4858 216.647 92.3481C216.785 93.2104 217.132 94.0257 217.658 94.7226C218.159 95.1424 218.738 95.459 219.362 95.6542C219.985 95.8494 220.642 95.9194 221.292 95.8601H221.447C229.939 95.8601 238.93 91.9995 246.767 85.1918C255.379 77.6946 270.985 60.7355 268.022 50.2223C266.799 45.9308 262.717 43.1732 255.879 42.0357ZM245.544 83.8992C238.017 90.4312 229.422 94.0677 221.43 94.1367C220.53 94.2695 219.613 94.0402 218.881 93.499C218.14 92.7579 218.313 91.3102 218.554 90.052C221.241 76.8674 233.78 40.071 255.586 43.6731C261.718 44.6899 265.335 47.0166 266.351 50.567C269.193 60.7356 252.365 78.0566 245.63 83.8992H245.544Z" fill="#FFFBEF"/>
<path d="M406.454 215.332C399.565 206.163 391.9 196.891 381.479 191.203C374.402 187.584 366.739 185.249 358.846 184.309C330.736 180.104 304.4 186.601 286.624 202.147C281.457 206.628 278.443 210.765 277.048 215.332C275.497 220.278 276.066 227.017 280.785 230.981C282.79 232.489 285.031 233.654 287.417 234.428C317.422 245.924 347.306 258.833 376.208 272.827L376.863 273.155C384.545 276.878 392.503 280.721 401.08 281.979C402.604 282.198 404.14 282.308 405.679 282.307C409.431 282.385 413.16 281.7 416.639 280.293C420.118 278.885 423.275 276.785 425.918 274.12C428.428 271.373 430.215 268.044 431.117 264.433C432.02 260.823 432.008 257.044 431.085 253.438C428.88 243.218 420.217 232.515 412.569 223.053C410.33 220.33 408.315 217.728 406.454 215.332ZM424.661 272.931C419.252 278.722 410.313 281.548 401.322 280.221C393.019 278.997 385.182 275.206 377.621 271.604L376.966 271.276C348.012 257.264 318.093 244.321 288.037 232.825C285.831 232.12 283.754 231.061 281.888 229.689C278.443 226.741 277.065 221.071 278.684 215.901C279.993 211.695 282.887 207.766 287.761 203.492C301.679 191.324 320.97 184.826 342.259 184.826C347.725 184.835 353.183 185.25 358.588 186.067C366.282 186.993 373.752 189.275 380.652 192.806C390.78 198.321 398.376 207.421 405.076 216.452C406.799 218.865 408.969 221.485 411.208 224.242C418.735 233.549 427.261 244.08 429.38 253.903C430.228 257.218 430.24 260.692 429.417 264.012C428.593 267.333 426.959 270.397 424.661 272.931Z" fill="#FFFBEF"/>
<path d="M380.549 213.798C373.263 208.421 359.277 205.301 349.373 204.664C345.166 204.201 340.912 204.879 337.057 206.628C335.072 207.589 333.41 209.109 332.275 211.001C331.14 212.892 330.581 215.075 330.667 217.28C331.006 219.591 331.958 221.769 333.423 223.587C339.383 231.791 349.114 236.152 358.553 239.909C363.014 241.922 367.809 243.091 372.695 243.356C374.912 243.378 377.111 242.944 379.154 242.08C381.508 241.094 383.552 239.489 385.068 237.435C386.584 235.38 387.516 232.954 387.766 230.413C388.065 227.258 387.56 224.08 386.298 221.174C385.036 218.269 383.058 215.731 380.549 213.798ZM386.044 230.292C385.854 232.547 385.046 234.705 383.709 236.53C382.372 238.355 380.557 239.774 378.465 240.633C372.436 243.235 365.357 240.84 359.191 238.375C349.976 234.704 340.502 230.464 334.818 222.64C333.527 221.065 332.682 219.172 332.372 217.159C332.32 215.297 332.812 213.461 333.788 211.875C334.764 210.289 336.182 209.022 337.867 208.231C340.649 206.888 343.72 206.255 346.806 206.387C347.581 206.387 348.408 206.387 349.269 206.387C357.33 206.904 372.04 209.662 379.516 215.177C381.802 216.933 383.602 219.246 384.745 221.894C385.887 224.543 386.334 227.439 386.044 230.309V230.292Z" fill="#FFFBEF"/>
<path d="M398.962 67.1642C392.279 89.3282 391.952 106.959 397.963 121.057C401.408 129.072 406.765 135.879 412.104 142.032C415.761 146.448 419.796 150.536 424.161 154.252C426.9 156.475 429.862 158.457 432.773 160.387C434.789 161.749 436.856 163.145 438.819 164.593C458.558 179.225 470.994 202.113 481.105 222.398L481.553 223.312C484.291 229.281 487.59 234.977 491.405 240.323C495.948 246.14 501.616 250.982 508.07 254.559C514.524 258.136 521.633 260.375 528.971 261.142C530.826 261.334 532.688 261.432 534.552 261.435C547.506 261.371 560.08 257.054 570.344 249.147C574.276 246.183 577.722 242.624 580.558 238.599C584.096 233.133 586.6 227.063 587.948 220.692C590.594 209.374 590.965 197.642 589.037 186.179C587.109 174.716 582.921 163.752 576.717 153.924C573.944 149.581 570.775 145.445 567.709 141.429C565.367 138.396 562.955 135.259 560.819 132.053C547.35 112.387 540.441 88.9628 541.08 65.1304C541.819 41.5707 549.895 18.8304 564.178 0.0861794H562.025C547.981 18.919 540.051 41.6102 539.306 65.096C538.66 89.2944 545.671 113.078 559.338 133.053C561.577 136.293 563.989 139.447 566.331 142.498C569.38 146.479 572.532 150.581 575.253 154.872C587.435 174.387 591.398 197.934 586.277 220.365C584.98 226.5 582.563 232.343 579.146 237.599C576.423 241.486 573.104 244.917 569.311 247.768C557.882 256.593 543.535 260.757 529.161 259.419C522.046 258.683 515.153 256.522 508.891 253.063C502.629 249.605 497.128 244.92 492.714 239.288C488.979 234.023 485.745 228.421 483.051 222.553L482.586 221.64C472.407 201.165 459.85 178.07 439.801 163.214C437.803 161.732 435.701 160.318 433.686 158.957C430.861 157.061 427.951 155.079 425.264 152.907C420.948 149.24 416.96 145.203 413.344 140.843C408.091 134.776 402.786 128.107 399.479 120.316C393.622 106.529 393.984 89.2937 400.547 67.595C407.944 43.2076 419.608 20.327 434.995 0.0172517H432.825C417.725 20.2614 406.266 42.9835 398.962 67.1642Z" fill="#FFFBEF"/>
<path d="M456.009 0.0861794H453.753C442.951 12.8384 434.758 27.589 429.638 43.5007C423.162 64.4066 423.489 86.2258 430.551 104.926C437.613 123.625 451.221 139.016 464.259 153.873C475.352 166.437 486.806 179.449 494.333 194.478C495.418 196.649 496.434 198.907 497.434 201.096C499.338 205.578 501.566 209.915 504.099 214.074C508.784 221.33 514.916 226.138 521.324 227.569C522.777 227.89 524.262 228.052 525.75 228.051C536.085 228.051 545.3 220.175 549.262 211.644C553.361 202.819 553.998 191.858 551.208 178.122C548.177 163.283 542.337 148.978 536.705 135.138C530.263 119.317 523.58 102.961 521.203 85.8812C518.654 67.6467 521.048 49.1193 523.718 33.4183C525.681 21.9399 528.248 10.3237 533.036 0.0861794H531.142C526.491 10.3064 523.959 21.7849 522.013 33.1254C519.326 48.9642 516.845 67.595 519.498 86.1225C521.927 103.357 528.644 119.868 535.12 135.793C540.736 149.581 546.54 163.783 549.537 178.467C552.259 191.824 551.656 202.44 547.711 210.92C543.474 220.037 532.916 228.379 521.703 225.88C515.709 224.535 509.956 220.003 505.512 213.126C503.021 209.046 500.834 204.789 498.967 200.389C497.967 198.183 496.934 195.908 495.832 193.702C488.218 178.467 476.678 165.385 465.517 152.718C452.512 137.999 439.077 122.764 432.119 104.305C425.16 85.8467 424.884 64.5444 431.24 43.9833C436.482 27.8417 444.904 12.9153 456.009 0.0861794Z" fill="#FFFBEF"/>
<path d="M486.048 0.0861794H483.74C472.37 13.318 464.72 29.336 461.572 46.4996C458.127 64.1653 458.817 83.4338 463.484 103.788C464.776 109.424 466.791 115.525 472.097 118.162C473.594 118.91 475.246 119.293 476.919 119.282C479.498 119.149 482.008 118.406 484.245 117.115C486.481 115.824 488.38 114.021 489.786 111.854C493.455 106.27 494.161 99.5139 494.953 92.8958C497.537 68.5429 500.947 43.9488 505.047 19.8201C506.356 12.2023 507.785 5.41174 511.626 0H509.508C506.063 5.51515 504.616 12.1506 503.359 19.5271C499.242 43.6558 495.832 68.3189 493.231 92.7234C492.559 99.0486 491.87 105.581 488.442 110.82C485.239 115.697 478.401 119.282 472.941 116.542C468.307 114.215 466.464 108.562 465.258 103.323C460.659 83.1925 460.091 64.1653 463.364 46.7409C466.517 29.4055 474.363 13.2681 486.048 0.0861794Z" fill="#FFFBEF"/>
<path d="M620.708 0.0861794H618.245C604.452 14.2887 596.433 33.1186 595.75 52.9109C594.906 74.713 602.347 97.9455 616.73 118.283C619.262 121.885 622.017 125.418 624.687 128.813C628.459 133.639 632.352 138.62 635.659 143.842C642.29 154.321 647.441 167.092 651.867 184.016C657.62 206.042 667.507 260.866 634.936 294.078C617.574 311.795 592.615 318.931 568.26 325.824C551.759 330.53 543.216 337.717 542.837 347.178C542.579 353.797 546.971 360.501 554.033 364.275C560.079 367.481 567.037 368.36 574.254 369.049C588.596 370.394 602.347 371.072 615.507 371.083C659.687 371.083 696.926 363.379 726.914 348.126V346.248C688.211 366.171 637.123 373.255 574.409 367.326C567.123 366.637 560.63 365.809 554.842 362.742C548.349 359.295 544.318 353.211 544.508 347.23C544.852 338.613 552.982 331.943 568.777 327.427C593.184 320.533 618.435 313.278 636.124 295.233C669.298 261.383 659.308 205.836 653.486 183.534C649.008 166.42 643.789 153.511 637.071 142.877C633.627 137.568 629.786 132.536 625.996 127.71C623.344 124.263 620.588 120.816 618.073 117.249C603.932 97.2045 596.594 74.3511 597.404 52.9109C598.282 32.5221 606.981 13.0468 620.708 0.0861794Z" fill="#FFFBEF"/>
<path d="M651.919 0.0861794H649.456C634.574 14.2877 627.96 36.2793 628.218 55.0825C628.58 82.0378 640.275 107.838 651.092 129.899C652.281 132.312 653.469 134.707 654.675 137.12C665.01 157.923 675.706 179.415 679.667 202.458C684.938 233.136 678.582 267.864 660.256 308.607C658.309 312.95 656.105 317.879 657.121 322.877C658.843 330.96 667.679 334.631 676.912 334.631C678.932 334.632 680.949 334.459 682.94 334.114C699.786 331.202 714.461 322.774 727 312.209V309.951C714.409 320.792 699.648 329.478 682.647 332.356C672.416 334.08 660.583 331.271 658.792 322.481C657.896 318.034 659.98 313.381 661.84 309.262C680.305 268.191 686.695 233.136 681.373 202.113C677.359 178.829 666.611 157.216 656.208 136.31C655.019 133.897 653.814 131.485 652.625 129.089C641.843 107.183 630.233 81.6069 629.941 54.9791C629.596 36.0553 636.452 13.874 651.919 0.0861794Z" fill="#FFFBEF"/>
<path d="M705.366 0.0861794H702.369C683.043 14.167 672.64 39.1748 670.797 60.9596C668.282 90.4656 677.394 119.92 685.42 145.91C693.86 173.193 702.645 201.423 700.492 230.137C700.371 231.86 700.216 233.48 700.044 235.152C699.26 240.925 699.208 246.773 699.889 252.559C700.991 259.453 705.056 267.674 712.962 270.346C714.568 270.901 716.258 271.175 717.957 271.156C721.091 271.134 724.176 270.378 726.965 268.95V267.019C724.973 268.219 722.753 268.992 720.446 269.289C718.139 269.586 715.796 269.4 713.565 268.743C706.331 266.313 702.61 258.402 701.629 252.301C700.977 246.662 701.041 240.964 701.818 235.342C701.973 233.618 702.128 231.895 702.266 230.292C704.384 201.234 695.6 172.848 687.126 145.41C679.133 119.558 670.091 90.2588 672.571 61.132C674.397 39.0025 685.214 13.5293 705.366 0.0861794Z" fill="#FFFBEF"/>
<path d="M726.965 52.9971V49.2399C719.525 63.0278 714.34 79.556 711.464 98.6694C708.294 119.937 706.641 157.561 726.965 185.774V182.775C708.467 155.2 710.12 119.403 713.186 98.9107C715.324 82.9734 719.975 67.4763 726.965 52.9971Z" fill="#FFFBEF"/>
<path d="M407.143 822.084C404.491 790.958 402.527 754.265 407.85 718.193C417.461 653.148 449.291 594.688 480.089 538.158C488.563 522.646 498.157 504.963 512.591 492.727C531.538 476.698 556.978 470.856 579.473 465.702C618.796 456.688 663.373 446.468 705.659 455.827C711.274 457.068 716.906 458.67 722.349 460.204L726.914 461.497V459.774L722.832 458.619C717.354 457.068 711.688 455.465 706.038 454.207C663.373 444.779 618.59 455.034 579.094 464.099C556.393 469.27 530.677 475.181 511.471 491.486C496.796 503.929 487.116 521.716 478.573 537.399C447.707 594.067 415.79 652.649 406.23 718.003C400.874 754.196 402.786 791.061 405.507 822.291C406.644 835.614 408.16 849.264 412.087 861.931H413.809C409.813 849.195 408.315 835.458 407.143 822.084Z" fill="#FFFBEF"/>
<path d="M464.122 624.263C486.186 566.526 512.798 531.781 547.832 514.942C565.246 506.566 584.796 502.878 603.312 500.293C636.314 495.553 682.751 491.313 726.914 503.343V501.62C682.596 489.659 636.124 493.916 603.071 498.655C584.399 501.327 564.712 504.981 547.074 513.46C500.568 535.865 476.454 587.105 462.52 623.763C439.163 684.878 417.133 774.189 439.163 861.948H440.886C418.856 774.361 440.817 685.24 464.122 624.263Z" fill="#FFFBEF"/>
<path d="M466.464 759.194C471.538 725.473 480.665 692.488 493.644 660.956C516.725 605.029 548.177 568.836 587.155 553.324C604.81 546.43 624.05 543.811 642.273 541.794C669.109 538.847 698.993 536.624 726.931 543.259V541.536C698.855 534.917 668.954 537.175 642.084 540.14C623.774 542.156 604.397 544.707 586.535 551.773C547.109 567.284 515.33 603.84 492.077 660.353C479.033 692.008 469.867 725.128 464.776 758.988C458.507 800.679 460.935 834.58 472.165 861.88H474.026C462.658 834.7 460.195 800.903 466.464 759.194Z" fill="#FFFBEF"/>
<path d="M542.096 852.504C548.418 848.04 555.876 845.162 562.972 842.37C565.866 841.249 568.863 840.095 571.757 838.836C598.162 827.187 619.665 806.665 632.541 780.824C636.279 772.856 639.585 764.692 642.445 756.368C645.184 748.853 647.992 741.098 651.454 733.79C656.193 724.3 661.478 715.092 667.283 706.214C677.738 689.548 688.538 672.331 691.242 652.631C692.009 645.702 692.263 638.726 692 631.76C692 626.745 691.862 621.557 692.207 616.507C692.878 606.476 695.807 592.861 705.831 584.967C711.934 580.481 719.404 578.252 726.965 578.659V576.936C719.022 576.568 711.196 578.961 704.815 583.709C694.291 591.999 691.242 606.115 690.536 616.455C690.192 621.626 690.26 626.796 690.329 631.863C690.59 638.737 690.342 645.621 689.589 652.459C686.936 671.796 676.223 688.859 665.871 705.353C660.031 714.279 654.717 723.538 649.955 733.083C646.51 740.46 643.617 748.267 640.878 755.816C638.036 764.081 634.753 772.187 631.043 780.1C618.34 805.551 597.142 825.756 571.119 837.216C568.26 838.457 565.28 839.612 562.404 840.663C555.152 843.49 547.643 846.42 541.149 851.004C537.047 853.886 533.539 857.532 530.814 861.742H532.847C535.369 858.147 538.499 855.021 542.096 852.504Z" fill="#FFFBEF"/>
<path d="M615.73 848.746C618.796 846.661 622 844.61 625.101 842.645C635.108 836.251 645.443 829.65 653.125 820.378C663.27 808.141 667.8 792.526 672.175 777.429C674.069 770.897 676.033 764.141 678.41 757.764C682.888 746.607 688.101 735.759 694.015 725.293C703.093 708.369 712.463 690.824 715.115 671.572C715.339 669.952 715.529 668.298 715.701 666.643C716.424 660.025 717.182 653.148 720.868 647.685C722.431 645.397 724.492 643.494 726.897 642.118V640.205C723.919 641.723 721.362 643.956 719.456 646.703C715.494 652.459 714.719 659.525 713.978 666.385C713.806 668.108 713.617 669.642 713.393 671.262C710.792 690.22 701.473 707.593 692.482 724.38C686.527 734.932 681.285 745.872 676.791 757.126C674.379 763.572 672.416 770.345 670.504 776.912C666.181 791.837 661.702 807.279 651.781 819.24C644.271 828.306 634.04 834.838 624.222 841.146C621.122 843.128 617.901 845.179 614.818 847.281C608.579 851.432 602.86 856.315 597.783 861.828H600.108C604.833 856.921 610.071 852.535 615.73 848.746Z" fill="#FFFBEF"/>
<path d="M695.962 798.404C704.264 777.032 712.79 755.144 726.965 738.392V735.807C711.825 752.921 702.955 775.636 694.36 797.852C685.369 820.964 676.119 844.713 659.739 861.897H662.099C677.962 844.593 687.057 821.154 695.962 798.404Z" fill="#FFFBEF"/>
<path d="M726.965 809.692C720.088 817.679 714.158 826.435 709.293 835.786L707.95 838.216C703.678 846.39 698.879 854.277 693.585 861.828H695.703C700.743 854.518 705.344 846.916 709.483 839.06L710.826 836.613C715.355 827.967 720.763 819.812 726.965 812.278V809.692Z" fill="#FFFBEF"/>
<path d="M597.008 647.082C588.654 644.669 576.941 654.734 569.948 660.749L568.226 662.197C540.431 685.728 522.31 718.709 517.345 754.799C516.88 758.419 516.535 762.59 518.292 766.174C519.488 768.31 521.242 770.079 523.366 771.293C525.49 772.508 527.904 773.121 530.349 773.068C530.676 773.086 531.004 773.086 531.331 773.068C536.413 772.508 541.176 770.313 544.904 766.812C556.048 757.178 560.406 742.683 564.798 728.895C567.761 719.296 570.809 709.386 576.011 700.992C579.281 696.419 583.029 692.208 587.19 688.428C596.956 678.725 608.048 667.746 604.414 656.096C602.95 651.063 600.47 648.116 597.008 647.082ZM586.07 687.067C581.821 690.944 577.993 695.259 574.65 699.941C569.328 708.558 566.245 718.555 563.248 728.241C558.821 742.58 554.636 756.127 543.87 765.433C540.422 768.685 536.02 770.74 531.314 771.293C529.043 771.515 526.756 771.077 524.728 770.031C522.699 768.986 521.015 767.377 519.877 765.399C518.327 762.245 518.654 758.402 519.085 755.058C523.991 719.392 541.897 686.798 569.362 663.541L571.085 662.093C577.165 656.923 586.949 648.461 594.286 648.461C595.055 648.457 595.82 648.562 596.56 648.771C599.419 649.581 601.555 652.218 602.898 656.509C606.205 667.074 595.509 677.708 586.07 687.067Z" fill="#FFFBEF"/>
</g>
</svg>
