<svg width="230" height="224" viewBox="0 0 229 224" fill="none" xmlns="http://www.w3.org/2000/svg">
<path d="M228.203 160.45L114.5 224L0.796387 160.45V0H228.203V160.45Z" fill="#FFFBEF"/>
<path d="M45.875 126.903C45.631 126.903 45.5091 127.057 45.5091 127.366C45.5091 127.447 45.5172 127.545 45.5334 127.659C45.566 127.773 45.631 127.96 45.7286 128.22L48.3389 135.002H48.3877L50.9736 128.122C51.0549 127.911 51.1037 127.756 51.12 127.659C51.1525 127.545 51.1688 127.447 51.1688 127.366C51.1688 127.057 51.063 126.903 50.8516 126.903V126.464H55.0232V126.903C54.9094 126.903 54.828 126.943 54.7793 127.025C54.7305 127.106 54.7061 127.195 54.7061 127.293C54.7061 127.456 54.7874 127.732 54.95 128.122L57.5603 135.002H57.6091L60.2438 127.976C60.3576 127.732 60.4146 127.512 60.4146 127.317C60.4146 127.22 60.3739 127.13 60.2926 127.049C60.2113 126.951 60.1137 126.903 59.9998 126.903V126.464H63.6103V126.903C63.4314 126.903 63.2932 127 63.1956 127.195C63.1143 127.391 63.0167 127.634 62.9029 127.927L59.39 137.246C59.2924 137.506 59.2029 137.734 59.1216 137.929C59.0566 138.124 59.024 138.287 59.024 138.417C59.024 138.531 59.0647 138.637 59.146 138.734C59.2273 138.816 59.3412 138.856 59.4875 138.856V139.295H55.6331V138.856C55.7307 138.824 55.8282 138.775 55.9258 138.71C56.0397 138.645 56.0966 138.555 56.0966 138.442C56.0966 138.311 56.0641 138.165 55.999 138.002C55.9502 137.84 55.8608 137.612 55.7307 137.319L52.9252 130.123H52.8764L50.2173 137.173C49.9734 137.807 49.8514 138.206 49.8514 138.368C49.8514 138.629 49.9571 138.791 50.1685 138.856V139.295H46.3873V138.856C46.4849 138.856 46.5824 138.832 46.68 138.783C46.7776 138.734 46.8264 138.653 46.8264 138.539C46.8264 138.409 46.7939 138.271 46.7288 138.124C46.68 137.978 46.6231 137.824 46.558 137.661L42.6548 127.586C42.5898 127.407 42.5166 127.26 42.4353 127.147C42.3702 127.016 42.2564 126.935 42.0937 126.903V126.464H45.875V126.903ZM73.8645 128.561C73.2465 128.561 72.6285 128.659 72.0105 128.854C71.3925 129.049 70.8314 129.334 70.3272 129.708C69.8393 130.066 69.4409 130.513 69.1319 131.05C68.8229 131.587 68.6684 132.196 68.6684 132.879C68.6684 133.563 68.8229 134.172 69.1319 134.709C69.4409 135.246 69.8393 135.701 70.3272 136.075C70.8314 136.433 71.3925 136.71 72.0105 136.905C72.6285 137.1 73.2465 137.197 73.8645 137.197C74.4826 137.197 75.1006 137.1 75.7186 136.905C76.3366 136.71 76.8896 136.433 77.3775 136.075C77.8816 135.701 78.2882 135.246 78.5972 134.709C78.9062 134.172 79.0607 133.563 79.0607 132.879C79.0607 132.196 78.9062 131.587 78.5972 131.05C78.2882 130.513 77.8816 130.066 77.3775 129.708C76.8896 129.334 76.3366 129.049 75.7186 128.854C75.1006 128.659 74.4826 128.561 73.8645 128.561ZM73.8645 126.317C74.759 126.317 75.6698 126.455 76.5968 126.732C77.5238 126.992 78.3695 127.391 79.1339 127.927C79.8983 128.464 80.5245 129.147 81.0124 129.976C81.5003 130.79 81.7442 131.757 81.7442 132.879C81.7442 134.002 81.5003 134.977 81.0124 135.807C80.5245 136.62 79.8983 137.295 79.1339 137.832C78.3695 138.368 77.5238 138.759 76.5968 139.003C75.6698 139.247 74.759 139.369 73.8645 139.369C72.9701 139.369 72.0593 139.247 71.1323 139.003C70.2053 138.759 69.3596 138.368 68.5952 137.832C67.8308 137.295 67.2046 136.62 66.7167 135.807C66.2288 134.977 65.9849 134.002 65.9849 132.879C65.9849 131.757 66.2288 130.79 66.7167 129.976C67.2046 129.147 67.8308 128.464 68.5952 127.927C69.3596 127.391 70.2053 126.992 71.1323 126.732C72.0593 126.455 72.9701 126.317 73.8645 126.317ZM92.8519 128.561C92.2339 128.561 91.6158 128.659 90.9978 128.854C90.3798 129.049 89.8187 129.334 89.3146 129.708C88.8267 130.066 88.4282 130.513 88.1192 131.05C87.8102 131.587 87.6557 132.196 87.6557 132.879C87.6557 133.563 87.8102 134.172 88.1192 134.709C88.4282 135.246 88.8267 135.701 89.3146 136.075C89.8187 136.433 90.3798 136.71 90.9978 136.905C91.6158 137.1 92.2339 137.197 92.8519 137.197C93.4699 137.197 94.0879 137.1 94.7059 136.905C95.3239 136.71 95.8769 136.433 96.3648 136.075C96.869 135.701 97.2755 135.246 97.5846 134.709C97.8936 134.172 98.0481 133.563 98.0481 132.879C98.0481 132.196 97.8936 131.587 97.5846 131.05C97.2755 130.513 96.869 130.066 96.3648 129.708C95.8769 129.334 95.3239 129.049 94.7059 128.854C94.0879 128.659 93.4699 128.561 92.8519 128.561ZM92.8519 126.317C93.7464 126.317 94.6571 126.455 95.5841 126.732C96.5112 126.992 97.3569 127.391 98.1212 127.927C98.8856 128.464 99.5118 129.147 99.9997 129.976C100.488 130.79 100.732 131.757 100.732 132.879C100.732 134.002 100.488 134.977 99.9997 135.807C99.5118 136.62 98.8856 137.295 98.1212 137.832C97.3569 138.368 96.5112 138.759 95.5841 139.003C94.6571 139.247 93.7464 139.369 92.8519 139.369C91.9574 139.369 91.0466 139.247 90.1196 139.003C89.1926 138.759 88.3469 138.368 87.5825 137.832C86.8181 137.295 86.192 136.62 85.7041 135.807C85.2162 134.977 84.9722 134.002 84.9722 132.879C84.9722 131.757 85.2162 130.79 85.7041 129.976C86.192 129.147 86.8181 128.464 87.5825 127.927C88.3469 127.391 89.1926 126.992 90.1196 126.732C91.0466 126.455 91.9574 126.317 92.8519 126.317ZM111.278 137.197C112.042 137.197 112.709 137.132 113.279 137.002C113.848 136.872 114.319 136.644 114.693 136.319C115.068 135.978 115.344 135.53 115.523 134.977C115.718 134.424 115.816 133.725 115.816 132.879C115.816 132.034 115.718 131.334 115.523 130.781C115.344 130.229 115.068 129.789 114.693 129.464C114.319 129.123 113.848 128.887 113.279 128.757C112.709 128.627 112.042 128.561 111.278 128.561H107.497V137.197H111.278ZM112.254 126.464C113.148 126.464 113.978 126.594 114.742 126.854C115.523 127.114 116.198 127.512 116.767 128.049C117.336 128.57 117.784 129.236 118.109 130.05C118.434 130.847 118.597 131.79 118.597 132.879C118.597 133.969 118.434 134.921 118.109 135.734C117.784 136.531 117.336 137.197 116.767 137.734C116.198 138.255 115.523 138.645 114.742 138.905C113.978 139.165 113.148 139.295 112.254 139.295H104.155V138.856C104.529 138.856 104.716 138.71 104.716 138.417V127.342C104.716 127.049 104.529 126.903 104.155 126.903V126.464H112.254ZM133.958 139.759C133.958 139.515 133.877 139.377 133.714 139.344C133.568 139.312 133.372 139.295 133.128 139.295H121.516V138.856C122.004 138.856 122.248 138.71 122.248 138.417V127.342C122.248 127.049 122.004 126.903 121.516 126.903V126.464H125.712V126.903C125.257 126.903 125.029 127.049 125.029 127.342V137.051H133.128C133.372 137.051 133.568 136.994 133.714 136.88C133.877 136.766 133.958 136.612 133.958 136.417H134.397V139.759H133.958ZM144.578 134.319L142.529 129.781L140.235 134.319H144.578ZM135.381 138.856C135.592 138.824 135.755 138.718 135.869 138.539C135.999 138.36 136.121 138.157 136.235 137.929L140.748 128.44C140.862 128.228 140.959 128.033 141.041 127.854C141.138 127.675 141.187 127.521 141.187 127.391C141.187 127.228 141.13 127.114 141.016 127.049C140.902 126.984 140.78 126.935 140.65 126.903V126.464H144.773V126.903C144.659 126.935 144.545 126.984 144.431 127.049C144.318 127.098 144.261 127.212 144.261 127.391C144.261 127.521 144.285 127.651 144.334 127.781C144.399 127.911 144.488 128.082 144.602 128.293L149.676 138.222C149.758 138.401 149.863 138.531 149.994 138.612C150.14 138.694 150.303 138.775 150.481 138.856V139.295H146.188V138.856C146.253 138.856 146.334 138.832 146.432 138.783C146.529 138.734 146.578 138.661 146.578 138.564C146.578 138.401 146.513 138.189 146.383 137.929L145.456 136.124H139.504L138.625 137.856C138.463 138.198 138.381 138.442 138.381 138.588C138.381 138.767 138.536 138.856 138.845 138.856V139.295H135.381V138.856ZM153.36 138.856C153.669 138.856 153.823 138.71 153.823 138.417V127.342C153.823 127.049 153.669 126.903 153.36 126.903V126.464H157.532V126.903C157.401 126.903 157.336 126.984 157.336 127.147C157.336 127.277 157.499 127.504 157.824 127.83L164.826 135.099V127.342C164.826 127.049 164.614 126.903 164.191 126.903V126.464H167.875V126.903C167.566 126.903 167.412 127.049 167.412 127.342V138.417C167.412 138.71 167.566 138.856 167.875 138.856V139.295H163.923V138.856C164.135 138.856 164.24 138.783 164.24 138.637C164.24 138.523 164.11 138.336 163.85 138.076L156.409 130.318V138.417C156.409 138.71 156.596 138.856 156.97 138.856V139.295H153.36V138.856ZM179.056 137.197C179.82 137.197 180.487 137.132 181.056 137.002C181.626 136.872 182.097 136.644 182.471 136.319C182.845 135.978 183.122 135.53 183.301 134.977C183.496 134.424 183.593 133.725 183.593 132.879C183.593 132.034 183.496 131.334 183.301 130.781C183.122 130.229 182.845 129.789 182.471 129.464C182.097 129.123 181.626 128.887 181.056 128.757C180.487 128.627 179.82 128.561 179.056 128.561H175.275V137.197H179.056ZM180.032 126.464C180.926 126.464 181.756 126.594 182.52 126.854C183.301 127.114 183.976 127.512 184.545 128.049C185.114 128.57 185.561 129.236 185.887 130.05C186.212 130.847 186.375 131.79 186.375 132.879C186.375 133.969 186.212 134.921 185.887 135.734C185.561 136.531 185.114 137.197 184.545 137.734C183.976 138.255 183.301 138.645 182.52 138.905C181.756 139.165 180.926 139.295 180.032 139.295H171.933V138.856C172.307 138.856 172.494 138.71 172.494 138.417V127.342C172.494 127.049 172.307 126.903 171.933 126.903V126.464H180.032Z" fill="#BA9E76"/>
<path d="M79.86 151.932C79.86 151.773 79.8177 151.668 79.7331 151.615C79.6167 151.53 79.4528 151.488 79.2412 151.488H75.862V154.724C75.862 154.841 75.8885 154.936 75.9413 155.01C75.9942 155.073 76.0947 155.105 76.2428 155.105V155.295H74.1486V155.105C74.2967 155.105 74.3972 155.073 74.45 155.01C74.5029 154.936 74.5294 154.841 74.5294 154.724V147.522C74.5294 147.405 74.5029 147.315 74.45 147.252C74.3972 147.178 74.2967 147.141 74.1486 147.141V146.95H80.9705C81.2455 146.95 81.42 146.929 81.4941 146.887C81.5681 146.834 81.6051 146.749 81.6051 146.633H81.7955V148.442H81.6051C81.6051 148.304 81.5628 148.198 81.4782 148.124C81.3936 148.04 81.2297 147.998 80.9864 147.998H75.862V150.441H79.2254C79.5004 150.441 79.6749 150.42 79.7489 150.377C79.823 150.324 79.86 150.24 79.86 150.123H80.0504V151.932H79.86ZM91.1452 153.074C91.1452 153.519 91.0394 153.889 90.8279 154.185C90.6163 154.481 90.3413 154.719 90.0029 154.899C89.6644 155.068 89.289 155.184 88.8765 155.248C88.464 155.311 88.0568 155.343 87.6549 155.343C87.253 155.343 86.8458 155.311 86.4333 155.248C86.0208 155.184 85.6453 155.068 85.3069 154.899C84.9684 154.719 84.6934 154.481 84.4819 154.185C84.2703 153.889 84.1646 153.519 84.1646 153.074V148.949C84.1646 148.77 84.1434 148.653 84.1011 148.6C84.0588 148.537 83.9689 148.505 83.8314 148.505V148.315H85.4814V148.505C85.3439 148.505 85.254 148.537 85.2117 148.6C85.1694 148.653 85.1482 148.77 85.1482 148.949V152.868C85.1482 153.471 85.3756 153.894 85.8304 154.137C86.2852 154.381 86.8934 154.502 87.6549 154.502C88.4164 154.502 89.0245 154.381 89.4793 154.137C89.9341 153.894 90.1615 153.471 90.1615 152.868V148.949C90.1615 148.77 90.1404 148.653 90.0981 148.6C90.0558 148.537 89.9659 148.505 89.8284 148.505V148.315H91.4783V148.505C91.3408 148.505 91.2509 148.537 91.2086 148.6C91.1663 148.653 91.1452 148.77 91.1452 148.949V153.074ZM95.8093 154.661C95.8093 154.841 95.8305 154.962 95.8728 155.026C95.9257 155.079 96.0367 155.105 96.2059 155.105V155.295H94.4291V155.105C94.5983 155.105 94.7041 155.079 94.7464 155.026C94.7993 154.962 94.8257 154.841 94.8257 154.661V148.949C94.8257 148.77 94.7993 148.653 94.7464 148.6C94.7041 148.537 94.5983 148.505 94.4291 148.505V148.315H99.2837C99.9818 148.315 100.489 148.489 100.807 148.838C101.124 149.187 101.283 149.663 101.283 150.266C101.283 150.88 101.113 151.345 100.775 151.662C100.447 151.969 99.9765 152.133 99.3631 152.154L101.108 154.819C101.182 154.936 101.246 155.015 101.299 155.057C101.351 155.089 101.42 155.105 101.505 155.105V155.295H99.7914V155.105C99.9078 155.105 99.9765 155.1 99.9977 155.089C100.029 155.068 100.045 155.031 100.045 154.978C100.045 154.925 100.029 154.872 99.9977 154.819C99.9659 154.767 99.9236 154.693 99.8707 154.597L98.316 152.154H95.8093V154.661ZM99.1886 151.266C99.5693 151.266 99.839 151.181 99.9977 151.012C100.156 150.843 100.236 150.584 100.236 150.234C100.236 149.854 100.151 149.579 99.9818 149.41C99.8232 149.23 99.5059 149.14 99.0299 149.14H95.8093V151.266H99.1886ZM104.096 155.105C104.265 155.105 104.376 155.079 104.429 155.026C104.493 154.962 104.524 154.841 104.524 154.661V148.949C104.524 148.77 104.493 148.653 104.429 148.6C104.376 148.537 104.265 148.505 104.096 148.505V148.315H106.412V148.505C106.243 148.505 106.127 148.521 106.063 148.553C106.01 148.574 105.984 148.606 105.984 148.648C105.984 148.68 106.042 148.77 106.158 148.918L110.458 153.852V148.949C110.458 148.77 110.426 148.653 110.363 148.6C110.31 148.537 110.199 148.505 110.03 148.505V148.315H111.775V148.505C111.605 148.505 111.489 148.537 111.426 148.6C111.373 148.653 111.346 148.77 111.346 148.949V154.661C111.346 154.841 111.373 154.962 111.426 155.026C111.489 155.079 111.605 155.105 111.775 155.105V155.295H109.649V155.105C109.86 155.105 109.987 155.094 110.03 155.073C110.072 155.052 110.093 155.015 110.093 154.962C110.093 154.909 110.072 154.867 110.03 154.835C109.998 154.793 109.955 154.74 109.903 154.677L105.413 149.552V154.661C105.413 154.841 105.439 154.962 105.492 155.026C105.556 155.079 105.672 155.105 105.841 155.105V155.295H104.096V155.105ZM114.963 155.105C115.133 155.105 115.238 155.079 115.281 155.026C115.334 154.962 115.36 154.841 115.36 154.661V148.949C115.36 148.77 115.334 148.653 115.281 148.6C115.238 148.537 115.133 148.505 114.963 148.505V148.315H116.74V148.505C116.571 148.505 116.46 148.537 116.407 148.6C116.365 148.653 116.344 148.77 116.344 148.949V154.661C116.344 154.841 116.365 154.962 116.407 155.026C116.46 155.079 116.571 155.105 116.74 155.105V155.295H114.963V155.105ZM125.847 149.584C125.847 149.447 125.82 149.351 125.768 149.298C125.715 149.235 125.609 149.203 125.45 149.203H122.991V154.661C122.991 154.841 123.012 154.962 123.055 155.026C123.108 155.079 123.219 155.105 123.388 155.105V155.295H121.547V155.105C121.717 155.105 121.822 155.079 121.865 155.026C121.918 154.962 121.944 154.841 121.944 154.661V149.203H119.485C119.326 149.203 119.221 149.235 119.168 149.298C119.115 149.351 119.088 149.447 119.088 149.584H118.898V147.934H119.088C119.088 148.072 119.115 148.172 119.168 148.236C119.221 148.288 119.326 148.315 119.485 148.315H125.45C125.609 148.315 125.715 148.288 125.768 148.236C125.82 148.172 125.847 148.072 125.847 147.934H126.037V149.584H125.847ZM135.223 153.074C135.223 153.519 135.117 153.889 134.906 154.185C134.694 154.481 134.419 154.719 134.081 154.899C133.742 155.068 133.367 155.184 132.954 155.248C132.542 155.311 132.135 155.343 131.733 155.343C131.331 155.343 130.924 155.311 130.511 155.248C130.099 155.184 129.723 155.068 129.385 154.899C129.046 154.719 128.771 154.481 128.56 154.185C128.348 153.889 128.242 153.519 128.242 153.074V148.949C128.242 148.77 128.221 148.653 128.179 148.6C128.137 148.537 128.047 148.505 127.909 148.505V148.315H129.559V148.505C129.422 148.505 129.332 148.537 129.29 148.6C129.247 148.653 129.226 148.77 129.226 148.949V152.868C129.226 153.471 129.453 153.894 129.908 154.137C130.363 154.381 130.971 154.502 131.733 154.502C132.494 154.502 133.102 154.381 133.557 154.137C134.012 153.894 134.239 153.471 134.239 152.868V148.949C134.239 148.77 134.218 148.653 134.176 148.6C134.134 148.537 134.044 148.505 133.906 148.505V148.315H135.556V148.505C135.419 148.505 135.329 148.537 135.286 148.6C135.244 148.653 135.223 148.77 135.223 148.949V153.074ZM139.887 154.661C139.887 154.841 139.908 154.962 139.951 155.026C140.004 155.079 140.115 155.105 140.284 155.105V155.295H138.507V155.105C138.676 155.105 138.782 155.079 138.824 155.026C138.877 154.962 138.904 154.841 138.904 154.661V148.949C138.904 148.77 138.877 148.653 138.824 148.6C138.782 148.537 138.676 148.505 138.507 148.505V148.315H143.362C144.06 148.315 144.567 148.489 144.885 148.838C145.202 149.187 145.361 149.663 145.361 150.266C145.361 150.88 145.191 151.345 144.853 151.662C144.525 151.969 144.054 152.133 143.441 152.154L145.186 154.819C145.26 154.936 145.324 155.015 145.376 155.057C145.429 155.089 145.498 155.105 145.583 155.105V155.295H143.869V155.105C143.986 155.105 144.054 155.1 144.076 155.089C144.107 155.068 144.123 155.031 144.123 154.978C144.123 154.925 144.107 154.872 144.076 154.819C144.044 154.767 144.002 154.693 143.949 154.597L142.394 152.154H139.887V154.661ZM143.266 151.266C143.647 151.266 143.917 151.181 144.076 151.012C144.234 150.843 144.314 150.584 144.314 150.234C144.314 149.854 144.229 149.579 144.06 149.41C143.901 149.23 143.584 149.14 143.108 149.14H139.887V151.266H143.266ZM148.571 148.949C148.571 148.77 148.544 148.653 148.491 148.6C148.449 148.537 148.354 148.505 148.206 148.505V148.315H154.599C154.758 148.315 154.864 148.288 154.917 148.236C154.969 148.172 154.996 148.072 154.996 147.934H155.186V149.584H154.996C154.996 149.447 154.969 149.351 154.917 149.298C154.864 149.235 154.758 149.203 154.599 149.203H149.618V151.266H153.124C153.282 151.266 153.388 151.239 153.441 151.186C153.494 151.123 153.52 151.022 153.52 150.885H153.711V152.535H153.52C153.52 152.397 153.494 152.302 153.441 152.249C153.388 152.186 153.282 152.154 153.124 152.154H149.618V154.407H154.774C154.932 154.407 155.038 154.381 155.091 154.328C155.144 154.264 155.17 154.164 155.17 154.026H155.361V155.629H155.17C155.17 155.491 155.144 155.401 155.091 155.359C155.038 155.317 154.932 155.295 154.774 155.295H148.206V155.105C148.354 155.105 148.449 155.079 148.491 155.026C148.544 154.962 148.571 154.841 148.571 154.661V148.949Z" fill="#342F2C"/>
<path d="M130.265 41H78.7412V109.76H147.501V41H130.265ZM80.4067 42.6655H98.1913C95.3224 44.5888 93.4581 46.6572 91.2715 49.0855C89.0402 51.564 86.4543 54.4347 82.0094 57.9268C81.4883 58.3351 80.9511 58.7129 80.4067 59.0568V42.6655ZM145.836 108.095H112.127C112.824 107.488 113.56 106.977 114.326 106.542C116.053 105.559 117.967 104.93 119.921 104.4C124.491 103.159 130.311 100.759 135.999 97.7939C139.427 96.0067 142.808 94.0135 145.836 91.9451V108.095ZM145.836 89.3377C142.584 91.6622 138.828 93.9132 135.012 95.9028C129.475 98.7896 123.809 101.127 119.362 102.334C117.271 102.901 115.206 103.584 113.272 104.685C111.775 105.537 110.376 106.63 109.137 108.095H90.5409C95.1701 96.8161 107.321 95.0343 118.804 93.3509L118.983 93.324C122.36 92.828 131.345 90.1883 136.101 87.8406C137.475 87.1636 138.544 86.4813 139.111 85.8348C140.155 84.6529 140.103 83.6142 138.537 82.8281C137.496 82.3051 135.309 81.9989 131.579 82.0276L131.466 82.0347C117.426 83.6017 109.733 83.4477 106.49 82.5666C105.659 82.341 105.285 82.2335 105.285 82.2246C105.317 82.0061 105.886 81.6354 106.877 81.1716C110.304 79.5616 117.53 78.1505 125.668 78.5015C126.021 78.5444 135.256 79.6279 145.836 73.4424V89.3377ZM145.836 70.946C135.268 77.6114 125.936 76.3793 125.908 76.3758L125.829 76.3722C117.31 75.9943 109.651 77.5129 105.972 79.2375C104.312 80.0165 103.311 80.9477 103.168 81.9165C102.994 83.0949 103.836 84.0637 105.929 84.6314C109.382 85.5698 117.346 85.7596 131.667 84.1604C134.643 84.1407 136.431 84.3144 137.312 84.6225C136.882 85.0021 136.126 85.4462 135.155 85.9244C130.571 88.188 121.921 90.7309 118.673 91.2073L118.494 91.2341C106.126 93.0465 93.0248 94.968 88.2433 108.095H80.4067V95.6915C81.7408 94.608 83.2415 93.6428 84.676 92.7205C88.6856 90.1382 92.2404 87.8513 91.4506 83.9008C91.4417 83.8542 91.4291 83.8076 91.4148 83.7647C89.4664 77.8568 93.5942 74.4094 100.552 72.1082C107.068 69.9539 115.97 68.7899 124.876 67.624C132.287 66.6534 139.701 65.6828 145.836 64.1373V70.946ZM145.836 61.9364C139.736 63.5267 132.167 64.517 124.6 65.5073C115.578 66.6874 106.56 67.8676 99.8836 70.0757C91.7389 72.7691 86.9539 76.9614 89.359 84.3664C89.8174 86.8681 86.859 88.7736 83.5209 90.9225C82.493 91.5834 81.431 92.2657 80.4067 93.0053V61.546C81.4042 60.9837 82.3981 60.3426 83.3311 59.6084C87.9173 56.0052 90.5695 53.0593 92.86 50.5164C95.6232 47.4505 97.8403 44.9881 102.466 42.6655H122.679C112.706 47.9931 101.422 54.5618 94.8496 58.387L93.4993 59.1732C91.0781 60.5808 89.0975 62.2856 88.2737 63.6968C87.8475 64.4292 87.6827 65.1438 87.8439 65.801C88.0248 66.5424 88.5549 67.1011 89.4968 67.4056C90.7504 67.8085 92.9925 67.7422 96.5168 66.9292C103.983 65.2047 110.369 63.002 116.581 60.8583C125.782 57.685 134.602 54.6424 145.836 53.55V61.9364ZM115.888 58.8347C109.712 60.964 103.363 63.1542 96.0405 64.8447C92.9209 65.5664 91.062 65.6667 90.1505 65.3712L89.9177 65.2996C89.898 65.2172 89.9732 65.0327 90.1236 64.7749C90.7701 63.6663 92.4571 62.2498 94.5702 61.0213L95.9187 60.2369C103.286 55.9479 116.581 48.2116 127.258 42.6655H145.836V51.4046C134.253 52.5006 125.265 55.6005 115.888 58.8347Z" fill="#342F2C"/>
</svg>
