<svg width="700" height="1256" viewBox="0 0 700 1256" fill="none" xmlns="http://www.w3.org/2000/svg">
<g opacity="0.1">
<path d="M7.51088 212.654C14.8688 208.902 22.2672 204.848 29.4431 200.915C47.9793 190.829 67.1622 180.26 87.7603 173.725C150.423 153.877 223.8 174.996 266.229 225.079C284.705 246.904 297.237 273.085 308.294 296.201C323.879 328.797 336.594 358.347 334.047 390.116C332.834 405.324 327.983 419.928 323.374 434.047C319.394 445.136 316.265 456.512 314.015 468.075C310.093 491.312 313.51 515.436 316.804 538.672C319.756 559.488 322.869 581.031 320.847 602.27C315.834 656.146 279.732 707.4 210.418 758.916C200.857 766.016 190.932 773.035 181.31 779.974C138.396 810.593 94.0267 842.261 66.6165 887.04C57.3788 902.127 50.122 918.708 43.0875 934.743C38.2968 945.696 33.3444 956.931 27.7653 967.863C21.0139 980.974 9.93665 998.966 -8.31652 1003.69C-20.0608 1006.73 -32.3913 1003.57 -42.9025 1000.08C-62.7728 993.46 -82.2389 984.262 -101.058 975.367C-135.422 959.23 -170.857 942.388 -208.738 941.803C-244.739 941.258 -281.366 955.801 -310.757 981.962L-310.757 973.894C-280.942 948.943 -244.516 935.187 -208.637 935.731C-169.442 936.337 -133.36 953.381 -98.4708 969.88C-79.8133 978.695 -60.509 987.812 -40.9824 994.307C-31.3201 997.514 -20.0608 1000.46 -9.83258 997.817C6.05555 993.783 16.1625 977.162 22.3682 965.08C27.8664 954.409 32.7784 943.174 37.5287 932.302C44.644 916.166 51.9816 899.303 61.4418 883.893C89.4987 838.045 134.374 806.014 177.793 774.971C187.375 768.134 197.279 761.054 206.8 753.974C274.638 703.547 309.891 653.706 314.823 601.645C316.724 581.071 313.732 559.912 310.781 539.439C307.425 515.658 303.948 491.029 308.011 466.824C310.316 454.961 313.519 443.289 317.593 431.909C322.121 418.133 326.831 403.872 327.983 389.41C330.408 359.154 318.017 330.35 302.796 298.642C291.901 275.869 279.55 250.051 261.58 228.831C220.687 180.542 149.959 160.251 89.5795 179.332C69.5476 185.686 50.6273 196.034 32.3337 206.058C25.1375 210.093 17.6786 214.127 10.2399 217.878C-46.6054 246.52 -109.152 262.11 -172.818 263.504C-219.539 264.654 -266.138 258.23 -310.798 244.484L-310.798 238.13C-207.08 270.625 -88.9905 261.85 7.51088 212.654Z" fill="#342F2C"/>
<path d="M679.119 746.128C674.167 749.516 669.012 753.026 663.918 756.213C637.511 772.718 607.775 783.194 576.836 786.892C563.637 788.445 549.932 788.909 536.671 789.172C505.259 790.019 475.565 790.805 450.034 805.853C406.231 831.671 395.902 888.068 393.617 919.393C392.384 936.518 392.526 954.107 392.667 971.131C392.89 998.502 393.132 1026.82 387.614 1054.23C386.28 1060.87 384.602 1067.53 382.965 1073.96C380.126 1084.22 377.951 1094.65 376.456 1105.19C373.868 1126.99 377.204 1149.32 381.186 1172.17C384.602 1191.8 388.22 1210.94 395.032 1229.15C408.252 1264.55 433.014 1294.61 456.948 1323.65C468.429 1337.61 480.173 1351.89 490.786 1366.88L483.367 1366.88C473.523 1353.3 462.789 1340.27 452.278 1327.51C428.021 1298.06 402.936 1267.6 389.352 1231.25C382.358 1212.57 378.679 1193.13 375.202 1173.2C372.15 1155.67 369.482 1138.43 369.482 1121.32C369.465 1115.69 369.783 1110.06 370.432 1104.46C371.955 1093.66 374.176 1082.98 377.082 1072.47C378.699 1066.11 380.357 1059.54 381.671 1053.04C387.068 1026.26 386.825 998.26 386.603 971.171C386.462 954.046 386.32 936.316 387.573 918.95C389.938 886.455 400.773 827.859 446.962 800.649C473.846 784.815 505.704 783.947 536.51 783.12C549.629 782.757 563.192 782.394 576.129 780.881C606.169 777.286 635.042 767.113 660.684 751.089C665.697 747.943 670.791 744.473 675.683 741.125C683.566 735.74 691.551 730.273 699.939 725.695L699.939 732.674C692.804 736.788 685.911 741.549 679.119 746.128Z" fill="#342F2C"/>
<path d="M699.677 226.29C659.476 257.636 611.026 276.673 560.2 281.093C551.913 281.779 543.059 282.122 534.508 279.863C519.368 275.829 507.705 264.634 497.335 253.076C492.928 248.134 488.542 242.991 484.317 238.029C470.168 221.348 455.371 204.082 437.017 192.02C428.561 186.729 419.785 181.966 410.739 177.759C396.003 170.518 380.761 163.034 368.956 151.013C351.734 133.464 345.407 109.683 343.143 92.8406C342.276 86.4221 341.837 79.9532 341.829 73.4767C341.829 34.9104 357.374 -1.15467 384.541 -23.8264C419.329 -52.8319 472.229 -54.8892 504.976 -28.5464C514.901 -20.478 522.906 -10.3927 530.648 -0.54944C540.755 12.2992 550.316 24.4419 563.778 32.0867C593.129 48.788 630.787 37.9764 663.777 26.5599L699.899 14.0541L699.899 20.4481L665.778 32.2681C631.515 44.1284 592.32 55.2828 560.766 37.3511C546.293 29.1013 535.923 15.9299 525.877 3.182C518.358 -6.37879 510.555 -16.2826 501.176 -23.8264C470.592 -48.4347 421.068 -46.3975 388.443 -19.1873C358.789 5.52185 343.366 49.1711 349.147 92.0337C351.289 107.969 357.232 130.358 373.282 146.777C384.359 158.052 398.469 164.93 413.427 172.333C422.686 176.643 431.665 181.527 440.312 186.957C459.393 199.503 474.392 217.092 488.825 234.116C493.05 239.058 497.396 244.201 501.762 249.042C511.485 259.914 522.36 270.443 535.944 274.013C543.712 275.691 551.708 276.046 559.594 275.062C609.242 270.734 656.57 252.147 695.856 221.549L699.899 218.363L699.899 226.128C699.899 226.128 699.757 226.249 699.677 226.29Z" fill="#342F2C"/>
<path d="M-8.88255 -0.0654381C-15.8968 40.4574 -51.3318 77.2889 -79.5101 96.5317C-114.197 120.172 -154.989 132.698 -190.303 141.815C-201.319 144.659 -213.913 147.18 -224.282 141.109C-232.085 136.51 -236.411 127.978 -238.937 121.967C-243.921 109.995 -246.457 97.1506 -246.396 84.1872C-246.396 56.6745 -235.178 28.7787 -210.011 14.6793C-200.976 9.5963 -190.949 6.77245 -181.267 4.04931C-176.941 2.81896 -172.474 1.56835 -168.189 0.13622C-150.403 -5.88038 -134.053 -15.4937 -120.16 -28.1027C-117.088 -30.9064 -114.096 -33.9522 -111.044 -36.897C-101.24 -46.6394 -91.0927 -56.7247 -77.6302 -61.2632C-61.459 -66.7294 -43.1249 -62.6752 -28.7528 -50.4315C-13.4306 -37.2601 -5.81004 -17.9971 -8.88255 -0.0654381ZM-75.7502 -55.4944C-87.8785 -51.4603 -97.076 -42.2826 -106.819 -32.6007C-109.831 -29.5952 -112.883 -26.5494 -116.138 -23.6246C-130.648 -10.4526 -147.729 -0.413096 -166.309 5.86474C-170.736 7.35741 -175.284 8.62816 -179.67 9.89892C-189.454 12.6421 -198.691 15.2441 -207.1 19.9842C-241.323 39.1866 -247.387 86.6683 -233.379 119.627C-229.801 128.038 -226.061 133.061 -221.25 135.905C-212.882 140.827 -201.703 138.527 -191.879 135.905C-157.051 126.909 -116.886 114.605 -82.9868 91.5294C-55.7587 72.9724 -21.5769 37.573 -14.9063 -1.09412C-12.1774 -16.908 -18.949 -34.0529 -32.7956 -45.8124C-45.4899 -56.6642 -61.56 -60.2951 -75.7502 -55.4944Z" fill="#342F2C"/>
<path d="M116.343 1254.47C67.4558 1280.57 10.9256 1288.67 -43.3474 1277.36C-67.3412 1272.24 -82.7645 1263.77 -91.8608 1250.68C-97.6622 1242.35 -101.018 1231.82 -102.13 1218.4C-102.372 1215.52 -102.493 1212.69 -102.493 1209.95C-102.72 1199.22 -100.465 1188.57 -95.9036 1178.85C-83.0273 1152.63 -54.5054 1142.54 -26.9539 1132.8C-16.0482 1129.17 -5.35211 1124.94 5.08533 1120.13C28.0685 1108.92 47.3728 1090.92 66.0303 1073.54C75.5712 1064.64 85.4559 1055.38 95.7852 1047.17C134.434 1016.19 176.156 1006.55 207.386 1021.4C232.755 1033.5 245.955 1051.95 246.581 1076.42C248.259 1142.52 156.973 1232.52 116.343 1254.47ZM240.517 1076.62C239.951 1054.62 227.924 1037.88 204.779 1026.9C161.683 1006.43 113.351 1040.88 99.6663 1051.93C89.5593 1060 79.7152 1069.18 70.255 1078.02C51.2539 1095.71 31.6262 1113.98 7.83435 1125.6C-2.80468 1130.52 -13.7103 1134.84 -24.8314 1138.55C-52.4841 1148.33 -78.5803 1157.59 -90.3852 1181.55C-95.2972 1191.54 -97.1972 1203.74 -96.0046 1217.86C-94.9939 1230.14 -91.9619 1239.72 -86.8073 1247.13C-78.7217 1258.89 -64.3698 1266.59 -41.9728 1271.33C10.9257 1282.35 66.0224 1274.45 113.675 1249.02C151.616 1228.53 240.517 1140.93 240.517 1078.4L240.517 1076.62Z" fill="#342F2C"/>
<path d="M656.863 787.659C645.018 794.86 632.768 802.303 619.629 807.507C598.951 815.696 576.412 818.197 554.621 820.618C547.223 821.445 539.562 822.292 532.083 823.341C494.849 828.646 469.137 840.223 453.451 858.74C438.068 876.894 432.65 900.917 428.406 923.972C414.895 997.651 409.755 1072.61 413.083 1147.44C413.973 1167.03 415.509 1189.64 422.786 1210.35C430.063 1231.07 442.555 1249.18 455.856 1267.56C480.335 1301.41 506.27 1334.71 533.134 1366.9L530.486 1366.9C503.985 1335.07 478.395 1302.17 454.219 1268.75C440.837 1250.23 428.203 1231.88 420.886 1211.02C413.569 1190.16 411.951 1167.25 411.082 1147.54C410.408 1132.75 410.078 1117.96 410.092 1103.17C410.085 1042.92 415.552 982.793 426.425 923.528C430.467 901.341 436.188 875.905 451.894 857.369C467.924 838.448 494.06 826.649 531.8 821.263C539.299 820.214 546.98 819.347 554.399 818.52C576.068 816.12 598.465 813.639 618.881 805.55C631.859 800.427 644.028 793.024 655.812 785.864C663.898 780.922 672.327 775.778 680.979 771.462C687.073 768.396 693.399 765.813 699.899 763.736L699.899 765.753C693.718 767.801 687.698 770.302 681.888 773.237C673.318 777.654 664.949 782.737 656.863 787.659Z" fill="#342F2C"/>
<path d="M678.088 845.871C667.999 853.061 657.376 859.474 646.312 865.054C629.211 873.122 610.351 875.805 592.118 878.427C585.407 879.395 578.474 880.444 571.743 881.654C539.744 887.604 518.6 898.073 505.178 914.613C492.1 930.749 487.268 952.614 483.771 971.837C472.037 1036.32 467.603 1101.92 470.552 1167.39C471.421 1186.92 473.058 1207.73 479.021 1226.81C482.206 1236.72 486.264 1246.33 491.15 1255.52C495.758 1264.47 500.872 1273.21 505.825 1281.74L510.979 1290.57C519.065 1304.43 527.009 1318.01 534.67 1331.04C542.331 1344.07 548.537 1354.31 554.722 1364.18L556.38 1366.84L553.995 1366.84L552.903 1365.1C546.718 1355.22 540.512 1344.93 532.831 1331.92C525.149 1318.91 517.226 1305.32 509.14 1291.44L503.985 1282.61C499.013 1274.13 493.878 1265.38 489.249 1256.38C484.364 1247.08 480.305 1237.37 477.121 1227.36C471.057 1207.95 469.44 1187.02 468.571 1167.45C467.978 1154.35 467.688 1141.26 467.701 1128.16C467.706 1075.6 472.441 1023.15 481.851 971.433C485.409 951.969 490.321 929.801 503.702 913.302C517.428 896.379 538.956 885.688 571.46 879.637C578.211 878.366 585.185 877.358 591.916 876.389C610.008 873.787 628.705 871.085 645.523 863.198C656.497 857.659 667.032 851.293 677.037 844.157C684.435 839.175 692.056 834.071 699.98 829.573L699.98 831.893C692.4 836.25 685.143 841.111 678.088 845.871Z" fill="#342F2C"/>
<path d="M699.616 904.265C691.157 910.956 682.263 917.081 672.994 922.6C659.289 930.306 643.927 933.291 629.09 936.195C623.248 937.325 617.224 938.515 611.423 939.947C594.908 943.981 571.298 951.707 556.845 970.486C546.071 984.605 542.008 1003.28 539.036 1019.7C529.164 1075 525.49 1131.21 528.08 1187.32C528.849 1204.38 530.304 1224.37 535.317 1243.23C537.878 1252.56 541.059 1261.7 544.838 1270.6C547.344 1276.66 549.992 1282.71 552.56 1288.5L555.753 1295.74C562.788 1311.87 569.034 1327.63 574.37 1342.35L576.857 1349.25C578.999 1355.3 581.061 1360.95 583.345 1366.88L581.182 1366.88C578.999 1361.19 577.018 1355.68 574.957 1349.94L572.47 1343.04C567.154 1328.35 560.908 1312.78 553.894 1296.64L550.7 1289.4C548.133 1283.57 545.485 1277.56 542.958 1271.47C539.151 1262.49 535.944 1253.26 533.356 1243.86C528.303 1224.82 526.827 1204.69 526.079 1187.52C525.554 1176.09 525.298 1164.66 525.311 1153.23C525.288 1108.36 529.266 1063.58 537.197 1019.42C540.209 1002.78 544.353 983.818 555.39 969.336C570.125 950.053 594.18 942.267 610.998 938.071C616.84 936.619 622.904 935.449 628.766 934.299C643.441 931.435 658.642 928.47 672.064 920.926C681.255 915.461 690.074 909.397 698.464 902.773L699.96 901.623L699.96 904.164L699.616 904.265Z" fill="#342F2C"/>
<path d="M699.677 980.127C689.206 987.288 677.259 990.616 665.717 993.843C660.866 995.194 655.873 996.586 651.123 998.24C637.155 1003.08 619.69 1010.67 608.673 1026.34C600.163 1038.44 596.868 1053.97 594.524 1067.57C586.388 1113.67 583.372 1160.53 585.528 1207.29C586.078 1224.91 588.106 1242.45 591.593 1259.73C593.614 1268.89 596.08 1277.64 598.526 1285.75L600.002 1290.57C602.023 1297.27 604.044 1303.58 605.682 1309.92C609.748 1324.3 612.548 1339 614.05 1353.87C614.374 1357.34 614.576 1360.65 614.798 1363.95L614.98 1366.92L612.959 1366.92L612.777 1364.08C612.575 1360.81 612.352 1357.52 612.049 1353.99C610.521 1339.25 607.742 1324.66 603.741 1310.38C602.003 1304.09 600.082 1297.77 598.061 1291.1L596.606 1286.28C594.14 1278.21 591.593 1269.31 589.612 1260.06C586.117 1242.67 584.088 1225.02 583.548 1207.29C583.103 1197.49 582.887 1187.72 582.901 1177.98C582.855 1140.79 586.095 1103.67 592.583 1067.04C595.049 1053.23 598.405 1037.45 607.137 1025.01C618.598 1008.67 637.458 1000.8 650.557 996.163C655.368 994.489 660.401 993.077 665.272 991.725C676.653 988.538 688.438 985.25 698.625 978.292L700 977.303L700 979.784C699.911 979.914 699.801 980.03 699.677 980.127Z" fill="#342F2C"/>
<path d="M690.863 1056.49C680.756 1061.72 668.325 1069.34 660.542 1082.19C654.337 1092.28 651.81 1104.66 649.93 1115.43C643.585 1152.34 641.267 1189.83 643.017 1227.24C643.698 1243.63 645.291 1259.97 647.787 1276.19C648.717 1282.12 649.809 1288.01 650.86 1293.7L652.174 1300.92C653.811 1310.08 654.882 1317.44 655.55 1324.1C657.066 1340.23 656.419 1354.05 653.528 1365.45L653.124 1366.9L651.102 1366.9L651.628 1364.88C654.337 1353.87 655.004 1339.79 653.508 1324.2C652.861 1317.6 651.79 1310.3 650.152 1301.18L648.838 1293.98C647.808 1288.27 646.716 1282.38 645.766 1276.43C643.261 1260.14 641.668 1243.73 640.995 1227.26C640.605 1219.11 640.416 1210.99 640.429 1202.89C640.384 1173.44 642.886 1144.03 647.909 1115.01C649.829 1104.06 652.396 1091.49 658.804 1081.06C666.89 1067.79 679.766 1059.96 690.014 1054.62C693.249 1052.94 696.644 1051.45 699.98 1049.98L699.98 1052.2C696.847 1053.61 693.835 1054.98 690.863 1056.49Z" fill="#342F2C"/>
<path d="M699.899 1356.51L699.899 1363.09C699.414 1364.4 698.908 1365.67 698.363 1366.9L696.18 1366.9C697.662 1363.53 698.905 1360.06 699.899 1356.51Z" fill="#342F2C"/>
<path d="M698.363 1247.29C697.455 1227.46 697.969 1207.58 699.899 1187.82L699.899 1270.52C699.252 1262.84 698.706 1255.03 698.363 1247.29Z" fill="#342F2C"/>
<path d="M-10.2167 1254.83C-28.4092 1252.27 -41.9122 1246.92 -51.817 1238.49C-56.552 1234.6 -60.399 1229.74 -63.1008 1224.25C-65.8025 1218.75 -67.2965 1212.74 -67.4828 1206.62C-67.4964 1203.57 -67.0674 1200.54 -66.2093 1197.61C-62.6315 1185.5 -51.433 1175.16 -35.4438 1169.17C-28.3218 1166.69 -21.0505 1164.67 -13.6733 1163.12C-7.28576 1161.6 -0.695981 1160.03 5.55011 1157.87C31.525 1148.92 52.6284 1129.63 70.356 1112.31C72.6402 1110.09 74.9244 1107.83 77.2086 1105.57C93.8649 1089.13 111.087 1072.11 131.786 1060.61C151.859 1049.47 194.449 1035.9 212.076 1064.26C227.742 1089.49 206.679 1127.55 192.711 1148.01C174.336 1174.94 149.574 1195.83 130.048 1211.04C117.287 1221.33 103.598 1230.42 89.155 1238.19C58.5304 1253.79 23.8338 1259.6 -10.2167 1254.83ZM88.2655 1236.31C102.596 1228.61 116.178 1219.58 128.835 1209.37C148.24 1194.26 172.861 1173.48 191.094 1146.84C204.759 1126.81 225.458 1089.55 210.398 1065.29C193.58 1038.24 152.303 1051.53 132.817 1062.34C112.3 1073.72 95.1788 1090.58 78.6235 1106.98L71.771 1113.74C53.8817 1131.25 32.5762 1150.67 6.21723 1159.77C-0.129941 1161.95 -6.78045 1163.52 -13.2084 1165.05C-20.5052 1166.61 -27.6954 1168.63 -34.7362 1171.1C-50.119 1176.85 -60.8931 1186.76 -64.2687 1198.23C-68.6754 1213.16 -60.5494 1228.49 -50.5233 1237C-40.9015 1245.17 -27.6411 1250.37 -9.93371 1252.87C23.727 1257.55 58.0142 1251.77 88.2655 1236.31Z" fill="#342F2C"/>
<path d="M30.5346 1223.63C19.9829 1222.5 11.675 1219.33 5.79273 1214.23C3.08783 1211.84 0.921572 1208.9 -0.562864 1205.62C-2.04724 1202.33 -2.81604 1198.77 -2.81842 1195.17C-2.83014 1192.24 -2.29541 1189.34 -1.24164 1186.61L-0.918272 1185.83C3.22559 1176.17 13.2314 1170.22 20.933 1166.93C24.248 1165.5 27.7653 1164.31 31.4847 1163.03C35.8509 1161.54 40.3586 1160.01 44.8663 1157.99C59.7438 1151.3 72.7413 1139.56 83.7579 1129.07L86.8102 1126.12C96.9172 1116.42 107.287 1106.4 119.415 1099.74C131.968 1092.86 155.8 1085.78 165.523 1102.83C169.566 1109.91 169.788 1118.96 166.15 1129.67C163.219 1138.29 157.862 1147.71 149.756 1158.42C138.972 1172.22 126.388 1184.52 112.34 1195.01C104.803 1201.04 96.7772 1206.43 88.3465 1211.14C81.7269 1214.71 74.7567 1217.59 67.5463 1219.73C57.3664 1222.87 46.743 1224.33 36.0934 1224.05C34.254 1223.89 32.3741 1223.77 30.5346 1223.63ZM66.9197 1217.78C73.9973 1215.67 80.8388 1212.85 87.3358 1209.35C95.6683 1204.7 103.599 1199.37 111.047 1193.41C124.944 1182.99 137.391 1170.76 148.058 1157.06C156.023 1146.51 161.299 1137.3 164.23 1128.83C167.686 1118.74 167.525 1110.19 163.785 1103.61C154.83 1087.94 132.292 1094.8 120.386 1101.29C108.48 1107.79 98.1503 1117.77 88.2252 1127.37L85.1527 1130.32C74.0148 1140.93 60.8959 1152.81 45.6951 1159.63C41.1065 1161.64 36.5382 1163.24 32.1316 1164.75C28.4526 1166 24.996 1167.19 21.7416 1168.58C14.3837 1171.73 4.82245 1177.38 0.941347 1186.43L0.638247 1187.16C-0.926634 1191.55 -1.1452 1196.31 0.0105 1200.82C1.16614 1205.34 3.64362 1209.41 7.12695 1212.51C12.6858 1217.33 20.6298 1220.34 30.7569 1221.41C32.5358 1221.61 34.3753 1221.73 36.1744 1221.81C46.5978 1222.13 57.0031 1220.74 66.9804 1217.72L66.9197 1217.78Z" fill="#342F2C"/>
<path d="M60.6938 1183.18C60.7712 1179.85 62.0072 1176.64 64.1908 1174.11C66.795 1171.39 69.8013 1169.08 73.1051 1167.27C74.4594 1166.44 75.8744 1165.58 77.1479 1164.65C79.4218 1162.75 81.5944 1160.73 83.6568 1158.6C87.5177 1154.72 92.3084 1149.94 97.1597 1145.83C105.104 1139.13 110.824 1136.35 114.685 1137.34C115.697 1137.62 116.619 1138.16 117.368 1138.9C118.117 1139.63 118.668 1140.55 118.971 1141.55C120.567 1145.73 120.042 1150.47 117.353 1155.67C114.518 1160.68 110.894 1165.19 106.62 1169.05C99.2065 1175.81 91.2265 1181.92 82.7674 1187.32L81.979 1187.84C79.3333 1189.8 76.3542 1191.26 73.186 1192.16C71.4952 1192.63 69.7141 1192.68 68.0005 1192.3C66.2869 1191.92 64.6936 1191.12 63.3619 1189.98C62.4575 1189.1 61.7515 1188.04 61.2913 1186.87C60.8311 1185.7 60.6275 1184.44 60.6938 1183.18ZM72.8222 1190.04C75.734 1189.18 78.4711 1187.82 80.9078 1186.01L81.696 1185.48C90.0478 1180.14 97.9324 1174.1 105.266 1167.43C109.377 1163.73 112.864 1159.39 115.595 1154.58C117.012 1152.07 117.796 1149.25 117.879 1146.37C117.892 1144.93 117.631 1143.5 117.111 1142.16C116.919 1141.46 116.554 1140.82 116.049 1140.3C115.544 1139.77 114.915 1139.39 114.22 1139.17C111.087 1138.39 105.811 1141.19 98.514 1147.24C93.7233 1151.28 88.9528 1156.04 85.1324 1159.87C83.002 1162.14 80.7337 1164.27 78.3405 1166.26C76.9862 1167.21 75.551 1168.1 74.1563 1168.94C71.0364 1170.65 68.1943 1172.82 65.7271 1175.38C62.5535 1179.07 61.4012 1185.14 64.7769 1188.33C65.8721 1189.23 67.1695 1189.86 68.5593 1190.16C69.9491 1190.46 71.3904 1190.42 72.7615 1190.04L72.8222 1190.04Z" fill="#342F2C"/>
<path d="M-82.5826 281.537C-58.3259 273.106 -34.6553 261.548 -11.8338 250.373C12.0793 238.654 36.6796 226.552 62.4524 218.1C122.245 198.172 178.844 204.425 213.835 234.862C227.176 246.46 237.222 261.084 246.945 275.446C274.719 316.17 299.117 356.37 292.73 400.322C291.409 408.199 289.572 415.982 287.231 423.619C285.816 428.642 284.341 433.846 283.189 439.009C278.519 460.168 279.004 482.396 279.469 503.898L279.651 512.894C280.197 544.603 279.166 576.714 276.599 608.342C275.608 620.626 274.315 632.547 269.504 643.318C265.198 652.979 258.265 661.189 252.12 668.107C232.088 690.638 201.302 716.013 168.454 708.913C143.288 703.487 122.488 678.838 112.805 643.035C110.177 633.353 108.237 623.288 106.337 613.546C102.617 594.323 98.7567 574.455 89.5997 557.068C71.4072 522.253 30.8378 496.98 -18.8279 489.456C-54.0405 484.151 -90.3448 487.076 -125.456 489.9C-134.148 490.606 -143.123 491.332 -151.957 491.917C-189.069 494.377 -226.295 494.62 -263.437 492.643C-278.658 491.836 -295.132 490.485 -310.778 486.188L-310.778 484.171C-295.152 488.548 -278.597 489.9 -263.336 490.707C-226.295 492.68 -189.17 492.438 -152.159 489.981C-143.346 489.396 -134.371 488.669 -125.699 487.963C-90.4661 485.14 -54.0405 482.195 -18.5651 487.56C31.7272 495.164 72.8222 520.821 91.3381 556.14C100.636 573.89 104.518 593.92 108.277 613.284C110.157 622.986 112.118 633.011 114.705 642.632C124.206 677.709 144.44 701.792 168.838 707.077C200.736 713.955 230.895 689.024 250.563 666.877C256.627 660.079 263.419 652.031 267.624 642.672C272.293 632.163 273.567 620.484 274.557 608.382C277.104 576.815 278.135 544.784 277.589 513.116L277.407 504.14C276.942 482.517 276.457 460.188 281.187 438.767C282.319 433.543 283.795 428.339 285.23 423.276C287.544 415.717 289.36 408.016 290.668 400.221C296.954 356.995 272.758 317.179 245.207 276.777C235.565 262.657 225.579 248.014 212.44 236.577C178.076 206.623 122.144 200.512 63.0386 220.218C37.4882 228.73 12.8474 240.812 -10.9848 252.491C-33.8468 263.686 -57.477 275.264 -81.9358 283.736C-158.749 310.301 -240.09 305.802 -310.818 293.821L-310.818 291.804C-240.251 303.463 -159.011 308.001 -82.5826 281.537Z" fill="#342F2C"/>
<path d="M-172.636 517.856C-132.915 518.018 -91.78 518.179 -52.1 523C-36.4747 524.896 -20.0002 527.679 -5.42602 535.102C7.67262 541.738 19.619 552.066 33.3038 568.565C54.9732 594.686 68.7187 621.009 74.1563 647.049C82.7472 688.076 71.3869 731.766 62.2705 766.682C50.3038 812.63 35.4061 869.834 7.79383 918.566C-0.291743 932.888 -11.9147 950.154 -29.9051 956.608C-38.4152 959.654 -48.5222 960.32 -60.8325 958.625C-88.5458 954.853 -114.662 941.944 -139.929 929.458C-173.646 912.777 -205.504 897.044 -240.999 900.877C-267.116 903.701 -290.342 917.195 -310.717 932.524L-310.717 929.983C-290.503 914.875 -267.277 901.744 -241.222 898.88C-205.059 894.967 -171.443 911.587 -138.959 927.643C-113.833 940.068 -87.8584 952.897 -60.4685 956.628C-48.5019 958.242 -38.6982 957.597 -30.5116 954.611C-13.1478 948.399 -1.80767 931.516 6.11622 917.497C33.6071 869.088 48.5654 811.944 60.3906 766.096C69.4666 731.282 80.746 687.935 72.2561 647.392C66.8792 621.735 53.2955 595.634 31.8283 569.755C18.3253 553.478 6.581 543.332 -6.25487 536.817C-20.5461 529.555 -36.8182 526.731 -52.2616 524.956C-91.9012 520.136 -132.915 519.974 -172.555 519.813C-218.36 519.631 -265.216 519.43 -310.717 512.047L-310.717 510.03C-265.337 517.473 -218.441 517.655 -172.636 517.856Z" fill="#342F2C"/>
<path d="M-200.309 552.953C-168.876 553.538 -136.392 554.143 -104.858 557.834C-100.027 558.379 -96.126 558.924 -92.5481 559.529C-83.1645 560.868 -74.0221 563.544 -65.4007 567.476C-54.1617 572.841 -43.61 581.414 -32.1689 594.485C-13.9764 615.381 -2.03002 637.024 3.00324 658.829C10.442 691.102 3.42774 724.222 -5.08233 758.169C-15.6138 800.81 -28.6518 845.67 -52.5851 884.781C-60.1047 897.085 -69.8276 910.357 -84.7051 915.46C-91.8406 917.901 -100.31 918.405 -110.599 917.033C-133.421 913.947 -155.07 903.7 -175.89 893.777C-181.146 891.275 -186.563 888.714 -191.9 886.293C-213.326 876.611 -236.552 868.14 -261.314 870.984C-279.204 873.102 -295.375 880.948 -310.838 891.538L-310.838 889.097C-295.476 878.749 -279.406 871.085 -261.557 868.926C-236.31 865.941 -212.76 874.594 -191.071 884.397C-185.714 886.818 -180.277 889.4 -175.021 891.901C-154.281 901.744 -132.834 911.93 -110.336 914.956C-100.391 916.307 -92.1437 915.823 -85.3721 913.483C-71.101 908.602 -61.6611 895.673 -54.3235 883.671C-30.5317 844.782 -17.5543 800.104 -7.06329 757.625C1.34571 723.92 8.29932 691.062 1.02229 659.212C-3.93011 637.751 -15.6138 616.39 -33.7053 595.755C-44.9442 582.907 -55.2938 574.475 -66.2699 569.231C-74.7199 565.384 -83.6777 562.762 -92.8715 561.445C-96.4291 560.86 -100.31 560.336 -105 559.771C-136.453 556.1 -168.876 555.495 -200.248 554.91C-236.876 554.244 -274.292 553.518 -310.717 547.89L-310.717 545.873C-274.413 551.561 -236.956 552.288 -200.309 552.953Z" fill="#342F2C"/>
<path d="M-226.829 588.252C-204.068 589.119 -180.519 590.027 -157.617 592.548C-153.574 592.972 -150.501 593.375 -147.51 593.819C-139.865 594.858 -132.389 596.892 -125.274 599.87C-115.875 603.904 -106.799 610.682 -97.5611 620.424C-82.8454 635.915 -72.6373 653.282 -68.0689 670.609C-61.1558 696.83 -66.3508 724.02 -72.2532 749.678C-82.1176 792.419 -95.3779 825.58 -112.782 851.015C-119.23 860.435 -127.417 870.56 -139.323 874.332C-146.113 876.217 -153.236 876.582 -160.184 875.401C-178.093 873.021 -195.134 865.316 -211.608 858.054C-216.217 856.037 -221.008 853.859 -225.758 851.882C-242.859 844.701 -261.415 838.408 -281.427 841.071C-291.785 842.612 -301.753 846.11 -310.798 851.378L-310.798 849.078C-301.814 843.959 -291.959 840.54 -281.73 838.993C-261.254 836.27 -242.374 842.644 -225.131 849.946C-220.401 851.963 -215.61 853.98 -210.982 856.138C-194.628 863.44 -177.73 870.984 -160.123 873.324C-153.466 874.463 -146.639 874.119 -140.132 872.315C-128.812 868.745 -120.888 858.922 -114.662 849.805C-97.3791 824.571 -84.2199 791.653 -74.4364 749.133C-68.5743 723.738 -63.4197 696.79 -70.2318 671.052C-74.7194 654.048 -84.7455 636.984 -99.2389 621.735C-108.275 612.194 -117.128 605.599 -126.285 601.564C-133.237 598.696 -140.536 596.75 -147.995 595.775C-150.865 595.332 -154.059 594.928 -157.94 594.505C-180.782 592.004 -204.27 591.096 -227.011 590.229C-254.825 589.159 -283.186 588.07 -310.899 583.996L-310.899 581.979C-283.085 586.235 -254.684 587.284 -226.829 588.252Z" fill="#342F2C"/>
<path d="M-250.48 624.418C-237.3 625.265 -223.696 626.153 -210.375 627.464C-207.788 627.726 -205.2 627.988 -202.633 628.331C-196.757 628.99 -190.974 630.302 -185.391 632.244C-177.114 635.433 -169.556 640.232 -163.155 646.363C-152.233 656.13 -144.023 668.546 -139.323 682.408C-133.077 701.792 -135.988 722.992 -139.647 741.186C-143.932 762.466 -153.251 792.944 -173.242 817.31C-178.821 824.127 -185.229 830.764 -194.184 833.224C-199.36 834.476 -204.736 834.675 -209.991 833.809C-222.928 832.115 -235.339 827.133 -247.346 822.312C-251.389 820.678 -255.594 819.004 -259.717 817.491C-271.846 813.013 -286.319 808.757 -301.601 811.178C-304.716 811.692 -307.785 812.454 -310.778 813.457L-310.778 811.44C-307.886 810.496 -304.926 809.775 -301.924 809.282C-286.177 806.781 -271.401 811.117 -259.01 815.696C-254.967 817.229 -250.661 818.903 -246.599 820.537C-234.692 825.317 -222.342 830.259 -209.728 831.913C-204.744 832.737 -199.644 832.558 -194.73 831.389C-186.3 829.069 -180.175 822.675 -174.799 816.12C-155.151 791.975 -145.893 761.719 -141.648 740.762C-138.05 722.83 -135.159 701.954 -141.264 682.993C-145.871 669.467 -153.891 657.353 -164.55 647.816C-170.758 641.883 -178.082 637.236 -186.098 634.14C-191.535 632.241 -197.171 630.962 -202.896 630.328C-205.443 630.005 -208.01 629.723 -210.577 629.46C-223.858 628.149 -237.462 627.282 -250.601 626.435C-270.592 625.144 -290.867 623.833 -310.798 620.908L-310.798 618.891C-290.847 621.796 -270.512 623.127 -250.48 624.418Z" fill="#342F2C"/>
<path d="M-263.154 662.278C-261.334 662.419 -259.515 662.56 -257.716 662.742C-253.584 663.053 -249.482 663.68 -245.446 664.618C-239.462 666.114 -233.803 668.692 -228.75 672.222C-220.843 677.765 -214.563 685.313 -210.557 694.087C-205.888 704.495 -204.736 717.102 -206.999 732.613C-209.951 752.784 -219.936 771.784 -233.722 783.604C-237.988 787.736 -243.275 790.667 -249.044 792.096C-252.592 792.67 -256.21 792.67 -259.758 792.096C-267.495 790.894 -275.107 788.99 -282.498 786.408C-286.137 785.258 -289.897 784.048 -293.576 783.06C-299.165 781.46 -304.927 780.532 -310.737 780.297L-310.737 778.279C-304.749 778.503 -298.81 779.452 -293.05 781.103C-289.311 782.092 -285.531 783.302 -281.872 784.472C-274.573 787.04 -267.057 788.943 -259.414 790.16C-256.067 790.696 -252.655 790.696 -249.307 790.16C-243.884 788.776 -238.92 785.994 -234.915 782.092C-221.493 770.574 -211.75 751.977 -208.879 732.351C-206.656 717.223 -207.768 704.979 -212.275 694.934C-216.17 686.464 -222.271 679.192 -229.942 673.876C-234.802 670.488 -240.241 668.014 -245.992 666.574C-249.923 665.665 -253.916 665.052 -257.938 664.739C-259.738 664.578 -261.537 664.436 -263.356 664.295C-279.123 663.045 -295.132 661.754 -310.838 659.394L-310.838 657.377C-295.051 659.737 -279.001 661.028 -263.154 662.278Z" fill="#342F2C"/>
<path d="M-294.627 698.041C-288.909 699.619 -283.854 702.995 -280.213 707.668C-276.571 712.341 -274.537 718.062 -274.413 723.98C-274.529 729.905 -276.559 735.635 -280.201 740.316C-283.843 744.997 -288.903 748.379 -294.627 749.96C-300.012 751.115 -305.567 751.246 -311 750.343L-311 748.326C-305.741 749.257 -300.351 749.155 -295.132 748.023C-289.853 746.549 -285.19 743.416 -281.836 739.088C-278.483 734.761 -276.617 729.47 -276.515 724C-276.632 718.524 -278.516 713.233 -281.889 708.912C-285.261 704.591 -289.941 701.471 -295.233 700.017C-299.798 699.077 -304.471 698.772 -309.12 699.11C-309.747 699.11 -310.373 699.11 -311 699.11L-311 697.093C-310.394 697.093 -309.787 697.093 -309.181 697.093C-304.309 696.734 -299.411 697.053 -294.627 698.041Z" fill="#342F2C"/>
<path d="M77.3096 265.743C77.7518 261.403 78.9633 257.175 80.8875 253.258C84.809 246.218 93.0158 241.397 104.841 239.32C134.636 234.055 168.757 245.633 193.782 269.576C214.764 289.323 230.531 317.421 241.043 353.042C247.855 376.178 250.705 396.489 249.734 415.107C248.987 429.67 245.813 444.133 242.781 458.111C240.76 466.986 238.839 476.164 237.465 485.281C234.473 505.209 234.392 525.783 234.311 545.672C234.311 557.774 234.311 570.159 233.523 582.382C232.795 595.312 231.299 608.947 225.296 621.17C218.787 634.422 207.103 643.782 194.975 645.557C157.862 650.962 145.289 606.748 137.769 580.325L137.426 579.114C133.039 563.765 126.591 549.282 120.345 535.264C116.424 526.489 112.26 517.413 108.823 508.114C85.4963 446.936 73.2061 382.047 73.2061 322.968C73.1029 303.816 74.4747 284.685 77.3096 265.743ZM122.063 534.457C128.33 548.576 134.818 563.079 139.245 578.57L139.589 579.78C146.926 605.558 159.217 648.723 194.55 643.56C206.133 641.865 217.19 632.95 223.416 620.283C229.258 608.382 230.733 594.989 231.502 582.261C232.189 570.159 232.249 557.673 232.29 545.651C232.29 525.703 232.452 505.068 235.463 484.978C236.838 475.8 238.859 466.603 240.8 457.687C243.832 443.77 246.965 429.448 247.713 414.986C248.663 396.631 245.853 376.541 239.102 353.607C228.732 318.328 213.066 290.533 192.61 271.008C167.949 247.529 134.515 236.153 105.346 241.297C97.5842 242.668 87.3559 246.037 82.8078 254.246C80.997 257.95 79.8609 261.945 79.4523 266.046C68.274 337.995 79.6948 425.959 110.743 507.408C114.139 516.626 118.182 525.723 122.084 534.457L122.063 534.457Z" fill="#342F2C"/>
<path d="M122.569 314.455C141.226 306.649 162.612 311.248 178.4 326.558C189.982 337.712 198.836 353.687 204.678 374.06C208.219 385.432 209.945 397.289 209.792 409.197C209.324 417.702 208.203 426.158 206.436 434.491C205.547 439.211 204.637 444.092 204.011 448.893C202.962 458.014 202.408 467.185 202.353 476.365L202.353 479.209C202.191 487.277 202.03 495.487 201.342 503.575C201.015 511.133 199.317 518.569 196.329 525.521C192.63 533.206 186.364 538.692 179.552 540.165C176.683 540.861 173.698 540.928 170.801 540.36C167.904 539.792 165.166 538.604 162.774 536.877C153.274 530.1 148.24 515.557 144.905 505.955C142.09 498.259 138.865 490.717 135.243 483.364C132.756 478.1 130.189 472.654 127.946 467.087C114.045 433.182 106.712 396.954 106.337 360.323C106.312 351.051 106.893 341.786 108.075 332.589C108.325 330.169 108.924 327.798 109.854 325.549C111.976 320.87 116.262 317.098 122.569 314.455ZM111.694 326.558C110.843 328.64 110.298 330.835 110.076 333.073C104.72 373.797 111.916 422.388 129.805 466.421C132.049 471.928 134.596 477.333 137.062 482.557C140.709 489.955 143.955 497.544 146.785 505.29C150.039 514.669 154.87 528.829 163.926 535.223C166.08 536.797 168.555 537.879 171.175 538.391C173.796 538.904 176.497 538.834 179.087 538.188C185.292 536.857 191.033 531.794 194.47 524.654C197.341 517.919 198.978 510.725 199.301 503.414C199.968 495.346 200.13 487.136 200.311 479.209L200.311 476.365C200.366 467.11 200.926 457.865 201.989 448.671C202.616 443.81 203.546 438.908 204.415 434.148C206.171 425.922 207.286 417.574 207.75 409.177C207.953 397.409 206.274 385.684 202.778 374.443C196.976 354.413 188.304 338.721 177.005 327.829C161.804 313.165 141.246 308.727 123.357 316.21C117.535 318.752 113.695 322.181 111.673 326.457L111.694 326.558Z" fill="#342F2C"/>
<path d="M170.415 418.576C169.902 422.397 168.868 426.129 167.343 429.67C165.624 433.866 163.461 436.125 160.733 436.609C158.004 437.093 155.517 435.863 152.647 432.938C144.38 424.547 139.447 412.283 138.74 398.406L138.74 397.337C138.74 389.591 142.944 382.047 148.847 379.506C153.516 377.489 158.55 378.86 162.997 383.419C169.667 390.297 171.406 410.246 170.415 418.576ZM149.575 381.341C144.258 383.661 140.397 391.104 140.761 398.305C141.428 411.678 146.179 423.478 154.082 431.526C156.467 433.926 158.529 434.955 160.389 434.612C162.249 434.269 164.048 432.413 165.483 428.904C166.928 425.534 167.914 421.986 168.414 418.354C168.588 416.706 168.669 415.05 168.656 413.392C168.656 404.033 166.514 389.954 161.501 384.831C157.599 380.857 153.476 379.647 149.575 381.341Z" fill="#342F2C"/>
<path d="M-141.466 329.079C-128.569 327.062 -115.451 324.359 -102.756 321.798C-68.9787 314.98 -34.0288 307.92 0.698743 311.228C8.31941 311.954 17.0317 313.366 23.7427 318.369C31.707 324.299 35.4465 334.122 37.8925 342.029C45.4323 367.242 44.9471 392.072 36.4977 411.96C32.4549 421.521 27.0173 428.682 20.3265 433.2C11.8973 438.929 1.5478 440.482 -7.44738 441.268C-22.044 442.222 -36.6845 442.31 -51.2915 441.531C-62.3283 441.147 -73.7493 440.764 -84.9477 441.167C-111.954 442.156 -138.939 447.804 -165.015 453.27C-179.589 456.316 -194.669 459.482 -209.627 461.802C-250.055 468.075 -283.469 466.28 -310.697 456.336L-310.697 454.178C-283.57 464.263 -250.338 466.078 -209.85 459.805C-194.952 457.486 -179.913 454.339 -165.379 451.293C-139.101 445.807 -112.136 440.159 -84.968 439.191C-73.6886 438.787 -62.2474 439.191 -51.15 439.554C-36.6241 440.33 -22.0648 440.249 -7.54845 439.312C1.18397 438.565 11.2101 437.073 19.235 431.586C25.5418 427.29 30.7165 420.452 34.638 411.234C42.8853 391.77 43.3704 367.424 35.9519 342.654C33.6677 335.05 30.1101 325.61 22.6107 320.043C16.304 315.343 7.93532 313.992 0.577466 313.306C-33.7862 310.018 -68.6553 317.057 -102.291 323.835C-114.986 326.417 -128.125 329.059 -141.062 331.116C-197.393 340.017 -254.875 338.651 -310.717 327.082L-310.717 325.065C-255.008 336.607 -197.662 337.967 -141.466 329.079Z" fill="#342F2C"/>
<path d="M-309.787 372.809C-301.702 374.221 -294.283 377.791 -287.127 381.261C-284.037 382.477 -281.27 384.389 -279.042 386.848C-277.865 388.223 -277.185 389.953 -277.112 391.76C-277.039 393.567 -277.576 395.346 -278.638 396.812C-281.265 399.818 -285.672 399.475 -289.614 398.728L-310.757 394.795L-310.757 392.778L-289.25 396.812C-285.854 397.438 -282.114 397.78 -280.154 395.541C-279.405 394.431 -279.046 393.104 -279.134 391.768C-279.222 390.432 -279.751 389.163 -280.639 388.159C-282.676 385.957 -285.184 384.241 -287.976 383.136C-295.011 379.728 -302.288 376.218 -310.091 374.867C-310.313 374.867 -310.535 374.867 -310.757 374.867L-310.757 372.849C-310.454 372.729 -310.111 372.749 -309.787 372.809Z" fill="#342F2C"/>
<path d="M-264.831 347.132C-194.817 351.822 -124.495 345.933 -56.2439 329.664L-53.6969 329.059C-43.7314 326.659 -33.483 324.198 -22.9717 324.319C-10.1156 324.5 1.16377 329.039 7.99605 336.784C12.1804 341.565 15.1922 347.939 17.4359 356.834C22.1862 375.734 18.7902 392.032 8.29921 400.483C1.32539 406.091 -7.87188 407.684 -16.766 408.834C-30.5721 410.609 -44.7017 411.839 -58.3663 413.029C-86.3424 415.47 -115.248 417.991 -142.719 425.354C-149.834 427.371 -156.869 429.529 -163.883 431.708C-170.897 433.886 -178.033 436.185 -185.128 438.102C-226.294 448.971 -269.569 449.096 -310.798 438.465L-310.798 436.448C-269.761 447.136 -226.652 447.059 -185.654 436.226C-178.538 434.33 -171.403 432.07 -164.489 429.872C-157.576 427.673 -150.34 425.414 -143.245 423.498C-115.592 416.095 -86.6457 413.554 -58.5483 411.113C-44.9039 409.923 -30.7945 408.693 -17.0288 406.898C-8.45806 405.808 0.476452 404.275 7.04597 398.991C21.6202 387.251 17.1529 364.196 15.4751 357.399C13.3123 348.826 10.442 342.735 6.45979 338.196C0.0317506 330.875 -10.7018 326.578 -22.9919 326.417C-33.0989 326.296 -43.3676 328.736 -53.3129 331.096L-55.8396 331.701C-124.291 348.009 -194.816 353.919 -265.034 349.23C-280.48 348.479 -295.812 346.181 -310.798 342.372L-310.798 340.355C-295.84 344.49 -280.032 346.103 -264.831 347.132Z" fill="#342F2C"/>
<path d="M-245.466 365.064C-230.633 365.502 -215.786 365.112 -200.996 363.894L-138.11 359.86C-123.637 358.952 -105.647 357.843 -91.1534 366.012C-89.1585 366.982 -87.4825 368.501 -86.3223 370.389C-84.0381 374.705 -86.686 379.808 -89.9202 383.157C-99.2591 392.798 -112.843 395.683 -126.002 398.486C-128.933 399.112 -131.844 399.737 -134.694 400.503C-149.086 403.993 -162.994 409.903 -176.577 415.611C-193.395 422.731 -210.8 430.074 -229.134 432.857C-255.877 436.891 -282.317 431.344 -310.818 423.014L-310.818 420.997C-282.337 429.347 -255.958 434.955 -229.437 430.941C-211.244 428.198 -194.062 420.856 -177.345 413.836C-163.762 408.108 -149.693 402.157 -135.139 398.628C-132.289 397.942 -129.338 397.316 -126.406 396.61C-113.55 393.867 -100.25 391.023 -91.3555 381.825C-88.6064 379.001 -86.302 374.766 -88.0809 371.417C-89.0727 369.878 -90.4719 368.642 -92.1236 367.847C-106.071 359.92 -123.738 361.05 -137.949 361.957L-200.814 365.991C-215.698 367.212 -230.639 367.602 -245.567 367.161C-267.803 366.092 -289.513 361.372 -310.798 355.543L-310.798 353.526C-289.452 359.234 -267.661 364.015 -245.466 365.064Z" fill="#342F2C"/>
<path d="M-274.959 375.936C-273.766 376.48 -272.573 377.045 -271.381 377.61C-266.17 380.352 -260.635 382.432 -254.906 383.802C-249.559 384.631 -244.14 384.908 -238.735 384.629C-229.134 384.468 -219.209 384.306 -211.628 390.358L-211.143 390.741L-211.265 391.346C-213.144 400.322 -221.654 407.825 -234.025 411.396C-252.784 416.821 -272.432 413.756 -291.494 410.77C-297.841 409.782 -304.289 408.753 -310.737 408.067L-310.737 406.05C-304.168 406.756 -297.618 407.765 -291.19 408.773C-272.371 411.718 -252.905 414.825 -234.591 409.459C-223.231 406.171 -215.348 399.515 -213.387 391.548C-220.32 386.344 -229.255 386.485 -238.715 386.646C-244.235 386.925 -249.769 386.634 -255.23 385.779C-261.123 384.373 -266.819 382.246 -272.189 379.445C-273.382 378.88 -274.554 378.316 -275.747 377.771C-287.045 372.753 -298.751 368.704 -310.737 365.669L-310.737 363.652C-298.487 366.74 -286.519 370.849 -274.959 375.936Z" fill="#342F2C"/>
<path d="M589.511 738.221C570.663 742.903 551.582 746.593 532.346 749.274C515.588 751.896 498.265 754.619 481.528 758.714C438.634 769.182 407.868 787.659 390.1 813.659C378.416 830.743 372.453 851.317 368.168 869.189C356.161 919.293 351.653 971.494 347.307 1021.96L341.243 1092.84C336.695 1145.55 331.54 1205.29 355.211 1257.11C365.742 1280.15 381.489 1300.48 396.852 1320.14L433.237 1366.9L430.669 1366.9L395.234 1321.39C379.872 1301.63 363.964 1281.19 353.351 1257.96C339.343 1227.26 335.32 1193.92 335.32 1160.88C335.32 1137.64 337.342 1114.48 339.201 1092.66L345.266 1021.78C349.612 971.353 354.119 918.909 366.167 868.725C370.493 850.672 376.516 829.876 388.402 812.529C406.453 786.106 437.623 767.347 481.022 756.757C497.84 752.723 515.204 749.92 532.022 747.277C550.841 744.312 570.307 741.226 588.985 736.264C630.066 725.191 668.025 704.792 699.899 676.66L699.899 679.342C668.067 707.087 630.314 727.223 589.511 738.221Z" fill="#342F2C"/>
<path d="M509.888 699.412C503.48 701.026 496.911 702.498 490.543 703.951C469.157 708.771 447.023 713.774 427.476 724.121C390.1 743.848 368.633 778.945 357.192 804.804C341.89 839.558 335.341 877.62 330.429 910.579C324.93 947.37 320.564 984.968 316.279 1021.4C309.305 1081.52 302.129 1143.69 304.353 1205.23C306.576 1266.77 318.502 1321.19 339.848 1366.86L337.625 1366.86C316.481 1321.13 304.595 1266.89 302.331 1205.31C302.048 1197.41 301.907 1189.5 301.907 1181.59C301.907 1127.7 308.173 1073.64 314.278 1021.07C318.482 984.766 322.848 947.108 328.427 910.276C333.36 877.196 339.929 838.973 355.332 803.997C366.895 777.775 388.645 742.255 426.546 722.266C446.315 711.817 468.571 706.795 490.098 701.934C496.446 700.501 503.015 699.029 509.403 697.415C580.995 679.319 646.641 642.959 699.899 591.903L699.899 594.686C646.637 645.314 581.194 681.383 509.888 699.412Z" fill="#342F2C"/>
<path d="M-210.719 1141.31C-193.228 1140.07 -175.682 1139.81 -158.163 1140.52C-130.57 1141.15 -102.028 1141.79 -75.1641 1134.35C-33.9277 1122.94 -0.756589 1094.01 31.3229 1065.77C51.8198 1047.82 73.0242 1029.28 96.3916 1015.14C120.951 1000.28 149.959 988.922 185.07 980.591C200.352 976.96 216.523 974.197 231.38 978.574C247.551 983.435 262.065 997.474 269.989 1016.11C277.488 1033.66 279.004 1053.21 279.489 1070.01C280.864 1117.93 274.557 1166.46 268.412 1213.38C261.863 1263.67 255.111 1315.48 257.901 1366.68L255.88 1366.68C253.09 1315.28 259.922 1263.4 266.411 1213.06C272.475 1166.2 278.843 1117.77 277.468 1070.01C276.983 1053.41 275.447 1034.08 268.129 1016.84C260.428 998.684 246.46 985.15 230.794 980.53C215.694 976.012 199.523 979.179 185.535 982.548C150.646 990.878 121.821 1002.09 97.4428 1016.84C74.2371 1030.96 53.0934 1049.39 32.6368 1067.26C0.395633 1095.5 -32.9371 1124.65 -74.6183 1136.19C-101.766 1143.71 -130.469 1143.07 -158.223 1142.44C-175.682 1141.73 -193.167 1141.98 -210.597 1143.21C-246.161 1146.49 -280.479 1157.95 -310.859 1176.69L-310.859 1174.33C-280.444 1155.84 -246.188 1144.54 -210.719 1141.31Z" fill="#342F2C"/>
<path d="M240.719 1233.71C244.762 1248.28 241.75 1263.77 239.021 1277.42L221.152 1366.84L219.131 1366.84L237.081 1277.02C239.769 1263.59 242.821 1248.36 238.819 1234.28C235.059 1221.05 222.648 1208.4 208.377 1210.07C198.128 1211.32 190.043 1219.35 182.907 1226.45C114.079 1294.89 38.9638 1342.63 -36.2118 1366.76L-43.0846 1366.76C33.8699 1343.42 110.966 1295.13 181.492 1225.02C188.85 1217.7 197.198 1209.41 208.134 1208.06C223.436 1206.34 236.737 1219.73 240.719 1233.71Z" fill="#342F2C"/>
<path d="M-270.128 1201.1C-284.137 1207.98 -297.719 1215.7 -310.798 1224.21L-310.798 1221.77C-297.99 1213.52 -284.714 1206.02 -271.037 1199.3C-252.016 1189.76 -231.458 1180.83 -209.809 1179.84C-185.916 1178.77 -163.661 1188.95 -153.21 1205.82C-147.712 1214.61 -145.266 1224.9 -142.901 1234.86C-140.415 1245.33 -137.847 1256.14 -131.723 1264.94C-126.285 1272.74 -118.341 1278.53 -110.639 1284.14C-106.799 1286.94 -102.837 1289.83 -99.1984 1292.97C-88.7479 1301.93 -78.5195 1317.5 -84.0986 1331.88C-87.5754 1340.84 -96.2269 1346.53 -102.534 1350.04C-116.683 1358.1 -132.349 1363.01 -148.157 1366.92L-156.909 1366.92C-138.434 1362.72 -120.019 1357.54 -103.524 1348.28C-97.4601 1344.93 -89.2128 1339.51 -85.9786 1331.18C-80.7836 1317.78 -90.567 1303.06 -100.512 1294.51C-104.09 1291.44 -108.032 1288.58 -111.832 1285.79C-119.655 1280.08 -127.74 1274.2 -133.38 1266.11C-139.727 1256.99 -142.335 1245.94 -144.862 1235.35C-147.186 1225.54 -149.612 1215.42 -154.969 1206.91C-165.076 1190.65 -186.684 1180.85 -209.85 1181.87C-230.973 1182.82 -251.308 1191.68 -270.128 1201.1Z" fill="#342F2C"/>
<path d="M201.565 1299.21C198.472 1293.54 192.468 1290.55 187.981 1289.12C170.637 1283.29 153.375 1290.09 144.622 1294.67C132.251 1301.14 121.497 1310.62 111.107 1319.78L108.5 1322.08C90.0646 1338.22 69.4061 1354.9 46.6654 1366.98L42.2789 1366.98C66.2122 1354.88 87.9018 1337.51 107.166 1320.59L109.753 1318.29C120.244 1309.05 131.099 1299.49 143.692 1292.89C152.728 1288.17 170.577 1281.15 188.628 1287.23C193.459 1288.86 199.927 1292.11 203.344 1298.34C205.992 1303.16 206.254 1308.83 206.174 1314.19C205.842 1332.36 201.984 1350.3 194.813 1367L192.529 1367C199.837 1350.32 203.766 1332.36 204.091 1314.15C204.233 1308.95 203.99 1303.62 201.565 1299.21Z" fill="#342F2C"/>
<path d="M-310.798 1276.86L-310.798 1274.52C-302.909 1269.73 -294.641 1265.59 -286.076 1262.15C-270.896 1256.2 -248.013 1250.62 -225.192 1257.94C-210.079 1262.81 -197.118 1272.74 -188.504 1286.06C-183.836 1292.81 -181.135 1300.72 -180.701 1308.91C-180.357 1329.42 -198.59 1343.88 -206.494 1349.13C-218.861 1356.97 -232.311 1362.95 -246.417 1366.9L-253.572 1366.9C-237.401 1362.34 -221.533 1356.81 -207.606 1347.45C-199.985 1342.39 -182.298 1328.58 -182.722 1308.95C-183.148 1301.13 -185.737 1293.58 -190.202 1287.14C-198.648 1274.28 -211.242 1264.68 -225.899 1259.93C-248.135 1252.77 -270.532 1258.26 -285.409 1264.09C-294.218 1267.62 -302.712 1271.89 -310.798 1276.86Z" fill="#342F2C"/>
<path d="M-310.798 1315.04L-310.798 1313.02L-305.562 1311.45C-292.019 1307.42 -275.242 1302.41 -259.495 1306.61C-257.744 1306.97 -256.108 1307.76 -254.724 1308.89C-252.339 1311.07 -251.652 1314.94 -252.703 1319.4C-257.13 1336.7 -276.434 1345.16 -291.857 1349.21C-293.98 1349.77 -296.123 1350.3 -298.265 1350.84C-302.429 1351.87 -306.614 1352.86 -310.717 1354.15L-310.717 1352.13C-306.674 1350.96 -302.753 1349.96 -298.771 1348.97C-296.608 1348.42 -294.485 1347.9 -292.363 1347.33C-277.465 1343.42 -258.828 1335.23 -254.664 1318.97C-254.219 1317.2 -253.431 1312.92 -256.018 1310.46C-257.163 1309.56 -258.507 1308.93 -259.94 1308.65C-275.04 1304.61 -291.595 1309.51 -304.896 1313.47L-310.798 1315.04Z" fill="#342F2C"/>
<path d="M-40.6387 1064.18C-47.0262 1090.78 -90.6075 1109.08 -115.43 1115.71C-142.234 1122.89 -172.939 1123.9 -206.696 1118.72C-230.832 1115.01 -273.301 1103.71 -286.359 1069.68C-288.703 1063.49 -289.888 1056.92 -289.856 1050.3C-289.856 1029.1 -278.375 1006.89 -258.909 993.48C-237.138 978.453 -207.464 973.652 -175.365 979.945C-146.883 985.553 -120.565 998.583 -95.1152 1011.17C-91.9618 1012.74 -88.3032 1014.36 -84.4221 1016.05C-63.2581 1025.35 -34.3724 1038.06 -40.6387 1064.18ZM-175.688 981.922C-193.881 978.352 -228.911 975.286 -257.696 995.134C-282.498 1012.26 -293.98 1043.99 -284.399 1068.96C-271.704 1102.04 -230.023 1113.07 -206.312 1116.72C-172.838 1121.87 -142.416 1120.76 -115.875 1113.76C-91.6183 1107.26 -48.785 1089.39 -42.6197 1063.71C-42.0794 1061.54 -41.8011 1059.3 -41.7909 1057.06C-41.7909 1037.01 -65.6434 1026.5 -85.17 1017.91C-89.0511 1016.19 -92.7503 1014.56 -95.9441 1012.98C-121.272 1000.44 -147.449 987.469 -175.688 981.922Z" fill="#342F2C"/>
<path d="M-105.606 1057.72C-105.694 1060.69 -106.399 1063.61 -107.676 1066.29C-108.953 1068.97 -110.775 1071.35 -113.025 1073.3C-127.174 1085.54 -157.495 1083.06 -175.688 1081.59C-178.195 1081.38 -180.438 1081.2 -182.338 1081.08C-196.488 1080.21 -208.051 1078.54 -218.501 1073.25C-230.993 1066.94 -239.22 1055.79 -239.968 1044.17L-239.968 1042.6C-240.045 1039.93 -239.44 1037.28 -238.21 1034.91C-235.42 1029.85 -229.578 1027.61 -224.788 1026.2C-213.488 1022.89 -200.531 1021.3 -184.097 1021.15C-175.162 1021.15 -129.661 1021.62 -112.196 1039.91C-109.89 1042.24 -108.109 1045.04 -106.973 1048.11C-105.837 1051.18 -105.371 1054.46 -105.606 1057.72ZM-184.138 1023.17C-200.43 1023.31 -213.165 1024.89 -224.282 1028.13C-228.689 1029.42 -234.066 1031.48 -236.411 1035.88C-237.634 1038.38 -238.138 1041.18 -237.866 1043.95C-237.017 1056.98 -226.789 1066.66 -217.491 1071.36C-207.384 1076.48 -196.043 1078.12 -182.136 1078.98C-180.216 1079.08 -177.952 1079.29 -175.445 1079.49C-157.576 1080.92 -127.68 1083.36 -114.258 1071.68C-112.221 1069.92 -110.57 1067.75 -109.408 1065.32C-108.246 1062.89 -107.599 1060.25 -107.506 1057.56C-107.304 1054.57 -107.74 1051.57 -108.785 1048.76C-109.831 1045.95 -111.462 1043.4 -113.571 1041.26C-130.894 1023.25 -178.761 1023.13 -184.138 1023.17Z" fill="#342F2C"/>
<path d="M546.394 656.086C534.549 659.878 522.32 663.246 510.474 666.494C480.841 674.663 450.196 683.094 423.352 698.767C379.488 724.202 343.345 770.756 318.826 833.386C317.303 837.299 315.794 841.252 314.298 845.246C303.2 874.493 291.739 904.729 266.128 922.056C252.686 931.153 236.717 935.489 222.81 938.858C191.862 946.328 160.349 951.233 128.592 953.522C110.986 954.793 99.929 950.86 95.7246 941.843C94.6216 939.439 94.0626 936.822 94.0872 934.178C94.0872 927.683 97.0385 921.148 99.6057 916.267C124.449 869.189 168.656 836.068 211.409 804.037C255.354 771.099 300.815 737.051 324.607 687.955C344.437 647.13 347.226 599.204 349.713 556.947C354.948 467.651 360.871 366.455 318.603 279.802C306.091 254.165 289.435 230.283 273.344 207.188C258.77 186.291 243.691 164.688 231.683 141.775C206.768 93.4567 195.121 39.4164 197.926 -14.8505C199.857 -60.6111 211.895 -105.381 233.179 -145.96L235.463 -145.96C188.345 -57.9955 186.95 51.9748 233.543 140.726C245.49 163.519 260.529 185.101 275.063 205.917C291.234 229.053 307.91 252.995 320.483 278.794C362.933 365.911 357.03 467.389 351.795 556.927C349.308 599.285 346.478 647.493 326.487 688.681C302.432 738.221 256.769 772.43 212.622 805.51C170.051 837.4 126.025 870.379 101.445 917.074C98.029 923.528 93.9458 933.008 97.5843 940.835C101.405 949.024 111.734 952.574 128.471 951.364C160.125 949.085 191.537 944.2 222.385 936.76C236.11 933.432 251.877 929.156 265.036 920.24C290.122 903.277 301.422 873.344 312.438 844.379C313.954 840.344 315.45 836.31 316.986 832.498C341.668 769.465 378.113 722.548 422.362 696.871C449.448 681.158 480.214 672.666 509.989 664.598C521.794 661.35 534.023 657.982 545.828 654.21C594.2 638.678 658.703 608.422 699.899 550.533L699.899 553.962C658.339 610.762 594.483 640.695 546.394 656.086Z" fill="#342F2C"/>
<path d="M533.518 627.302C522.441 629.864 511.02 631.841 499.963 633.737C478.475 637.428 456.24 641.24 435.885 649.732C400.753 664.396 369.057 693.603 338.999 739.027C328.609 754.72 318.967 771.3 309.628 787.316C296.793 809.362 283.512 832.155 268.109 853.052C242.316 888.068 215.149 905.617 187.375 905.213L186.627 905.213L186.425 904.467C185.485 901.056 185.009 897.535 185.01 893.998C185.01 871.569 203.91 851.358 223.153 834.172C290.87 773.66 357.232 705.726 384.157 618.104C394.123 585.69 399.095 549.625 400.328 501.115C403.118 387.453 382.257 299.59 336.513 232.482C329.802 222.659 322.363 213.078 315.228 203.819C308.82 195.509 302.17 186.937 296.065 178.183C259.842 126.405 239.466 63.936 237.222 -2.4657C235.311 -51.5864 244.076 -100.538 262.914 -145.96L265.299 -145.96C221.779 -42.3229 233.24 84.7925 297.763 177.033C303.827 185.726 310.477 194.299 316.885 202.589C324.061 211.868 331.48 221.469 338.211 231.352C384.218 298.823 405.2 387.07 402.39 501.155C401.198 549.807 396.185 586.033 386.219 618.649C359.153 706.714 292.548 774.971 224.629 835.625C203.081 854.847 181.998 877.862 188.244 903.156C215.047 903.156 241.386 885.93 266.553 851.781C281.875 830.985 295.135 808.233 307.93 786.247C317.289 770.11 326.952 753.611 337.382 737.837C367.703 692.07 399.641 662.621 435.177 647.796C455.735 639.223 478.091 635.37 499.68 631.659C510.717 629.763 522.117 627.807 533.134 625.245C600.013 609.402 659.1 570.417 699.899 515.214L699.899 518.582C658.856 573.091 599.996 611.552 533.518 627.302Z" fill="#342F2C"/>
<path d="M644.978 545.631C618.477 563.301 587.429 577.42 544.292 591.459C518.802 599.749 489.714 606.365 466.751 592.427C441.848 577.279 437.118 545.49 437.118 523.706C437.118 518.018 437.441 512.995 437.805 509.122C443.02 453.915 458.464 413.715 486.44 382.632C540.431 322.625 619.225 284.199 699.879 277.886L699.879 279.903C619.791 286.217 541.563 324.4 487.936 383.984C460.283 414.724 444.981 454.581 439.806 509.324C438.088 527.639 437.36 572.236 467.782 590.753C490.018 604.247 518.6 597.732 543.645 589.583C586.6 575.605 617.487 561.546 643.846 543.997C665.616 529.8 684.611 511.761 699.899 490.767L699.899 494.156C684.747 514.385 666.159 531.807 644.978 545.631Z" fill="#342F2C"/>
<path d="M542.837 549.343C537.069 550.657 531.166 551.287 525.251 551.219C498.588 550.149 479.304 524.674 476.07 500.671C475.606 497.228 475.377 493.757 475.383 490.283C475.383 471.524 481.972 451.293 495.354 428.823C537.561 357.943 617.386 311.188 699.899 308.546L699.899 310.562C618.073 313.205 538.935 359.577 497.093 429.852C481.447 456.073 475.221 479.209 478.071 500.449C481.204 523.625 499.741 548.213 525.331 549.242C531.091 549.308 536.838 548.692 542.453 547.406C606.865 533.977 663.409 495.83 699.899 441.188L699.899 444.798C663.028 498.567 606.75 536.027 542.837 549.343Z" fill="#342F2C"/>
<path d="M661.775 439.816C649.202 453.27 636.225 467.188 620.721 477.858C608.593 486.249 589.49 496.011 567.882 495.063C562.143 495.07 556.506 493.552 551.549 490.666C544.312 486.067 539.926 476.97 539.926 466.986C539.926 465.997 539.926 464.969 540.047 463.98C540.977 453.552 546.01 444.173 550.821 436.367C566.935 410.574 588.744 388.796 614.581 372.698C640.418 356.6 669.6 346.606 699.899 343.481L699.899 345.498C640.611 351.549 583.729 386.787 552.539 437.396C547.85 445 542.938 454.137 542.069 464.142C541.139 474.53 545.303 484.312 552.64 488.952C557.302 491.622 562.588 493.013 567.963 492.986C589.026 493.954 607.663 484.353 619.569 476.143C634.891 465.594 647.868 451.757 660.3 438.384L699.899 396.026L699.899 398.991L661.775 439.816Z" fill="#342F2C"/>
<path d="M650.698 405.707C655.226 432.978 611.807 447.925 594.706 451.394C593.736 451.724 592.701 451.812 591.689 451.651C590.678 451.489 589.722 451.082 588.904 450.466C588.412 449.879 588.041 449.201 587.812 448.471C587.583 447.741 587.501 446.972 587.57 446.21L587.57 446.029C587.57 436.084 592.098 425.555 600.083 416.378C608.876 406.292 628.766 388.018 641.097 391.487C646.13 392.919 649.364 397.7 650.698 405.707ZM601.599 417.81C593.937 426.624 589.672 436.69 589.591 446.049C589.436 447.103 589.705 448.177 590.339 449.034C591.209 449.901 592.907 449.7 594.382 449.417C609.846 446.271 653.003 431.586 648.778 406.05C647.585 398.87 644.856 394.634 640.692 393.444C628.766 390.116 608.451 409.822 601.599 417.709L601.599 417.81Z" fill="#342F2C"/>
<path d="M447.447 229.376C458.201 237.444 469.076 246.42 475.747 258.623C479.992 266.911 482.73 275.885 483.832 285.127C488.764 318.046 481.144 348.887 462.911 369.703C457.655 375.754 452.804 379.284 447.447 380.918C441.646 382.733 433.742 382.067 429.093 376.541C427.325 374.193 425.959 371.569 425.05 368.775C411.567 333.638 396.427 298.642 380.013 264.795L379.629 264.029C375.263 255.033 370.755 245.714 369.28 235.669C369.023 233.885 368.894 232.085 368.896 230.283C368.804 225.89 369.607 221.524 371.258 217.449C372.908 213.375 375.371 209.678 378.497 206.583C381.719 203.643 385.623 201.551 389.858 200.494C394.093 199.437 398.525 199.451 402.754 200.532C414.741 203.114 427.294 213.259 438.391 222.215C441.585 224.837 444.637 227.197 447.447 229.376ZM379.892 208.055C373.1 214.389 369.785 224.857 371.342 235.386C372.777 245.109 377.224 254.286 381.449 263.141L381.833 263.908C398.267 297.815 413.447 332.851 426.93 368.049C427.757 370.632 428.999 373.064 430.609 375.25C434.065 379.284 440.716 380.898 446.78 379.002C451.712 377.469 456.321 374.08 461.334 368.372C475.605 352.074 483.226 329.483 483.226 304.552C483.215 298.151 482.729 291.759 481.77 285.43C480.684 276.419 478.008 267.671 473.867 259.591C467.398 247.731 456.725 238.836 446.133 230.989C443.303 228.972 440.231 226.431 436.997 223.809C426.081 214.994 413.73 205.01 402.208 202.529C398.321 201.536 394.247 201.521 390.352 202.486C386.458 203.45 382.863 205.364 379.892 208.055Z" fill="#342F2C"/>
<path d="M449.246 259.712C455.553 268.245 459.212 284.623 459.959 296.221C460.502 301.148 459.706 306.129 457.655 310.643C456.528 312.968 454.746 314.914 452.527 316.244C450.308 317.573 447.749 318.227 445.163 318.127C442.452 317.729 439.898 316.615 437.765 314.899C428.143 307.92 423.029 296.524 418.622 285.47C416.261 280.247 414.89 274.632 414.579 268.91C414.553 266.313 415.063 263.739 416.075 261.346C417.232 258.589 419.115 256.196 421.524 254.421C423.933 252.645 426.779 251.553 429.76 251.261C433.459 250.91 437.187 251.502 440.595 252.98C444.003 254.458 446.979 256.774 449.246 259.712ZM429.901 253.278C427.257 253.5 424.725 254.446 422.585 256.012C420.445 257.578 418.78 259.703 417.773 262.153C414.721 269.213 417.53 277.503 420.421 284.724C424.727 295.515 429.699 306.609 438.876 313.265C440.723 314.778 442.943 315.767 445.304 316.13C447.488 316.191 449.642 315.614 451.502 314.471C453.362 313.328 454.847 311.668 455.775 309.695C457.351 306.437 458.094 302.841 457.938 299.227C457.938 298.319 457.938 297.351 457.938 296.342C457.332 286.902 454.097 269.677 447.629 260.922C445.569 258.245 442.857 256.137 439.751 254.799C436.644 253.461 433.247 252.937 429.881 253.278L429.901 253.278Z" fill="#342F2C"/>
<path d="M621.226 238.15C595.231 245.976 574.552 246.359 558.017 239.32C548.618 235.286 540.633 229.012 533.417 222.76C528.238 218.477 523.443 213.752 519.085 208.64C516.478 205.433 514.153 201.964 511.889 198.555C510.292 196.195 508.655 193.774 506.957 191.475C489.795 168.359 462.951 153.796 439.159 141.956L438.088 141.432C431.086 138.225 424.406 134.362 418.137 129.894C411.314 124.574 405.635 117.937 401.439 110.379C397.244 102.82 394.618 94.4955 393.718 85.9017C393.493 83.7306 393.378 81.5493 393.375 79.3665C393.45 64.197 398.513 49.4716 407.787 37.4518C411.263 32.8478 415.437 28.8124 420.158 25.4906C426.569 21.3484 433.688 18.4154 441.161 16.8375C454.435 13.738 468.195 13.3044 481.639 15.5623C495.083 17.8201 507.943 22.724 519.469 29.9886C524.563 33.2362 529.415 36.9476 534.124 40.538C537.682 43.2812 541.361 46.1051 545.121 48.6063C568.186 64.379 595.66 72.4698 623.612 71.7218C651.244 70.8561 677.915 61.3995 699.899 44.673L699.899 47.1943C677.811 63.6401 651.197 72.9264 623.652 73.7994C595.271 74.5554 567.376 66.3452 543.948 50.3409C540.148 47.7187 536.449 44.8949 532.871 42.1516C528.202 38.5814 523.391 34.8903 518.358 31.7032C495.47 17.4381 467.852 12.7966 441.545 18.7939C434.349 20.3125 427.496 23.1434 421.331 27.1446C416.773 30.3337 412.748 34.2207 409.404 38.6621C399.053 52.0458 394.171 68.8468 395.74 85.6799C396.602 94.0113 399.138 102.084 403.194 109.417C407.25 116.75 412.745 123.193 419.35 128.361C425.525 132.734 432.096 136.523 438.977 139.677L440.049 140.221C464.063 152.142 491.15 166.846 508.574 190.325C510.312 192.665 511.97 195.126 513.567 197.486C515.79 200.794 518.115 204.203 520.662 207.349C524.964 212.403 529.698 217.073 534.812 221.307C541.927 227.459 549.75 233.672 558.886 237.545C575.058 244.403 595.272 243.979 620.721 236.294C649.324 227.631 676.159 213.972 699.98 195.953L699.98 198.494C676.236 216.177 649.587 229.597 621.226 238.15Z" fill="#342F2C"/>
<path d="M699.899 171.345L699.899 173.987C684.942 186.636 667.642 196.23 648.98 202.226C624.461 209.81 598.87 209.427 576.938 201.157C555.005 192.887 536.954 176.952 519.53 161.683C504.794 148.693 489.532 135.28 471.906 126.465C469.359 125.194 466.711 124.004 464.144 122.834C458.887 120.604 453.8 117.995 448.923 115.028C440.413 109.542 434.773 102.361 433.095 94.8577C432.718 93.1554 432.529 91.4171 432.529 89.6738C432.529 77.5714 441.767 66.78 451.773 62.1409C462.122 57.3402 474.978 56.5939 491.089 59.8616C508.493 63.4115 525.271 70.2495 541.503 76.8453C560.059 84.3892 579.242 92.2153 599.274 94.9989C620.66 97.9841 642.39 95.1804 660.805 92.054C674.268 89.7545 687.892 86.7491 699.899 81.1416L699.899 83.3604C687.912 88.8064 674.45 91.7715 661.149 94.0508C642.572 97.1974 620.721 100.102 598.991 96.9957C578.777 94.1517 559.412 86.2852 540.734 78.7009C524.563 72.1254 507.907 65.3279 490.685 61.8181C475.019 58.6312 462.567 59.3372 452.622 63.9562C441.929 68.9182 432.145 81.2827 435.076 94.4138C436.653 101.433 441.969 108.17 450.034 113.374C454.819 116.291 459.812 118.852 464.973 121.039C467.56 122.209 470.228 123.419 472.816 124.71C490.685 133.626 506.027 147.14 520.884 160.21C538.147 175.439 556.016 191.172 577.665 199.321C599.314 207.47 624.299 207.793 648.414 200.35C667.346 194.212 684.852 184.349 699.899 171.345Z" fill="#342F2C"/>
<path d="M699.899 136.167L699.899 138.87C684.38 152.185 665.593 161.144 645.463 164.83C624.744 168.864 602.144 168.057 578.272 162.591C571.662 161.078 564.506 158.718 561.413 152.505C560.536 150.752 560.086 148.817 560.099 146.858C560.256 143.838 561.127 140.898 562.641 138.279C564.155 135.66 566.27 133.437 568.812 131.79C575.361 127.494 583.285 126.667 591.047 125.739C619.609 122.713 648.454 118.72 676.754 113.919C685.689 112.386 693.653 110.712 700 106.214L700 108.695C693.532 112.729 685.749 114.423 677.098 115.896C648.798 120.716 619.872 124.71 591.249 127.756C583.831 128.543 576.169 129.349 570.024 133.363C564.304 137.115 560.099 145.123 563.313 151.517C566.042 156.943 572.672 159.101 578.817 160.513C602.427 165.899 624.744 166.564 645.18 162.732C665.512 159.039 684.439 149.851 699.899 136.167Z" fill="#342F2C"/>
<path d="M699.899 -21.527L699.899 -18.6426C683.242 -2.48962 661.157 6.90051 637.943 7.70032C612.373 8.6886 585.124 -0.0250258 561.272 -16.8676C557.047 -19.8326 552.903 -23.0599 548.921 -26.1864C543.261 -30.6038 537.419 -35.1624 531.294 -39.035C519.004 -46.8008 504.026 -52.8319 484.176 -58.0157C458.342 -64.7527 394.042 -76.3307 355.09 -38.188C334.31 -17.856 325.941 11.3713 317.856 39.8927C312.337 59.2162 303.908 69.2208 292.81 69.6645C285.048 69.9672 277.185 64.8236 272.758 56.5536C268.998 49.4737 267.968 41.3247 267.159 32.8732C265.582 16.0778 264.787 -0.0250296 264.774 -15.4354C264.774 -67.1731 273.809 -110.782 291.699 -145.899L293.902 -145.899C270.535 -100.576 262.227 -40.7496 269.18 32.6918C269.989 41.2239 270.959 48.8282 274.557 55.6056C278.6 63.2098 285.736 67.9298 292.75 67.7079C302.857 67.3046 310.68 57.7841 315.976 39.2876C324.061 10.7058 332.571 -18.8645 353.735 -39.5797C393.435 -78.4283 458.585 -66.7295 484.742 -59.9117C504.814 -54.6674 519.954 -48.5557 532.426 -40.6891C538.652 -36.655 544.555 -32.157 550.215 -27.7194C554.258 -24.6132 558.3 -21.3859 562.485 -18.4409C585.993 -1.88086 612.797 6.71191 637.943 5.76379C661.856 4.73511 684.698 -5.45093 699.899 -21.527Z" fill="#342F2C"/>
<path d="M699.899 -58.0763L699.899 -55.1919C683.243 -37.7645 657.45 -30.0189 635.396 -30.3215C603.782 -30.7451 573.521 -44.441 547.648 -57.1082C544.818 -58.4999 542.008 -59.8917 539.178 -61.3037C514.78 -73.4061 489.573 -85.9319 462.547 -90.5712C426.566 -96.7434 385.835 -89.3005 338.049 -67.839C332.955 -65.5597 327.174 -62.9778 321.312 -64.1679C311.832 -66.1849 307.526 -76.5325 307.526 -87.344C307.526 -89.7102 307.728 -92.072 308.133 -94.4037C311.549 -114.13 321.433 -131.316 333.825 -146L336.473 -146C323.758 -131.255 313.57 -113.969 310.194 -94.0607C308.173 -82.0794 311.468 -68.2222 321.777 -66.1244C326.992 -65.0756 332.45 -67.5162 337.281 -69.6946C385.451 -91.3175 426.566 -98.8008 462.951 -92.5681C490.26 -87.8683 515.608 -75.2819 540.128 -63.0988C542.958 -61.707 545.788 -60.2952 548.598 -58.9033C574.29 -46.2766 604.287 -32.6814 635.518 -32.3385C657.712 -31.9352 683.728 -39.963 699.899 -58.0763Z" fill="#342F2C"/>
<path d="M699.899 -120.666L699.899 -117.156C683.384 -94.5247 654.054 -82.3416 628.503 -80.1832C593.897 -77.2384 559.351 -87.9086 528.869 -97.3081C496.87 -107.192 463.76 -117.479 430.083 -114.957C428.062 -114.816 426.162 -114.635 424.201 -114.433C417.43 -113.515 410.571 -113.454 403.785 -114.251C395.699 -115.542 386.057 -120.303 382.924 -129.561C382.273 -131.442 381.952 -133.421 381.974 -135.411C382 -139.08 382.886 -142.693 384.562 -145.96L386.825 -145.96C385.418 -143.626 384.511 -141.026 384.164 -138.325C383.816 -135.624 384.034 -132.88 384.804 -130.267C387.654 -121.795 396.932 -117.438 404.088 -116.289C410.701 -115.526 417.384 -115.6 423.979 -116.511C426 -116.692 428.021 -116.874 429.901 -117.035C463.982 -119.516 497.274 -109.229 529.455 -99.3049C559.776 -89.9458 594.14 -79.3562 628.301 -82.2607C654.256 -84.3988 684.132 -97.0662 699.899 -120.666Z" fill="#342F2C"/>
<path d="M637.842 -145.96L642.249 -145.96C626.078 -137.246 606.692 -131.175 584.275 -127.806C559.331 -124.095 515.204 -122.158 482.114 -145.96L485.631 -145.96C517.973 -124.296 559.958 -126.233 583.992 -129.823C602.684 -132.327 620.86 -137.773 637.842 -145.96Z" fill="#342F2C"/>
<path d="M-264.185 228.569C-227.678 231.675 -184.643 233.975 -142.335 227.742C-66.0475 216.487 2.51808 179.211 68.8198 143.146C87.0123 133.222 107.752 121.987 122.104 105.084C140.903 82.8965 147.755 53.1044 153.799 26.7616C164.371 -19.2881 176.358 -71.4898 165.382 -121.009C163.926 -127.584 162.047 -134.18 160.248 -140.554L158.731 -145.899L160.753 -145.899L162.107 -141.119C163.926 -134.705 165.806 -128.068 167.282 -121.452C178.339 -71.4898 166.312 -19.046 155.679 27.2052C149.615 53.7902 142.682 83.9049 123.559 106.395C108.965 123.581 88.1039 134.917 69.7092 144.921C3.2458 181.067 -65.4614 218.443 -142.113 229.638C-184.562 235.911 -227.799 233.672 -264.427 230.485C-280.053 229.154 -296.062 227.379 -310.919 222.78L-310.919 220.763C-295.981 225.442 -279.871 227.197 -264.185 228.569Z" fill="#342F2C"/>
<path d="M-32.1691 161.844C35.5476 136.006 76.299 104.842 96.048 63.8151C105.872 43.4225 110.198 20.5288 113.23 -1.15467C118.789 -39.8016 123.761 -94.1818 109.652 -145.899L111.673 -145.899C125.702 -94.0003 120.709 -39.5797 115.15 -0.872321C112.017 20.9927 107.732 44.0477 97.7863 64.7025C71.5083 119.163 11.4121 147.402 -31.5829 163.72C-103.262 191.072 -208.01 216.87 -310.94 191.072L-310.94 189.055C-208.212 214.853 -103.686 189.135 -32.1691 161.844Z" fill="#342F2C"/>
<path d="M-190.424 159.101C-150.873 153.159 -112.187 142.472 -75.2046 127.272C-9.61034 100.243 32.8389 63.4116 51.0315 17.7654C59.1171 -2.90955 62.1896 -25.4402 64.5546 -46.7806C68.0112 -78.2066 70.6189 -113.203 62.8365 -145.919L64.8579 -145.919C72.6201 -113.041 69.972 -78.0249 66.4952 -46.5587C64.1302 -25.1173 61.1385 -2.4253 52.8508 18.4916C34.6583 64.6622 -8.2155 101.877 -74.497 129.107C-111.625 144.382 -150.469 155.117 -190.181 161.078C-239.079 168.42 -278.84 165.576 -310.859 152.425L-310.859 150.246C-278.981 163.559 -239.342 166.443 -190.424 159.101Z" fill="#342F2C"/>
<path d="M-299.862 70.5318C-294.627 63.1293 -291.251 54.3954 -287.976 46.0851C-286.663 42.6964 -285.308 39.1866 -283.832 35.798C-270.17 4.87584 -246.101 -20.3049 -215.792 -35.3842C-206.447 -39.7609 -196.872 -43.6326 -187.109 -46.9823C-178.296 -50.1895 -169.199 -53.4773 -160.629 -57.5315C-149.498 -63.0816 -138.699 -69.2709 -128.286 -76.0684C-108.739 -88.312 -88.5456 -100.959 -65.4411 -104.126C-57.3146 -105.024 -49.1326 -105.321 -40.9621 -105.013C-35.0798 -105.013 -28.9953 -104.852 -23.0727 -105.255C-11.3081 -106.042 4.66085 -109.471 13.9188 -121.21C19.1803 -128.358 21.7949 -137.104 21.317 -145.96L23.3385 -145.96C23.7701 -136.657 20.9633 -127.493 15.3944 -120.02C5.67147 -107.696 -10.8837 -104.126 -23.0121 -103.299C-29.0763 -102.896 -35.1405 -102.976 -41.0834 -103.057C-49.1457 -103.362 -57.2196 -103.072 -65.2391 -102.189C-87.919 -99.0831 -107.931 -86.537 -127.276 -74.4144C-137.744 -67.5758 -148.604 -61.3527 -159.8 -55.7767C-168.451 -51.7426 -177.608 -48.354 -186.462 -45.1469C-196.155 -41.8187 -205.663 -37.974 -214.943 -33.6294C-244.794 -18.7534 -268.491 6.07055 -281.932 36.5443C-283.388 39.8926 -284.742 43.3821 -285.975 46.7506C-289.29 55.2424 -292.727 64.0369 -298.104 71.6412C-301.484 76.4444 -305.76 80.5533 -310.697 83.7436L-310.697 81.3635C-306.481 78.4101 -302.814 74.7445 -299.862 70.5318Z" fill="#342F2C"/>
<path d="M-295.455 -15.6976C-293.01 -19.288 -290.604 -23.0398 -288.3 -26.6705C-280.8 -38.3897 -273.059 -50.4921 -262.183 -59.4882C-247.832 -71.3687 -229.518 -76.6736 -211.81 -81.7969C-204.149 -84.0156 -196.225 -86.3151 -188.746 -89.0986C-175.66 -94.3421 -162.938 -100.447 -150.663 -107.373C-130.813 -118.003 -110.235 -128.976 -87.6562 -132.082C-85.7561 -132.344 -83.8156 -132.566 -81.875 -132.768C-74.1129 -133.615 -66.0475 -134.503 -59.6398 -138.819C-56.9563 -140.65 -54.7239 -143.063 -53.1107 -145.879L-50.8669 -145.879C-52.6477 -142.392 -55.2657 -139.398 -58.4875 -137.165C-65.239 -132.526 -73.5267 -131.618 -81.5718 -130.751C-83.5932 -130.549 -85.3923 -130.327 -87.2924 -130.065C-109.528 -127.019 -129.903 -116.107 -149.592 -105.578C-161.968 -98.604 -174.799 -92.4651 -187.998 -87.2026C-195.558 -84.3787 -203.502 -82.0792 -211.204 -79.8402C-228.709 -74.7775 -246.821 -69.5331 -260.849 -57.9148C-271.482 -49.1204 -279.143 -37.139 -286.541 -25.6417C-288.866 -22.011 -291.271 -18.2393 -293.737 -14.6287C-298.605 -7.32264 -304.333 -0.625256 -310.798 5.32018L-310.798 2.59716C-305.043 -2.93629 -299.9 -9.06971 -295.455 -15.6976Z" fill="#342F2C"/>
<path d="M-236.411 -109.653C-211.345 -119.375 -185.674 -129.359 -166.026 -145.96L-162.994 -145.96C-183.066 -128.23 -209.708 -117.842 -235.764 -107.777C-262.871 -97.2476 -290.725 -86.4159 -310.879 -67.2337L-310.879 -69.9971C-290.584 -88.5742 -263.093 -99.2244 -236.411 -109.653Z" fill="#342F2C"/>
<path d="M-249.651 -145.96C-259.018 -137.906 -269.287 -130.961 -280.255 -125.265L-283.105 -123.691C-292.691 -118.689 -301.942 -113.069 -310.798 -106.869L-310.798 -109.35C-302.225 -115.252 -293.308 -120.64 -284.095 -125.487L-281.225 -127.06C-271.085 -132.363 -261.52 -138.697 -252.683 -145.96L-249.651 -145.96Z" fill="#342F2C"/>
<path d="M-58.9324 6.22777C-56.1024 16.0106 -67.9073 29.7266 -74.962 37.9159L-76.6599 39.9329C-104.259 72.4816 -142.941 93.7026 -185.269 99.5171C-189.514 100.062 -194.406 100.465 -198.611 98.4077C-201.115 97.0072 -203.19 94.9534 -204.614 92.4662C-206.039 89.979 -206.758 87.1522 -206.696 84.2882C-206.716 83.9053 -206.716 83.5215 -206.696 83.1385C-206.039 77.1875 -203.464 71.6099 -199.359 67.244C-188.059 54.1936 -171.059 49.0904 -154.888 43.947C-143.629 40.4777 -132.006 36.9073 -122.161 30.8159C-116.798 26.9861 -111.858 22.5979 -107.426 17.7251C-96.0451 6.28832 -83.1688 -6.70155 -69.5042 -2.44557C-63.6017 -0.730966 -60.1452 2.17357 -58.9324 6.22777ZM-105.829 19.0361C-110.376 24.0121 -115.437 28.4946 -120.928 32.4093C-131.035 38.6421 -142.76 42.2526 -154.12 45.7622C-170.938 50.9462 -186.826 55.8475 -197.741 68.4542C-201.555 72.4922 -203.965 77.6481 -204.614 83.1587C-204.874 85.8181 -204.36 88.4957 -203.134 90.8712C-201.908 93.2466 -200.022 95.2189 -197.701 96.5519C-194.002 98.3673 -189.494 97.9841 -185.573 97.4798C-143.741 91.7346 -105.514 70.7652 -78.2367 38.6017L-76.5386 36.5846C-70.4745 29.4643 -60.5495 18.0076 -60.5495 9.41479C-60.5456 8.51476 -60.6681 7.61852 -60.9133 6.75231C-61.8633 3.40392 -64.956 0.902823 -69.9893 -0.670541C-82.3805 -4.54322 -94.8525 7.98266 -105.829 19.0361Z" fill="#342F2C"/>
</g>
</svg>
