<svg width="912" height="1011" viewBox="0 0 912 1011" fill="none" xmlns="http://www.w3.org/2000/svg">
<g opacity="0.1">
<path d="M-242.346 692.489C-246.098 685.131 -250.152 677.733 -254.085 670.557C-264.171 652.021 -274.74 632.838 -281.275 612.24C-301.123 549.577 -280.004 476.2 -229.921 433.771C-208.096 415.295 -181.915 402.763 -158.799 391.706C-126.203 376.121 -96.6532 363.406 -64.8844 365.953C-49.6757 367.166 -35.0723 372.017 -20.9528 376.626C-9.86353 380.606 1.51196 383.735 13.0751 385.985C36.3116 389.907 60.4357 386.49 83.6723 383.196C104.488 380.244 126.031 377.131 147.27 379.153C201.146 384.166 252.4 420.268 303.916 489.582C311.016 499.143 318.035 509.068 324.974 518.69C355.593 561.604 387.261 605.973 432.04 633.383C447.127 642.621 463.708 649.878 479.743 656.913C490.696 661.703 501.931 666.656 512.863 672.235C525.974 678.986 543.966 690.063 548.686 708.317C551.732 720.061 548.565 732.391 545.076 742.903C538.46 762.773 529.262 782.239 520.367 801.058C504.23 835.422 487.388 870.857 486.803 908.738C486.258 944.739 500.801 981.366 526.962 1010.76H518.894C493.943 980.942 480.187 944.516 480.732 908.637C481.337 869.442 498.381 833.36 514.88 798.471C523.695 779.813 532.812 760.509 539.307 740.982C542.514 731.32 545.459 720.061 542.817 709.833C538.783 693.944 522.162 683.837 510.08 677.632C499.409 672.134 488.174 667.222 477.302 662.471C461.166 655.356 444.303 648.018 428.893 638.558C383.045 610.501 351.014 565.626 319.971 522.207C313.134 512.625 306.054 502.721 298.974 493.2C248.547 425.362 198.706 390.109 146.645 385.177C126.071 383.276 104.912 386.268 84.4388 389.219C60.6576 392.575 36.0292 396.052 11.8245 391.989C-0.0388184 389.684 -11.7108 386.481 -23.0909 382.407C-36.8674 377.879 -51.1281 373.169 -65.5905 372.017C-95.8464 369.592 -124.65 381.983 -156.358 397.204C-179.131 408.099 -204.949 420.45 -226.169 438.42C-274.458 479.313 -294.749 550.041 -275.668 610.42C-269.314 630.452 -258.966 649.373 -248.942 667.666C-244.907 674.862 -240.873 682.321 -237.122 689.76C-208.48 746.605 -192.89 809.152 -191.496 872.818C-190.346 919.539 -196.77 966.138 -210.516 1010.8H-216.87C-184.375 907.08 -193.15 788.99 -242.346 692.489Z" fill="#342F2C"/>
<path d="M291.128 20.881C294.516 25.8334 298.026 30.9879 301.213 36.0819C317.718 62.4887 328.194 92.2253 331.892 123.164C333.445 136.363 333.909 150.068 334.172 163.329C335.019 194.741 335.805 224.435 350.853 249.966C376.671 293.769 433.068 304.098 464.393 306.383C481.518 307.616 499.107 307.474 516.131 307.333C543.502 307.11 571.822 306.868 599.234 312.386C605.87 313.72 612.527 315.398 618.961 317.035C629.219 319.874 639.648 322.049 650.185 323.544C671.99 326.132 694.318 322.796 717.172 318.814C736.798 315.398 755.94 311.78 774.154 304.968C809.553 291.748 839.608 266.986 868.653 243.052C882.611 231.571 896.892 219.827 911.879 209.214V216.633C898.304 226.477 885.274 237.211 872.506 247.722C843.057 271.979 812.599 297.064 776.252 310.648C757.574 317.642 738.129 321.321 718.201 324.798C700.672 327.85 683.426 330.518 666.322 330.518C660.687 330.535 655.056 330.217 649.459 329.568C638.663 328.045 627.978 325.824 617.468 322.918C611.115 321.301 604.539 319.643 598.044 318.329C571.257 312.932 543.26 313.175 516.171 313.397C499.046 313.538 481.316 313.68 463.95 312.427C431.455 310.062 372.859 299.227 345.649 253.038C329.815 226.154 328.947 194.296 328.12 163.49C327.757 150.371 327.394 136.808 325.881 123.871C322.286 93.8311 312.113 64.9581 296.089 39.3161C292.943 34.303 289.473 29.2092 286.125 24.3174C280.74 16.434 275.273 8.44942 270.695 0.0606393H277.674C281.788 7.19616 286.549 14.0891 291.128 20.881Z" fill="#342F2C"/>
<path d="M-228.71 0.32343C-197.364 40.524 -178.327 88.9737 -173.907 139.8C-173.221 148.087 -172.878 156.941 -175.137 165.492C-179.171 180.632 -190.366 192.295 -201.924 202.665C-206.866 207.072 -212.009 211.458 -216.971 215.683C-233.652 229.832 -250.918 244.629 -262.98 262.983C-268.271 271.439 -273.034 280.215 -277.241 289.261C-284.482 303.997 -291.966 319.239 -303.987 331.044C-321.536 348.266 -345.317 354.593 -362.159 356.857C-368.578 357.724 -375.047 358.163 -381.523 358.171C-420.09 358.171 -456.155 342.626 -478.826 315.459C-507.832 280.671 -509.889 227.771 -483.546 195.024C-475.478 185.099 -465.393 177.094 -455.549 169.352C-442.701 159.245 -430.558 149.684 -422.913 136.222C-406.212 106.871 -417.024 69.2125 -428.44 36.2234L-440.946 0.101076H-434.552L-422.732 34.2222C-410.872 68.4848 -399.717 107.68 -417.649 139.234C-425.899 153.707 -439.07 164.077 -451.818 174.123C-461.379 181.642 -471.283 189.445 -478.826 198.824C-503.435 229.408 -501.397 278.932 -474.187 311.557C-449.478 341.211 -405.829 356.634 -362.966 350.853C-347.031 348.711 -324.642 342.768 -308.223 326.718C-296.948 315.641 -290.07 301.531 -282.667 286.573C-278.357 277.314 -273.473 268.335 -268.043 259.688C-255.497 240.607 -237.908 225.608 -220.884 211.175C-215.942 206.95 -210.799 202.604 -205.958 198.238C-195.086 188.515 -184.557 177.64 -180.987 164.056C-179.309 156.288 -178.954 148.292 -179.938 140.406C-184.266 90.7585 -202.853 43.4304 -233.451 4.14386L-236.637 0.101076H-228.872C-228.872 0.101076 -228.751 0.242575 -228.71 0.32343Z" fill="#342F2C"/>
<path d="M-455.065 708.883C-414.543 715.897 -377.711 751.332 -358.468 779.51C-334.828 814.197 -322.302 854.989 -313.185 890.303C-310.341 901.319 -307.82 913.913 -313.891 924.282C-318.49 932.085 -327.022 936.411 -333.033 938.937C-345.005 943.921 -357.849 946.457 -370.813 946.396C-398.325 946.396 -426.221 935.178 -440.321 910.011C-445.404 900.976 -448.228 890.949 -450.951 881.267C-452.181 876.941 -453.432 872.474 -454.864 868.189C-460.88 850.403 -470.494 834.053 -483.103 820.16C-485.906 817.088 -488.952 814.096 -491.897 811.044C-501.639 801.24 -511.725 791.093 -516.263 777.63C-521.729 761.459 -517.675 743.125 -505.432 728.753C-492.26 713.431 -472.997 705.81 -455.065 708.883ZM-510.494 775.75C-506.46 787.879 -497.283 797.076 -487.601 806.819C-484.595 809.831 -481.549 812.883 -478.625 816.138C-465.453 830.648 -455.413 847.729 -449.135 866.309C-447.643 870.736 -446.372 875.284 -445.101 879.67C-442.358 889.454 -439.756 898.691 -435.016 907.1C-415.813 941.323 -368.332 947.387 -335.373 933.379C-326.962 929.801 -321.939 926.061 -319.095 921.25C-314.173 912.882 -316.473 901.703 -319.095 891.879C-328.091 857.051 -340.395 816.886 -363.471 782.987C-382.028 755.759 -417.427 721.577 -456.094 714.906C-471.908 712.177 -489.053 718.949 -500.812 732.796C-511.664 745.49 -515.295 761.56 -510.494 775.75Z" fill="#342F2C"/>
<path d="M799.468 583.657C825.567 632.544 833.671 689.074 822.362 743.347C817.239 767.341 808.767 782.765 795.676 791.861C787.346 797.662 776.817 801.018 763.403 802.13C760.519 802.372 757.695 802.493 754.951 802.493C744.216 802.72 733.573 800.465 723.849 795.904C697.627 783.027 687.541 754.505 677.799 726.954C674.169 716.048 669.94 705.352 665.132 694.915C653.917 671.931 635.924 652.627 618.537 633.97C609.642 624.429 600.384 614.544 592.174 604.215C561.192 565.566 551.551 523.844 566.396 492.614C578.499 467.245 596.955 454.046 621.422 453.419C687.521 451.741 777.523 543.027 799.468 583.657ZM621.624 459.483C599.617 460.049 582.876 472.076 571.903 495.221C551.43 538.317 585.881 586.649 596.935 600.334C605.003 610.441 614.181 620.285 623.016 629.745C640.705 648.746 658.98 668.374 670.598 692.166C675.517 702.805 679.84 713.71 683.547 724.831C693.33 752.484 702.589 778.58 726.551 790.385C736.536 795.297 748.739 797.197 762.858 796.005C775.142 794.994 784.723 791.962 792.126 786.807C803.886 778.722 811.591 764.37 816.331 741.973C827.349 689.074 819.451 633.978 794.022 586.326C773.529 548.384 685.928 459.483 623.399 459.483H621.624Z" fill="#342F2C"/>
<path d="M332.659 43.1366C339.86 54.9819 347.303 67.2315 352.507 80.3706C360.696 101.049 363.197 123.588 365.618 145.379C366.445 152.777 367.292 160.438 368.341 167.917C373.646 205.151 385.223 230.863 403.74 246.549C421.894 261.932 445.917 267.35 468.972 271.594C542.651 285.105 617.614 290.245 692.443 286.917C712.028 286.027 734.64 284.491 755.355 277.214C776.07 269.937 794.183 257.445 812.559 244.144C846.405 219.665 879.707 193.73 911.899 166.866V169.514C880.07 196.015 847.172 221.605 813.749 245.781C795.232 259.163 776.877 271.797 756.02 279.114C735.164 286.431 712.25 288.049 692.544 288.918C677.752 289.592 662.96 289.922 648.168 289.908C587.919 289.915 527.793 284.448 468.528 273.575C446.341 269.533 420.905 263.812 402.369 248.106C383.448 232.076 371.649 205.94 366.263 168.2C365.214 160.701 364.347 153.02 363.52 145.601C361.12 123.932 358.639 101.535 350.55 81.1185C345.427 68.1412 338.024 55.9724 330.864 44.1877C325.922 36.1021 320.778 27.6729 316.462 19.0213C313.396 12.9272 310.813 6.60096 308.736 0.101076H310.753C312.801 6.28154 315.302 12.3016 318.237 18.1117C322.654 26.6824 327.737 35.051 332.659 43.1366Z" fill="#342F2C"/>
<path d="M390.871 21.9119C398.061 32.0007 404.474 42.6235 410.054 53.6882C418.122 70.7892 420.805 89.6488 423.427 107.882C424.395 114.593 425.444 121.526 426.654 128.257C432.604 160.256 443.073 181.4 459.613 194.822C475.749 207.9 497.614 212.732 516.837 216.229C581.322 227.963 646.918 232.397 712.391 229.448C731.917 228.579 752.733 226.942 771.814 220.979C781.721 217.794 791.326 213.736 800.517 208.85C809.473 204.242 818.207 199.128 826.739 194.175L835.573 189.021C849.431 180.935 863.006 172.991 876.036 165.33C889.066 157.669 899.313 151.463 909.176 145.278L911.839 143.62V146.005L910.104 147.097C900.22 153.282 889.933 159.488 876.923 167.169C863.913 174.851 850.318 182.774 836.441 190.86L827.606 196.015C819.134 200.987 810.38 206.122 801.384 210.751C792.082 215.636 782.369 219.695 772.359 222.879C752.954 228.943 732.017 230.56 712.452 231.429C699.354 232.022 686.257 232.312 673.16 232.299C620.6 232.294 568.147 227.559 516.434 218.149C496.969 214.591 474.801 209.679 458.302 196.298C441.379 182.572 430.688 161.044 424.637 128.54C423.366 121.789 422.358 114.815 421.389 108.084C418.787 89.9925 416.085 71.2945 408.198 54.4766C402.659 43.5027 396.293 32.9677 389.157 22.963C384.175 15.5647 379.071 7.9441 374.573 0.0202337H376.893C381.25 7.60046 386.111 14.8573 390.871 21.9119Z" fill="#342F2C"/>
<path d="M449.265 0.38407C455.956 8.84331 462.081 17.7366 467.6 27.0058C475.306 40.7109 478.291 56.0735 481.195 70.9105C482.325 76.7523 483.515 82.7761 484.947 88.5775C488.981 105.092 496.707 128.702 515.486 143.155C529.605 153.929 548.283 157.992 564.702 160.964C619.996 170.836 676.215 174.51 732.32 171.92C749.384 171.151 769.373 169.696 788.233 164.683C797.558 162.122 806.702 158.941 815.605 155.162C821.656 152.656 827.707 150.008 833.496 147.44L840.737 144.247C856.874 137.212 872.627 130.966 887.352 125.63L894.25 123.143C900.301 121.001 905.949 118.939 911.879 116.655V118.818C906.191 121.001 900.684 122.982 894.936 125.043L888.037 127.53C873.353 132.846 857.781 139.092 841.645 146.106L834.404 149.3C828.574 151.867 822.563 154.515 816.472 157.042C807.488 160.849 798.264 164.056 788.858 166.644C769.817 171.697 749.687 173.173 732.522 173.921C721.092 174.446 709.662 174.702 698.232 174.689C653.364 174.712 608.584 170.734 564.42 162.803C547.779 159.791 528.818 155.647 514.336 144.611C495.053 129.875 487.267 105.82 483.071 89.002C481.619 83.1602 480.449 77.096 479.299 71.2339C476.435 56.5586 473.47 41.3577 465.926 27.9356C460.461 18.7451 454.397 9.9262 447.773 1.53628L446.623 0.0404365H449.164L449.265 0.38407Z" fill="#342F2C"/>
<path d="M525.127 0.32343C532.288 10.7942 535.616 22.7407 538.843 34.2829C540.194 39.1342 541.586 44.127 543.24 48.8773C548.081 62.8451 555.665 80.31 571.338 91.3266C583.44 99.8367 598.972 103.132 612.567 105.476C658.669 113.612 705.527 116.628 752.289 114.472C769.909 113.922 787.451 111.894 804.733 108.407C813.89 106.386 822.644 103.92 830.753 101.474L835.573 99.9984C842.27 97.977 848.584 95.9555 854.917 94.3182C869.297 90.2523 884.003 87.4522 898.869 85.9497C902.338 85.6263 905.646 85.4241 908.954 85.2018L911.919 85.0199V87.0412L909.075 87.2232C905.808 87.4253 902.52 87.6476 898.99 87.9508C884.245 89.479 869.657 92.2584 855.381 96.2588C849.088 97.9972 842.774 99.9175 836.098 101.939L831.277 103.394C823.209 105.86 814.314 108.407 805.055 110.388C787.667 113.883 770.016 115.912 752.289 116.452C742.486 116.897 732.717 117.113 722.981 117.099C685.789 117.145 648.666 113.905 612.042 107.417C598.226 104.951 582.452 101.595 570.007 92.8629C553.669 81.4016 545.802 62.5419 541.163 49.4433C539.489 44.6324 538.077 39.5991 536.725 34.7276C533.538 23.3471 530.25 11.5624 523.292 1.37456L522.303 0H524.784C524.914 0.0894666 525.03 0.198568 525.127 0.32343Z" fill="#342F2C"/>
<path d="M601.493 9.13671C606.717 19.2437 614.342 31.6752 627.191 39.4576C637.276 45.6633 649.661 48.19 660.432 50.0699C697.342 56.4148 734.829 58.7327 772.238 56.9831C788.631 56.3021 804.975 54.7094 821.192 52.2126C827.122 51.2828 833.012 50.1912 838.7 49.1401L845.921 47.8262C855.078 46.1888 862.441 45.1175 869.097 44.4505C885.234 42.9344 899.051 43.5813 910.447 46.4719L911.899 46.8762V48.8976L909.882 48.372C898.869 45.6633 884.79 44.9963 869.198 46.4921C862.602 47.1389 855.3 48.2102 846.183 49.8475L838.982 51.1615C833.274 52.1924 827.384 53.2839 821.434 54.234C805.143 56.7394 788.726 58.3321 772.258 59.0045C764.109 59.3953 755.987 59.584 747.892 59.5705C718.437 59.6165 689.033 57.1141 660.008 52.0913C649.056 50.171 636.489 47.6038 626.061 41.196C612.789 33.1104 604.962 20.2342 599.617 9.98569C597.943 6.75146 596.451 3.35553 594.978 0.0202337H597.197C598.609 3.15339 599.98 6.16526 601.493 9.13671Z" fill="#342F2C"/>
<path d="M901.511 0.101076H908.087C909.398 0.58621 910.669 1.09155 911.899 1.63732V3.82043C908.528 2.33814 905.057 1.0953 901.511 0.101076Z" fill="#342F2C"/>
<path d="M792.287 1.63732C772.455 2.54466 752.583 2.03128 732.824 0.101076H815.524C807.839 0.747922 800.033 1.29369 792.287 1.63732Z" fill="#342F2C"/>
<path d="M799.831 710.217C797.269 728.409 791.924 741.912 783.493 751.817C779.6 756.552 774.743 760.399 769.247 763.101C763.751 765.802 757.742 767.297 751.623 767.483C748.572 767.496 745.535 767.067 742.607 766.209C730.505 762.631 720.157 751.433 714.166 735.444C711.694 728.322 709.673 721.051 708.115 713.673C706.602 707.286 705.029 700.696 702.871 694.45C693.915 668.475 674.632 647.372 657.305 629.644C655.087 627.36 652.827 625.076 650.568 622.791C634.129 606.135 617.105 588.913 605.608 568.214C594.474 548.141 580.899 505.551 609.259 487.924C634.492 472.258 672.554 493.321 693.007 507.289C719.935 525.664 740.832 550.426 756.041 569.952C766.332 582.713 775.421 596.402 783.19 610.845C798.791 641.47 804.601 676.166 799.831 710.217ZM781.314 611.734C773.605 597.404 764.584 583.822 754.367 571.165C739.259 551.76 718.483 527.139 691.838 508.906C671.808 495.241 634.553 474.542 610.288 489.602C583.239 506.42 596.531 547.697 607.343 567.183C618.719 587.7 635.582 604.821 651.98 621.376L658.737 628.229C676.246 646.118 695.67 667.424 704.767 693.783C706.945 700.13 708.518 706.78 710.051 713.208C711.613 720.505 713.634 727.695 716.103 734.736C721.851 750.119 731.755 760.893 743.232 764.269C758.159 768.675 773.488 760.549 782 750.523C790.169 740.901 795.373 727.641 797.875 709.934C802.551 676.273 796.769 641.986 781.314 611.734Z" fill="#342F2C"/>
<path d="M768.627 669.465C767.498 680.017 764.331 688.325 759.228 694.207C756.839 696.912 753.905 699.078 750.619 700.563C747.333 702.047 743.771 702.816 740.166 702.818C737.243 702.83 734.342 702.295 731.614 701.242L730.827 700.918C721.166 696.774 715.215 686.769 711.928 679.067C710.495 675.752 709.305 672.235 708.035 668.515C706.542 664.149 705.009 659.641 702.992 655.134C696.295 640.256 684.556 627.259 674.067 616.242L671.122 613.19C661.42 603.083 651.395 592.713 644.739 580.585C637.861 568.032 630.781 544.2 647.825 534.477C654.905 530.434 663.962 530.212 674.672 533.85C683.285 536.781 692.705 542.138 703.416 550.244C717.219 561.028 729.524 573.612 740.005 587.66C746.036 595.197 751.433 603.223 756.142 611.654C759.71 618.273 762.59 625.243 764.734 632.454C767.867 642.634 769.325 653.257 769.051 663.907C768.889 665.746 768.768 667.626 768.627 669.465ZM762.778 633.08C760.675 626.003 757.849 619.161 754.346 612.664C749.7 604.332 744.37 596.401 738.412 588.953C727.987 575.056 715.764 562.609 702.064 551.942C691.515 543.977 682.297 538.701 673.825 535.77C663.74 532.314 655.188 532.475 648.612 536.215C632.939 545.17 639.797 567.708 646.292 579.614C652.787 591.52 662.772 601.85 672.373 611.775L675.318 614.847C685.928 625.985 697.808 639.104 704.626 654.305C706.643 658.893 708.236 663.462 709.749 667.868C711 671.547 712.19 675.004 713.581 678.258C716.728 685.616 722.376 695.178 731.433 699.059L732.159 699.362C736.55 700.927 741.307 701.145 745.823 699.99C750.338 698.834 754.408 696.356 757.513 692.873C762.334 687.314 765.339 679.37 766.409 669.243C766.61 667.464 766.731 665.625 766.812 663.826C767.127 653.402 765.744 642.997 762.717 633.02L762.778 633.08Z" fill="#342F2C"/>
<path d="M728.185 639.306C724.847 639.229 721.638 637.993 719.108 635.809C716.388 633.205 714.082 630.199 712.27 626.895C711.443 625.541 710.576 624.126 709.648 622.852C707.746 620.578 705.726 618.406 703.597 616.343C699.724 612.482 694.944 607.692 690.829 602.84C684.132 594.896 681.349 589.176 682.337 585.315C682.624 584.303 683.161 583.381 683.898 582.632C684.635 581.883 685.548 581.332 686.553 581.029C690.728 579.433 695.468 579.958 700.672 582.647C705.676 585.482 710.191 589.106 714.045 593.38C720.805 600.794 726.919 608.773 732.32 617.233L732.844 618.021C734.801 620.667 736.264 623.646 737.161 626.814C737.632 628.505 737.68 630.286 737.3 632C736.92 633.713 736.124 635.306 734.982 636.638C734.104 637.543 733.044 638.248 731.872 638.709C730.699 639.169 729.442 639.372 728.185 639.306ZM735.043 627.178C734.183 624.266 732.817 621.529 731.009 619.092L730.484 618.304C725.14 609.952 719.101 602.068 712.432 594.734C708.729 590.623 704.391 587.136 699.583 584.405C697.072 582.988 694.254 582.204 691.373 582.121C689.932 582.108 688.502 582.369 687.158 582.889C686.458 583.081 685.817 583.446 685.296 583.951C684.774 584.456 684.388 585.085 684.173 585.78C683.386 588.913 686.19 594.189 692.241 601.486C696.275 606.277 701.035 611.047 704.868 614.868C707.136 616.998 709.271 619.266 711.262 621.659C712.21 623.014 713.097 624.449 713.945 625.844C715.651 628.964 717.821 631.806 720.379 634.273C724.07 637.447 730.142 638.599 733.328 635.223C734.233 634.128 734.861 632.831 735.159 631.441C735.458 630.051 735.418 628.61 735.043 627.239V627.178Z" fill="#342F2C"/>
<path d="M-173.463 782.583C-181.894 758.326 -193.452 734.655 -204.627 711.834C-216.346 687.921 -228.448 663.32 -236.9 637.548C-256.828 577.755 -250.575 521.156 -220.138 486.165C-208.54 472.824 -193.916 462.778 -179.554 453.055C-138.83 425.281 -98.6298 400.883 -54.678 407.27C-46.8008 408.591 -39.0185 410.428 -31.3809 412.769C-26.3585 414.184 -21.1544 415.659 -15.9907 416.811C5.16827 421.481 27.3963 420.996 48.8982 420.531L57.8943 420.349C89.6026 419.803 121.714 420.834 153.342 423.401C165.626 424.392 177.547 425.685 188.318 430.496C197.979 434.802 206.189 441.735 213.107 447.88C235.638 467.912 261.013 498.698 253.913 531.546C248.487 556.712 223.838 577.512 188.035 587.195C178.353 589.823 168.288 591.763 158.546 593.663C139.323 597.383 119.455 601.243 102.068 610.4C67.2535 628.593 41.9797 669.162 34.4561 718.828C29.1512 754.041 32.0759 790.345 34.8998 825.456C35.6058 834.148 36.3319 843.123 36.9168 851.957C39.3774 889.069 39.6198 926.295 37.6429 963.437C36.8361 978.658 35.4848 995.132 31.1884 1010.78H29.1714C33.5484 995.152 34.8998 978.597 35.7067 963.336C37.6803 926.295 37.4378 889.17 34.9805 852.159C34.3956 843.346 33.6694 834.371 32.9634 825.699C30.1396 790.466 27.1946 754.041 32.5601 718.565C40.1644 668.273 65.8214 627.178 101.14 608.662C118.89 599.364 138.92 595.482 158.284 591.723C167.986 589.843 178.011 587.882 187.632 585.295C222.709 575.794 246.792 555.56 252.077 531.162C258.955 499.264 234.024 469.105 211.877 449.437C205.079 443.373 197.031 436.581 187.672 432.376C177.163 427.707 165.484 426.433 153.382 425.443C121.815 422.896 89.7841 421.865 58.1162 422.411L49.1403 422.593C27.5173 423.058 5.18848 423.543 -16.2328 418.813C-21.457 417.681 -26.6609 416.205 -31.7238 414.77C-39.2825 412.456 -46.9839 410.64 -54.7789 409.332C-98.0045 403.046 -137.821 427.242 -178.223 454.793C-192.343 464.435 -206.986 474.421 -218.423 487.56C-248.377 521.924 -254.488 577.856 -234.782 636.961C-226.27 662.512 -214.188 687.153 -202.509 710.985C-191.314 733.847 -179.736 757.477 -171.264 781.936C-144.699 858.749 -149.198 940.09 -161.179 1010.82H-163.196C-151.537 940.251 -146.999 859.011 -173.463 782.583Z" fill="#342F2C"/>
<path d="M62.8563 872.636C63.0177 832.915 63.1791 791.78 67.9999 752.1C69.896 736.475 72.6795 720 80.1023 705.426C86.7385 692.327 97.0657 680.381 113.565 666.696C139.686 645.027 166.009 631.281 192.049 625.844C233.076 617.253 276.766 628.613 311.682 637.73C357.63 649.696 414.834 664.594 463.566 692.206C477.888 700.292 495.154 711.915 501.608 729.905C504.654 738.415 505.32 748.522 503.625 760.833C499.853 788.546 486.944 814.662 474.458 839.93C457.777 873.646 442.044 905.504 445.877 940.999C448.701 967.116 462.195 990.342 477.524 1010.72H474.983C459.875 990.503 446.744 967.277 443.88 941.222C439.967 905.059 456.587 871.443 472.643 838.959C485.068 813.833 497.897 787.858 501.628 760.469C503.242 748.502 502.597 738.698 499.611 730.512C493.399 713.148 476.516 701.808 462.497 693.884C414.088 666.393 356.944 651.435 311.096 639.609C276.282 630.533 232.935 619.254 192.392 627.744C166.735 633.121 140.634 646.705 114.755 668.172C98.4778 681.675 88.3319 693.419 81.8168 706.255C74.5554 720.546 71.7314 736.818 69.9564 752.262C65.1356 791.901 64.9743 832.915 64.8129 872.555C64.6314 918.36 64.4296 965.216 57.0472 1010.72H55.0301C62.4731 965.337 62.6546 918.441 62.8563 872.636Z" fill="#342F2C"/>
<path d="M97.9532 900.309C98.5382 868.876 99.1432 836.392 102.834 804.858C103.379 800.027 103.924 796.126 104.529 792.548C105.868 783.165 108.544 774.022 112.476 765.401C117.841 754.162 126.414 743.61 139.485 732.169C160.381 713.976 182.024 702.03 203.829 696.997C236.102 689.558 269.222 696.572 303.169 705.082C345.81 715.614 390.67 728.652 429.781 752.585C442.085 760.105 455.357 769.828 460.46 784.705C462.901 791.841 463.405 800.31 462.033 810.599C458.947 833.421 448.701 855.07 438.777 875.89C436.275 881.146 433.714 886.563 431.293 891.9C421.611 913.326 413.14 936.552 415.984 961.314C418.102 979.204 425.948 995.375 436.538 1010.84H434.097C423.75 995.476 416.085 979.406 413.926 961.557C410.941 936.31 419.594 912.76 429.397 891.071C431.818 885.714 434.4 880.277 436.901 875.021C446.744 854.281 456.93 832.834 459.956 810.336C461.307 800.391 460.823 792.144 458.483 785.372C453.602 771.101 440.673 761.661 428.671 754.323C389.782 730.532 345.104 717.554 302.625 707.063C268.92 698.654 236.062 691.701 204.212 698.978C182.751 703.93 161.39 715.614 140.755 733.705C127.907 744.944 119.475 755.294 114.231 766.27C110.384 774.72 107.762 783.678 106.445 792.871C105.86 796.429 105.336 800.31 104.771 805C101.1 836.453 100.495 868.876 99.9097 900.248C99.2441 936.876 98.518 974.292 92.8904 1010.72H90.8733C96.5615 974.413 97.2876 936.956 97.9532 900.309Z" fill="#342F2C"/>
<path d="M133.252 926.829C134.119 904.068 135.027 880.519 137.548 857.617C137.972 853.574 138.375 850.501 138.819 847.51C139.858 839.865 141.892 832.389 144.87 825.274C148.904 815.875 155.682 806.799 165.424 797.561C180.915 782.845 198.282 772.637 215.609 768.069C241.831 761.156 269.021 766.351 294.678 772.253C337.419 782.118 370.58 795.378 396.015 812.782C405.435 819.23 415.56 827.417 419.332 839.323C421.217 846.113 421.582 853.236 420.401 860.184C418.021 878.093 410.316 895.134 403.054 911.608C401.037 916.217 398.859 921.008 396.882 925.758C389.701 942.859 383.408 961.415 386.071 981.427C387.612 991.785 391.11 1001.75 396.378 1010.8H394.078C388.959 1001.81 385.54 991.959 383.993 981.73C381.27 961.254 387.644 942.374 394.946 925.131C396.963 920.401 398.98 915.61 401.138 910.982C408.44 894.628 415.984 877.73 418.324 860.123C419.463 853.466 419.119 846.639 417.315 840.132C413.745 828.812 403.922 820.888 394.805 814.662C369.571 797.379 336.653 784.22 294.133 774.436C268.738 768.574 241.79 763.42 216.052 770.232C199.048 774.719 181.984 784.746 166.735 799.239C157.194 808.275 150.599 817.128 146.564 826.285C143.696 833.237 141.75 840.536 140.775 847.995C140.332 850.865 139.928 854.059 139.505 857.94C137.004 880.782 136.096 904.27 135.229 927.011C134.159 954.826 133.07 983.186 128.996 1010.9H126.979C131.235 983.085 132.284 954.684 133.252 926.829Z" fill="#342F2C"/>
<path d="M169.418 950.48C170.265 937.3 171.153 923.696 172.464 910.375C172.726 907.788 172.988 905.2 173.331 902.633C173.99 896.757 175.302 890.974 177.244 885.391C180.433 877.114 185.232 869.556 191.363 863.155C201.13 852.233 213.546 844.023 227.408 839.323C246.792 833.077 267.992 835.988 286.186 839.647C307.466 843.932 337.944 853.251 362.31 873.242C369.127 878.821 375.764 885.229 378.224 894.184C379.476 899.36 379.675 904.736 378.809 909.991C377.115 922.928 372.133 935.339 367.312 947.346C365.678 951.389 364.004 955.594 362.491 959.717C358.013 971.846 353.757 986.319 356.178 1001.6C356.692 1004.72 357.454 1007.78 358.457 1010.78H356.44C355.496 1007.89 354.775 1004.93 354.282 1001.92C351.781 986.177 356.117 971.401 360.696 959.01C362.229 954.967 363.903 950.661 365.537 946.599C370.317 934.693 375.259 922.342 376.913 909.728C377.737 904.744 377.558 899.644 376.389 894.73C374.069 886.3 367.675 880.175 361.12 874.799C336.975 855.151 306.719 845.893 285.762 841.648C267.83 838.05 246.954 835.159 227.993 841.264C214.467 845.871 202.353 853.891 192.816 864.55C186.883 870.758 182.236 878.082 179.14 886.098C177.241 891.535 175.962 897.171 175.328 902.896C175.005 905.443 174.723 908.01 174.46 910.577C173.149 923.858 172.282 937.462 171.435 950.601C170.144 970.592 168.833 990.867 165.908 1010.8H163.891C166.796 990.847 168.127 970.512 169.418 950.48Z" fill="#342F2C"/>
<path d="M207.278 963.154C207.419 961.334 207.56 959.515 207.742 957.716C208.053 953.584 208.68 949.482 209.618 945.446C211.114 939.462 213.692 933.803 217.222 928.75C222.765 920.843 230.313 914.563 239.087 910.557C249.495 905.888 262.102 904.736 277.613 906.999C297.784 909.951 316.784 919.936 328.604 933.722C332.736 937.988 335.667 943.275 337.096 949.044C337.67 952.592 337.67 956.21 337.096 959.758C335.894 967.495 333.99 975.107 331.408 982.498C330.258 986.137 329.048 989.897 328.06 993.576C326.46 999.165 325.532 1004.93 325.297 1010.74H323.279C323.503 1004.75 324.452 998.81 326.103 993.05C327.092 989.311 328.302 985.531 329.472 981.872C332.04 974.573 333.943 967.057 335.16 959.414C335.696 956.067 335.696 952.655 335.16 949.307C333.776 943.884 330.994 938.92 327.092 934.915C315.574 921.493 296.977 911.75 277.351 908.879C262.223 906.656 249.979 907.768 239.934 912.275C231.464 916.17 224.192 922.271 218.876 929.942C215.488 934.802 213.014 940.241 211.574 945.992C210.665 949.923 210.052 953.916 209.739 957.938C209.578 959.738 209.436 961.537 209.295 963.356C208.045 979.123 206.754 995.132 204.394 1010.84H202.377C204.737 995.051 206.028 979.001 207.278 963.154Z" fill="#342F2C"/>
<path d="M243.041 994.627C244.619 988.909 247.995 983.854 252.668 980.213C257.341 976.571 263.062 974.537 268.98 974.413C274.905 974.529 280.635 976.559 285.316 980.201C289.997 983.843 293.379 988.903 294.96 994.627C296.115 1000.01 296.246 1005.57 295.343 1011H293.326C294.258 1005.74 294.155 1000.35 293.023 995.132C291.549 989.853 288.416 985.19 284.089 981.836C279.761 978.483 274.47 976.617 269 976.515C263.524 976.632 258.233 978.516 253.912 981.889C249.591 985.261 246.471 989.941 245.017 995.233C244.077 999.798 243.772 1004.47 244.11 1009.12C244.11 1009.75 244.11 1010.37 244.11 1011H242.093C242.093 1010.39 242.093 1009.79 242.093 1009.18C241.734 1004.31 242.053 999.411 243.041 994.627Z" fill="#342F2C"/>
<path d="M-189.257 622.69C-193.597 622.248 -197.825 621.037 -201.742 619.112C-208.782 615.191 -213.603 606.984 -215.68 595.159C-220.945 565.364 -209.367 531.243 -185.424 506.218C-165.677 485.236 -137.579 469.469 -101.958 458.957C-78.8223 452.145 -58.5105 449.295 -39.893 450.266C-25.3298 451.013 -10.8674 454.187 3.11084 457.219C11.9859 459.241 21.1636 461.161 30.2808 462.535C50.2094 465.527 70.7834 465.608 90.6716 465.689C102.774 465.689 115.159 465.689 127.382 466.477C140.312 467.205 153.947 468.701 166.17 474.704C179.422 481.213 188.782 492.897 190.557 505.025C195.962 542.138 151.748 554.711 125.325 562.231L124.115 562.574C108.765 566.961 94.2821 573.409 80.2635 579.655C71.4893 583.576 62.4126 587.74 53.114 591.177C-8.06366 614.504 -72.9526 626.794 -132.032 626.794C-151.184 626.897 -170.315 625.525 -189.257 622.69ZM79.4568 577.937C93.5762 571.67 108.079 565.182 123.57 560.755L124.78 560.411C150.558 553.074 193.723 540.784 188.56 505.45C186.865 493.867 177.95 482.81 165.283 476.584C153.382 470.742 139.989 469.267 127.261 468.498C115.159 467.811 102.673 467.751 90.6515 467.71C70.7027 467.71 50.0681 467.548 29.9781 464.537C20.8005 463.162 11.6027 461.141 2.68732 459.2C-11.2304 456.168 -25.5517 453.035 -40.014 452.287C-58.3693 451.337 -78.4593 454.147 -101.393 460.898C-136.672 471.268 -164.467 486.934 -183.992 507.39C-207.471 532.051 -218.847 565.485 -213.703 594.654C-212.332 602.416 -208.963 612.644 -200.754 617.192C-197.05 619.003 -193.055 620.139 -188.954 620.548C-117.005 631.726 -29.0412 620.305 52.4079 589.257C61.6259 585.861 70.7229 581.818 79.4568 577.916V577.937Z" fill="#342F2C"/>
<path d="M-140.545 577.431C-148.351 558.774 -143.752 537.388 -128.442 521.6C-117.288 510.018 -101.313 501.164 -80.9404 495.322C-69.5681 491.781 -57.7107 490.055 -45.8031 490.208C-37.2985 490.676 -28.8422 491.797 -20.509 493.564C-15.7891 494.453 -10.9079 495.363 -6.1073 495.989C3.01361 497.038 12.1846 497.592 21.3652 497.647H24.2092C32.2775 497.809 40.487 497.97 48.5754 498.658C56.133 498.985 63.5687 500.683 70.5211 503.671C78.2061 507.37 83.6924 513.636 85.1649 520.448C85.861 523.317 85.9277 526.302 85.36 529.199C84.7924 532.096 83.6041 534.834 81.8771 537.226C75.0999 546.726 60.5568 551.76 50.9555 555.095C43.2586 557.91 35.7175 561.135 28.3644 564.757C23.0999 567.244 17.6537 569.811 12.0867 572.055C-21.8184 585.955 -58.0458 593.288 -94.6766 593.663C-103.949 593.688 -113.214 593.107 -122.411 591.925C-124.831 591.675 -127.202 591.076 -129.451 590.146C-134.13 588.024 -137.902 583.738 -140.545 577.431ZM-128.442 588.306C-126.359 589.157 -124.165 589.702 -121.927 589.924C-81.2025 595.28 -32.6115 588.084 11.421 570.195C16.9276 567.951 22.3333 565.404 27.5575 562.938C34.9554 559.291 42.5438 556.045 50.2899 553.215C59.6692 549.961 73.829 545.13 80.2231 536.074C81.7972 533.92 82.8788 531.445 83.3912 528.825C83.9036 526.204 83.8343 523.503 83.1882 520.913C81.8569 514.708 76.7941 508.967 69.6536 505.53C62.9195 502.659 55.7254 501.022 48.414 500.699C40.3458 500.032 32.1363 499.87 24.2092 499.689H21.3652C12.1102 499.634 2.86499 499.074 -6.32916 498.011C-11.1903 497.384 -16.0918 496.454 -20.8521 495.585C-29.0775 493.829 -37.4261 492.714 -45.8233 492.25C-57.5914 492.047 -69.3164 493.726 -80.5571 497.222C-100.587 503.024 -116.279 511.696 -127.171 522.995C-141.835 538.196 -146.273 558.754 -138.79 576.643C-136.248 582.465 -132.819 586.305 -128.543 588.327L-128.442 588.306Z" fill="#342F2C"/>
<path d="M-36.4236 529.585C-32.6035 530.099 -28.871 531.132 -25.3298 532.657C-21.1343 534.376 -18.8752 536.539 -18.3911 539.267C-17.907 541.996 -19.1375 544.483 -22.0622 547.353C-30.4532 555.62 -42.7169 560.553 -56.5943 561.26H-57.6634C-65.4089 561.26 -72.9527 557.056 -75.4942 551.153C-77.5112 546.484 -76.1396 541.451 -71.5811 537.003C-64.7029 530.333 -44.7542 528.594 -36.4236 529.585ZM-73.6587 550.425C-71.3391 555.742 -63.8961 559.603 -56.6951 559.239C-43.322 558.572 -31.5222 553.821 -23.4741 545.918C-21.0739 543.533 -20.045 541.471 -20.388 539.611C-20.7309 537.751 -22.5866 535.952 -26.0963 534.517C-29.4662 533.072 -33.0142 532.086 -36.6455 531.586C-38.2937 531.412 -39.9503 531.331 -41.6075 531.344C-50.9667 531.344 -65.0458 533.486 -70.1691 538.499C-74.1428 542.401 -75.353 546.524 -73.6587 550.425Z" fill="#342F2C"/>
<path d="M-125.921 841.466C-127.938 828.569 -130.641 815.451 -133.202 802.756C-140.02 768.979 -147.08 734.029 -143.772 699.301C-143.046 691.681 -141.634 682.968 -136.631 676.257C-130.701 668.293 -120.878 664.553 -112.971 662.108C-87.758 654.568 -62.928 655.053 -43.0397 663.502C-33.4788 667.545 -26.3182 672.983 -21.7999 679.673C-16.0715 688.103 -14.5184 698.452 -13.7317 707.447C-12.7776 722.044 -12.6901 736.685 -13.4695 751.292C-13.8527 762.328 -14.2359 773.749 -13.8325 784.948C-12.8442 811.954 -7.19635 838.939 -1.7301 865.015C1.31561 879.589 4.48242 894.669 6.802 909.627C13.0751 950.055 11.2798 983.469 1.33575 1010.7H-0.822449C9.26288 983.57 11.0782 950.338 4.80511 909.85C2.48553 894.952 -0.661194 879.913 -3.70691 865.379C-9.19336 839.101 -14.8411 812.136 -15.8093 784.968C-16.2127 773.689 -15.8092 762.247 -15.4462 751.15C-14.67 736.624 -14.7509 722.065 -15.6883 707.548C-16.4346 698.816 -17.9272 688.79 -23.4136 680.765C-27.7099 674.458 -34.5479 669.284 -43.7658 665.362C-63.2305 657.115 -87.5765 656.63 -112.346 664.048C-119.95 666.332 -129.39 669.89 -134.957 677.389C-139.657 683.696 -141.008 692.065 -141.694 699.423C-144.982 733.786 -137.943 768.655 -131.165 802.291C-128.583 814.986 -125.941 828.125 -123.884 841.062C-114.983 897.393 -116.349 954.875 -127.918 1010.72H-129.935C-118.393 955.008 -117.033 897.662 -125.921 841.466Z" fill="#342F2C"/>
<path d="M-82.1909 1009.79C-80.7789 1001.7 -77.2087 994.283 -73.7394 987.127C-72.5231 984.037 -70.611 981.27 -68.152 979.042C-66.7767 977.865 -65.0468 977.185 -63.2397 977.112C-61.4328 977.039 -59.6536 977.576 -58.1877 978.638C-55.1823 981.265 -55.5253 985.672 -56.2716 989.614L-60.2048 1010.76H-62.2219L-58.1877 989.25C-57.5624 985.854 -57.2195 982.114 -59.4585 980.154C-60.5693 979.405 -61.8965 979.046 -63.2324 979.134C-64.5682 979.222 -65.8374 979.751 -66.841 980.639C-69.0429 982.676 -70.7594 985.184 -71.8635 987.976C-75.2723 995.011 -78.782 1002.29 -80.1334 1010.09C-80.1334 1010.31 -80.1334 1010.54 -80.1334 1010.76H-82.1505C-82.2715 1010.45 -82.2514 1010.11 -82.1909 1009.79Z" fill="#342F2C"/>
<path d="M-107.868 964.831C-103.178 894.817 -109.067 824.495 -125.336 756.244L-125.941 753.697C-128.341 743.731 -130.802 733.483 -130.681 722.972C-130.5 710.116 -125.961 698.836 -118.216 692.004C-113.435 687.82 -107.061 684.808 -98.1659 682.564C-79.2661 677.814 -62.9683 681.21 -54.5167 691.701C-48.9093 698.675 -47.3158 707.872 -46.1661 716.766C-44.3911 730.572 -43.1606 744.702 -41.9705 758.366C-39.5299 786.342 -37.0086 815.248 -29.6463 842.719C-27.6292 849.834 -25.4709 856.869 -23.2925 863.883C-21.1141 870.897 -18.8146 878.033 -16.8984 885.128C-6.0285 926.294 -5.9035 969.569 -16.5354 1010.8H-18.5524C-7.86414 969.761 -7.94055 926.652 -18.7743 885.654C-20.6703 878.538 -22.9295 871.403 -25.1281 864.49C-27.3267 857.576 -29.5858 850.34 -31.502 843.245C-38.9046 815.592 -41.4461 786.646 -43.8868 758.548C-45.0768 744.904 -46.3072 730.794 -48.1024 717.029C-49.1916 708.458 -50.7246 699.524 -56.0093 692.954C-67.7487 678.38 -90.8037 682.847 -97.6012 684.525C-106.174 686.688 -112.265 689.558 -116.804 693.54C-124.125 699.968 -128.422 710.702 -128.583 722.992C-128.704 733.099 -126.264 743.368 -123.904 753.313L-123.299 755.84C-106.991 824.291 -101.081 894.816 -105.77 965.034C-106.521 980.48 -108.819 995.812 -112.628 1010.8H-114.645C-110.51 995.84 -108.897 980.032 -107.868 964.831Z" fill="#342F2C"/>
<path d="M-89.9365 945.466C-89.498 930.633 -89.8885 915.786 -91.1063 900.996L-95.1404 838.11C-96.048 823.637 -97.1575 805.647 -88.9883 791.153C-88.0178 789.159 -86.4993 787.482 -84.6114 786.322C-80.2949 784.038 -75.1917 786.686 -71.8433 789.92C-62.2017 799.259 -59.3174 812.843 -56.5137 826.002C-55.8884 828.933 -55.2631 831.844 -54.4966 834.694C-51.0071 849.086 -45.0971 862.994 -39.3888 876.577C-32.2686 893.395 -24.9263 910.8 -22.1428 929.134C-18.1087 955.877 -23.6556 982.317 -31.9861 1010.82H-34.0032C-25.6525 982.337 -20.0451 955.958 -24.059 929.437C-26.8022 911.244 -34.1443 894.062 -41.1637 877.345C-46.8922 863.762 -52.8426 849.693 -56.3724 835.139C-57.0583 832.289 -57.6835 829.338 -58.3895 826.406C-61.1328 813.55 -63.9768 800.25 -73.1746 791.355C-75.9985 788.606 -80.2343 786.302 -83.5826 788.081C-85.1219 789.073 -86.3575 790.472 -87.1529 792.124C-95.08 806.071 -93.9504 823.738 -93.0427 837.949L-89.0085 900.814C-87.7885 915.698 -87.3978 930.639 -87.8386 945.568C-88.9077 967.803 -93.6276 989.513 -99.4569 1010.8H-101.474C-95.7657 989.452 -90.9853 967.661 -89.9365 945.466Z" fill="#342F2C"/>
<path d="M-79.0645 974.959C-78.5198 973.766 -77.955 972.573 -77.3903 971.381C-74.6482 966.17 -72.5679 960.635 -71.1978 954.906C-70.369 949.559 -70.092 944.14 -70.3709 938.735C-70.5323 929.134 -70.6935 919.209 -64.6424 911.628L-64.2592 911.143L-63.6541 911.265C-54.6781 913.144 -47.1746 921.654 -43.6044 934.025C-38.1785 952.784 -41.2444 972.432 -44.2297 991.494C-45.2181 997.841 -46.2468 1004.29 -46.9326 1010.74H-48.9497C-48.2437 1004.17 -47.2351 997.618 -46.2266 991.19C-43.2817 972.371 -40.1754 952.905 -45.5408 934.591C-48.8287 923.231 -55.485 915.348 -63.4524 913.387C-68.6564 920.32 -68.5152 929.255 -68.3538 938.715C-68.0753 944.235 -68.3658 949.769 -69.2211 955.23C-70.6267 961.123 -72.7541 966.819 -75.5547 972.189C-76.1196 973.382 -76.6842 974.554 -77.2288 975.747C-82.2469 987.045 -86.2957 998.751 -89.3312 1010.74H-91.3483C-88.2602 998.487 -84.1512 986.519 -79.0645 974.959Z" fill="#342F2C"/>
<path d="M283.221 110.489C287.903 129.337 291.593 148.418 294.274 167.654C296.896 184.412 299.619 201.735 303.714 218.472C314.182 261.366 332.659 292.132 358.659 309.9C375.743 321.584 396.317 327.547 414.189 331.832C464.293 343.839 516.494 348.347 566.961 352.693L637.841 358.757C690.547 363.305 750.292 368.46 802.11 344.789C825.145 334.258 845.477 318.511 865.144 303.148L911.899 266.763V269.331L866.394 304.766C846.627 320.128 826.194 336.036 802.958 346.649C772.258 360.657 738.916 364.68 705.876 364.68C682.64 364.68 659.484 362.658 637.659 360.799L566.78 354.734C516.353 350.388 463.909 345.881 413.725 333.833C395.672 329.507 374.876 323.484 357.529 311.598C331.106 293.547 312.347 262.377 301.757 218.978C297.723 202.16 294.92 184.796 292.277 167.978C289.312 149.159 286.226 129.693 281.264 111.015C270.191 69.9344 249.792 31.975 221.66 0.101076H224.342C252.087 31.9335 272.223 69.6864 283.221 110.489Z" fill="#342F2C"/>
<path d="M244.412 190.112C246.026 196.52 247.498 203.089 248.951 209.457C253.771 230.843 258.774 252.977 269.121 272.524C288.848 309.9 323.945 331.367 349.804 342.808C384.558 358.11 422.62 364.659 455.579 369.571C492.37 375.07 529.968 379.436 566.396 383.721C626.525 390.695 688.691 397.871 750.232 395.647C811.772 393.424 866.193 381.498 911.859 360.152V362.375C866.132 383.519 811.893 395.405 750.312 397.669C742.405 397.952 734.498 398.093 726.592 398.093C672.696 398.093 618.638 391.827 566.073 385.722C529.766 381.518 492.108 377.152 455.276 371.573C422.196 366.64 383.973 360.071 348.997 344.668C322.775 333.105 287.255 311.355 267.266 273.454C256.817 253.685 251.795 231.429 246.934 209.902C245.501 203.554 244.029 196.985 242.415 190.597C224.319 119.005 187.959 53.3587 136.903 0.101076H139.686C190.314 53.3629 226.383 118.806 244.412 190.112Z" fill="#342F2C"/>
<path d="M686.311 910.719C685.074 893.228 684.811 875.682 685.524 858.163C686.149 830.57 686.795 802.028 679.352 775.164C667.935 733.928 639.011 700.757 610.772 668.677C592.82 648.18 574.283 626.976 560.143 603.608C545.278 579.049 533.922 550.042 525.591 514.93C521.96 499.648 519.197 483.477 523.574 468.62C528.435 452.449 542.474 437.935 561.112 430.011C578.66 422.512 598.205 420.996 615.007 420.511C662.933 419.136 711.464 425.443 758.381 431.588C808.666 438.137 860.484 444.889 911.677 442.099V444.12C860.283 446.91 808.404 440.078 758.058 433.589C711.201 427.525 662.772 421.157 615.007 422.532C598.407 423.017 579.084 424.553 561.838 431.871C543.684 439.572 530.15 453.54 525.53 469.206C521.012 484.306 524.179 500.477 527.548 514.465C535.878 549.354 547.093 578.179 561.838 602.557C575.957 625.763 594.393 646.907 612.264 667.363C640.503 699.604 669.65 732.937 681.187 774.618C688.711 801.766 688.066 830.469 687.44 858.223C686.728 875.682 686.984 893.167 688.207 910.597C691.491 946.161 702.951 980.479 721.69 1010.86H719.33C700.836 980.444 689.541 946.188 686.311 910.719Z" fill="#342F2C"/>
<path d="M778.712 459.281C793.276 455.238 808.767 458.25 822.422 460.979L911.839 478.848V480.869L822.019 462.919C808.585 460.231 793.356 457.179 779.277 461.181C766.045 464.941 753.398 477.352 755.073 491.623C756.323 501.872 764.351 509.957 771.451 517.093C839.89 585.921 887.634 661.036 911.758 736.212V743.085C888.421 666.13 840.132 589.034 770.019 518.508C762.697 511.15 754.407 502.802 753.055 491.866C751.341 476.564 764.734 463.263 778.712 459.281Z" fill="#342F2C"/>
<path d="M746.096 970.128C752.98 984.137 760.699 997.719 769.212 1010.8H766.771C758.522 997.99 751.02 984.714 744.301 971.037C734.761 952.016 725.825 931.458 724.837 909.809C723.768 885.916 733.954 863.661 750.817 853.21C759.611 847.712 769.898 845.266 779.862 842.901C790.331 840.415 801.142 837.847 809.937 831.723C817.743 826.285 823.532 818.341 829.139 810.639C831.943 806.799 834.827 802.837 837.974 799.198C846.93 788.748 862.501 778.52 876.883 784.099C885.839 787.575 891.527 796.227 895.037 802.534C903.105 816.683 908.006 832.349 911.919 848.157V856.909C907.724 838.434 902.54 820.019 893.282 803.524C889.934 797.46 884.507 789.213 876.177 785.979C862.784 780.784 848.059 790.567 839.507 800.512C836.441 804.09 833.577 808.032 830.793 811.832C825.085 819.655 819.195 827.74 811.107 833.38C801.99 839.727 790.936 842.335 780.346 844.862C770.543 847.186 760.418 849.612 751.906 854.969C735.648 865.076 725.845 886.684 726.874 909.85C727.822 930.973 736.677 951.308 746.096 970.128Z" fill="#342F2C"/>
<path d="M844.206 498.435C838.539 501.528 835.553 507.532 834.121 512.019C828.292 529.363 835.089 546.625 839.668 555.378C846.143 567.749 855.623 578.503 864.781 588.893L867.08 591.5C883.217 609.935 899.898 630.594 911.98 653.335V657.721C899.877 633.788 882.51 612.098 865.587 592.834L863.288 590.247C854.05 579.756 844.489 568.901 837.893 556.308C833.173 547.272 826.154 529.423 832.225 511.372C833.859 506.541 837.107 500.073 843.339 496.656C848.16 494.008 853.828 493.746 859.193 493.826C877.363 494.158 895.296 498.016 912 505.187V507.471C895.317 500.163 877.357 496.234 859.153 495.909C853.949 495.767 848.624 496.01 844.206 498.435Z" fill="#342F2C"/>
<path d="M821.858 1010.8H819.518C814.73 1002.91 810.594 994.641 807.153 986.076C801.203 970.896 795.615 948.013 802.937 925.192C807.809 910.079 817.742 897.118 831.055 888.504C837.807 883.836 845.718 881.135 853.909 880.701C874.422 880.357 888.884 898.59 894.129 906.494C901.966 918.861 907.953 932.311 911.899 946.417V953.572C907.341 937.401 901.814 921.533 892.455 907.606C887.392 899.985 873.575 882.298 853.949 882.722C846.131 883.148 838.583 885.737 832.144 890.202C819.282 898.648 809.683 911.242 804.934 925.899C797.774 948.135 803.26 970.532 809.09 985.409C812.622 994.218 816.894 1002.71 821.858 1010.8Z" fill="#342F2C"/>
<path d="M860.04 1010.8H858.023L856.45 1005.56C852.416 992.019 847.414 975.242 851.609 959.495C851.975 957.744 852.757 956.108 853.888 954.724C856.067 952.339 859.94 951.652 864.397 952.703C881.704 957.13 890.155 976.434 894.21 991.857C894.774 993.98 895.299 996.123 895.843 998.265C896.872 1002.43 897.86 1006.61 899.151 1010.72H897.134C895.964 1006.67 894.956 1002.75 893.968 998.771C893.423 996.608 892.898 994.485 892.334 992.363C888.421 977.465 880.231 958.828 863.974 954.664C862.199 954.219 857.923 953.431 855.462 956.018C854.556 957.163 853.934 958.507 853.646 959.94C849.612 975.04 854.514 991.595 858.467 1004.9L860.04 1010.8Z" fill="#342F2C"/>
<path d="M609.178 740.639C635.783 747.026 654.078 790.608 660.714 815.43C667.895 842.234 668.903 872.939 663.719 906.696C660.008 930.832 648.713 973.301 614.685 986.359C608.491 988.703 601.921 989.888 595.301 989.856C574.101 989.856 551.893 978.375 538.48 958.909C523.453 937.138 518.652 907.464 524.945 875.365C530.553 846.883 543.583 820.565 556.17 795.115C557.743 791.962 559.357 788.303 561.051 784.422C570.35 763.258 583.057 734.372 609.178 740.639ZM526.922 875.688C523.352 893.881 520.286 928.911 540.134 957.696C557.259 982.498 588.987 993.98 613.958 984.399C647.038 971.704 658.072 930.023 661.723 906.312C666.866 872.838 665.757 842.416 658.758 815.875C652.263 791.618 634.391 748.785 608.714 742.62C606.536 742.079 604.302 741.801 602.058 741.791C582.008 741.791 571.499 765.643 562.907 785.17C561.192 789.051 559.558 792.75 557.985 795.944C545.439 821.272 532.469 847.449 526.922 875.688Z" fill="#342F2C"/>
<path d="M602.724 805.606C605.69 805.694 608.606 806.399 611.287 807.676C613.968 808.953 616.354 810.775 618.295 813.025C630.539 827.174 628.058 857.495 626.585 875.688C626.384 878.195 626.202 880.438 626.081 882.338C625.214 896.488 623.54 908.051 618.255 918.501C611.941 930.993 600.787 939.22 589.169 939.968H587.596C584.926 940.045 582.282 939.44 579.91 938.21C574.848 935.42 572.609 929.578 571.197 924.788C567.889 913.488 566.295 900.531 566.154 884.097C566.154 875.162 566.618 829.661 584.913 812.196C587.242 809.89 590.036 808.109 593.108 806.973C596.179 805.837 599.458 805.371 602.724 805.606ZM568.171 884.138C568.312 900.43 569.886 913.165 573.133 924.282C574.424 928.689 576.482 934.066 580.879 936.411C583.382 937.634 586.175 938.138 588.947 937.866C601.977 937.017 611.659 926.789 616.359 917.491C621.482 907.384 623.116 896.043 623.983 882.136C624.084 880.216 624.286 877.952 624.488 875.445C625.92 857.576 628.361 827.68 616.682 814.258C614.917 812.221 612.753 810.57 610.324 809.408C607.894 808.246 605.252 807.599 602.562 807.506C599.572 807.304 596.573 807.74 593.764 808.785C590.954 809.831 588.398 811.462 586.264 813.571C568.252 830.894 568.131 878.761 568.171 884.138Z" fill="#342F2C"/>
<path d="M201.086 153.606C204.878 165.451 208.246 177.68 211.494 189.526C219.663 219.16 228.094 249.804 243.767 276.648C269.202 320.512 315.756 356.655 378.386 381.174C382.299 382.697 386.252 384.206 390.246 385.702C419.493 396.8 449.729 408.261 467.056 433.872C476.153 447.314 480.489 463.283 483.858 477.19C491.328 508.138 496.233 539.651 498.522 571.408C499.793 589.014 495.86 600.071 486.843 604.275C484.439 605.378 481.822 605.937 479.178 605.913C472.683 605.913 466.148 602.961 461.267 600.394C414.189 575.551 381.068 531.344 349.037 488.591C316.099 444.646 282.051 399.185 232.955 375.393C192.13 355.563 144.204 352.774 101.947 350.287C12.6515 345.052 -88.5446 339.129 -175.198 381.397C-200.835 393.909 -224.717 410.565 -247.812 426.656C-268.709 441.23 -290.312 456.309 -313.225 468.317C-361.543 493.232 -415.584 504.879 -469.85 502.074C-515.611 500.143 -560.381 488.105 -600.96 466.821V464.537C-512.995 511.655 -403.025 513.05 -314.274 466.457C-291.481 454.51 -269.899 439.471 -249.083 424.937C-225.947 408.766 -202.005 392.09 -176.206 379.517C-89.0892 337.067 12.3892 342.97 101.927 348.205C144.285 350.692 192.493 353.522 233.681 373.513C283.221 397.568 317.43 443.231 350.51 487.378C382.4 529.949 415.379 573.975 462.074 598.555C468.528 601.971 478.008 606.054 485.835 602.416C494.024 598.595 497.574 588.266 496.364 571.529C494.085 539.875 489.2 508.463 481.76 477.615C478.432 463.89 474.156 448.123 465.24 434.964C448.277 409.878 418.344 398.578 389.379 387.562C385.344 386.046 381.31 384.55 377.498 383.014C314.465 358.332 267.548 321.887 241.871 277.638C226.158 250.552 217.666 219.786 209.598 190.011C206.35 178.206 202.982 165.977 199.21 154.172C183.678 105.8 153.422 41.2971 95.5327 0.101076H98.9617C155.762 41.6609 185.695 105.517 201.086 153.606Z" fill="#342F2C"/>
<path d="M172.302 166.482C174.864 177.559 176.841 188.98 178.737 200.037C182.428 221.525 186.24 243.76 194.732 264.115C209.396 299.247 238.603 330.943 284.027 361.001C299.72 371.391 316.3 381.033 332.316 390.372C354.362 403.207 377.155 416.488 398.052 431.891C433.068 457.684 450.617 484.852 450.213 512.625V513.373L449.467 513.576C446.056 514.515 442.535 514.991 438.998 514.99C416.569 514.99 396.358 496.09 379.172 476.847C318.66 409.13 250.726 342.768 163.104 315.843C130.69 305.877 94.625 300.905 46.1146 299.672C-67.547 296.882 -155.41 317.743 -222.518 363.487C-232.341 370.198 -241.922 377.637 -251.181 384.772C-259.491 391.18 -268.063 397.831 -276.817 403.935C-328.595 440.159 -391.064 460.534 -457.466 462.778C-506.586 464.689 -555.538 455.924 -600.96 437.086V434.701C-497.323 478.221 -370.208 466.76 -277.967 402.237C-269.274 396.173 -260.701 389.523 -252.411 383.115C-243.132 375.939 -233.531 368.52 -223.648 361.789C-156.177 315.782 -67.9302 294.8 46.155 297.61C94.8066 298.802 131.033 303.815 163.649 313.781C251.714 340.847 319.971 407.452 380.625 475.371C399.847 496.919 422.862 518.002 448.156 511.756C448.156 484.953 430.93 458.614 396.781 433.447C375.985 418.125 353.233 404.865 331.247 392.07C315.11 382.711 298.611 373.048 282.837 362.618C237.07 332.297 207.621 300.359 192.796 264.823C184.223 244.265 180.37 221.909 176.659 200.32C174.763 189.283 172.807 177.883 170.245 166.866C154.402 99.9865 115.417 40.8996 60.2139 0.101076H63.5825C118.091 41.1436 156.552 100.004 172.302 166.482Z" fill="#342F2C"/>
<path d="M90.6312 55.0224C108.301 81.5228 122.42 112.571 136.459 155.708C144.749 181.198 151.365 210.286 137.427 233.249C122.279 258.152 90.4901 262.882 68.7057 262.882C63.0176 262.882 57.9952 262.559 54.1224 262.195C-1.08466 256.98 -41.2848 241.536 -72.3678 213.56C-132.375 159.569 -170.801 80.7749 -177.114 0.121279H-175.097C-168.783 80.2089 -130.6 158.437 -71.0164 212.064C-40.2763 239.717 -0.419067 255.019 54.324 260.194C72.639 261.912 117.236 262.64 135.753 232.218C149.247 209.982 142.732 181.4 134.583 156.355C120.605 113.4 106.546 82.5133 88.9974 56.1543C74.7997 34.384 56.7615 15.3892 35.767 0.101076H39.1557C59.3852 15.2527 76.8074 33.8412 90.6312 55.0224Z" fill="#342F2C"/>
<path d="M94.3427 157.163C95.6574 162.931 96.287 168.834 96.2185 174.749C95.1495 201.412 69.674 220.696 45.6709 223.93C42.2277 224.394 38.7571 224.623 35.283 224.617C16.5242 224.617 -3.70685 218.028 -26.1769 204.646C-97.0566 162.439 -143.812 82.6144 -146.454 0.101076H-144.438C-141.795 81.9271 -95.4229 161.065 -25.1483 202.907C1.07349 218.553 24.2092 224.779 45.4489 221.929C68.625 218.796 93.213 200.259 94.2417 174.669C94.3082 168.909 93.6921 163.162 92.4062 157.547C78.9765 93.1354 40.8295 36.5906 -13.8123 0.101076H-10.2018C43.5668 36.9721 81.0269 93.2502 94.3427 157.163Z" fill="#342F2C"/>
<path d="M-15.184 38.2245C-1.73022 50.7976 12.1876 63.775 22.8579 79.2791C31.2489 91.4075 41.0114 110.51 40.0634 132.118C40.0696 137.857 38.5519 143.494 35.6662 148.451C31.0673 155.688 21.9703 160.074 11.9859 160.074C10.9975 160.074 9.96887 160.074 8.98047 159.953C-1.44775 159.023 -10.8271 153.99 -18.6331 149.179C-44.4263 133.065 -66.2036 111.256 -82.3019 85.419C-98.4002 59.582 -108.394 30.3998 -111.519 0.101076H-109.502C-103.451 59.3886 -68.2126 116.271 -17.6044 147.461C-10.0001 152.15 -0.862854 157.062 9.14178 157.931C19.5297 158.861 29.3125 154.697 33.9517 147.36C36.6217 142.698 38.0135 137.412 37.9859 132.037C38.954 110.975 29.3528 92.3373 21.1433 80.4312C10.5941 65.1091 -3.24292 52.1317 -16.6161 39.7002L-58.9744 0.101076H-56.0094L-15.184 38.2245Z" fill="#342F2C"/>
<path d="M-49.2925 49.3018C-22.0219 44.7739 -7.07532 88.1934 -3.60596 105.294C-3.27576 106.264 -3.18768 107.299 -3.34943 108.311C-3.51117 109.322 -3.91785 110.278 -4.53387 111.096C-5.12061 111.588 -5.79865 111.959 -6.52905 112.188C-7.2594 112.417 -8.02771 112.499 -8.78986 112.43H-8.97144C-18.9156 112.43 -29.4447 107.902 -38.6223 99.9175C-48.7076 91.1245 -66.9822 71.2339 -63.5128 58.9034C-62.0807 53.8701 -57.3003 50.6359 -49.2925 49.3018ZM-37.1902 98.4015C-28.3756 106.063 -18.3104 110.328 -8.95123 110.409C-7.89667 110.564 -6.82343 110.295 -5.96606 109.661C-5.09869 108.791 -5.30042 107.093 -5.58276 105.618C-8.72943 90.1542 -23.4136 46.9974 -48.9497 51.2221C-56.1304 52.4148 -60.3663 55.1436 -61.5563 59.3077C-64.8845 71.2339 -45.1777 91.5489 -37.291 98.4015H-37.1902Z" fill="#342F2C"/>
<path d="M-225.624 252.553C-217.556 241.799 -208.58 230.924 -196.377 224.253C-188.089 220.008 -179.115 217.27 -169.873 216.168C-136.954 211.236 -106.113 218.856 -85.2971 237.089C-79.2459 242.345 -75.7161 247.196 -74.0822 252.553C-72.2668 258.354 -72.9326 266.258 -78.4594 270.907C-80.8073 272.675 -83.4313 274.042 -86.225 274.95C-121.362 288.433 -156.358 303.573 -190.205 319.987L-190.971 320.371C-199.967 324.737 -209.286 329.245 -219.331 330.72C-221.115 330.977 -222.915 331.106 -224.717 331.104C-229.11 331.196 -233.476 330.393 -237.551 328.742C-241.625 327.092 -245.322 324.629 -248.417 321.503C-251.357 318.281 -253.449 314.377 -254.506 310.142C-255.562 305.907 -255.549 301.475 -254.468 297.246C-251.886 285.259 -241.741 272.706 -232.785 261.609C-230.163 258.415 -227.803 255.363 -225.624 252.553ZM-246.945 320.108C-240.611 326.9 -230.143 330.215 -219.614 328.658C-209.891 327.223 -200.714 322.776 -191.859 318.551L-191.092 318.167C-157.185 301.733 -122.149 286.553 -86.9511 273.07C-84.3676 272.243 -81.9355 271.001 -79.7502 269.391C-75.7161 265.935 -74.1024 259.284 -75.9985 253.22C-77.5314 248.288 -80.9202 243.679 -86.6284 238.666C-102.926 224.395 -125.517 216.774 -150.448 216.774C-156.849 216.785 -163.241 217.271 -169.57 218.23C-178.581 219.316 -187.329 221.992 -195.409 226.133C-207.269 232.602 -216.164 243.275 -224.011 253.867C-226.028 256.697 -228.569 259.769 -231.191 263.004C-240.006 273.919 -249.99 286.27 -252.471 297.792C-253.464 301.679 -253.479 305.753 -252.514 309.648C-251.55 313.542 -249.636 317.137 -246.945 320.108Z" fill="#342F2C"/>
<path d="M-195.288 250.754C-186.755 244.447 -170.377 240.788 -158.779 240.041C-153.852 239.498 -148.871 240.294 -144.357 242.345C-142.032 243.472 -140.086 245.254 -138.756 247.473C-137.427 249.692 -136.773 252.251 -136.873 254.837C-137.271 257.548 -138.385 260.102 -140.101 262.235C-147.08 271.857 -158.476 276.971 -169.53 281.378C-174.753 283.739 -180.368 285.11 -186.09 285.421C-188.687 285.447 -191.261 284.938 -193.654 283.925C-196.411 282.768 -198.804 280.885 -200.579 278.476C-202.355 276.067 -203.447 273.221 -203.739 270.24C-204.09 266.541 -203.498 262.813 -202.02 259.405C-200.542 255.997 -198.226 253.021 -195.288 250.754ZM-201.722 270.099C-201.5 272.743 -200.554 275.275 -198.988 277.415C-197.422 279.555 -195.297 281.22 -192.847 282.227C-185.787 285.279 -177.497 282.47 -170.276 279.579C-159.485 275.273 -148.391 270.301 -141.735 261.124C-140.222 259.277 -139.233 257.057 -138.87 254.696C-138.809 252.512 -139.385 250.358 -140.529 248.498C-141.672 246.638 -143.332 245.153 -145.305 244.225C-148.563 242.649 -152.159 241.906 -155.773 242.062C-156.681 242.062 -157.649 242.062 -158.658 242.062C-168.098 242.668 -185.323 245.903 -194.078 252.371C-196.755 254.431 -198.863 257.143 -200.201 260.249C-201.539 263.356 -202.063 266.753 -201.722 270.119V270.099Z" fill="#342F2C"/>
<path d="M-216.85 78.7738C-209.024 104.769 -208.641 125.448 -215.68 141.983C-219.714 151.382 -225.988 159.367 -232.24 166.583C-236.523 171.762 -241.248 176.557 -246.36 180.915C-249.567 183.522 -253.036 185.847 -256.445 188.111C-258.805 189.708 -261.226 191.345 -263.525 193.043C-286.641 210.205 -301.204 237.049 -313.044 260.841L-313.568 261.912C-316.775 268.914 -320.638 275.594 -325.106 281.863C-330.426 288.686 -337.063 294.365 -344.621 298.561C-352.18 302.756 -360.505 305.382 -369.098 306.282C-371.269 306.507 -373.451 306.622 -375.634 306.625C-390.803 306.55 -405.528 301.487 -417.548 292.213C-422.152 288.737 -426.188 284.563 -429.509 279.842C-433.652 273.431 -436.585 266.312 -438.162 258.839C-441.262 245.565 -441.696 231.805 -439.438 218.361C-437.18 204.917 -432.276 192.057 -425.011 180.531C-421.764 175.437 -418.052 170.585 -414.462 165.876C-411.719 162.318 -408.895 158.639 -406.394 154.879C-390.621 131.814 -382.53 104.34 -383.278 76.3885C-384.144 48.7563 -393.6 22.0853 -410.327 0.101076H-407.806C-391.36 22.1892 -382.074 48.8027 -381.201 76.3481C-380.445 104.729 -388.655 132.624 -404.659 156.052C-407.281 159.852 -410.105 163.551 -412.848 167.129C-416.419 171.798 -420.11 176.609 -423.297 181.642C-437.562 204.53 -442.203 232.148 -436.206 258.455C-434.688 265.651 -431.857 272.504 -427.855 278.669C-424.666 283.227 -420.779 287.252 -416.338 290.596C-402.954 300.947 -386.153 305.829 -369.32 304.26C-360.989 303.398 -352.916 300.862 -345.583 296.806C-338.25 292.75 -331.807 287.255 -326.639 280.65C-322.266 274.475 -318.477 267.904 -315.323 261.023L-314.779 259.951C-302.858 235.937 -288.154 208.85 -264.675 191.426C-262.335 189.688 -259.874 188.03 -257.514 186.433C-254.206 184.21 -250.797 181.885 -247.651 179.338C-242.597 175.036 -237.927 170.302 -233.693 165.188C-227.541 158.073 -221.328 150.25 -217.455 141.114C-210.597 124.942 -211.021 104.728 -218.706 79.2791C-227.369 50.6761 -241.028 23.8406 -259.047 0.0202337H-256.506C-238.823 23.7636 -225.403 50.4134 -216.85 78.7738Z" fill="#342F2C"/>
<path d="M-283.655 0.101076H-281.013C-268.364 15.0575 -258.77 32.3579 -252.774 51.02C-245.19 75.5395 -245.573 101.13 -253.843 123.062C-262.113 144.995 -278.048 163.046 -293.317 180.47C-306.307 195.206 -319.72 210.468 -328.535 228.094C-329.806 230.641 -330.996 233.289 -332.166 235.856C-334.396 241.113 -337.005 246.2 -339.972 251.077C-345.458 259.587 -352.639 265.227 -360.142 266.905C-361.845 267.282 -363.583 267.471 -365.326 267.471C-377.429 267.471 -388.22 258.233 -392.859 248.227C-397.66 237.878 -398.406 225.022 -395.138 208.911C-391.589 191.507 -384.75 174.729 -378.155 158.497C-370.611 139.941 -362.785 120.758 -360.001 100.726C-357.016 79.3397 -359.82 57.6097 -362.946 39.1948C-365.245 25.7323 -368.251 12.1082 -373.858 0.101076H-371.64C-366.194 12.0879 -363.229 25.5505 -360.949 38.8512C-357.803 57.4278 -354.898 79.2791 -358.004 101.009C-360.848 121.223 -368.715 140.588 -376.299 159.266C-382.875 175.437 -389.672 192.093 -393.182 209.315C-396.369 224.981 -395.663 237.433 -391.044 247.378C-386.082 258.071 -373.717 267.855 -360.586 264.924C-353.567 263.347 -346.83 258.031 -341.626 249.966C-338.709 245.181 -336.148 240.188 -333.961 235.027C-332.791 232.44 -331.581 229.772 -330.29 227.184C-321.374 209.315 -307.86 193.973 -294.79 179.116C-279.561 161.853 -263.828 143.984 -255.679 122.335C-247.53 100.686 -247.207 75.7012 -254.65 51.586C-260.788 32.6543 -270.651 15.1478 -283.655 0.101076Z" fill="#342F2C"/>
<path d="M-318.833 0.101076H-316.13C-302.815 15.62 -293.856 34.4068 -290.17 54.5372C-286.136 75.2565 -286.943 97.8557 -292.409 121.728C-293.922 128.338 -296.282 135.494 -302.495 138.587C-304.248 139.464 -306.183 139.914 -308.142 139.901C-311.162 139.744 -314.102 138.873 -316.721 137.359C-319.34 135.845 -321.563 133.73 -323.21 131.188C-327.506 124.639 -328.333 116.715 -329.261 108.953C-332.287 80.3908 -336.28 51.5456 -341.081 23.2461C-342.614 14.3115 -344.288 6.34718 -348.786 0H-346.305C-342.271 6.46846 -340.577 14.2508 -339.104 22.9024C-334.284 51.2019 -330.29 80.1281 -327.244 108.751C-326.457 116.17 -325.651 123.831 -321.637 129.976C-317.885 135.696 -309.877 139.901 -303.483 136.687C-298.057 133.958 -295.899 127.328 -294.487 121.183C-289.101 97.5727 -288.436 75.2565 -292.268 54.8202C-295.961 34.4883 -305.149 15.5615 -318.833 0.101076Z" fill="#342F2C"/>
<path d="M-476.527 0.101076H-473.643C-457.49 16.7585 -448.099 38.8433 -447.3 62.0568C-446.311 87.6274 -455.025 114.876 -471.868 138.728C-474.833 142.953 -478.06 147.097 -481.186 151.079C-485.604 156.739 -490.162 162.581 -494.035 168.706C-501.801 180.996 -507.832 195.974 -513.016 215.824C-519.753 241.658 -531.331 305.958 -493.188 344.91C-472.856 365.69 -443.629 374.059 -415.107 382.145C-395.784 387.663 -385.779 396.092 -385.335 407.19C-385.033 414.952 -390.176 422.815 -398.446 427.242C-405.526 431.002 -413.675 432.032 -422.127 432.841C-438.922 434.418 -455.025 435.213 -470.435 435.226C-522.173 435.226 -565.782 426.191 -600.899 408.301V406.098C-555.576 429.465 -495.75 437.773 -422.308 430.82C-413.776 430.011 -406.172 429.041 -399.394 425.443C-391.79 421.4 -387.07 414.264 -387.292 407.25C-387.695 397.143 -397.216 389.32 -415.712 384.024C-444.294 375.939 -473.865 367.429 -494.58 346.265C-533.428 306.565 -521.729 241.415 -514.912 215.258C-509.667 195.186 -503.556 180.046 -495.689 167.574C-491.655 161.348 -487.157 155.445 -482.719 149.785C-479.613 145.742 -476.386 141.7 -473.441 137.515C-456.881 114.007 -448.288 87.2029 -449.236 62.0568C-450.265 38.1437 -460.451 15.302 -476.527 0.101076Z" fill="#342F2C"/>
<path d="M-513.076 0.101076H-510.192C-492.765 16.7574 -485.019 42.5504 -485.322 64.6038C-485.745 96.2184 -499.441 126.479 -512.108 152.352C-513.5 155.182 -514.892 157.992 -516.304 160.822C-528.406 185.22 -540.932 210.427 -545.571 237.453C-551.743 273.434 -544.301 314.165 -522.839 361.951C-520.56 367.045 -517.978 372.826 -519.168 378.688C-521.185 388.168 -531.532 392.474 -542.344 392.474C-544.71 392.474 -547.072 392.272 -549.404 391.867C-569.13 388.451 -586.316 378.567 -601 366.176V363.527C-586.255 376.242 -568.969 386.43 -549.061 389.806C-537.079 391.827 -523.222 388.532 -521.124 378.223C-520.076 373.008 -522.516 367.55 -524.695 362.719C-546.318 314.549 -553.801 273.434 -547.568 237.049C-542.868 209.74 -530.282 184.392 -518.099 159.872C-516.707 157.042 -515.295 154.212 -513.903 151.402C-501.277 125.71 -487.681 95.713 -487.339 64.4825C-486.935 42.2876 -494.963 16.2722 -513.076 0.101076Z" fill="#342F2C"/>
<path d="M-575.666 0.101076H-572.156C-549.525 16.6159 -537.342 45.9463 -535.183 71.4967C-532.238 106.103 -542.909 140.649 -552.308 171.131C-562.192 203.13 -572.479 236.24 -569.957 269.917C-569.816 271.938 -569.635 273.838 -569.433 275.799C-568.515 282.57 -568.454 289.429 -569.251 296.215C-570.542 304.301 -575.303 313.943 -584.561 317.076C-586.442 317.727 -588.421 318.048 -590.411 318.026C-594.08 318 -597.693 317.114 -600.96 315.439V313.175C-598.626 314.582 -596.026 315.489 -593.325 315.837C-590.624 316.184 -587.88 315.966 -585.267 315.196C-576.795 312.346 -572.438 303.068 -571.289 295.912C-570.526 289.299 -570.6 282.616 -571.511 276.021C-571.692 274 -571.874 271.979 -572.035 270.099C-574.516 236.018 -564.229 202.726 -554.305 170.545C-544.946 140.224 -534.356 105.86 -537.261 71.6989C-539.399 45.7442 -552.066 15.8679 -575.666 0.101076Z" fill="#342F2C"/>
<path d="M-600.96 62.1579V57.7512C-592.246 73.9224 -586.175 93.3076 -582.806 115.725C-579.095 140.669 -577.158 184.796 -600.96 217.886V214.369C-579.296 182.027 -581.233 140.042 -584.823 116.008C-587.327 97.3156 -592.773 79.1398 -600.96 62.1579Z" fill="#342F2C"/>
<path d="M-226.431 964.185C-223.325 927.678 -221.025 884.643 -227.258 842.335C-238.513 766.048 -275.789 697.482 -311.854 631.18C-321.778 612.988 -333.013 592.248 -349.916 577.896C-372.104 559.097 -401.896 552.245 -428.238 546.201C-474.288 535.629 -526.49 523.642 -576.009 534.618C-582.584 536.074 -589.18 537.953 -595.554 539.753L-600.899 541.269V539.247L-596.119 537.893C-589.705 536.074 -583.068 534.194 -576.452 532.718C-526.49 521.661 -474.046 533.688 -427.795 544.321C-401.21 550.385 -371.095 557.318 -348.605 576.441C-331.419 591.035 -320.083 611.896 -310.079 630.291C-273.933 696.754 -236.557 765.461 -225.362 842.113C-219.089 884.562 -221.328 927.799 -224.515 964.427C-225.846 980.053 -227.621 996.062 -232.22 1010.92H-234.237C-229.558 995.981 -227.803 979.871 -226.431 964.185Z" fill="#342F2C"/>
<path d="M-293.156 732.169C-318.994 664.452 -350.158 623.701 -391.185 603.952C-411.578 594.128 -434.471 589.802 -456.155 586.77C-494.802 581.211 -549.182 576.239 -600.899 590.348V588.327C-549 574.298 -494.58 579.291 -455.872 584.85C-434.007 587.983 -410.952 592.268 -390.297 602.214C-335.837 628.492 -307.598 688.588 -291.28 731.583C-263.928 803.262 -238.13 908.01 -263.928 1010.94H-265.945C-240.147 908.212 -265.865 803.686 -293.156 732.169Z" fill="#342F2C"/>
<path d="M-295.899 890.424C-301.841 850.873 -312.528 812.187 -327.728 775.205C-354.757 709.61 -391.588 667.161 -437.235 648.969C-457.91 640.883 -480.44 637.81 -501.781 635.445C-533.207 631.989 -568.203 629.381 -600.919 637.164V635.142C-568.041 627.38 -533.025 630.028 -501.559 633.505C-480.117 635.87 -457.425 638.862 -436.508 647.149C-390.338 665.342 -353.123 708.216 -325.893 774.497C-310.618 811.625 -299.883 850.469 -293.922 890.181C-286.58 939.079 -289.424 978.84 -302.575 1010.86H-304.754C-291.441 978.981 -288.557 939.342 -295.899 890.424Z" fill="#342F2C"/>
<path d="M-384.468 999.862C-391.871 994.627 -400.605 991.251 -408.915 987.976C-412.304 986.663 -415.813 985.308 -419.202 983.832C-450.124 970.17 -475.305 946.101 -490.384 915.792C-494.761 906.447 -498.633 896.872 -501.982 887.109C-505.189 878.296 -508.477 869.199 -512.531 860.629C-518.082 849.498 -524.271 838.699 -531.068 828.286C-543.312 808.739 -555.959 788.546 -559.126 765.441C-560.024 757.315 -560.321 749.133 -560.013 740.962C-560.013 735.08 -559.852 728.995 -560.255 723.073C-561.042 711.308 -564.471 695.339 -576.21 686.081C-583.358 680.82 -592.104 678.205 -600.96 678.683V676.662C-591.657 676.23 -582.493 679.037 -575.02 684.606C-562.696 694.329 -559.126 710.884 -558.299 723.012C-557.896 729.076 -557.976 735.141 -558.057 741.083C-558.362 749.146 -558.072 757.22 -557.189 765.239C-554.083 787.919 -541.537 807.931 -529.414 827.276C-522.576 837.744 -516.353 848.604 -510.777 859.8C-506.743 868.451 -503.354 877.608 -500.147 886.462C-496.819 896.155 -492.974 905.663 -488.629 914.943C-473.753 944.794 -448.929 968.491 -418.456 981.932C-415.107 983.388 -411.618 984.742 -408.249 985.975C-399.758 989.29 -390.963 992.727 -383.359 998.104C-378.556 1001.48 -374.447 1005.76 -371.256 1010.7H-373.636C-376.59 1006.48 -380.255 1002.81 -384.468 999.862Z" fill="#342F2C"/>
<path d="M-470.698 995.456C-474.288 993.01 -478.04 990.604 -481.671 988.3C-493.39 980.8 -505.492 973.059 -514.488 962.183C-526.369 947.832 -531.674 929.518 -536.797 911.81C-539.016 904.149 -541.315 896.225 -544.099 888.746C-549.342 875.66 -555.447 862.938 -562.373 850.663C-573.003 830.813 -583.976 810.235 -587.082 787.656C-587.344 785.756 -587.566 783.816 -587.768 781.875C-588.615 774.113 -589.503 766.048 -593.819 759.64C-595.65 756.956 -598.063 754.724 -600.879 753.111V750.867C-597.392 752.648 -594.398 755.266 -592.165 758.488C-587.526 765.239 -586.618 773.527 -585.751 781.572C-585.549 783.593 -585.327 785.392 -585.065 787.292C-582.019 809.528 -571.107 829.903 -560.578 849.592C-553.604 861.968 -547.465 874.799 -542.203 887.998C-539.379 895.558 -537.079 903.502 -534.84 911.204C-529.777 928.709 -524.533 946.821 -512.915 960.849C-504.12 971.482 -492.139 979.143 -480.642 986.541C-477.011 988.866 -473.239 991.271 -469.629 993.737C-462.323 998.605 -455.625 1004.33 -449.68 1010.8H-452.403C-457.936 1005.04 -464.07 999.9 -470.698 995.456Z" fill="#342F2C"/>
<path d="M-564.653 936.411C-574.375 911.345 -584.359 885.674 -600.96 866.026V862.994C-583.23 883.066 -572.842 909.708 -562.777 935.764C-552.248 962.871 -541.416 990.725 -522.234 1010.88H-524.997C-543.574 990.584 -554.224 963.093 -564.653 936.411Z" fill="#342F2C"/>
<path d="M-600.96 949.651C-592.906 959.018 -585.961 969.287 -580.265 980.255L-578.691 983.105C-573.689 992.691 -568.069 1001.94 -561.869 1010.8H-564.35C-570.252 1002.23 -575.64 993.308 -580.487 984.095L-582.06 981.225C-587.363 971.085 -593.697 961.52 -600.96 952.683V949.651Z" fill="#342F2C"/>
<path d="M-448.772 758.932C-438.989 756.102 -425.273 767.907 -417.084 774.962L-415.067 776.66C-382.518 804.259 -361.297 842.941 -355.483 885.269C-354.938 889.514 -354.535 894.406 -356.592 898.611C-357.993 901.115 -360.047 903.19 -362.534 904.615C-365.021 906.039 -367.848 906.758 -370.712 906.696C-371.095 906.716 -371.479 906.716 -371.861 906.696C-377.812 906.039 -383.39 903.464 -387.756 899.359C-400.806 888.059 -405.91 871.059 -411.053 854.888C-414.522 843.629 -418.093 832.006 -424.184 822.161C-428.014 816.798 -432.402 811.858 -437.275 807.426C-448.712 796.045 -461.702 783.169 -457.446 769.504C-455.731 763.602 -452.826 760.145 -448.772 758.932ZM-435.964 805.829C-430.988 810.376 -426.505 815.437 -422.591 820.928C-416.358 831.035 -412.747 842.76 -409.238 854.12C-404.054 870.938 -399.152 886.826 -386.546 897.741C-382.508 901.555 -377.352 903.965 -371.841 904.614C-369.182 904.874 -366.504 904.36 -364.129 903.134C-361.753 901.908 -359.781 900.022 -358.448 897.701C-356.633 894.002 -357.016 889.494 -357.52 885.573C-363.265 843.741 -384.235 805.514 -416.398 778.237L-418.415 776.539C-425.536 770.474 -436.992 760.549 -445.585 760.549C-446.485 760.546 -447.381 760.668 -448.248 760.913C-451.596 761.863 -454.097 764.956 -455.671 769.989C-459.543 782.38 -447.017 794.852 -435.964 805.829Z" fill="#342F2C"/>
</g>
</svg>
