<svg width="873" height="1011" viewBox="0 0 873 1011" fill="none" xmlns="http://www.w3.org/2000/svg">
<g opacity="0.1">
<path d="M-281.346 318.511C-285.098 325.869 -289.152 333.267 -293.085 340.443C-303.17 358.979 -313.74 378.162 -320.275 398.76C-340.123 461.423 -319.004 534.8 -268.921 577.229C-247.096 595.705 -220.914 608.237 -197.799 619.294C-165.203 634.879 -135.653 647.594 -103.884 645.047C-88.6757 643.834 -74.0723 638.983 -59.9528 634.374C-48.8635 630.394 -37.4881 627.265 -25.9249 625.015C-2.68836 621.093 21.4357 624.51 44.6723 627.804C65.4884 630.756 87.0307 633.869 108.27 631.847C162.146 626.834 213.4 590.732 264.916 521.418C272.016 511.857 279.035 501.932 285.974 492.31C316.593 449.396 348.261 405.027 393.04 377.617C408.127 368.379 424.708 361.122 440.743 354.087C451.696 349.297 462.931 344.344 473.863 338.765C486.974 332.014 504.966 320.937 509.686 302.683C512.732 290.939 509.565 278.609 506.076 268.097C499.46 248.227 490.262 228.761 481.367 209.942C465.23 175.578 448.388 140.143 447.803 102.262C447.258 66.2612 461.801 29.6336 487.962 0.242534H479.894C454.943 30.0581 441.187 66.4835 441.732 102.363C442.337 141.558 459.381 177.64 475.88 212.529C484.695 231.187 493.812 250.491 500.307 270.018C503.514 279.68 506.459 290.939 503.817 301.167C499.783 317.056 483.162 327.163 471.08 333.368C460.409 338.866 449.174 343.778 438.302 348.529C422.166 355.644 405.303 362.982 389.893 372.442C344.045 400.499 312.014 445.374 280.971 488.793C274.134 498.375 267.054 508.279 259.974 517.8C209.547 585.638 159.706 620.891 107.645 625.823C87.0711 627.724 65.912 624.732 45.4388 621.781C21.6576 618.425 -2.97074 614.948 -27.1755 619.011C-39.0388 621.316 -50.7107 624.519 -62.0909 628.593C-75.8674 633.121 -90.1281 637.831 -104.59 638.983C-134.846 641.408 -163.65 629.017 -195.358 613.796C-218.131 602.901 -243.949 590.55 -265.169 572.58C-313.457 531.687 -333.749 460.959 -314.668 400.58C-308.314 380.548 -297.966 361.627 -287.942 343.334C-283.907 336.137 -279.873 328.679 -276.122 321.24C-247.48 264.395 -231.89 201.848 -230.496 138.182C-229.346 91.4607 -235.77 44.8615 -249.517 0.202067H-255.87C-223.375 103.92 -232.15 222.01 -281.346 318.511Z" fill="#342F2C"/>
<path d="M252.127 990.119C255.516 985.167 259.026 980.012 262.213 974.918C278.718 948.511 289.194 918.775 292.892 887.836C294.445 874.637 294.909 860.932 295.172 847.671C296.019 816.259 296.805 786.565 311.853 761.034C337.671 717.231 394.068 706.902 425.393 704.617C442.518 703.384 460.107 703.526 477.131 703.667C504.502 703.89 532.822 704.132 560.234 698.614C566.87 697.28 573.527 695.602 579.961 693.965C590.219 691.126 600.648 688.951 611.185 687.456C632.99 684.868 655.318 688.204 678.172 692.186C697.798 695.602 716.94 699.22 735.154 706.032C770.553 719.252 800.608 744.014 829.653 767.948C843.611 779.429 857.892 791.173 872.879 801.786V794.367C859.304 784.523 846.274 773.789 833.506 763.278C804.057 739.021 773.599 713.936 737.252 700.352C718.574 693.358 699.129 689.679 679.201 686.202C661.672 683.15 644.426 680.482 627.322 680.482C621.687 680.465 616.056 680.783 610.459 681.432C599.663 682.955 588.978 685.176 578.468 688.082C572.115 689.699 565.539 691.357 559.044 692.671C532.257 698.068 504.26 697.825 477.171 697.603C460.046 697.462 442.316 697.32 424.95 698.573C392.455 700.938 333.859 711.773 306.649 757.962C290.815 784.846 289.947 816.704 289.12 847.51C288.757 860.629 288.394 874.192 286.881 887.129C283.286 917.169 273.113 946.042 257.089 971.684C253.943 976.697 250.473 981.791 247.125 986.683C241.74 994.566 236.273 1002.55 231.695 1010.94H238.674C242.788 1003.8 247.549 996.911 252.127 990.119Z" fill="#342F2C"/>
<path d="M-267.71 1010.68C-236.364 970.476 -217.327 922.026 -212.907 871.2C-212.221 862.913 -211.878 854.059 -214.137 845.508C-218.171 830.368 -229.366 818.705 -240.924 808.335C-245.866 803.928 -251.009 799.542 -255.971 795.317C-272.652 781.168 -289.918 766.371 -301.98 748.017C-307.271 739.561 -312.034 730.785 -316.241 721.739C-323.482 707.003 -330.966 691.761 -342.987 679.956C-360.536 662.734 -384.317 656.407 -401.159 654.143C-407.578 653.276 -414.047 652.837 -420.523 652.829C-459.09 652.829 -495.155 668.374 -517.826 695.541C-546.832 730.329 -548.889 783.229 -522.546 815.976C-514.478 825.901 -504.393 833.906 -494.549 841.648C-481.701 851.755 -469.558 861.316 -461.913 874.778C-445.212 904.129 -456.024 941.787 -467.44 974.777L-479.946 1010.9H-473.552L-461.732 976.778C-449.872 942.515 -438.717 903.32 -456.649 871.766C-464.899 857.293 -478.07 846.923 -490.818 836.877C-500.379 829.358 -510.283 821.555 -517.826 812.176C-542.435 781.592 -540.397 732.068 -513.187 699.443C-488.478 669.789 -444.829 654.366 -401.966 660.147C-386.031 662.289 -363.642 668.232 -347.223 684.282C-335.948 695.359 -329.07 709.469 -321.667 724.427C-317.357 733.686 -312.473 742.665 -307.043 751.312C-294.497 770.393 -276.908 785.392 -259.884 799.825C-254.942 804.05 -249.799 808.396 -244.958 812.762C-234.086 822.485 -223.557 833.36 -219.987 846.944C-218.309 854.712 -217.954 862.708 -218.938 870.594C-223.266 920.242 -241.853 967.57 -272.451 1006.86L-275.638 1010.9H-267.872C-267.872 1010.9 -267.751 1010.76 -267.71 1010.68Z" fill="#342F2C"/>
<path d="M-494.065 302.117C-453.543 295.103 -416.711 259.668 -397.468 231.49C-373.828 196.803 -361.302 156.011 -352.185 120.697C-349.341 109.681 -346.82 97.0874 -352.891 86.7177C-357.49 78.9151 -366.022 74.5893 -372.033 72.0626C-384.005 67.0791 -396.849 64.5431 -409.813 64.6036C-437.325 64.6036 -465.221 75.8224 -479.321 100.989C-484.404 110.024 -487.228 120.051 -489.951 129.733C-491.181 134.059 -492.432 138.526 -493.864 142.811C-499.88 160.597 -509.494 176.947 -522.103 190.84C-524.906 193.912 -527.952 196.904 -530.897 199.956C-540.639 209.76 -550.725 219.907 -555.263 233.37C-560.729 249.541 -556.675 267.875 -544.432 282.247C-531.26 297.569 -511.997 305.19 -494.065 302.117ZM-549.494 235.25C-545.46 223.121 -536.283 213.924 -526.601 204.181C-523.595 201.169 -520.549 198.117 -517.625 194.862C-504.453 180.352 -494.413 163.271 -488.135 144.691C-486.643 140.264 -485.372 135.716 -484.101 131.33C-481.358 121.546 -478.756 112.309 -474.016 103.9C-454.813 69.6773 -407.332 63.6132 -374.373 77.6214C-365.962 81.1993 -360.939 84.9389 -358.095 89.7498C-353.173 98.1184 -355.473 109.297 -358.095 119.121C-367.091 153.949 -379.395 194.114 -402.471 228.013C-421.028 255.241 -456.427 289.423 -495.094 296.094C-510.908 298.823 -528.053 292.051 -539.812 278.204C-550.664 265.51 -554.295 249.44 -549.494 235.25Z" fill="#342F2C"/>
<path d="M760.468 427.343C786.567 378.456 794.671 321.926 783.362 267.653C778.239 243.659 769.767 228.235 756.676 219.139C748.346 213.338 737.817 209.982 724.403 208.871C721.519 208.628 718.695 208.507 715.951 208.507C705.216 208.28 694.573 210.535 684.849 215.096C658.627 227.973 648.541 256.495 638.799 284.046C635.169 294.952 630.94 305.648 626.132 316.085C614.917 339.069 596.925 358.373 579.537 377.03C570.642 386.571 561.384 396.456 553.174 406.785C522.192 445.434 512.551 487.156 527.396 518.386C539.499 543.755 557.955 556.955 582.422 557.581C648.521 559.259 738.523 467.973 760.468 427.343ZM582.624 551.517C560.617 550.951 543.876 538.924 532.903 515.779C512.43 472.683 546.881 424.351 557.935 410.666C566.003 400.559 575.181 390.715 584.015 381.255C601.705 362.254 619.98 342.626 631.598 318.834C636.517 308.195 640.84 297.29 644.547 286.169C654.33 258.516 663.589 232.42 687.551 220.615C697.536 215.703 709.739 213.803 723.858 214.995C736.142 216.006 745.723 219.038 753.126 224.193C764.886 232.278 772.591 246.63 777.331 269.027C788.349 321.926 780.451 377.022 755.022 424.675C734.529 462.616 646.928 551.517 584.399 551.517H582.624Z" fill="#342F2C"/>
<path d="M293.659 967.863C300.86 956.018 308.303 943.768 313.507 930.629C321.696 909.951 324.197 887.412 326.618 865.621C327.445 858.223 328.292 850.562 329.341 843.083C334.646 805.849 346.223 780.137 364.74 764.451C382.894 749.068 406.917 743.65 429.972 739.406C503.651 725.895 578.614 720.755 653.443 724.083C673.028 724.973 695.64 726.509 716.355 733.786C737.07 741.063 755.183 753.555 773.559 766.856C807.405 791.335 840.707 817.27 872.899 844.134V841.486C841.07 814.985 808.172 789.395 774.749 765.219C756.232 751.837 737.877 739.203 717.02 731.886C696.164 724.568 673.25 722.951 653.544 722.082C638.752 721.408 623.96 721.078 609.168 721.092C548.919 721.085 488.793 726.552 429.528 737.425C407.341 741.467 381.905 747.188 363.369 762.894C344.448 778.924 332.649 805.06 327.263 842.8C326.214 850.299 325.347 857.98 324.52 865.399C322.12 887.068 319.639 909.465 311.55 929.881C306.427 942.859 299.024 955.028 291.864 966.812C286.922 974.898 281.778 983.327 277.462 991.979C274.396 998.073 271.813 1004.4 269.736 1010.9H271.753C273.801 1004.72 276.302 998.698 279.237 992.888C283.654 984.318 288.737 975.949 293.659 967.863Z" fill="#342F2C"/>
<path d="M351.871 989.088C359.061 978.999 365.474 968.376 371.054 957.312C379.122 940.211 381.804 921.351 384.427 903.118C385.395 896.407 386.444 889.474 387.654 882.743C393.604 850.744 404.073 829.6 420.613 816.178C436.749 803.1 458.614 798.268 477.837 794.771C542.322 783.037 607.918 778.603 673.391 781.552C692.917 782.421 713.733 784.058 732.814 790.021C742.721 793.206 752.326 797.264 761.517 802.15C770.473 806.758 779.207 811.872 787.739 816.825L796.573 821.979C810.431 830.065 824.006 838.009 837.036 845.67C850.066 853.331 860.313 859.537 870.176 865.722L872.839 867.38V864.995L871.104 863.903C861.22 857.718 850.933 851.512 837.923 843.831C824.913 836.149 811.318 828.226 797.441 820.14L788.606 814.985C780.134 810.013 771.38 804.878 762.384 800.249C753.082 795.364 743.369 791.305 733.359 788.121C713.954 782.057 693.017 780.44 673.452 779.571C660.354 778.978 647.257 778.688 634.16 778.701C581.6 778.706 529.147 783.441 477.433 792.851C457.969 796.409 435.801 801.321 419.302 814.702C402.379 828.428 391.688 849.956 385.637 882.46C384.366 889.211 383.358 896.185 382.389 902.916C379.787 921.008 377.085 939.705 369.198 956.523C363.659 967.497 357.293 978.032 350.157 988.037C345.175 995.435 340.071 1003.06 335.573 1010.98H337.893C342.25 1003.4 347.111 996.143 351.871 989.088Z" fill="#342F2C"/>
<path d="M410.265 1010.62C416.956 1002.16 423.081 993.263 428.6 983.994C436.306 970.289 439.291 954.927 442.195 940.09C443.325 934.248 444.515 928.224 445.947 922.423C449.981 905.908 457.707 882.298 476.486 867.845C490.605 857.071 509.283 853.008 525.702 850.036C580.996 840.164 637.215 836.49 693.32 839.08C710.384 839.849 730.373 841.304 749.233 846.317C758.558 848.878 767.702 852.059 776.605 855.838C782.656 858.344 788.707 860.992 794.496 863.56L801.737 866.753C817.874 873.788 833.627 880.034 848.352 885.37L855.25 887.857C861.301 889.999 866.949 892.061 872.879 894.345V892.182C867.191 889.999 861.684 888.018 855.936 885.957L849.037 883.47C834.353 878.154 818.781 871.908 802.645 864.894L795.404 861.7C789.574 859.133 783.563 856.485 777.472 853.958C768.488 850.151 759.264 846.944 749.858 844.356C730.817 839.303 710.687 837.827 693.522 837.079C682.092 836.554 670.662 836.298 659.232 836.311C614.364 836.288 569.584 840.266 525.42 848.197C508.779 851.209 489.818 855.353 475.336 866.39C456.053 881.125 448.267 905.18 444.071 921.998C442.619 927.84 441.449 933.904 440.299 939.766C437.435 954.441 434.47 969.642 426.926 983.064C421.461 992.255 415.397 1001.07 408.773 1009.46L407.623 1010.96H410.164L410.265 1010.62Z" fill="#342F2C"/>
<path d="M486.127 1010.68C493.288 1000.21 496.616 988.259 499.843 976.717C501.194 971.866 502.586 966.873 504.24 962.123C509.081 948.155 516.665 930.69 532.338 919.673C544.44 911.163 559.972 907.868 573.567 905.524C619.669 897.388 666.527 894.372 713.289 896.528C730.909 897.078 748.451 899.106 765.733 902.593C774.89 904.614 783.644 907.08 791.753 909.526L796.573 911.002C803.27 913.023 809.584 915.044 815.917 916.682C830.297 920.748 845.003 923.548 859.869 925.05C863.338 925.374 866.646 925.576 869.954 925.798L872.919 925.98V923.959L870.075 923.777C866.808 923.575 863.52 923.352 859.99 923.049C845.245 921.521 830.657 918.742 816.381 914.741C810.088 913.003 803.774 911.082 797.098 909.061L792.277 907.606C784.209 905.14 775.314 902.593 766.055 900.612C748.667 897.117 731.016 895.088 713.289 894.548C703.486 894.103 693.717 893.887 683.981 893.901C646.789 893.855 609.666 897.095 573.042 903.583C559.226 906.049 543.452 909.405 531.007 918.137C514.669 929.598 506.802 948.458 502.163 961.557C500.489 966.368 499.077 971.401 497.725 976.272C494.538 987.653 491.25 999.438 484.292 1009.63L483.303 1011H485.784C485.914 1010.91 486.03 1010.8 486.127 1010.68Z" fill="#342F2C"/>
<path d="M562.493 1001.86C567.717 991.756 575.342 979.325 588.191 971.542C598.276 965.337 610.661 962.81 621.432 960.93C658.342 954.585 695.829 952.267 733.238 954.017C749.631 954.698 765.975 956.291 782.192 958.787C788.122 959.717 794.012 960.809 799.7 961.86L806.921 963.174C816.078 964.811 823.441 965.882 830.097 966.55C846.234 968.066 860.051 967.419 871.447 964.528L872.899 964.124V962.102L870.882 962.628C859.869 965.337 845.79 966.004 830.198 964.508C823.602 963.861 816.3 962.79 807.183 961.152L799.982 959.838C794.274 958.808 788.384 957.716 782.434 956.766C766.143 954.261 749.726 952.668 733.258 951.995C725.109 951.605 716.987 951.416 708.892 951.429C679.437 951.384 650.033 953.886 621.008 958.909C610.056 960.829 597.489 963.396 587.061 969.804C573.789 977.89 565.962 990.766 560.617 1001.01C558.943 1004.25 557.451 1007.64 555.978 1010.98H558.197C559.609 1007.85 560.98 1004.83 562.493 1001.86Z" fill="#342F2C"/>
<path d="M862.511 1010.9H869.087C870.398 1010.41 871.669 1009.91 872.899 1009.36V1007.18C869.528 1008.66 866.057 1009.9 862.511 1010.9Z" fill="#342F2C"/>
<path d="M753.287 1009.36C733.455 1008.46 713.583 1008.97 693.824 1010.9H776.524C768.839 1010.25 761.033 1009.71 753.287 1009.36Z" fill="#342F2C"/>
<path d="M760.831 300.783C758.269 282.591 752.924 269.088 744.493 259.183C740.6 254.448 735.743 250.601 730.247 247.899C724.751 245.198 718.742 243.703 712.623 243.517C709.572 243.504 706.535 243.933 703.607 244.791C691.505 248.369 681.157 259.567 675.166 275.556C672.694 282.678 670.673 289.949 669.115 297.327C667.602 303.714 666.029 310.304 663.871 316.55C654.915 342.525 635.632 363.628 618.305 381.356C616.087 383.64 613.827 385.924 611.568 388.209C595.129 404.865 578.105 422.087 566.608 442.786C555.474 462.859 541.899 505.449 570.259 523.076C595.492 538.742 633.554 517.679 654.007 503.711C680.935 485.337 701.832 460.574 717.041 441.048C727.332 428.287 736.421 414.598 744.19 400.155C759.791 369.53 765.601 334.834 760.831 300.783ZM742.314 399.266C734.605 413.596 725.584 427.178 715.367 439.835C700.259 459.24 679.483 483.861 652.838 502.094C632.808 515.759 595.553 536.458 571.288 521.398C544.239 504.58 557.531 463.303 568.343 443.817C579.719 423.3 596.582 406.179 612.98 389.624L619.737 382.771C637.246 364.882 656.67 343.576 665.767 317.217C667.945 310.87 669.518 304.22 671.051 297.792C672.613 290.495 674.634 283.305 677.103 276.264C682.851 260.881 692.755 250.107 704.232 246.731C719.159 242.325 734.488 250.451 743 260.477C751.169 270.099 756.373 283.359 758.875 301.066C763.551 334.727 757.769 369.014 742.314 399.266Z" fill="#342F2C"/>
<path d="M729.627 341.535C728.498 330.983 725.331 322.675 720.228 316.793C717.839 314.088 714.905 311.922 711.619 310.437C708.333 308.953 704.771 308.184 701.166 308.182C698.243 308.17 695.342 308.705 692.614 309.758L691.827 310.082C682.166 314.226 676.215 324.231 672.928 331.933C671.495 335.248 670.305 338.765 669.035 342.485C667.542 346.851 666.009 351.359 663.992 355.866C657.295 370.744 645.556 383.741 635.067 394.758L632.122 397.81C622.42 407.917 612.395 418.287 605.739 430.415C598.861 442.968 591.781 466.8 608.825 476.523C615.905 480.566 624.962 480.788 635.672 477.15C644.285 474.219 653.705 468.862 664.416 460.756C678.219 449.972 690.524 437.388 701.005 423.34C707.036 415.803 712.433 407.777 717.142 399.347C720.71 392.727 723.59 385.757 725.734 378.546C728.867 368.366 730.325 357.743 730.051 347.093C729.889 345.254 729.768 343.374 729.627 341.535ZM723.778 377.92C721.675 384.997 718.849 391.839 715.347 398.336C710.7 406.668 705.37 414.599 699.412 422.047C688.987 435.944 676.764 448.391 663.064 459.058C652.515 467.023 643.297 472.299 634.825 475.23C624.74 478.686 616.188 478.525 609.612 474.785C593.939 465.83 600.797 443.292 607.292 431.386C613.787 419.48 623.772 409.15 633.373 399.225L636.318 396.153C646.928 385.015 658.808 371.896 665.626 356.695C667.643 352.106 669.236 347.538 670.749 343.132C672 339.453 673.19 335.996 674.581 332.742C677.728 325.384 683.376 315.822 692.433 311.941L693.159 311.638C697.55 310.073 702.307 309.855 706.823 311.01C711.338 312.166 715.408 314.644 718.513 318.127C723.334 323.686 726.339 331.63 727.409 341.757C727.61 343.536 727.731 345.375 727.812 347.174C728.127 357.598 726.744 368.003 723.717 377.98L723.778 377.92Z" fill="#342F2C"/>
<path d="M689.185 371.694C685.847 371.771 682.638 373.007 680.108 375.191C677.388 377.795 675.082 380.801 673.27 384.105C672.443 385.459 671.576 386.874 670.648 388.148C668.746 390.422 666.726 392.594 664.597 394.657C660.724 398.518 655.944 403.308 651.829 408.16C645.132 416.104 642.349 421.824 643.337 425.685C643.624 426.697 644.161 427.619 644.898 428.368C645.635 429.117 646.548 429.668 647.553 429.971C651.728 431.567 656.468 431.042 661.672 428.353C666.676 425.518 671.191 421.894 675.045 417.62C681.805 410.206 687.919 402.227 693.32 393.767L693.844 392.979C695.801 390.333 697.264 387.354 698.161 384.186C698.632 382.495 698.68 380.714 698.3 379.001C697.92 377.287 697.124 375.694 695.982 374.362C695.104 373.457 694.044 372.752 692.872 372.291C691.699 371.831 690.442 371.627 689.185 371.694ZM696.043 383.822C695.183 386.734 693.817 389.471 692.009 391.908L691.484 392.696C686.14 401.048 680.101 408.932 673.432 416.266C669.729 420.377 665.391 423.864 660.583 426.595C658.072 428.012 655.254 428.796 652.373 428.879C650.932 428.892 649.502 428.631 648.158 428.111C647.458 427.919 646.817 427.554 646.296 427.049C645.774 426.544 645.388 425.915 645.173 425.22C644.386 422.087 647.19 416.811 653.241 409.514C657.275 404.723 662.035 399.953 665.868 396.132C668.136 394.002 670.272 391.734 672.262 389.341C673.21 387.986 674.097 386.551 674.945 385.156C676.651 382.036 678.821 379.194 681.379 376.727C685.07 373.553 691.142 372.401 694.328 375.777C695.233 376.872 695.861 378.17 696.159 379.559C696.458 380.949 696.418 382.39 696.043 383.761V383.822Z" fill="#342F2C"/>
<path d="M-212.463 228.417C-220.894 252.674 -232.452 276.345 -243.627 299.166C-255.346 323.079 -267.448 347.68 -275.9 373.452C-295.828 433.245 -289.575 489.844 -259.138 524.835C-247.54 538.176 -232.916 548.222 -218.554 557.945C-177.83 585.719 -137.63 610.117 -93.678 603.73C-85.8008 602.409 -78.0185 600.572 -70.3809 598.231C-65.3584 596.816 -60.1544 595.341 -54.9907 594.189C-33.8317 589.519 -11.6037 590.004 9.89821 590.469L18.8944 590.651C50.6026 591.197 82.7143 590.166 114.342 587.599C126.626 586.608 138.547 585.315 149.318 580.504C158.979 576.198 167.189 569.265 174.108 563.12C196.638 543.088 222.013 512.302 214.913 479.454C209.487 454.288 184.838 433.488 149.035 423.805C139.353 421.177 129.288 419.237 119.546 417.337C100.323 413.617 80.4551 409.757 63.068 400.6C28.2535 382.407 2.97973 341.838 -4.54392 292.172C-9.8488 256.959 -6.92412 220.655 -4.10023 185.544C-3.39426 176.852 -2.66811 167.877 -2.08316 159.043C0.377386 121.931 0.619838 84.7045 -1.35705 47.5633C-2.16388 32.3422 -3.51521 15.8679 -7.81156 0.222301H-9.82862C-5.45159 15.8477 -4.10018 32.4028 -3.29335 47.6644C-1.31972 84.7045 -1.56218 121.83 -4.01947 158.841C-4.60442 167.654 -5.33056 176.629 -6.03653 185.301C-8.86042 220.534 -11.8054 256.959 -6.43997 292.435C1.16436 342.727 26.8214 383.822 62.1402 402.338C79.8904 411.636 99.9198 415.518 119.284 419.277C128.986 421.157 139.011 423.118 148.632 425.705C183.709 435.206 207.792 455.44 213.077 479.838C219.955 511.736 195.024 541.895 172.877 561.563C166.079 567.627 158.031 574.419 148.672 578.624C138.163 583.293 126.485 584.567 114.382 585.557C82.8151 588.104 50.7841 589.135 19.1162 588.589L10.1402 588.407C-11.4827 587.942 -33.8115 587.457 -55.2328 592.187C-60.457 593.319 -65.661 594.795 -70.7238 596.23C-78.2825 598.544 -85.9839 600.36 -93.7788 601.668C-137.005 607.954 -176.821 583.758 -217.223 556.207C-231.343 546.565 -245.986 536.579 -257.423 523.44C-287.377 489.076 -293.488 433.144 -273.782 374.039C-265.27 348.488 -253.187 323.847 -241.509 300.015C-230.314 277.153 -218.736 253.523 -210.264 229.064C-183.7 152.251 -188.198 70.9104 -200.179 0.181833H-202.196C-190.537 70.7487 -185.999 151.989 -212.463 228.417Z" fill="#342F2C"/>
<path d="M23.8563 138.364C24.0177 178.085 24.1791 219.22 28.9999 258.9C30.896 274.525 33.6795 291 41.1023 305.574C47.7385 318.673 58.0658 330.619 74.5654 344.304C100.686 365.973 127.009 379.719 153.049 385.156C194.076 393.747 237.766 382.387 272.681 373.27C318.63 361.304 375.834 346.406 424.566 318.794C438.888 310.708 456.154 299.085 462.608 281.095C465.654 272.585 466.32 262.478 464.625 250.168C460.853 222.454 447.944 196.338 435.459 171.07C418.777 137.354 403.044 105.496 406.877 70.0008C409.701 43.8844 423.195 20.6585 438.524 0.282817H435.983C420.875 20.4968 407.744 43.7226 404.88 69.7783C400.967 105.941 417.587 139.557 433.643 172.041C446.068 197.167 458.897 223.142 462.628 250.531C464.242 262.498 463.597 272.302 460.611 280.488C454.399 297.852 437.516 309.192 423.497 317.116C375.088 344.607 317.944 359.565 272.096 371.391C237.282 380.467 193.935 391.746 153.392 383.256C127.735 377.879 101.634 364.295 75.7555 342.828C59.4778 329.325 49.3319 317.581 42.8168 304.745C35.5553 290.454 32.7314 274.182 30.9564 258.738C26.1356 219.099 25.9743 178.085 25.8129 138.445C25.6314 92.6404 25.4296 45.7844 18.0472 0.282817H16.0301C23.4731 45.6631 23.6546 92.5594 23.8563 138.364Z" fill="#342F2C"/>
<path d="M58.9532 110.691C59.5382 142.124 60.1433 174.608 63.8345 206.142C64.3791 210.973 64.9238 214.874 65.5289 218.452C66.8681 227.835 69.5445 236.978 73.4761 245.599C78.8415 256.838 87.4141 267.39 100.485 278.831C121.381 297.024 143.024 308.97 164.829 314.003C197.102 321.442 230.222 314.428 264.169 305.918C306.81 295.386 351.67 282.348 390.781 258.415C403.085 250.895 416.357 241.172 421.46 226.295C423.901 219.159 424.405 210.69 423.033 200.401C419.947 177.579 409.7 155.93 399.777 135.11C397.275 129.854 394.714 124.437 392.293 119.1C382.611 97.6737 374.14 74.4478 376.984 49.6857C379.102 31.7964 386.948 15.6253 397.538 0.1616H395.097C384.75 15.5242 377.085 31.5943 374.926 49.4432C371.941 74.6904 380.594 98.2396 390.397 119.929C392.818 125.286 395.4 130.723 397.901 135.979C407.744 156.719 417.93 178.166 420.956 200.664C422.307 210.609 421.823 218.856 419.483 225.628C414.602 239.899 401.673 249.339 389.671 256.677C350.782 280.468 306.104 293.446 263.625 303.937C229.92 312.346 197.062 319.299 165.212 312.022C143.751 307.07 122.39 295.386 101.755 277.295C88.9066 266.056 80.4753 255.706 75.231 244.73C71.3837 236.28 68.7619 227.322 67.4451 218.129C66.8602 214.571 66.3357 210.69 65.7709 206C62.0999 174.547 61.4947 142.124 60.9097 110.752C60.2441 74.1244 59.518 36.7084 53.8904 0.282878H51.8733C57.5614 36.5871 58.2876 74.0435 58.9532 110.691Z" fill="#342F2C"/>
<path d="M94.2519 84.1707C95.1192 106.932 96.0269 130.481 98.5482 153.383C98.9718 157.426 99.3752 160.499 99.819 163.49C100.858 171.135 102.892 178.611 105.87 185.726C109.904 195.125 116.682 204.201 126.424 213.439C141.915 228.155 159.282 238.363 176.609 242.931C202.83 249.844 230.021 244.649 255.678 238.747C298.419 228.882 331.58 215.622 357.015 198.218C366.435 191.77 376.56 183.583 380.332 171.677C382.217 164.887 382.582 157.764 381.401 150.816C379.021 132.907 371.316 115.866 364.054 99.3919C362.037 94.7831 359.859 89.9924 357.882 85.2421C350.701 68.1411 344.408 49.5848 347.071 29.573C348.612 19.215 352.11 9.24651 357.378 0.202067H355.078C349.959 9.18609 346.54 19.0407 344.993 29.2697C342.27 49.7464 348.644 68.6263 355.946 85.8687C357.963 90.5988 359.98 95.3895 362.138 100.019C369.44 116.372 376.984 133.27 379.324 150.877C380.463 157.534 380.119 164.361 378.315 170.868C374.745 182.188 364.922 190.112 355.805 196.338C330.571 213.621 297.653 226.78 255.133 236.564C229.738 242.426 202.79 247.58 177.052 240.768C160.048 236.281 142.984 226.254 127.735 211.761C118.194 202.725 111.599 193.872 107.564 184.715C104.696 177.763 102.75 170.464 101.775 163.005C101.332 160.135 100.928 156.941 100.505 153.06C98.0036 130.218 97.0959 106.73 96.2285 83.9889C95.1595 56.1745 94.0704 27.8143 89.9959 0.101022H87.9788C92.2348 27.9154 93.2837 56.3159 94.2519 84.1707Z" fill="#342F2C"/>
<path d="M130.418 60.5204C131.265 73.6999 132.153 87.3038 133.464 100.625C133.726 103.212 133.988 105.8 134.331 108.367C134.99 114.243 136.302 120.026 138.244 125.609C141.433 133.886 146.232 141.444 152.363 147.845C162.13 158.767 174.546 166.977 188.408 171.677C207.792 177.923 228.992 175.012 247.186 171.353C268.466 167.068 298.944 157.749 323.31 137.758C330.127 132.179 336.764 125.771 339.224 116.816C340.476 111.64 340.675 106.264 339.809 101.009C338.115 88.072 333.133 75.6607 328.312 63.6536C326.678 59.6108 325.004 55.4063 323.491 51.2827C319.013 39.1543 314.757 24.681 317.178 9.39926C317.692 6.28414 318.454 3.21532 319.457 0.222177H317.44C316.496 3.11383 315.775 6.07374 315.282 9.07589C312.781 24.8225 317.117 39.599 321.696 51.9901C323.229 56.0329 324.903 60.3385 326.537 64.4015C331.317 76.3075 336.259 88.6582 337.913 101.272C338.737 106.256 338.558 111.356 337.389 116.27C335.069 124.7 328.675 130.825 322.12 136.201C297.975 155.849 267.719 165.107 246.762 169.352C228.83 172.95 207.954 175.841 188.993 169.736C175.467 165.129 163.353 157.109 153.816 146.45C147.883 140.242 143.236 132.918 140.14 124.902C138.241 119.465 136.962 113.829 136.328 108.104C136.005 105.557 135.723 102.99 135.46 100.423C134.149 87.1422 133.282 73.5382 132.435 60.3992C131.144 40.4076 129.833 20.1329 126.908 0.201944H124.891C127.796 20.1531 129.127 40.4884 130.418 60.5204Z" fill="#342F2C"/>
<path d="M168.278 47.8463C168.419 49.6655 168.56 51.4848 168.742 53.2838C169.053 57.4159 169.68 61.518 170.618 65.5537C172.114 71.5378 174.692 77.1967 178.222 82.2504C183.765 90.157 191.313 96.4374 200.087 100.443C210.495 105.112 223.102 106.264 238.613 104.001C258.784 101.049 277.784 91.0637 289.604 77.2778C293.736 73.0122 296.667 67.7253 298.096 61.9556C298.67 58.4075 298.67 54.7902 298.096 51.2422C296.894 43.5045 294.99 35.8928 292.408 28.5015C291.258 24.863 290.048 21.1033 289.06 17.4243C287.46 11.8346 286.532 6.07318 286.297 0.262706H284.279C284.503 6.2512 285.452 12.1903 287.103 17.9499C288.092 21.6895 289.302 25.4694 290.472 29.1281C293.04 36.4269 294.943 43.9433 296.16 51.5858C296.696 54.9334 296.696 58.3452 296.16 61.6928C294.776 67.1162 291.994 72.0797 288.092 76.0851C276.574 89.5071 257.977 99.2503 238.351 102.121C223.223 104.344 210.979 103.232 200.934 98.7247C192.464 94.8299 185.192 88.7288 179.876 81.0578C176.488 76.1976 174.014 70.7585 172.574 65.0079C171.665 61.0773 171.052 57.084 170.739 53.0615C170.577 51.2625 170.436 49.4633 170.295 47.6441C169.045 31.8772 167.754 15.8678 165.394 0.161538H163.377C165.737 15.9486 167.028 31.9985 168.278 47.8463Z" fill="#342F2C"/>
<path d="M204.041 16.3732C205.619 22.0907 208.995 27.1456 213.668 30.7871C218.341 34.4287 224.062 36.4627 229.98 36.5872C235.905 36.4713 241.635 34.4412 246.316 30.799C250.997 27.1568 254.379 22.0972 255.96 16.3732C257.115 10.9884 257.246 5.43321 256.343 -2.30107e-05H254.326C255.258 5.25854 255.155 10.6488 254.023 15.8679C252.549 21.1474 249.416 25.8099 245.089 29.1636C240.761 32.5173 235.47 34.3834 230 34.4849C224.524 34.3684 219.233 32.4838 214.912 29.1113C210.591 25.7388 207.471 21.0586 206.017 15.7668C205.077 11.2019 204.772 6.52865 205.11 1.87986C205.11 1.25323 205.11 0.626609 205.11 -2.30107e-05H203.093C203.093 0.606395 203.093 1.21274 203.093 1.81916C202.734 6.69109 203.053 11.5893 204.041 16.3732Z" fill="#342F2C"/>
<path d="M-228.257 388.31C-232.597 388.752 -236.825 389.963 -240.742 391.888C-247.782 395.809 -252.602 404.016 -254.68 415.841C-259.945 445.636 -248.367 479.757 -224.424 504.782C-204.677 525.764 -176.579 541.531 -140.958 552.043C-117.822 558.855 -97.5105 561.705 -78.893 560.734C-64.3298 559.987 -49.8674 556.813 -35.8892 553.781C-27.0141 551.759 -17.8364 549.839 -8.71926 548.465C11.2093 545.473 31.7834 545.392 51.6717 545.311C63.774 545.311 76.1588 545.311 88.3823 544.523C101.312 543.795 114.947 542.299 127.17 536.296C140.422 529.787 149.782 518.103 151.557 505.975C156.962 468.862 112.748 456.289 86.3248 448.769L85.1145 448.426C69.7646 444.039 55.2821 437.591 41.2635 431.345C32.4893 427.424 23.4126 423.26 14.1139 419.823C-47.0636 396.496 -111.953 384.206 -171.032 384.206C-190.184 384.103 -209.315 385.475 -228.257 388.31ZM40.4568 433.063C54.5762 439.33 69.0789 445.818 84.57 450.245L85.7802 450.589C111.558 457.926 154.723 470.216 149.56 505.55C147.865 517.133 138.95 528.19 126.283 534.416C114.382 540.258 100.989 541.733 88.2612 542.502C76.1589 543.189 63.6732 543.249 51.6515 543.29C31.7027 543.29 11.0681 543.452 -9.02187 546.463C-18.1995 547.838 -27.3973 549.859 -36.3127 551.8C-50.2304 554.832 -64.5517 557.965 -79.014 558.713C-97.3693 559.663 -117.459 556.853 -140.393 550.102C-175.672 539.732 -203.467 524.066 -222.992 503.61C-246.471 478.949 -257.847 445.515 -252.703 416.346C-251.332 408.584 -247.963 398.356 -239.754 393.808C-236.05 391.997 -232.055 390.861 -227.954 390.452C-156.005 379.274 -68.0412 390.695 13.4079 421.743C22.6259 425.139 31.7229 429.182 40.4568 433.084V433.063Z" fill="#342F2C"/>
<path d="M-179.545 433.569C-187.351 452.226 -182.752 473.612 -167.442 489.4C-156.288 500.982 -140.313 509.836 -119.94 515.678C-108.568 519.219 -96.7107 520.945 -84.8031 520.792C-76.2985 520.324 -67.8421 519.203 -59.5091 517.436C-54.7891 516.547 -49.9079 515.637 -45.1073 515.011C-35.9864 513.962 -26.8154 513.408 -17.6348 513.353H-14.7908C-6.72251 513.191 1.48698 513.03 9.57541 512.342C17.133 512.015 24.5687 510.317 31.5211 507.329C39.2061 503.63 44.6924 497.364 46.1649 490.552C46.861 487.683 46.9276 484.698 46.36 481.801C45.7923 478.904 44.6041 476.166 42.8772 473.774C36.0998 464.274 21.5568 459.24 11.9555 455.905C4.25862 453.09 -3.28256 449.865 -10.6356 446.243C-15.9002 443.756 -21.3462 441.189 -26.9133 438.945C-60.8184 425.045 -97.0458 417.712 -133.677 417.337C-142.949 417.312 -152.214 417.893 -161.411 419.075C-163.831 419.325 -166.202 419.924 -168.451 420.854C-173.13 422.976 -176.902 427.262 -179.545 433.569ZM-167.442 422.694C-165.36 421.843 -163.165 421.298 -160.927 421.076C-120.203 415.72 -71.6115 422.916 -27.579 440.805C-22.0724 443.049 -16.6667 445.596 -11.4425 448.062C-4.04462 451.709 3.54384 454.955 11.2899 457.785C20.6692 461.039 34.8291 465.87 41.2232 474.926C42.7972 477.08 43.8788 479.555 44.3912 482.175C44.9036 484.796 44.8343 487.497 44.1882 490.087C42.8569 496.292 37.794 502.033 30.6536 505.47C23.9195 508.341 16.7254 509.978 9.41401 510.301C1.34575 510.968 -6.8637 511.13 -14.7908 511.311H-17.6348C-26.8898 511.366 -36.135 511.926 -45.3292 512.989C-50.1903 513.616 -55.0918 514.546 -59.852 515.415C-68.0775 517.17 -76.4262 518.286 -84.8233 518.75C-96.5914 518.953 -108.316 517.274 -119.557 513.778C-139.587 507.976 -155.279 499.304 -166.171 488.005C-180.835 472.804 -185.273 452.246 -177.79 434.357C-175.248 428.535 -171.819 424.695 -167.543 422.673L-167.442 422.694Z" fill="#342F2C"/>
<path d="M-75.4237 481.415C-71.6034 480.901 -67.871 479.868 -64.3298 478.343C-60.1343 476.624 -57.8752 474.462 -57.3911 471.733C-56.907 469.004 -58.1374 466.517 -61.0622 463.647C-69.4532 455.38 -81.7169 450.447 -95.5943 449.74H-96.6634C-104.409 449.74 -111.953 453.944 -114.494 459.847C-116.511 464.516 -115.14 469.55 -110.581 473.997C-103.703 480.667 -83.7541 482.406 -75.4237 481.415ZM-112.659 460.574C-110.339 455.258 -102.896 451.397 -95.6951 451.761C-82.322 452.428 -70.5222 457.179 -62.4741 465.082C-60.0738 467.467 -59.0451 469.529 -59.388 471.389C-59.7309 473.249 -61.5866 475.048 -65.0963 476.483C-68.4662 477.928 -72.0142 478.914 -75.6455 479.414C-77.2937 479.588 -78.9503 479.669 -80.6075 479.656C-89.9667 479.656 -104.046 477.514 -109.169 472.501C-113.143 468.599 -114.353 464.476 -112.659 460.574Z" fill="#342F2C"/>
<path d="M-164.921 169.534C-166.938 182.431 -169.641 195.549 -172.202 208.244C-179.02 242.021 -186.08 276.971 -182.772 311.699C-182.046 319.319 -180.634 328.032 -175.631 334.743C-169.701 342.707 -159.878 346.447 -151.971 348.892C-126.758 356.432 -101.928 355.947 -82.0397 347.498C-72.4788 343.455 -65.3182 338.017 -60.7999 331.327C-55.0715 322.897 -53.5183 312.548 -52.7317 303.553C-51.7776 288.956 -51.6901 274.315 -52.4695 259.708C-52.8527 248.672 -53.2359 237.251 -52.8325 226.052C-51.8442 199.046 -46.1964 172.061 -40.7301 145.985C-37.6844 131.411 -34.5176 116.331 -32.198 101.373C-25.9249 60.9448 -27.7201 27.5312 -37.6643 0.302989H-39.8224C-29.7371 27.4301 -27.9218 60.6618 -34.1949 101.15C-36.5145 116.048 -39.6612 131.087 -42.7069 145.621C-48.1934 171.899 -53.8411 198.864 -54.8093 226.032C-55.2127 237.311 -54.8092 248.753 -54.4461 259.85C-53.67 274.376 -53.7509 288.935 -54.6883 303.452C-55.4346 312.184 -56.9272 322.21 -62.4136 330.235C-66.7099 336.542 -73.5478 341.717 -82.7658 345.638C-102.23 353.885 -126.576 354.37 -151.346 346.952C-158.95 344.668 -168.39 341.11 -173.957 333.611C-178.657 327.304 -180.008 318.935 -180.694 311.577C-183.982 277.214 -176.943 242.345 -170.165 208.709C-167.583 196.014 -164.941 182.875 -162.884 169.938C-153.983 113.607 -155.349 56.1251 -166.918 0.282755H-168.935C-157.393 55.9922 -156.033 113.338 -164.921 169.534Z" fill="#342F2C"/>
<path d="M-121.191 1.21276C-119.779 9.29834 -116.209 16.7169 -112.739 23.8726C-111.523 26.9631 -109.611 29.7302 -107.152 31.9582C-105.777 33.135 -104.047 33.8145 -102.24 33.8878C-100.433 33.9611 -98.6536 33.4239 -97.1877 32.3624C-94.1823 29.7346 -94.5253 25.328 -95.2716 21.3862L-99.2048 0.242534H-101.222L-97.1877 21.7501C-96.5625 25.146 -96.2196 28.8856 -98.4585 30.8463C-99.5693 31.5953 -100.897 31.954 -102.232 31.8662C-103.568 31.7784 -104.837 31.2491 -105.841 30.3612C-108.043 28.3236 -109.759 25.8158 -110.864 23.0236C-114.272 15.9891 -117.782 8.71209 -119.133 0.909505C-119.133 0.687152 -119.133 0.464888 -119.133 0.242534H-121.15C-121.272 0.545743 -121.251 0.889341 -121.191 1.21276Z" fill="#342F2C"/>
<path d="M-146.868 46.1685C-142.178 116.183 -148.067 186.505 -164.336 254.756L-164.941 257.303C-167.341 267.269 -169.802 277.517 -169.681 288.028C-169.5 300.884 -164.961 312.164 -157.216 318.996C-152.435 323.18 -146.061 326.192 -137.166 328.436C-118.266 333.186 -101.968 329.79 -93.5167 319.299C-87.9093 312.325 -86.3158 303.128 -85.1661 294.234C-83.391 280.428 -82.1606 266.298 -80.9705 252.634C-78.5299 224.658 -76.0086 195.752 -68.6463 168.281C-66.6292 161.166 -64.4709 154.131 -62.2925 147.117C-60.1141 140.103 -57.8146 132.967 -55.8984 125.872C-45.0285 84.706 -44.9035 41.4305 -55.5354 0.202067H-57.5524C-46.8641 41.2391 -46.9405 84.3477 -57.7743 125.346C-59.6703 132.462 -61.9295 139.597 -64.1281 146.51C-66.3267 153.424 -68.5857 160.66 -70.502 167.755C-77.9046 195.408 -80.4461 224.354 -82.8868 252.452C-84.0768 266.096 -85.3072 280.206 -87.1024 293.971C-88.1916 302.542 -89.7246 311.476 -95.0093 318.046C-106.749 332.62 -129.804 328.153 -136.601 326.475C-145.174 324.312 -151.265 321.442 -155.804 317.46C-163.126 311.032 -167.422 300.298 -167.583 288.008C-167.704 277.901 -165.264 267.632 -162.904 257.687L-162.299 255.16C-145.991 186.709 -140.081 116.184 -144.77 45.9665C-145.521 30.52 -147.819 15.1882 -151.628 0.202067H-153.645C-149.51 15.1604 -147.897 30.9677 -146.868 46.1685Z" fill="#342F2C"/>
<path d="M-128.936 65.5335C-128.498 80.3673 -128.889 95.2141 -130.106 110.004L-134.14 172.89C-135.048 187.363 -136.157 205.353 -127.988 219.847C-127.018 221.842 -125.499 223.518 -123.611 224.678C-119.295 226.962 -114.192 224.314 -110.843 221.08C-101.202 211.741 -98.3174 198.157 -95.5137 184.998C-94.8884 182.067 -94.2631 179.156 -93.4966 176.306C-90.0071 161.913 -84.0971 148.006 -78.3888 134.423C-71.2686 117.605 -63.9264 100.2 -61.1428 81.8664C-57.1087 55.1234 -62.6556 28.6835 -70.9861 0.181833H-73.0032C-64.6525 28.6633 -59.0451 55.0425 -63.059 81.5632C-65.8023 99.7557 -73.1443 116.938 -80.1637 133.655C-85.8922 147.238 -91.8426 161.307 -95.3725 175.861C-96.0583 178.711 -96.6836 181.662 -97.3895 184.593C-100.133 197.45 -102.977 210.75 -112.175 219.645C-114.999 222.394 -119.234 224.698 -122.583 222.919C-124.122 221.927 -125.358 220.528 -126.153 218.876C-134.08 204.929 -132.95 187.262 -132.043 173.051L-128.009 110.186C-126.788 95.3016 -126.398 80.3606 -126.839 65.4325C-127.908 43.1972 -132.628 21.4873 -138.457 0.202067H-140.474C-134.766 21.548 -129.985 43.3386 -128.936 65.5335Z" fill="#342F2C"/>
<path d="M-118.064 36.0413C-117.52 37.234 -116.955 38.4266 -116.39 39.6192C-113.648 44.8302 -111.568 50.3648 -110.198 56.0937C-109.369 61.4413 -109.092 66.8603 -109.371 72.2648C-109.532 81.8664 -109.694 91.7914 -103.642 99.3716L-103.259 99.8568L-102.654 99.7355C-93.6781 97.8556 -86.1746 89.3455 -82.6044 76.9746C-77.1785 58.216 -80.2444 38.5681 -83.2297 19.5064C-84.2181 13.1592 -85.2468 6.71101 -85.9326 0.262768H-87.9497C-87.2437 6.8323 -86.2351 13.3816 -85.2266 19.8096C-82.2817 38.6288 -79.1754 58.0948 -84.5408 76.4086C-87.8286 87.7689 -94.485 95.6523 -102.452 97.613C-107.656 90.6797 -107.515 81.745 -107.354 72.2849C-107.075 66.7647 -107.366 61.2305 -108.221 55.7702C-109.627 49.877 -111.754 44.1806 -114.555 38.8106C-115.12 37.618 -115.684 36.4457 -116.229 35.2531C-121.247 23.9551 -125.296 12.2494 -128.331 0.262768H-130.348C-127.26 12.5125 -123.151 24.4807 -118.064 36.0413Z" fill="#342F2C"/>
<path d="M244.221 900.511C248.903 881.663 252.593 862.582 255.274 843.346C257.896 826.588 260.619 809.265 264.714 792.528C275.183 749.634 293.659 718.868 319.659 701.1C336.743 689.416 357.317 683.453 375.189 679.168C425.292 667.161 477.494 662.653 527.961 658.307L598.841 652.243C651.547 647.695 711.292 642.54 763.11 666.211C786.145 676.742 806.477 692.489 826.144 707.852L872.899 744.237V741.669L827.394 706.234C807.627 690.872 787.194 674.963 763.958 664.351C733.258 650.343 699.916 646.32 666.876 646.32C643.64 646.32 620.484 648.342 598.659 650.201L527.78 656.266C477.353 660.612 424.909 665.119 374.725 677.167C356.672 681.493 335.876 687.516 318.529 699.402C292.106 717.453 273.347 748.623 262.757 792.022C258.723 808.84 255.92 826.204 253.277 843.022C250.312 861.841 247.226 881.307 242.264 899.985C231.191 941.066 210.792 979.025 182.66 1010.9H185.342C213.087 979.067 233.223 941.314 244.221 900.511Z" fill="#342F2C"/>
<path d="M205.412 820.888C207.026 814.48 208.498 807.911 209.951 801.543C214.771 780.157 219.774 758.023 230.121 738.476C249.848 701.1 284.945 679.633 310.804 668.192C345.558 652.89 383.62 646.341 416.579 641.429C453.37 635.93 490.968 631.564 527.396 627.279C587.525 620.305 649.691 613.129 711.232 615.353C772.772 617.576 827.193 629.502 872.859 650.848V648.625C827.132 627.481 772.893 615.595 711.312 613.331C703.405 613.048 695.498 612.907 687.592 612.907C633.696 612.907 579.638 619.173 527.073 625.278C490.766 629.482 453.108 633.848 416.276 639.427C383.196 644.36 344.973 650.929 309.997 666.332C283.775 677.895 248.255 699.645 228.266 737.546C217.817 757.315 212.795 779.571 207.934 801.098C206.501 807.446 205.029 814.015 203.415 820.403C185.319 891.995 148.959 957.641 97.9027 1010.9H100.686C151.314 957.637 187.383 892.194 205.412 820.888Z" fill="#342F2C"/>
<path d="M647.311 100.281C646.074 117.772 645.811 135.318 646.524 152.837C647.149 180.429 647.795 208.972 640.352 235.836C628.935 277.072 600.011 310.243 571.772 342.323C553.82 362.82 535.283 384.024 521.143 407.392C506.278 431.952 494.922 460.958 486.591 496.07C482.96 511.352 480.197 527.523 484.574 542.38C489.435 558.551 503.474 573.065 522.112 580.989C539.66 588.488 559.205 590.004 576.007 590.489C623.933 591.864 672.464 585.557 719.381 579.412C769.666 572.863 821.484 566.111 872.677 568.901V566.88C821.283 564.09 769.404 570.922 719.058 577.411C672.201 583.475 623.772 589.843 576.007 588.468C559.407 587.983 540.084 586.447 522.838 579.129C504.684 571.428 491.15 557.46 486.53 541.794C482.012 526.694 485.179 510.523 488.548 496.535C496.878 461.646 508.093 432.821 522.838 408.443C536.957 385.237 555.393 364.093 573.264 343.637C601.503 311.396 630.65 278.063 642.187 236.382C649.711 209.234 649.066 180.531 648.44 152.777C647.728 135.318 647.984 117.833 649.207 100.403C652.491 64.839 663.951 30.5215 682.69 0.141366H680.33C661.836 30.5559 650.541 64.8121 647.311 100.281Z" fill="#342F2C"/>
<path d="M739.712 551.719C754.276 555.762 769.767 552.75 783.422 550.021L872.839 532.152V530.131L783.019 548.081C769.585 550.769 754.356 553.821 740.277 549.819C727.045 546.059 714.398 533.648 716.073 519.377C717.323 509.128 725.351 501.043 732.451 493.907C800.89 425.079 848.634 349.964 872.758 274.788V267.915C849.421 344.87 801.132 421.966 731.019 492.492C723.697 499.85 715.407 508.198 714.055 519.134C712.341 534.436 725.734 547.737 739.712 551.719Z" fill="#342F2C"/>
<path d="M707.096 40.8725C713.98 26.8628 721.699 13.2814 730.212 0.202067H727.771C719.522 13.0102 712.02 26.2859 705.301 39.9628C695.761 58.9842 686.825 79.5418 685.837 101.191C684.768 125.084 694.954 147.339 711.817 157.79C720.611 163.288 730.898 165.734 740.862 168.099C751.331 170.585 762.142 173.153 770.937 179.277C778.743 184.715 784.532 192.659 790.139 200.361C792.943 204.201 795.827 208.163 798.974 211.802C807.93 222.252 823.501 232.48 837.883 226.901C846.839 223.425 852.527 214.773 856.037 208.466C864.105 194.317 869.006 178.651 872.919 162.843V154.091C868.724 172.566 863.54 190.981 854.282 207.476C850.934 213.54 845.507 221.787 837.177 225.021C823.784 230.216 809.059 220.433 800.507 210.488C797.441 206.91 794.577 202.968 791.793 199.168C786.085 191.345 780.195 183.26 772.107 177.62C762.99 171.273 751.936 168.665 741.346 166.138C731.543 163.814 721.418 161.388 712.906 156.031C696.648 145.924 686.845 124.316 687.874 101.15C688.822 80.0269 697.677 59.6917 707.096 40.8725Z" fill="#342F2C"/>
<path d="M805.206 512.565C799.539 509.472 796.553 503.468 795.121 498.981C789.292 481.637 796.089 464.375 800.668 455.622C807.143 443.251 816.623 432.497 825.781 422.107L828.08 419.5C844.217 401.065 860.898 380.406 872.98 357.665V353.279C860.877 377.212 843.51 398.902 826.587 418.166L824.288 420.753C815.05 431.244 805.489 442.099 798.893 454.692C794.173 463.728 787.154 481.577 793.225 499.628C794.859 504.459 798.107 510.927 804.339 514.344C809.16 516.992 814.828 517.254 820.193 517.174C838.363 516.842 856.296 512.984 873 505.813V503.529C856.317 510.837 838.357 514.766 820.153 515.091C814.949 515.233 809.624 514.99 805.206 512.565Z" fill="#342F2C"/>
<path d="M782.858 0.202067H780.518C775.73 8.09061 771.594 16.3587 768.153 24.9237C762.203 40.1043 756.615 62.9865 763.937 85.808C768.809 100.921 778.742 113.882 792.055 122.496C798.807 127.164 806.718 129.865 814.909 130.299C835.422 130.643 849.884 112.41 855.129 104.506C862.966 92.1394 868.953 78.6891 872.899 64.5834V57.4277C868.341 73.5989 862.814 89.4668 853.455 103.394C848.392 111.015 834.575 128.702 814.949 128.278C807.131 127.852 799.583 125.263 793.144 120.798C780.282 112.352 770.683 99.7582 765.934 85.1006C758.774 62.8653 764.26 40.4682 770.09 25.5908C773.622 16.7816 777.894 8.28836 782.858 0.202067Z" fill="#342F2C"/>
<path d="M821.04 0.202067H819.023L817.45 5.43753C813.416 18.9809 808.414 35.7584 812.609 51.5051C812.975 53.2558 813.757 54.8923 814.888 56.2755C817.067 58.6608 820.94 59.348 825.397 58.2969C842.704 53.8701 851.155 34.5658 855.21 19.1425C855.774 17.0201 856.299 14.8774 856.843 12.7347C857.872 8.57066 858.86 4.38631 860.151 0.282878H858.134C856.964 4.32567 855.956 8.24724 854.968 12.2294C854.423 14.3923 853.898 16.5147 853.334 18.6372C849.421 33.5348 841.231 52.1721 824.974 56.3362C823.199 56.7809 818.923 57.5692 816.462 54.9818C815.556 53.8369 814.934 52.4929 814.646 51.0603C810.612 35.9605 815.514 19.4053 819.467 6.1045L821.04 0.202067Z" fill="#342F2C"/>
<path d="M570.178 270.361C596.783 263.974 615.078 220.392 621.714 195.57C628.895 168.766 629.903 138.061 624.719 104.304C621.008 80.1683 609.713 37.6989 575.685 24.6407C569.491 22.2971 562.921 21.1117 556.301 21.1436C535.101 21.1436 512.894 32.6251 499.48 52.0911C484.453 73.8616 479.652 103.536 485.945 135.635C491.553 164.117 504.583 190.435 517.17 215.885C518.743 219.038 520.357 222.697 522.051 226.578C531.35 247.742 544.057 276.628 570.178 270.361ZM487.922 135.312C484.352 117.119 481.286 82.0887 501.134 53.3041C518.259 28.5016 549.987 17.02 574.958 26.6014C608.038 39.2958 619.072 80.9769 622.723 104.688C627.866 138.162 626.757 168.584 619.758 195.125C613.263 219.382 595.391 262.215 569.714 268.38C567.536 268.921 565.302 269.199 563.058 269.209C543.008 269.209 532.499 245.357 523.907 225.83C522.192 221.949 520.558 218.25 518.985 215.056C506.439 189.728 493.469 163.551 487.922 135.312Z" fill="#342F2C"/>
<path d="M563.724 205.394C566.69 205.306 569.606 204.601 572.287 203.324C574.968 202.047 577.354 200.225 579.295 197.975C591.539 183.825 589.058 153.505 587.585 135.312C587.384 132.805 587.202 130.562 587.081 128.662C586.214 114.512 584.54 102.949 579.255 92.4988C572.941 80.0066 561.787 71.7795 550.169 71.0316H548.596C545.926 70.9548 543.282 71.56 540.91 72.7902C535.848 75.5797 533.609 81.4216 532.197 86.2123C528.889 97.5119 527.295 110.469 527.154 126.903C527.154 135.838 527.618 181.339 545.913 198.804C548.242 201.11 551.036 202.891 554.108 204.027C557.179 205.163 560.458 205.629 563.724 205.394ZM529.171 126.862C529.312 110.57 530.886 97.8353 534.133 86.7176C535.424 82.311 537.482 76.9341 541.879 74.5893C544.382 73.3662 547.175 72.8624 549.947 73.1339C562.977 73.9829 572.659 84.2111 577.359 93.5095C582.482 103.616 584.116 114.957 584.983 128.864C585.084 130.784 585.286 133.048 585.488 135.555C586.92 153.424 589.36 183.32 577.682 196.742C575.917 198.779 573.753 200.43 571.324 201.592C568.894 202.754 566.252 203.401 563.562 203.494C560.572 203.696 557.573 203.26 554.764 202.215C551.954 201.169 549.398 199.538 547.264 197.429C529.252 180.106 529.131 132.239 529.171 126.862Z" fill="#342F2C"/>
<path d="M162.086 857.394C165.878 845.549 169.246 833.319 172.494 821.474C180.663 791.84 189.094 761.196 204.767 734.352C230.202 690.488 276.756 654.345 339.386 629.826C343.299 628.303 347.252 626.794 351.246 625.298C380.493 614.2 410.729 602.739 428.056 577.128C437.153 563.686 441.489 547.717 444.858 533.81C452.328 502.862 457.233 471.349 459.522 439.592C460.793 421.986 456.86 410.929 447.843 406.725C445.439 405.622 442.822 405.063 440.178 405.087C433.683 405.087 427.148 408.039 422.267 410.606C375.189 435.449 342.068 479.656 310.037 522.409C277.099 566.354 243.051 611.815 193.955 635.607C153.13 655.437 105.204 658.226 62.9469 660.713C-26.3485 665.948 -127.545 671.871 -214.198 629.603C-239.835 617.091 -263.717 600.435 -286.812 584.344C-307.709 569.77 -329.312 554.691 -352.225 542.683C-400.543 517.768 -454.584 506.121 -508.851 508.926C-554.611 510.857 -599.381 522.895 -639.96 544.179V546.463C-551.996 499.345 -442.025 497.95 -353.274 544.543C-330.481 556.49 -308.899 571.529 -288.083 586.063C-264.947 602.234 -241.004 618.91 -215.206 631.483C-128.089 673.933 -26.6108 668.03 62.9267 662.795C105.285 660.308 153.493 657.478 194.681 637.487C244.221 613.432 278.43 567.769 311.51 523.622C343.4 481.051 376.379 437.025 423.074 412.445C429.528 409.029 439.008 404.946 446.835 408.584C455.024 412.405 458.574 422.734 457.364 439.471C455.085 471.125 450.2 502.537 442.76 533.385C439.432 547.11 435.156 562.877 426.24 576.036C409.277 601.122 379.344 612.422 350.379 623.438C346.344 624.954 342.31 626.45 338.498 627.986C275.465 652.668 228.548 689.113 202.871 733.362C187.158 760.448 178.666 791.214 170.598 820.989C167.35 832.794 163.982 845.023 160.21 856.828C144.678 905.2 114.422 969.703 56.5327 1010.9H59.9617C116.762 969.339 146.695 905.483 162.086 857.394Z" fill="#342F2C"/>
<path d="M133.302 844.518C135.864 833.441 137.841 822.02 139.737 810.963C143.428 789.475 147.24 767.24 155.732 746.885C170.396 711.753 199.603 680.057 245.027 649.999C260.72 639.609 277.3 629.967 293.316 620.628C315.362 607.793 338.155 594.512 359.052 579.109C394.068 553.316 411.617 526.149 411.213 498.375V497.627L410.467 497.424C407.056 496.485 403.535 496.009 399.998 496.009C377.569 496.009 357.358 514.91 340.172 534.153C279.66 601.87 211.726 668.232 124.104 695.157C91.6901 705.123 55.625 710.095 7.11458 711.328C-106.547 714.118 -194.41 693.257 -261.518 647.513C-271.341 640.802 -280.922 633.363 -290.181 626.228C-298.491 619.82 -307.063 613.169 -315.817 607.065C-367.595 570.842 -430.064 550.466 -496.466 548.222C-545.586 546.311 -594.538 555.076 -639.96 573.914V576.299C-536.323 532.779 -409.208 544.24 -316.967 608.763C-308.274 614.827 -299.701 621.477 -291.411 627.885C-282.132 635.061 -272.531 642.48 -262.648 649.211C-195.177 695.218 -106.93 716.2 7.15497 713.39C55.8066 712.198 92.033 707.185 124.649 697.219C212.714 670.153 280.971 603.548 341.625 535.629C360.847 514.081 383.862 492.998 409.156 499.244C409.156 526.047 391.93 552.386 357.781 577.553C336.985 592.875 314.233 606.135 292.247 618.93C276.11 628.29 259.611 637.952 243.837 648.382C198.07 678.703 168.621 710.641 153.796 746.177C145.223 766.735 141.37 789.091 137.659 810.68C135.763 821.717 133.806 833.117 131.245 844.134C115.402 911.013 76.4165 970.1 21.2138 1010.9H24.5824C79.0907 969.856 117.552 910.996 133.302 844.518Z" fill="#342F2C"/>
<path d="M51.6312 955.978C69.3007 929.477 83.4202 898.429 97.459 855.292C105.749 829.802 112.365 800.714 98.4271 777.751C83.279 752.848 51.49 748.118 29.7057 748.118C24.0176 748.118 18.9952 748.441 15.1224 748.805C-40.0847 754.02 -80.2848 769.464 -111.368 797.44C-171.375 851.431 -209.801 930.225 -216.114 1010.88H-214.097C-207.783 930.791 -169.6 852.563 -110.016 798.936C-79.2763 771.283 -39.4191 755.981 15.3241 750.806C33.639 749.088 78.2363 748.36 96.7529 778.782C110.247 801.018 103.732 829.6 95.583 854.645C81.6048 897.6 67.5459 928.487 49.9974 954.846C35.7997 976.616 17.7615 995.611 -3.23297 1010.9H0.155687C20.3852 995.747 37.8074 977.159 51.6312 955.978Z" fill="#342F2C"/>
<path d="M55.3427 853.837C56.6574 848.069 57.287 842.166 57.2185 836.251C56.1495 809.588 30.674 790.304 6.67089 787.07C3.22769 786.606 -0.242911 786.377 -3.71704 786.383C-22.4757 786.383 -42.7068 792.972 -65.1769 806.354C-136.057 848.561 -182.812 928.386 -185.455 1010.9H-183.437C-180.795 929.073 -134.423 849.935 -64.1483 808.093C-37.9265 792.447 -14.7908 786.221 6.44892 789.071C29.625 792.204 54.213 810.741 55.2417 836.331C55.3082 842.091 54.6921 847.838 53.4062 853.453C39.9765 917.865 1.82955 974.409 -52.8123 1010.9H-49.2018C4.56686 974.028 42.0269 917.75 55.3427 853.837Z" fill="#342F2C"/>
<path d="M-54.184 972.775C-40.7302 960.202 -26.8124 947.225 -16.1421 931.721C-7.75112 919.593 2.01141 900.49 1.06339 878.882C1.06957 873.143 -0.448069 867.506 -3.33379 862.549C-7.9327 855.312 -17.0296 850.926 -27.0141 850.926C-28.0025 850.926 -29.0312 850.926 -30.0195 851.047C-40.4477 851.977 -49.8271 857.01 -57.6331 861.821C-83.4263 877.935 -105.204 899.744 -121.302 925.581C-137.4 951.418 -147.394 980.6 -150.519 1010.9H-148.502C-142.451 951.611 -107.213 894.729 -56.6044 863.539C-49.0001 858.85 -39.8629 853.938 -29.8582 853.069C-19.4704 852.139 -9.6875 856.303 -5.04825 863.64C-2.37829 868.302 -0.986486 873.588 -1.01412 878.963C-0.0459304 900.025 -9.64723 918.663 -17.8567 930.569C-28.4059 945.891 -42.2429 958.868 -55.6161 971.3L-97.9744 1010.9H-95.0094L-54.184 972.775Z" fill="#342F2C"/>
<path d="M-88.2925 961.698C-61.0218 966.226 -46.0753 922.807 -42.606 905.706C-42.2757 904.736 -42.1877 903.701 -42.3494 902.689C-42.5112 901.678 -42.9179 900.722 -43.5339 899.904C-44.1206 899.412 -44.7986 899.041 -45.529 898.812C-46.2594 898.583 -47.0277 898.501 -47.7899 898.57H-47.9714C-57.9156 898.57 -68.4447 903.098 -77.6223 911.082C-87.7076 919.876 -105.982 939.766 -102.513 952.097C-101.081 957.13 -96.3003 960.364 -88.2925 961.698ZM-76.1902 912.599C-67.3756 904.937 -57.3104 900.672 -47.9513 900.591C-46.8966 900.436 -45.8234 900.705 -44.966 901.339C-44.0987 902.209 -44.3004 903.907 -44.5828 905.382C-47.7294 920.846 -62.4136 964.003 -87.9497 959.778C-95.1304 958.585 -99.3663 955.856 -100.556 951.692C-103.884 939.766 -84.1777 919.451 -76.291 912.599H-76.1902Z" fill="#342F2C"/>
<path d="M-264.624 758.447C-256.556 769.201 -247.58 780.076 -235.377 786.747C-227.089 790.992 -218.115 793.73 -208.873 794.832C-175.954 799.764 -145.113 792.144 -124.297 773.911C-118.246 768.655 -114.716 763.804 -113.082 758.447C-111.267 752.646 -111.933 744.742 -117.459 740.093C-119.807 738.325 -122.431 736.958 -125.225 736.05C-160.362 722.567 -195.358 707.427 -229.205 691.013L-229.971 690.629C-238.967 686.263 -248.286 681.755 -258.331 680.28C-260.115 680.023 -261.915 679.894 -263.717 679.896C-268.11 679.804 -272.476 680.607 -276.551 682.258C-280.625 683.908 -284.322 686.371 -287.417 689.497C-290.357 692.719 -292.449 696.623 -293.506 700.858C-294.562 705.093 -294.549 709.525 -293.468 713.754C-290.886 725.741 -280.741 738.294 -271.785 749.391C-269.163 752.585 -266.803 755.637 -264.624 758.447ZM-285.945 690.892C-279.611 684.1 -269.143 680.785 -258.613 682.342C-248.891 683.777 -239.714 688.224 -230.859 692.449L-230.092 692.833C-196.185 709.267 -161.149 724.447 -125.951 737.93C-123.368 738.757 -120.936 739.999 -118.75 741.609C-114.716 745.065 -113.102 751.716 -114.998 757.78C-116.531 762.712 -119.92 767.321 -125.628 772.334C-141.926 786.605 -164.517 794.226 -189.448 794.226C-195.849 794.215 -202.241 793.729 -208.57 792.77C-217.581 791.684 -226.329 789.008 -234.409 784.867C-246.269 778.398 -255.164 767.725 -263.011 757.133C-265.028 754.303 -267.569 751.231 -270.191 747.996C-279.006 737.081 -288.99 724.73 -291.471 713.208C-292.464 709.321 -292.479 705.247 -291.514 701.352C-290.55 697.458 -288.636 693.863 -285.945 690.892Z" fill="#342F2C"/>
<path d="M-234.288 760.246C-225.756 766.553 -209.377 770.212 -197.779 770.959C-192.852 771.502 -187.871 770.706 -183.357 768.655C-181.032 767.528 -179.086 765.746 -177.756 763.527C-176.427 761.308 -175.773 758.749 -175.873 756.163C-176.271 753.452 -177.385 750.898 -179.101 748.765C-186.08 739.143 -197.476 734.029 -208.53 729.622C-213.753 727.261 -219.368 725.89 -225.09 725.579C-227.687 725.553 -230.261 726.062 -232.654 727.075C-235.411 728.232 -237.804 730.115 -239.579 732.524C-241.355 734.933 -242.447 737.779 -242.739 740.76C-243.09 744.459 -242.498 748.187 -241.02 751.595C-239.542 755.003 -237.226 757.979 -234.288 760.246ZM-240.722 740.901C-240.5 738.257 -239.554 735.725 -237.988 733.585C-236.422 731.445 -234.297 729.78 -231.847 728.773C-224.787 725.721 -216.497 728.53 -209.276 731.421C-198.485 735.727 -187.391 740.699 -180.735 749.876C-179.222 751.723 -178.233 753.943 -177.87 756.304C-177.809 758.488 -178.386 760.642 -179.529 762.502C-180.672 764.362 -182.331 765.847 -184.305 766.775C-187.563 768.351 -191.159 769.094 -194.773 768.938C-195.681 768.938 -196.649 768.938 -197.658 768.938C-207.098 768.332 -224.323 765.097 -233.077 758.629C-235.755 756.569 -237.863 753.857 -239.201 750.751C-240.539 747.644 -241.063 744.247 -240.722 740.881V740.901Z" fill="#342F2C"/>
<path d="M-255.85 932.226C-248.024 906.231 -247.641 885.552 -254.68 869.017C-258.714 859.618 -264.988 851.633 -271.24 844.417C-275.523 839.238 -280.248 834.443 -285.36 830.085C-288.567 827.478 -292.036 825.153 -295.445 822.889C-297.805 821.292 -300.226 819.655 -302.525 817.957C-325.641 800.795 -340.204 773.951 -352.044 750.159L-352.569 749.088C-355.775 742.086 -359.638 735.406 -364.106 729.137C-369.426 722.314 -376.063 716.635 -383.622 712.439C-391.18 708.244 -399.505 705.618 -408.098 704.718C-410.269 704.493 -412.451 704.378 -414.634 704.375C-429.803 704.45 -444.528 709.513 -456.548 718.787C-461.152 722.263 -465.188 726.437 -468.509 731.158C-472.652 737.569 -475.585 744.688 -477.163 752.161C-480.262 765.435 -480.696 779.195 -478.438 792.639C-476.18 806.083 -471.276 818.943 -464.011 830.469C-460.764 835.563 -457.052 840.415 -453.462 845.124C-450.719 848.682 -447.895 852.361 -445.394 856.121C-429.621 879.186 -421.53 906.66 -422.278 934.612C-423.144 962.244 -432.6 988.915 -449.327 1010.9H-446.806C-430.36 988.811 -421.074 962.197 -420.201 934.652C-419.445 906.271 -427.655 878.376 -443.659 854.948C-446.281 851.148 -449.105 847.449 -451.848 843.871C-455.419 839.202 -459.11 834.391 -462.297 829.358C-476.562 806.47 -481.203 778.852 -475.206 752.545C-473.688 745.349 -470.857 738.496 -466.855 732.331C-463.666 727.773 -459.779 723.748 -455.338 720.404C-441.954 710.053 -425.153 705.171 -408.32 706.74C-399.989 707.602 -391.916 710.138 -384.583 714.194C-377.25 718.25 -370.808 723.745 -365.639 730.35C-361.266 736.525 -357.477 743.096 -354.323 749.977L-353.779 751.049C-341.858 775.063 -327.154 802.15 -303.675 819.574C-301.335 821.312 -298.874 822.97 -296.514 824.567C-293.206 826.79 -289.797 829.115 -286.651 831.662C-281.597 835.964 -276.927 840.698 -272.693 845.812C-266.541 852.927 -260.328 860.75 -256.455 869.886C-249.597 886.058 -250.021 906.272 -257.706 931.721C-266.369 960.324 -280.028 987.159 -298.047 1010.98H-295.506C-277.823 987.236 -264.403 960.587 -255.85 932.226Z" fill="#342F2C"/>
<path d="M-322.655 1010.9H-320.013C-307.364 995.942 -297.77 978.642 -291.774 959.98C-284.19 935.461 -284.573 909.87 -292.843 887.938C-301.113 866.005 -317.048 847.954 -332.317 830.53C-345.307 815.794 -358.72 800.532 -367.535 782.906C-368.806 780.359 -369.996 777.711 -371.166 775.144C-373.396 769.887 -376.005 764.8 -378.972 759.923C-384.458 751.413 -391.639 745.773 -399.142 744.095C-400.845 743.718 -402.583 743.529 -404.326 743.529C-416.429 743.529 -427.22 752.767 -431.859 762.773C-436.66 773.122 -437.406 785.978 -434.138 802.089C-430.588 819.493 -423.751 836.271 -417.155 852.503C-409.611 871.059 -401.785 890.242 -399.001 910.274C-396.016 931.66 -398.82 953.39 -401.946 971.805C-404.246 985.268 -407.251 998.892 -412.858 1010.9H-410.64C-405.194 998.912 -402.228 985.45 -399.949 972.149C-396.803 953.572 -393.898 931.721 -397.004 909.991C-399.848 889.777 -407.715 870.412 -415.299 851.734C-421.875 835.563 -428.672 818.907 -432.182 801.685C-435.369 786.019 -434.663 773.567 -430.044 763.622C-425.082 752.929 -412.717 743.145 -399.586 746.076C-392.567 747.653 -385.83 752.969 -380.626 761.034C-377.709 765.819 -375.148 770.812 -372.961 775.973C-371.791 778.56 -370.581 781.228 -369.29 783.816C-360.374 801.685 -346.86 817.027 -333.79 831.884C-318.561 849.147 -302.828 867.016 -294.679 888.665C-286.53 910.314 -286.207 935.299 -293.65 959.414C-299.788 978.346 -309.651 995.852 -322.655 1010.9Z" fill="#342F2C"/>
<path d="M-357.833 1010.9H-355.13C-341.815 995.38 -332.856 976.593 -329.17 956.463C-325.136 935.744 -325.943 913.144 -331.409 889.272C-332.922 882.662 -335.282 875.506 -341.495 872.413C-343.248 871.536 -345.183 871.086 -347.142 871.099C-350.162 871.256 -353.102 872.127 -355.721 873.641C-358.34 875.155 -360.563 877.27 -362.21 879.812C-366.506 886.361 -367.333 894.285 -368.261 902.047C-371.287 930.609 -375.28 959.454 -380.081 987.754C-381.614 996.689 -383.288 1004.65 -387.786 1011H-385.305C-381.271 1004.53 -379.577 996.749 -378.104 988.098C-373.284 959.798 -369.29 930.872 -366.244 902.249C-365.457 894.83 -364.651 887.169 -360.637 881.024C-356.885 875.304 -348.877 871.099 -342.483 874.313C-337.057 877.042 -334.899 883.672 -333.487 889.817C-328.101 913.427 -327.436 935.743 -331.268 956.18C-334.961 976.512 -344.149 995.439 -357.833 1010.9Z" fill="#342F2C"/>
<path d="M-515.527 1010.9H-512.643C-496.49 994.241 -487.099 972.157 -486.3 948.943C-485.311 923.373 -494.025 896.124 -510.868 872.272C-513.833 868.047 -517.06 863.903 -520.186 859.921C-524.604 854.261 -529.162 848.419 -533.035 842.294C-540.801 830.004 -546.832 815.026 -552.016 795.176C-558.753 769.342 -570.331 705.042 -532.188 666.09C-511.856 645.31 -482.629 636.941 -454.107 628.856C-434.784 623.337 -424.779 614.908 -424.335 603.81C-424.033 596.048 -429.176 588.185 -437.446 583.758C-444.526 579.998 -452.675 578.968 -461.127 578.159C-477.922 576.582 -494.025 575.787 -509.435 575.774C-561.173 575.774 -604.782 584.809 -639.899 602.699V604.902C-594.576 581.535 -534.75 573.227 -461.308 580.18C-452.776 580.989 -445.172 581.959 -438.394 585.557C-430.79 589.6 -426.07 596.736 -426.292 603.75C-426.695 613.857 -436.216 621.68 -454.712 626.976C-483.294 635.061 -512.864 643.571 -533.58 664.735C-572.428 704.435 -560.729 769.585 -553.912 795.742C-548.667 815.814 -542.556 830.954 -534.689 843.426C-530.655 849.652 -526.157 855.555 -521.719 861.215C-518.613 865.258 -515.386 869.3 -512.441 873.485C-495.881 896.993 -487.288 923.797 -488.236 948.943C-489.265 972.856 -499.451 995.698 -515.527 1010.9Z" fill="#342F2C"/>
<path d="M-552.076 1010.9H-549.192C-531.764 994.243 -524.019 968.45 -524.321 946.396C-524.745 914.782 -538.441 884.521 -551.108 858.648C-552.5 855.818 -553.892 853.008 -555.304 850.178C-567.406 825.78 -579.932 800.573 -584.571 773.547C-590.743 737.566 -583.301 696.835 -561.839 649.049C-559.56 643.955 -556.978 638.174 -558.168 632.312C-560.185 622.832 -570.532 618.526 -581.344 618.526C-583.71 618.526 -586.072 618.728 -588.404 619.133C-608.131 622.549 -625.316 632.433 -640 644.824V647.473C-625.255 634.758 -607.969 624.57 -588.061 621.194C-576.079 619.173 -562.222 622.468 -560.124 632.777C-559.076 637.992 -561.516 643.45 -563.695 648.281C-585.318 696.451 -592.801 737.566 -586.568 773.951C-581.868 801.26 -569.282 826.608 -557.099 851.128C-555.707 853.958 -554.295 856.788 -552.903 859.598C-540.277 885.29 -526.681 915.287 -526.339 946.518C-525.935 968.712 -533.963 994.728 -552.076 1010.9Z" fill="#342F2C"/>
<path d="M-614.666 1010.9H-611.156C-588.525 994.384 -576.342 965.054 -574.183 939.503C-571.238 904.897 -581.909 870.351 -591.308 839.869C-601.192 807.87 -611.479 774.76 -608.957 741.083C-608.816 739.062 -608.635 737.162 -608.433 735.201C-607.515 728.43 -607.454 721.571 -608.252 714.785C-609.542 706.699 -614.303 697.057 -623.561 693.924C-625.442 693.273 -627.421 692.952 -629.41 692.974C-633.08 693 -636.693 693.886 -639.96 695.561V697.825C-637.626 696.418 -635.027 695.511 -632.325 695.163C-629.624 694.816 -626.88 695.034 -624.267 695.804C-615.795 698.654 -611.438 707.932 -610.289 715.088C-609.526 721.701 -609.6 728.384 -610.511 734.979C-610.692 737 -610.874 739.021 -611.035 740.901C-613.516 774.982 -603.229 808.274 -593.305 840.455C-583.946 870.776 -573.356 905.14 -576.261 939.301C-578.399 965.256 -591.066 995.132 -614.666 1010.9Z" fill="#342F2C"/>
<path d="M-639.96 948.842V953.249C-631.246 937.078 -625.175 917.692 -621.806 895.275C-618.095 870.331 -616.158 826.204 -639.96 793.114V796.631C-618.296 828.973 -620.233 870.958 -623.823 894.992C-626.327 913.684 -631.773 931.86 -639.96 948.842Z" fill="#342F2C"/>
<path d="M-265.431 46.8154C-262.325 83.3218 -260.025 126.357 -266.258 168.665C-277.513 244.952 -314.789 313.518 -350.854 379.82C-360.778 398.012 -372.013 418.752 -388.916 433.104C-411.104 451.903 -440.896 458.755 -467.238 464.799C-513.288 475.371 -565.49 487.358 -615.009 476.382C-621.584 474.926 -628.18 473.047 -634.554 471.248L-639.899 469.731V471.753L-635.119 473.107C-628.705 474.926 -622.068 476.806 -615.452 478.282C-565.49 489.339 -513.046 477.312 -466.795 466.679C-440.21 460.615 -410.095 453.682 -387.605 434.559C-370.419 419.965 -359.083 399.104 -349.079 380.709C-312.933 314.246 -275.557 245.539 -264.362 168.887C-258.089 126.438 -260.328 83.2005 -263.515 46.5728C-264.846 30.9475 -266.621 14.938 -271.22 0.0807883H-273.237C-268.558 15.0189 -266.803 31.1294 -265.431 46.8154Z" fill="#342F2C"/>
<path d="M-332.156 278.831C-357.994 346.548 -389.158 387.299 -430.185 407.048C-450.578 416.872 -473.471 421.198 -495.155 424.23C-533.802 429.789 -588.182 434.761 -639.899 420.652V422.673C-588 436.702 -533.58 431.709 -494.872 426.15C-473.007 423.017 -449.952 418.732 -429.297 408.786C-374.837 382.508 -346.598 322.412 -330.28 279.417C-302.928 207.738 -277.13 102.99 -302.928 0.0604313H-304.945C-279.147 102.788 -304.865 207.314 -332.156 278.831Z" fill="#342F2C"/>
<path d="M-334.899 120.576C-340.841 160.127 -351.528 198.813 -366.728 235.795C-393.757 301.39 -430.588 343.839 -476.235 362.031C-496.91 370.117 -519.44 373.19 -540.781 375.555C-572.207 379.011 -607.203 381.619 -639.919 373.836V375.858C-607.041 383.62 -572.025 380.972 -540.559 377.495C-519.117 375.13 -496.425 372.139 -475.508 363.851C-429.338 345.658 -392.123 302.784 -364.893 236.503C-349.618 199.375 -338.883 160.531 -332.922 120.819C-325.58 71.921 -328.424 32.1602 -341.575 0.141304H-343.754C-330.441 32.0187 -327.557 71.6582 -334.899 120.576Z" fill="#342F2C"/>
<path d="M-423.468 11.1378C-430.871 16.3732 -439.605 19.7489 -447.915 23.0236C-451.304 24.3375 -454.813 25.6919 -458.202 27.1675C-489.124 40.8301 -514.305 64.8994 -529.384 95.2076C-533.761 104.553 -537.633 114.128 -540.982 123.891C-544.189 132.704 -547.477 141.801 -551.532 150.371C-557.082 161.502 -563.271 172.301 -570.068 182.714C-582.312 202.261 -594.959 222.454 -598.126 245.559C-599.024 253.685 -599.321 261.867 -599.013 270.038C-599.013 275.92 -598.852 282.005 -599.255 287.927C-600.042 299.692 -603.471 315.661 -615.21 324.919C-622.358 330.18 -631.104 332.795 -639.96 332.317V334.338C-630.657 334.77 -621.493 331.963 -614.02 326.394C-601.696 316.671 -598.126 300.116 -597.299 287.988C-596.895 281.924 -596.976 275.86 -597.057 269.917C-597.362 261.854 -597.072 253.78 -596.189 245.761C-593.083 223.081 -580.537 203.069 -568.414 183.724C-561.576 173.256 -555.353 162.396 -549.777 151.2C-545.743 142.549 -542.354 133.392 -539.147 124.538C-535.819 114.845 -531.974 105.337 -527.629 96.0565C-512.753 66.206 -487.929 42.5087 -457.456 29.0676C-454.107 27.6122 -450.618 26.2579 -447.249 25.0248C-438.758 21.7098 -429.963 18.2734 -422.359 12.8965C-417.556 9.51601 -413.447 5.24035 -410.256 0.303112H-412.637C-415.59 4.51925 -419.256 8.18589 -423.468 11.1378Z" fill="#342F2C"/>
<path d="M-509.698 15.5445C-513.288 17.9904 -517.04 20.3958 -520.67 22.7002C-532.39 30.1996 -544.492 37.9415 -553.488 48.8166C-565.369 63.1685 -570.674 81.4823 -575.797 99.1897C-578.016 106.851 -580.315 114.775 -583.099 122.254C-588.342 135.34 -594.447 148.062 -601.373 160.337C-612.003 180.187 -622.976 200.765 -626.082 223.344C-626.345 225.244 -626.566 227.184 -626.768 229.125C-627.615 236.887 -628.503 244.952 -632.819 251.36C-634.65 254.044 -637.063 256.276 -639.879 257.889V260.133C-636.392 258.352 -633.398 255.734 -631.165 252.512C-626.526 245.761 -625.618 237.473 -624.751 229.428C-624.549 227.407 -624.327 225.608 -624.065 223.708C-621.019 201.472 -610.107 181.097 -599.578 161.408C-592.604 149.032 -586.465 136.201 -581.203 123.002C-578.379 115.442 -576.079 107.498 -573.84 99.7962C-568.777 82.2909 -563.533 64.1792 -551.915 50.1508C-543.12 39.5182 -531.139 31.8571 -519.642 24.4588C-516.011 22.1342 -512.239 19.7287 -508.629 17.2626C-501.323 12.3951 -494.625 6.6674 -488.68 0.202067H-491.403C-496.936 5.95687 -503.07 11.1005 -509.698 15.5445Z" fill="#342F2C"/>
<path d="M-603.653 74.5893C-613.375 99.6546 -623.359 125.326 -639.96 144.974V148.006C-622.23 127.934 -611.842 101.292 -601.777 75.2362C-591.248 48.1293 -580.416 20.2746 -561.234 0.121256H-563.997C-582.574 20.416 -593.224 47.9069 -603.653 74.5893Z" fill="#342F2C"/>
<path d="M-639.96 61.3492C-631.906 51.9824 -624.961 41.7127 -619.265 30.7453L-617.691 27.8952C-612.689 18.3085 -607.069 9.05794 -600.869 0.202067H-603.35C-609.252 8.77489 -614.64 17.6915 -619.487 26.9047L-621.06 29.7751C-626.363 39.9153 -632.697 49.48 -639.96 58.3171V61.3492Z" fill="#342F2C"/>
<path d="M-487.772 252.068C-477.989 254.898 -464.273 243.093 -456.084 236.038L-454.067 234.34C-421.518 206.741 -400.297 168.059 -394.483 125.731C-393.938 121.486 -393.535 116.594 -395.592 112.389C-396.993 109.885 -399.047 107.81 -401.534 106.386C-404.021 104.961 -406.848 104.242 -409.712 104.304C-410.095 104.284 -410.478 104.284 -410.861 104.304C-416.813 104.961 -422.39 107.536 -426.756 111.641C-439.806 122.941 -444.91 139.941 -450.053 156.112C-453.522 167.371 -457.093 178.994 -463.184 188.838C-467.014 194.202 -471.402 199.142 -476.275 203.574C-487.712 214.955 -500.702 227.831 -496.446 241.496C-494.731 247.398 -491.826 250.855 -487.772 252.068ZM-474.964 205.171C-469.988 200.624 -465.505 195.563 -461.591 190.072C-455.358 179.965 -451.747 168.24 -448.238 156.88C-443.054 140.062 -438.152 124.174 -425.546 113.259C-421.508 109.445 -416.352 107.035 -410.841 106.386C-408.182 106.126 -405.504 106.64 -403.129 107.866C-400.753 109.092 -398.781 110.978 -397.448 113.299C-395.633 116.998 -396.016 121.506 -396.52 125.427C-402.265 167.259 -423.235 205.486 -455.398 232.763L-457.415 234.461C-464.536 240.526 -475.992 250.451 -484.585 250.451C-485.485 250.454 -486.381 250.332 -487.248 250.087C-490.596 249.137 -493.097 246.044 -494.67 241.011C-498.543 228.62 -486.017 216.148 -474.964 205.171Z" fill="#342F2C"/>
</g>
</svg>
