<svg width="478" height="732" viewBox="0 0 478 732" fill="none" xmlns="http://www.w3.org/2000/svg">
<g opacity="0.15">
<path d="M271.569 656.733C277.843 659.937 284.151 663.399 290.269 666.758C306.073 675.37 322.429 684.396 339.991 689.976C393.419 706.925 455.982 688.891 492.158 646.123C507.91 627.486 518.596 605.129 528.023 585.39C541.311 557.555 552.152 532.322 549.981 505.193C548.946 492.206 544.81 479.736 540.881 467.679C537.487 458.209 534.819 448.495 532.901 438.621C529.557 418.779 532.47 398.178 535.279 378.336C537.796 360.56 540.45 342.165 538.726 324.027C534.452 278.021 503.671 234.254 444.572 190.263C436.42 184.2 427.958 178.206 419.754 172.281C383.165 146.134 345.334 119.092 321.964 80.8538C314.088 67.97 307.9 53.8115 301.903 40.1181C297.818 30.7653 293.595 21.1715 288.838 11.8359C283.082 0.64002 273.637 -14.7241 258.074 -18.7547C248.061 -21.3555 237.548 -18.6515 228.586 -15.6716C211.644 -10.022 195.047 -2.16772 179.001 5.42822C149.702 19.2077 119.489 33.5901 87.1909 34.0896C56.4957 34.5547 25.2662 22.136 0.206773 -0.203987L0.206772 6.68575C25.6282 27.9923 56.6853 39.7392 87.2771 39.2741C120.695 38.7574 151.46 24.2029 181.207 10.1134C197.115 2.58637 213.574 -5.19925 230.223 -10.7455C238.461 -13.4842 248.061 -15.9989 256.782 -13.7425C270.328 -10.2976 278.946 3.89542 284.237 14.2128C288.925 23.3245 293.113 32.9184 297.163 42.2023C303.23 55.9818 309.486 70.3814 317.552 83.5408C341.474 122.692 379.735 150.044 416.755 176.552C424.925 182.391 433.37 188.437 441.487 194.483C499.327 237.544 529.385 280.105 533.59 324.561C535.21 342.13 532.66 360.199 530.143 377.681C527.282 397.989 524.318 419.02 527.782 439.689C529.747 449.82 532.478 459.787 535.951 469.505C539.812 481.269 543.828 493.446 544.81 505.796C546.878 531.633 536.313 556.229 523.336 583.306C514.046 602.752 503.515 624.799 488.194 642.919C453.328 684.155 393.023 701.482 341.543 685.188C324.463 679.762 308.331 670.926 292.734 662.366C286.598 658.921 280.238 655.476 273.896 652.272C225.428 627.814 172.1 614.502 117.817 613.311C77.9813 612.329 38.2498 617.814 0.17226 629.553L0.17226 634.979C88.6042 607.231 189.29 614.723 271.569 656.733Z" fill="#FFFBEF"/>
<path d="M844.196 201.183C839.974 198.29 835.579 195.292 831.236 192.571C808.721 178.477 783.367 169.531 756.988 166.373C745.734 165.047 734.049 164.65 722.743 164.426C695.96 163.703 670.642 163.031 648.874 150.182C611.526 128.135 602.719 79.9754 600.772 53.2259C599.72 38.6025 599.841 23.5829 599.962 9.04549C600.151 -14.328 600.358 -38.5111 595.653 -61.919C594.515 -67.5859 593.085 -73.2699 591.689 -78.7645C589.268 -87.524 587.415 -96.4302 586.139 -105.428C583.933 -124.047 586.777 -143.115 590.172 -162.63C593.085 -179.389 596.17 -195.735 601.978 -211.289C613.25 -241.517 634.362 -267.182 654.768 -291.985C664.558 -303.904 674.571 -316.099 683.619 -328.897L677.294 -328.897C668.901 -317.305 659.749 -306.178 650.787 -295.275C630.105 -270.127 608.717 -244.118 597.135 -213.08C591.172 -197.13 588.035 -180.526 585.071 -163.508C582.468 -148.54 580.193 -133.814 580.193 -119.207C580.179 -114.396 580.45 -109.587 581.003 -104.808C582.302 -95.5891 584.196 -86.4641 586.674 -77.4899C588.052 -72.0643 589.466 -66.4491 590.586 -60.9028C595.188 -38.0289 594.981 -14.1213 594.791 9.01101C594.671 23.6345 594.55 38.7746 595.618 53.6048C597.635 81.3533 606.873 131.39 646.254 154.626C669.177 168.147 696.339 168.888 722.605 169.594C733.79 169.904 745.355 170.214 756.385 171.506C781.998 174.576 806.615 183.263 828.478 196.946C832.752 199.633 837.096 202.596 841.266 205.455C847.988 210.054 854.796 214.722 861.948 218.632L861.948 212.672C855.864 209.158 849.987 205.093 844.196 201.183Z" fill="#FFFBEF"/>
<path d="M861.724 645.09C827.448 618.322 786.139 602.066 742.804 598.291C735.738 597.706 728.189 597.413 720.898 599.342C707.989 602.787 698.045 612.346 689.204 622.216C685.446 626.436 681.706 630.828 678.104 635.065C666.04 649.31 653.424 664.054 637.775 674.354C630.565 678.872 623.082 682.939 615.37 686.532C602.805 692.715 589.81 699.105 579.745 709.371C565.061 724.356 559.667 744.664 557.736 759.046C556.997 764.527 556.622 770.051 556.616 775.582C556.616 808.515 569.87 839.312 593.033 858.672C622.694 883.441 667.798 885.197 695.718 862.702C704.181 855.813 711.006 847.2 717.607 838.795C726.224 827.823 734.376 817.454 745.854 810.926C770.879 796.664 802.988 805.896 831.115 815.645L861.914 826.325L861.914 820.864L832.821 810.771C803.608 800.643 770.19 791.118 743.286 806.43C730.946 813.475 722.105 824.723 713.539 835.609C707.128 843.773 700.475 852.23 692.478 858.672C666.402 879.686 624.177 877.946 596.36 854.71C571.076 833.61 557.926 796.337 562.855 759.735C564.682 746.128 569.749 727.009 583.433 712.988C592.878 703.36 604.908 697.486 617.662 691.165C625.556 687.485 633.212 683.314 640.584 678.677C656.854 667.964 669.642 652.944 681.948 638.407C685.55 634.187 689.255 629.794 692.978 625.661C701.268 616.377 710.54 607.386 722.122 604.337C728.745 602.904 735.563 602.601 742.287 603.441C784.617 607.137 824.97 623.009 858.467 649.137L861.914 651.859L861.914 645.228C861.914 645.228 861.793 645.124 861.724 645.09Z" fill="#FFFBEF"/>
<path d="M257.592 838.382C251.611 803.778 221.399 772.326 197.373 755.894C167.798 735.707 133.018 725.011 102.909 717.225C93.5161 714.797 82.7788 712.644 73.9373 717.828C67.2847 721.755 63.5964 729.041 61.442 734.174C57.193 744.397 55.0308 755.366 55.0824 766.435C55.0824 789.93 64.6477 813.751 86.1051 825.79C93.8091 830.131 102.358 832.543 110.613 834.868C114.301 835.919 118.11 836.986 121.764 838.209C136.928 843.347 150.869 851.556 162.714 862.323C165.334 864.718 167.884 867.319 170.487 869.833C178.846 878.153 187.498 886.765 198.976 890.64C212.764 895.308 228.396 891.846 240.65 881.391C253.714 870.143 260.211 853.694 257.592 838.382ZM200.579 885.714C190.238 882.269 182.396 874.432 174.089 866.165C171.521 863.598 168.918 860.997 166.144 858.5C153.772 847.252 139.209 838.678 123.367 833.318C119.592 832.043 115.715 830.958 111.975 829.873C103.633 827.53 95.7566 825.308 88.5869 821.261C59.4083 804.863 54.2379 764.317 66.1817 736.172C69.2322 728.99 72.4207 724.701 76.5225 722.272C83.6577 718.069 93.1887 720.033 101.565 722.272C131.26 729.954 165.506 740.461 194.409 760.166C217.624 776.012 246.768 806.241 252.456 839.26C254.782 852.764 249.009 867.405 237.203 877.446C226.379 886.713 212.678 889.814 200.579 885.714Z" fill="#FFFBEF"/>
<path d="M364.362 -232.906C322.679 -255.192 274.481 -262.112 228.206 -252.455C207.749 -248.08 194.598 -240.846 186.843 -229.667C181.896 -222.554 179.035 -213.563 178.087 -202.108C177.881 -199.645 177.777 -197.234 177.777 -194.891C177.584 -185.724 179.506 -176.636 183.396 -168.331C194.374 -145.94 218.693 -137.327 242.184 -129.008C251.482 -125.909 260.602 -122.297 269.501 -118.191C289.097 -108.614 305.556 -93.2502 321.464 -78.4028C329.599 -70.8068 338.027 -62.9009 346.834 -55.8906C379.787 -29.434 415.359 -21.2007 441.987 -33.8778C463.617 -44.2125 474.871 -59.9728 475.405 -80.866C476.836 -137.31 399.004 -214.165 364.362 -232.906ZM470.235 -81.0381C469.752 -62.2464 459.498 -47.9501 439.764 -38.58C403.019 -21.0973 361.811 -50.5166 350.143 -59.9556C341.525 -66.8453 333.132 -74.6825 325.066 -82.2268C308.865 -97.3325 292.13 -112.938 271.845 -122.859C262.774 -127.059 253.476 -130.751 243.993 -133.917C220.416 -142.271 198.166 -150.177 188.101 -170.639C183.913 -179.165 182.293 -189.586 183.31 -201.643C184.171 -212.133 186.757 -220.314 191.151 -226.636C198.045 -236.678 210.282 -243.257 229.378 -247.305C274.481 -256.713 321.457 -249.97 362.086 -228.255C394.436 -210.755 470.235 -135.949 470.235 -82.5539L470.235 -81.0381Z" fill="#FFFBEF"/>
<path d="M825.221 165.718C815.121 159.569 804.677 153.213 793.474 148.769C775.843 141.776 756.626 139.641 738.047 137.574C731.739 136.867 725.207 136.144 718.83 135.248C687.084 130.718 665.161 120.832 651.787 105.02C638.671 89.5177 634.052 69.0034 630.433 49.316C618.914 -13.6005 614.531 -77.6146 617.369 -141.513C618.127 -158.238 619.437 -177.546 625.642 -195.236C631.846 -212.925 642.497 -228.393 653.838 -244.084C674.709 -272.986 696.821 -301.424 719.726 -328.914L717.469 -328.914C694.874 -301.734 673.055 -273.641 652.442 -245.1C641.032 -229.288 630.26 -213.614 624.021 -195.804C617.782 -177.994 616.404 -158.427 615.663 -141.599C615.088 -128.968 614.807 -116.337 614.818 -103.705C614.813 -52.2565 619.474 -0.912883 628.744 49.695C632.191 68.6418 637.068 90.3617 650.46 106.191C664.127 122.347 686.412 132.424 718.589 137.022C724.983 137.918 731.532 138.659 737.857 139.365C756.333 141.415 775.429 143.533 792.837 150.44C803.901 154.815 814.277 161.137 824.325 167.251C831.219 171.471 838.406 175.863 845.782 179.549C850.978 182.167 856.372 184.373 861.914 186.146L861.914 184.424C856.644 182.676 851.511 180.54 846.558 178.034C839.25 174.262 832.115 169.921 825.221 165.718Z" fill="#FFFBEF"/>
<path d="M843.317 116.009C834.715 109.869 825.658 104.393 816.224 99.6284C801.644 92.7387 785.563 90.4478 770.018 88.2086C764.296 87.3819 758.384 86.4861 752.645 85.4527C725.362 80.3715 707.335 71.4321 695.891 57.3081C684.74 43.5286 680.621 24.8573 677.639 8.44247C667.634 -46.6232 663.853 -102.638 666.367 -158.548C667.109 -175.221 668.505 -192.996 673.589 -209.291C676.304 -217.75 679.765 -225.953 683.93 -233.801C687.859 -241.449 692.22 -248.907 696.442 -256.193L700.837 -263.737C707.731 -275.57 714.504 -287.162 721.036 -298.289C727.568 -309.416 732.859 -318.166 738.133 -326.589L739.547 -328.862L737.513 -328.862L736.582 -327.381C731.308 -318.941 726.017 -310.157 719.468 -299.047C712.919 -287.937 706.163 -276.328 699.269 -264.478L694.874 -256.933C690.634 -249.699 686.256 -242.224 682.31 -234.542C678.144 -226.598 674.684 -218.304 671.969 -209.756C666.798 -193.186 665.42 -175.307 664.678 -158.599C664.173 -147.415 663.926 -136.231 663.937 -125.046C663.941 -80.1643 667.979 -35.373 676.002 8.7871C679.035 25.4086 683.223 44.3381 694.633 58.4276C706.335 72.8789 724.69 82.0078 752.404 87.1751C758.16 88.2602 764.106 89.1215 769.845 89.9483C785.27 92.1703 801.213 94.4783 815.552 101.213C824.909 105.943 833.891 111.379 842.421 117.473C848.729 121.727 855.227 126.085 861.983 129.926L861.983 127.945C855.52 124.225 849.332 120.074 843.317 116.009Z" fill="#FFFBEF"/>
<path d="M861.673 66.1442C854.46 60.431 846.877 55.2005 838.974 50.4872C827.289 43.9075 814.191 41.3583 801.54 38.878C796.559 37.9134 791.423 36.8972 786.477 35.6743C772.396 32.2294 752.266 25.6325 739.943 9.59658C730.757 -2.46049 727.293 -18.4103 724.759 -32.4309C716.342 -79.6484 713.209 -127.655 715.418 -175.565C716.073 -190.137 717.314 -207.207 721.588 -223.311C723.771 -231.274 726.483 -239.083 729.705 -246.685C731.843 -251.852 734.1 -257.019 736.289 -261.963L739.012 -268.146C745.01 -281.926 750.336 -295.378 754.886 -307.952L757.005 -313.843C758.832 -319.01 760.59 -323.833 762.538 -328.897L760.694 -328.897C758.832 -324.039 757.143 -319.337 755.385 -314.428L753.265 -308.537C748.733 -295.998 743.407 -282.701 737.427 -268.921L734.704 -262.738C732.515 -257.76 730.257 -252.627 728.103 -247.425C724.857 -239.754 722.122 -231.877 719.916 -223.845C715.607 -207.586 714.349 -190.396 713.712 -175.738C713.263 -165.977 713.045 -156.217 713.057 -146.456C713.037 -108.142 716.428 -69.9028 723.191 -32.1898C725.759 -17.9797 729.292 -1.78882 738.702 10.5783C751.266 27.0448 771.776 33.6935 786.115 37.2762C791.096 38.5163 796.266 39.5153 801.264 40.4971C813.777 42.943 826.738 45.475 838.181 51.9169C846.017 56.5836 853.537 61.7622 860.69 67.4188L861.966 68.4006L861.966 66.2303L861.673 66.1442Z" fill="#FFFBEF"/>
<path d="M861.724 1.36328C852.797 -4.75134 842.611 -7.59326 832.77 -10.3492C828.633 -11.5032 824.376 -12.6918 820.326 -14.1042C808.417 -18.238 793.526 -24.7143 784.133 -38.0976C776.877 -48.4322 774.068 -61.6951 772.069 -73.3043C765.132 -112.673 762.56 -152.686 764.399 -192.618C764.868 -207.664 766.597 -222.644 769.57 -237.401C771.293 -245.221 773.396 -252.696 775.481 -259.62L776.739 -263.737C778.463 -269.455 780.186 -274.847 781.582 -280.255C785.049 -292.534 787.436 -305.093 788.717 -317.787C788.993 -320.75 789.166 -323.574 789.355 -326.399L789.51 -328.931L787.787 -328.931L787.632 -326.503C787.459 -323.712 787.27 -320.905 787.011 -317.89C785.708 -305.299 783.339 -292.842 779.928 -280.651C778.446 -275.277 776.808 -269.886 775.085 -264.185L773.844 -260.068C771.741 -253.179 769.57 -245.583 767.881 -237.677C764.901 -222.828 763.171 -207.755 762.71 -192.618C762.331 -184.247 762.147 -175.904 762.159 -167.591C762.12 -135.831 764.882 -104.131 770.414 -72.8564C772.517 -61.0578 775.378 -47.5884 782.823 -36.9609C792.595 -23.0092 808.675 -16.2916 819.844 -12.33C823.945 -10.9004 828.237 -9.69476 832.391 -8.54071C842.094 -5.81928 852.142 -3.01163 860.828 2.93079L862 3.77475L862 1.65619C861.924 1.54498 861.831 1.44614 861.724 1.36328Z" fill="#FFFBEF"/>
<path d="M854.21 -63.8481C845.592 -68.3093 834.993 -74.8201 828.358 -85.792C823.066 -94.4042 820.912 -104.98 819.309 -114.178C813.9 -145.696 811.923 -177.708 813.415 -209.652C813.996 -223.651 815.354 -237.608 817.482 -251.456C818.275 -256.52 819.206 -261.549 820.102 -266.407L821.222 -272.573C822.618 -280.393 823.532 -286.68 824.101 -292.364C825.393 -306.143 824.842 -317.942 822.377 -327.674L822.032 -328.914L820.309 -328.914L820.757 -327.192C823.067 -317.787 823.635 -305.764 822.36 -292.45C821.808 -286.818 820.895 -280.582 819.499 -272.797L818.379 -266.648C817.5 -261.773 816.569 -256.744 815.759 -251.663C813.623 -237.752 812.265 -223.732 811.691 -209.67C811.358 -202.711 811.197 -195.775 811.209 -188.863C811.17 -163.71 813.303 -138.602 817.586 -113.816C819.223 -104.463 821.412 -93.7323 826.875 -84.8273C833.769 -73.4937 844.748 -66.8106 853.486 -62.2462C856.244 -60.8166 859.139 -59.5421 861.983 -58.2847L861.983 -60.1794C859.311 -61.385 856.743 -62.5563 854.21 -63.8481Z" fill="#FFFBEF"/>
<path d="M861.914 -320.043L861.914 -325.659C861.5 -326.778 861.069 -327.863 860.604 -328.914L858.743 -328.914C860.006 -326.035 861.066 -323.071 861.914 -320.043Z" fill="#FFFBEF"/>
<path d="M860.604 -226.773C859.83 -209.838 860.268 -192.869 861.914 -175.996L861.914 -246.616C861.362 -240.053 860.897 -233.388 860.604 -226.773Z" fill="#FFFBEF"/>
<path d="M256.454 -233.215C240.943 -231.028 229.43 -226.463 220.985 -219.264C216.948 -215.94 213.668 -211.792 211.364 -207.099C209.061 -202.405 207.787 -197.274 207.628 -192.049C207.616 -189.444 207.982 -186.85 208.714 -184.35C211.764 -174.015 221.312 -165.179 234.945 -160.063C241.017 -157.952 247.217 -156.227 253.507 -154.896C258.953 -153.604 264.572 -152.261 269.897 -150.418C292.044 -142.77 310.037 -126.304 325.152 -111.508C327.1 -109.613 329.047 -107.684 330.995 -105.755C345.196 -91.7171 359.88 -77.1798 377.529 -67.362C394.643 -57.8541 430.957 -46.262 445.986 -70.4794C459.343 -92.0271 441.384 -124.53 429.475 -141.995C413.808 -164.99 392.696 -182.834 376.047 -195.821C365.167 -204.61 353.495 -212.371 341.181 -219.005C315.069 -232.327 285.486 -237.289 256.454 -233.215ZM340.422 -217.403C352.641 -210.82 364.221 -203.117 375.013 -194.392C391.558 -181.491 412.55 -163.75 428.096 -140.996C439.747 -123.892 457.395 -92.0788 444.555 -71.3579C430.216 -48.26 395.022 -59.611 378.408 -68.8432C360.915 -78.5578 346.317 -92.9574 332.201 -106.961L326.359 -112.731C311.106 -127.682 292.94 -144.269 270.466 -152.037C265.054 -153.897 259.384 -155.241 253.903 -156.55C247.682 -157.883 241.552 -159.609 235.548 -161.717C222.433 -166.626 213.247 -175.083 210.368 -184.884C206.611 -197.63 213.539 -210.72 222.088 -217.989C230.292 -224.965 241.598 -229.409 256.695 -231.545C285.395 -235.538 314.629 -230.6 340.422 -217.403Z" fill="#FFFBEF"/>
<path d="M291.2 -206.569C282.203 -205.605 275.12 -202.901 270.104 -198.543C267.798 -196.503 265.951 -193.998 264.685 -191.192C263.42 -188.386 262.764 -185.344 262.762 -182.266C262.752 -179.769 263.208 -177.292 264.106 -174.963L264.382 -174.291C267.915 -166.04 276.447 -160.959 283.013 -158.152C285.84 -156.929 288.838 -155.912 292.01 -154.827C295.732 -153.553 299.576 -152.244 303.419 -150.521C316.104 -144.803 327.186 -134.778 336.579 -125.821L339.181 -123.307C347.799 -115.022 356.64 -106.461 366.981 -100.777C377.684 -94.9037 398.004 -88.858 406.294 -103.413C409.741 -109.458 409.93 -117.192 406.828 -126.338C404.329 -133.693 399.762 -141.737 392.851 -150.883C383.655 -162.67 372.927 -173.178 360.949 -182.128C354.522 -187.278 347.679 -191.887 340.491 -195.908C334.847 -198.955 328.904 -201.414 322.757 -203.245C314.077 -205.92 305.019 -207.165 295.939 -206.931C294.371 -206.793 292.768 -206.69 291.2 -206.569ZM322.222 -201.574C328.257 -199.778 334.09 -197.366 339.63 -194.375C346.734 -190.406 353.496 -185.855 359.846 -180.767C371.695 -171.865 382.307 -161.428 391.403 -149.729C398.193 -140.721 402.692 -132.849 405.191 -125.615C408.138 -117.003 408 -109.699 404.812 -104.084C397.177 -90.701 377.96 -96.5573 367.808 -102.104C357.657 -107.65 348.85 -116.176 340.388 -124.375L337.768 -126.889C328.272 -135.949 317.086 -146.095 304.126 -151.916C300.213 -153.639 296.318 -155 292.561 -156.292C289.424 -157.359 286.477 -158.375 283.703 -159.564C277.429 -162.251 269.277 -167.074 265.968 -174.808L265.709 -175.428C264.375 -179.178 264.189 -183.24 265.174 -187.096C266.159 -190.952 268.272 -194.427 271.242 -197.079C275.981 -201.195 282.755 -203.762 291.389 -204.675C292.906 -204.847 294.474 -204.95 296.008 -205.019C304.896 -205.289 313.767 -204.108 322.274 -201.523L322.222 -201.574Z" fill="#FFFBEF"/>
<path d="M316.914 -172.034C316.98 -169.184 318.034 -166.444 319.896 -164.283C322.116 -161.961 324.679 -159.992 327.496 -158.444C328.651 -157.738 329.857 -156.998 330.943 -156.205C332.882 -154.581 334.734 -152.856 336.493 -151.038C339.785 -147.731 343.869 -143.649 348.006 -140.135C354.779 -134.416 359.656 -132.039 362.948 -132.883C363.811 -133.129 364.597 -133.587 365.236 -134.216C365.874 -134.845 366.344 -135.625 366.602 -136.483C367.964 -140.049 367.515 -144.097 365.223 -148.54C362.806 -152.813 359.716 -156.669 356.071 -159.96C349.751 -165.733 342.947 -170.953 335.734 -175.565L335.062 -176.013C332.806 -177.684 330.266 -178.933 327.565 -179.699C326.124 -180.102 324.605 -180.142 323.144 -179.818C321.683 -179.493 320.324 -178.813 319.189 -177.839C318.418 -177.089 317.816 -176.184 317.423 -175.183C317.031 -174.181 316.857 -173.108 316.914 -172.034ZM327.255 -177.891C329.738 -177.156 332.071 -175.99 334.149 -174.446L334.821 -173.998C341.942 -169.434 348.664 -164.277 354.917 -158.582C358.422 -155.42 361.396 -151.716 363.724 -147.61C364.932 -145.466 365.601 -143.06 365.671 -140.6C365.682 -139.369 365.46 -138.148 365.016 -137C364.853 -136.402 364.542 -135.855 364.111 -135.41C363.68 -134.964 363.144 -134.634 362.552 -134.451C359.88 -133.779 355.382 -136.173 349.16 -141.341C345.076 -144.785 341.008 -148.85 337.751 -152.123C335.934 -154.06 334 -155.884 331.96 -157.583C330.805 -158.393 329.582 -159.151 328.392 -159.874C325.732 -161.331 323.309 -163.184 321.205 -165.368C318.5 -168.521 317.517 -173.705 320.395 -176.427C321.329 -177.199 322.435 -177.735 323.62 -177.99C324.805 -178.245 326.034 -178.211 327.203 -177.891L327.255 -177.891Z" fill="#FFFBEF"/>
<path d="M194.753 597.912C215.435 605.112 235.617 614.981 255.075 624.524C275.464 634.531 296.439 644.866 318.413 652.083C369.394 669.1 417.652 663.761 447.485 637.769C458.86 627.865 467.426 615.378 475.716 603.114C499.396 568.338 520.199 534.01 514.753 496.478C513.626 489.751 512.06 483.106 510.065 476.584C508.858 472.295 507.6 467.851 506.618 463.441C502.637 445.373 503.05 426.392 503.447 408.031L503.602 400.349C504.067 373.272 503.188 345.851 500.999 318.843C500.155 308.353 499.052 298.174 494.95 288.976C491.279 280.725 485.367 273.715 480.128 267.807C463.048 248.567 436.799 226.899 408.793 232.962C387.336 237.595 369.601 258.644 361.345 289.217C359.105 297.485 357.45 306.08 355.83 314.399C352.659 330.814 349.367 347.78 341.56 362.627C326.048 392.356 291.458 413.939 249.112 420.363C219.089 424.893 188.135 422.396 158.198 419.984C150.787 419.381 143.135 418.761 135.604 418.262C103.961 416.161 72.2209 415.954 40.5535 417.642C27.5757 418.331 13.5293 419.485 0.189542 423.154L0.189542 424.876C13.5121 421.138 27.6273 419.984 40.6396 419.295C72.2209 417.61 103.875 417.817 135.431 419.915C142.946 420.415 150.598 421.035 157.992 421.638C188.032 424.049 219.089 426.564 249.336 421.982C292.216 415.489 327.255 393.579 343.042 363.42C350.97 348.262 354.279 331.158 357.485 314.623C359.088 306.338 360.759 297.777 362.965 289.561C371.066 259.608 388.318 239.042 409.12 234.53C436.317 228.656 462.031 249.945 478.801 268.858C483.971 274.662 489.762 281.535 493.347 289.527C497.328 298.501 498.414 308.474 499.258 318.808C501.43 345.765 502.309 373.117 501.844 400.159L501.689 407.824C501.292 426.288 500.879 445.356 504.911 463.648C505.877 468.109 507.135 472.553 508.358 476.876C510.331 483.331 511.88 489.908 512.995 496.564C518.355 533.476 497.725 567.477 474.233 601.977C466.012 614.034 457.498 626.539 446.296 636.305C416.997 661.883 369.308 667.102 318.913 650.274C297.128 643.005 276.119 632.688 255.799 622.715C236.307 613.156 216.159 603.269 195.305 596.035C129.813 573.35 60.4597 577.191 0.154989 587.422L0.154989 589.145C60.3218 579.189 129.589 575.314 194.753 597.912Z" fill="#FFFBEF"/>
<path d="M117.972 396.111C151.839 395.974 186.912 395.836 220.744 391.719C234.066 390.1 248.113 387.723 260.539 381.384C271.707 375.718 281.893 366.899 293.561 352.809C312.036 330.504 323.756 308.026 328.392 285.789C335.717 250.755 326.031 213.447 318.258 183.631C308.055 144.394 295.353 95.5461 271.81 53.932C264.916 41.7027 255.006 26.9586 239.667 21.4468C232.412 18.846 223.794 18.2776 213.298 19.7244C189.669 22.9453 167.402 33.969 145.858 44.6309C117.111 58.8754 89.9485 72.3104 59.6841 69.0378C37.4167 66.6264 17.6139 55.1033 0.241134 42.0127L0.241134 44.183C17.476 57.0841 37.2788 68.2971 59.4945 70.743C90.3276 74.0845 118.989 59.8916 146.686 46.181C168.108 35.5708 190.255 24.6161 213.608 21.4296C223.811 20.0516 232.17 20.6028 239.15 23.152C253.955 28.4571 263.624 42.874 270.38 54.8449C293.819 96.1834 306.573 144.98 316.655 184.131C324.394 213.86 334.011 250.875 326.772 285.496C322.188 307.406 310.606 329.694 292.303 351.793C280.79 365.693 270.776 374.357 259.832 379.92C247.647 386.121 233.773 388.533 220.606 390.048C186.808 394.165 151.839 394.303 118.041 394.441C78.9872 394.596 39.0367 394.768 0.241118 401.072L0.241118 402.794C38.9333 396.439 78.9181 396.284 117.972 396.111Z" fill="#FFFBEF"/>
<path d="M94.3778 366.141C121.178 365.641 148.874 365.125 175.761 361.973C179.88 361.508 183.206 361.043 186.257 360.526C194.257 359.382 202.052 357.097 209.403 353.739C218.986 349.158 227.982 341.837 237.737 330.676C253.249 312.832 263.434 294.35 267.726 275.73C274.068 248.171 268.088 219.889 260.832 190.9C251.853 154.488 240.736 116.181 220.33 82.7829C213.919 72.276 205.629 60.9424 192.944 56.5847C186.86 54.5005 179.639 54.0699 170.866 55.2411C151.408 57.8764 132.949 66.6265 115.198 75.1009C110.716 77.2367 106.098 79.4241 101.548 81.491C83.2787 89.7587 63.4758 96.993 42.3631 94.5644C27.1103 92.7558 13.3224 86.0555 0.1378 77.0127L0.1378 79.0968C13.2362 87.9329 26.938 94.4782 42.1563 96.3212C63.6826 98.8704 83.7612 91.4812 102.254 83.1101C106.821 81.0432 111.458 78.8385 115.939 76.7027C133.622 68.2972 151.908 59.5989 171.09 57.0153C179.57 55.8612 186.601 56.2746 192.375 58.2726C204.543 62.4409 212.592 73.4817 218.848 83.7302C239.133 116.939 250.198 155.091 259.143 191.365C266.313 220.147 272.241 248.206 266.037 275.403C261.814 293.73 251.853 311.97 236.427 329.591C226.845 340.563 218.02 347.763 208.662 352.241C201.457 355.526 193.82 357.765 185.981 358.889C182.948 359.389 179.639 359.837 175.64 360.319C148.823 363.454 121.178 363.971 94.4296 364.47C63.2 365.039 31.2984 365.659 0.24118 370.464L0.24118 372.187C31.1949 367.329 63.1311 366.709 94.3778 366.141Z" fill="#FFFBEF"/>
<path d="M71.7657 335.998C91.1722 335.258 111.251 334.483 130.778 332.329C134.225 331.968 136.845 331.623 139.395 331.244C145.914 330.357 152.287 328.62 158.354 326.077C166.368 322.632 174.106 316.845 181.983 308.525C194.529 295.297 203.233 280.467 207.128 265.671C213.022 243.28 208.593 220.061 203.561 198.152C195.15 161.653 183.844 133.336 169.005 111.616C163.507 103.573 156.527 94.926 146.375 91.7051C140.586 90.0959 134.513 89.7842 128.589 90.7922C113.319 92.8247 98.79 99.4044 84.7436 105.605C80.8141 107.328 76.7294 109.188 72.6792 110.876C58.0986 117.008 42.277 122.382 25.2145 120.108C16.3831 118.792 7.88377 115.805 0.172283 111.306L0.172283 113.27C7.83226 117.642 16.2345 120.561 24.956 121.882C42.4148 124.207 58.5122 118.765 73.2135 112.529C77.2464 110.807 81.3311 109.084 85.2779 107.241C99.2209 101.006 113.629 94.5643 128.641 92.5663C134.316 91.5934 140.137 91.8875 145.686 93.4275C155.337 96.4762 162.094 104.865 167.402 112.65C182.138 134.198 193.357 162.308 201.699 198.617C206.697 220.302 211.092 243.314 205.284 265.292C201.458 279.812 192.909 294.384 180.552 307.406C172.848 315.553 165.299 321.185 157.492 324.63C151.565 327.08 145.341 328.742 138.982 329.574C136.534 329.953 133.811 330.297 130.502 330.659C111.027 332.795 90.9998 333.57 71.6107 334.31C47.8955 335.223 23.7151 336.153 0.0860914 339.633L0.0860913 341.355C23.8012 337.721 48.0161 336.825 71.7657 335.998Z" fill="#FFFBEF"/>
<path d="M51.601 305.115C62.8381 304.392 74.4371 303.634 85.7948 302.514C88.0009 302.29 90.207 302.066 92.3958 301.774C97.4056 301.211 102.337 300.09 107.097 298.432C114.154 295.709 120.598 291.61 126.055 286.375C135.368 278.035 142.368 267.433 146.375 255.595C151.701 239.042 149.219 220.94 146.1 205.403C142.446 187.231 134.5 161.205 117.455 140.398C112.698 134.577 107.235 128.91 99.6 126.808C95.1865 125.74 90.6029 125.57 86.1223 126.309C75.092 127.756 64.5099 132.01 54.2724 136.127C50.8254 137.522 47.2406 138.951 43.7247 140.243C33.3838 144.067 21.0436 147.701 8.01402 145.635C5.35801 145.196 2.74143 144.545 0.189432 143.688L0.189432 145.411C2.65489 146.217 5.17857 146.833 7.73832 147.254C21.1642 149.389 33.7629 145.686 44.3279 141.776C47.7748 140.467 51.4458 139.038 54.9101 137.643C65.0614 133.56 75.5918 129.34 86.3464 127.928C90.5965 127.225 94.9442 127.377 99.1346 128.376C106.322 130.357 111.544 135.817 116.128 141.415C132.88 162.032 140.774 187.869 144.393 205.765C147.461 221.077 149.926 238.905 144.721 255.095C140.792 266.646 133.954 276.991 124.866 285.135C119.573 290.201 113.329 294.17 106.494 296.813C101.858 298.435 97.0534 299.527 92.1718 300.068C90.0002 300.344 87.8114 300.585 85.6225 300.809C74.2993 301.929 62.7002 302.669 51.4976 303.393C34.4524 304.495 17.1657 305.615 0.172152 308.112L0.172152 309.834C17.183 307.354 34.5213 306.217 51.601 305.115Z" fill="#FFFBEF"/>
<path d="M40.7947 272.785C42.3459 272.664 43.897 272.544 45.4309 272.389C48.954 272.124 52.4515 271.588 55.8925 270.787C60.9946 269.509 65.8195 267.308 70.1285 264.293C76.8697 259.56 82.2246 253.115 85.6398 245.622C89.6211 236.734 90.6034 225.969 88.6731 212.724C86.1568 195.499 77.6428 179.274 65.8887 169.18C62.2517 165.652 57.744 163.15 52.8246 161.929C49.7995 161.439 46.7153 161.439 43.6902 161.929C37.0929 162.956 30.6029 164.582 24.301 166.786C21.1987 167.768 17.9931 168.801 14.8564 169.645C10.0904 171.012 5.17814 171.804 0.223977 172.005L0.223977 173.728C5.32987 173.536 10.3937 172.727 15.3045 171.316C18.4929 170.472 21.7157 169.439 24.8352 168.44C31.0583 166.247 37.467 164.621 43.9831 163.582C46.8373 163.124 49.7464 163.124 52.6006 163.582C57.2247 164.764 61.4566 167.14 64.8717 170.472C76.3157 180.307 84.6228 196.188 87.0702 212.947C88.966 225.866 88.0182 236.321 84.1748 244.899C80.854 252.132 75.6521 258.342 69.1115 262.881C64.9677 265.774 60.3302 267.887 55.4271 269.116C52.0758 269.892 48.6711 270.416 45.2414 270.684C43.7074 270.821 42.1734 270.942 40.6223 271.062C27.1792 272.13 13.5292 273.233 0.13773 275.248L0.13773 276.97C13.5981 274.955 27.2826 273.853 40.7947 272.785Z" fill="#FFFBEF"/>
<path d="M13.9601 242.246C18.835 240.898 23.1449 238.015 26.2497 234.025C29.3546 230.034 31.0888 225.149 31.195 220.096C31.0962 215.036 29.3653 210.143 26.2599 206.146C23.1545 202.149 18.8406 199.26 13.9601 197.911C9.36893 196.924 4.63248 196.813 -2.30177e-05 197.583L-2.3093e-05 199.306C4.48356 198.51 9.07938 198.598 13.5293 199.564C18.0307 200.823 22.0061 203.499 24.8655 207.194C27.725 210.889 29.316 215.408 29.4026 220.078C29.3033 224.754 27.6964 229.273 24.8209 232.963C21.9455 236.653 17.955 239.317 13.4431 240.558C9.551 241.361 5.56644 241.622 1.60282 241.333C1.06852 241.333 0.534277 241.333 -2.49301e-05 241.333L-2.50053e-05 243.056C0.517004 243.056 1.03397 243.056 1.55106 243.056C5.70493 243.362 9.88126 243.089 13.9601 242.246Z" fill="#FFFBEF"/>
<path d="M331.081 611.399C331.458 615.105 332.491 618.715 334.132 622.061C337.475 628.072 344.472 632.189 354.555 633.963C379.959 638.458 409.051 628.571 430.388 608.126C448.278 591.263 461.721 567.27 470.683 536.852C476.491 517.095 478.921 499.75 478.094 483.852C477.456 471.416 474.75 459.067 472.165 447.13C470.442 439.551 468.805 431.714 467.633 423.929C465.082 406.911 465.013 389.342 464.944 372.359C464.944 362.024 464.944 351.449 464.272 341.011C463.651 329.97 462.376 318.326 457.257 307.888C451.708 296.572 441.746 288.58 431.405 287.064C399.762 282.448 389.042 320.204 382.63 342.767L382.337 343.801C378.597 356.909 373.099 369.276 367.774 381.247C364.43 388.739 360.88 396.49 357.95 404.431C338.061 456.672 327.582 512.083 327.582 562.533C327.494 578.887 328.664 595.224 331.081 611.399ZM369.239 381.936C374.582 369.879 380.114 357.494 383.889 344.266L384.181 343.233C390.438 321.22 400.917 284.36 431.043 288.769C440.919 290.216 450.346 297.829 455.654 308.646C460.635 318.808 461.893 330.245 462.548 341.114C463.134 351.449 463.186 362.11 463.22 372.376C463.22 389.411 463.358 407.032 465.926 424.187C467.098 432.024 468.822 439.878 470.476 447.492C473.062 459.376 475.733 471.606 476.371 483.956C477.181 499.63 474.785 516.785 469.029 536.369C460.187 566.495 446.83 590.23 429.388 606.903C408.362 626.952 379.856 636.667 354.986 632.275C348.368 631.103 339.647 628.227 335.769 621.217C334.225 618.054 333.256 614.642 332.908 611.14C323.377 549.701 333.115 474.586 359.587 405.034C362.483 397.162 365.93 389.394 369.256 381.936L369.239 381.936Z" fill="#FFFBEF"/>
<path d="M369.67 569.802C385.578 576.468 403.812 572.541 417.272 559.467C427.148 549.942 434.697 536.301 439.678 518.904C442.697 509.193 444.168 499.067 444.038 488.899C443.64 481.637 442.683 474.416 441.177 467.3C440.419 463.269 439.643 459.101 439.109 455.002C438.215 447.213 437.743 439.382 437.696 431.542L437.696 429.113C437.558 422.224 437.42 415.213 436.834 408.306C436.555 401.853 435.107 395.503 432.56 389.566C429.406 383.004 424.063 378.319 418.255 377.061C415.809 376.467 413.263 376.41 410.794 376.895C408.324 377.379 405.989 378.394 403.95 379.869C395.85 385.656 391.558 398.075 388.714 406.274C386.314 412.846 383.564 419.286 380.476 425.565C378.356 430.061 376.167 434.711 374.254 439.465C362.402 468.418 356.15 499.354 355.83 530.634C355.809 538.552 356.304 546.463 357.312 554.317C357.525 556.384 358.036 558.408 358.829 560.329C360.639 564.325 364.293 567.546 369.67 569.802ZM360.397 559.467C359.672 557.689 359.208 555.815 359.019 553.904C354.451 519.128 360.587 477.634 375.84 440.034C377.753 435.331 379.924 430.715 382.027 426.254C385.137 419.937 387.904 413.457 390.317 406.842C393.092 398.833 397.211 386.741 404.932 381.281C406.769 379.937 408.879 379.014 411.113 378.576C413.347 378.138 415.65 378.198 417.858 378.749C423.149 379.886 428.044 384.21 430.974 390.307C433.423 396.057 434.818 402.201 435.093 408.444C435.662 415.334 435.8 422.344 435.955 429.113L435.955 431.542C436.001 439.445 436.479 447.34 437.385 455.191C437.92 459.342 438.713 463.528 439.454 467.593C440.95 474.617 441.901 481.746 442.297 488.916C442.47 498.966 441.039 508.978 438.058 518.577C433.111 535.681 425.717 549.081 416.083 558.382C403.123 570.904 385.595 574.694 370.342 568.303C365.378 566.133 362.104 563.205 360.38 559.553L360.397 559.467Z" fill="#FFFBEF"/>
<path d="M410.465 480.89C410.027 477.628 409.145 474.44 407.845 471.416C406.38 467.834 404.536 465.905 402.209 465.491C399.883 465.078 397.763 466.129 395.315 468.626C388.266 475.791 384.061 486.264 383.458 498.114L383.458 499.027C383.458 505.641 387.043 512.083 392.075 514.253C396.056 515.976 400.348 514.805 404.139 510.912C409.827 505.038 411.309 488.003 410.465 480.89ZM392.696 512.686C388.163 510.705 384.871 504.349 385.181 498.2C385.75 486.78 389.8 476.704 396.539 469.832C398.573 467.782 400.331 466.904 401.916 467.196C403.502 467.489 405.036 469.074 406.259 472.071C407.491 474.949 408.332 477.978 408.758 481.079C408.906 482.487 408.976 483.901 408.965 485.316C408.965 493.309 407.138 505.331 402.864 509.706C399.538 513.099 396.022 514.133 392.696 512.686Z" fill="#FFFBEF"/>
<path d="M144.548 557.314C155.544 559.037 166.73 561.345 177.553 563.532C206.352 569.354 236.151 575.383 265.761 572.558C272.258 571.938 279.687 570.732 285.409 566.46C292.199 561.396 295.388 553.008 297.473 546.256C303.902 524.726 303.488 503.523 296.284 486.539C292.837 478.375 288.201 472.26 282.496 468.402C275.309 463.51 266.485 462.184 258.815 461.512C246.37 460.698 233.887 460.623 221.433 461.288C212.023 461.616 202.285 461.943 192.737 461.598C169.711 460.754 146.703 455.932 124.47 451.264C112.043 448.663 99.1862 445.959 86.4325 443.978C51.9628 438.621 23.4737 440.154 0.258328 448.646L0.258328 450.489C23.3875 441.877 51.7215 440.326 86.2429 445.683C98.945 447.664 111.768 450.351 124.16 452.952C146.565 457.637 169.556 462.46 192.72 463.287C202.337 463.631 212.092 463.286 221.554 462.976C233.939 462.314 246.352 462.383 258.729 463.183C266.175 463.82 274.723 465.095 281.565 469.78C286.943 473.449 291.355 479.288 294.698 487.159C301.73 503.781 302.144 524.571 295.818 545.722C293.871 552.216 290.838 560.277 284.444 565.031C279.066 569.044 271.931 570.198 265.657 570.784C236.358 573.591 206.628 567.58 177.949 561.793C167.126 559.588 155.923 557.332 144.893 555.575C96.8638 547.974 47.8535 549.141 0.24105 559.019L0.24105 560.742C47.7401 550.886 96.6344 549.725 144.548 557.314Z" fill="#FFFBEF"/>
<path d="M1.03402 519.972C7.92794 518.766 14.2531 515.717 20.3543 512.755C22.9893 511.716 25.3486 510.083 27.2483 507.984C28.2516 506.809 28.831 505.332 28.8935 503.789C28.956 502.246 28.4979 500.727 27.5929 499.475C25.3523 496.908 21.5951 497.201 18.2343 497.839L0.206751 501.197L0.206751 502.92L18.5446 499.475C21.44 498.941 24.6284 498.648 26.3002 500.56C26.9387 501.508 27.2446 502.642 27.1698 503.783C27.0949 504.923 26.6436 506.007 25.8866 506.864C24.1493 508.744 22.0111 510.21 19.6303 511.153C13.6327 514.064 7.42806 517.061 0.775415 518.215C0.585839 518.215 0.396325 518.215 0.20675 518.215L0.20675 519.937C0.465295 520.041 0.758264 520.024 1.03402 519.972Z" fill="#FFFBEF"/>
<path d="M39.3643 541.898C99.0597 537.894 159.018 542.922 217.21 556.815L219.382 557.332C227.879 559.381 236.617 561.483 245.579 561.379C256.54 561.224 266.157 557.349 271.983 550.735C275.55 546.652 278.118 541.209 280.031 533.613C284.082 517.474 281.186 503.557 272.241 496.34C266.295 491.552 258.453 490.191 250.87 489.209C239.099 487.693 227.052 486.643 215.401 485.626C191.548 483.542 166.902 481.389 143.48 475.102C137.413 473.38 131.415 471.537 125.435 469.677C119.454 467.816 113.371 465.853 107.321 464.217C72.2221 454.934 35.3245 454.828 0.172268 463.907L0.172268 465.629C35.1613 456.502 71.9167 456.567 106.873 465.818C112.94 467.437 119.024 469.367 124.918 471.244C130.812 473.122 136.982 475.051 143.032 476.687C166.609 483.008 191.289 485.179 215.246 487.263C226.879 488.279 238.909 489.33 250.646 490.863C257.954 491.793 265.571 493.102 271.173 497.615C283.599 507.639 279.79 527.327 278.36 533.131C276.515 540.452 274.068 545.653 270.673 549.529C265.192 555.781 256.041 559.45 245.562 559.588C236.944 559.691 228.189 557.607 219.709 555.592L217.555 555.075C159.192 541.149 99.0612 536.103 39.192 540.107C26.0219 540.748 12.9497 542.71 0.172264 545.963L0.172264 547.686C12.926 544.155 26.4036 542.777 39.3643 541.898Z" fill="#FFFBEF"/>
<path d="M55.8753 526.586C68.5229 526.212 81.1815 526.545 93.7919 527.585L147.409 531.03C159.749 531.805 175.088 532.752 187.446 525.776C189.147 524.948 190.576 523.651 191.565 522.039C193.513 518.353 191.255 513.995 188.497 511.136C180.535 502.902 168.953 500.439 157.733 498.045C155.234 497.511 152.752 496.977 150.322 496.323C138.051 493.343 126.193 488.296 114.612 483.422C100.272 477.342 85.433 471.072 69.8011 468.695C46.9994 465.25 24.4561 469.987 0.154994 477.1L0.154994 478.823C24.4389 471.692 46.9304 466.904 69.5424 470.331C85.0538 472.674 99.7035 478.943 113.957 484.937C125.538 489.829 137.534 494.91 149.943 497.925C152.373 498.51 154.889 499.044 157.388 499.647C168.35 501.99 179.69 504.418 187.274 512.273C189.617 514.684 191.582 518.301 190.066 521.16C189.22 522.475 188.027 523.53 186.619 524.209C174.727 530.978 159.663 530.014 147.547 529.239L93.9469 525.794C81.2561 524.752 68.5171 524.418 55.7891 524.795C36.8308 525.708 18.3205 529.738 0.172264 534.716L0.172264 536.438C18.3723 531.564 36.9514 527.482 55.8753 526.586Z" fill="#FFFBEF"/>
<path d="M30.7296 517.302C31.7464 516.837 32.7633 516.355 33.7802 515.872C38.2232 513.531 42.942 511.754 47.8266 510.585C52.3861 509.877 57.0064 509.64 61.6145 509.878C69.801 510.016 78.2633 510.154 84.7263 504.987L85.14 504.659L85.0366 504.143C83.4337 496.478 76.1778 490.07 65.6302 487.022C49.6362 482.388 32.8839 485.006 16.6315 487.556C11.2198 488.4 5.72195 489.278 0.224024 489.864L0.224024 491.586C5.82534 490.983 11.4094 490.122 16.8901 489.261C32.9357 486.746 49.5329 484.094 65.1476 488.675C74.8336 491.483 81.5551 497.167 83.2269 503.97C77.3154 508.414 69.6975 508.294 61.6316 508.156C56.925 507.918 52.2064 508.166 47.5508 508.897C42.5261 510.097 37.6693 511.913 33.0907 514.305C32.0739 514.787 31.0744 515.27 30.0575 515.735C20.4246 520.02 10.4441 523.477 0.224023 526.069L0.224023 527.792C10.6684 525.155 20.8728 521.646 30.7296 517.302Z" fill="#FFFBEF"/>
<path d="M767.794 207.935C751.725 203.936 735.455 200.786 719.054 198.496C704.767 196.257 689.996 193.932 675.726 190.435C639.154 181.496 612.922 165.718 597.773 143.516C587.811 128.927 582.727 111.358 579.073 96.0973C568.836 53.312 564.992 8.73534 561.287 -34.3601L556.116 -94.8865C552.238 -139.894 547.843 -190.912 568.026 -235.162C577.005 -254.832 590.431 -272.194 603.529 -288.988L634.552 -328.914L632.363 -328.914L602.15 -290.056C589.052 -273.176 575.488 -255.728 566.44 -235.885C554.496 -209.67 551.066 -181.198 551.066 -152.984C551.066 -133.142 552.79 -113.368 554.375 -94.7313L559.546 -34.2051C563.251 8.85585 567.095 53.6393 577.367 96.4935C581.055 111.909 586.191 129.668 596.325 144.481C611.716 167.045 638.292 183.063 675.295 192.106C689.634 195.551 704.439 197.945 718.779 200.201C734.824 202.733 751.421 205.369 767.346 209.606C802.372 219.062 834.737 236.481 861.914 260.504L861.914 258.213C834.773 234.522 802.584 217.326 767.794 207.935Z" fill="#FFFBEF"/>
<path d="M699.906 241.075C694.443 239.697 688.842 238.44 683.413 237.199C665.178 233.083 646.306 228.811 629.64 219.975C597.773 203.13 579.469 173.159 569.714 151.078C556.668 121.4 551.084 88.8976 546.896 60.753C542.208 29.3357 538.485 -2.77049 534.831 -33.8777C528.885 -85.2236 522.767 -138.309 524.663 -190.861C526.558 -243.412 536.727 -289.884 554.927 -328.88L553.031 -328.88C535.004 -289.832 524.869 -243.516 522.939 -190.93C522.698 -184.178 522.577 -177.426 522.577 -170.674C522.577 -124.65 527.92 -78.4888 533.125 -33.6021C536.71 -2.59819 540.433 29.5596 545.189 61.0113C549.395 89.2593 554.996 121.899 568.129 151.766C577.987 174.158 596.532 204.49 628.847 221.56C645.703 230.482 664.678 234.771 683.033 238.922C688.445 240.145 694.047 241.402 699.493 242.78C760.534 258.233 816.505 289.282 861.914 332.881L861.914 330.504C816.502 287.271 760.703 256.471 699.906 241.075Z" fill="#FFFBEF"/>
<path d="M85.5019 -136.277C100.415 -135.22 115.375 -134.996 130.312 -135.605C153.838 -136.139 178.174 -136.69 201.079 -130.334C236.238 -120.585 264.52 -95.8855 291.872 -71.7713C309.348 -56.4416 327.427 -40.6125 347.351 -28.5382C368.291 -15.8438 393.023 -6.1465 422.96 0.967144C435.989 4.06755 449.777 6.42729 462.445 2.68959C476.233 -1.46147 488.607 -13.4496 495.363 -29.3649C501.758 -44.3501 503.05 -61.0405 503.464 -75.3884C504.636 -116.314 499.258 -157.755 494.019 -197.819C488.435 -240.76 482.679 -285.009 485.057 -328.725L483.333 -328.725C480.955 -284.837 486.78 -240.536 492.313 -197.544C497.483 -157.532 502.912 -116.176 501.74 -75.3884C501.327 -61.2128 500.017 -44.7118 493.778 -29.985C487.211 -14.483 475.302 -2.92549 461.945 1.01887C449.071 4.87712 435.283 2.17289 423.356 -0.703571C393.609 -7.81722 369.032 -17.394 348.247 -29.985C328.461 -42.042 310.434 -57.7851 292.992 -73.0459C265.502 -97.16 237.082 -122.049 201.544 -131.902C178.398 -138.326 153.924 -137.775 130.261 -137.241C115.375 -136.633 100.467 -136.852 85.6053 -137.896C55.2831 -140.7 26.0232 -150.487 0.120537 -166.488L0.120537 -164.473C26.0527 -148.681 55.2602 -139.035 85.5019 -136.277Z" fill="#FFFBEF"/>
<path d="M470.407 -215.181C473.854 -227.617 471.286 -240.846 468.96 -252.507L453.724 -328.862L452.001 -328.862L467.305 -252.162C469.597 -240.691 472.2 -227.686 468.787 -215.664C465.582 -204.365 454.999 -193.565 442.832 -194.995C434.094 -196.062 427.2 -202.918 421.116 -208.981C362.431 -267.423 298.387 -308.193 234.29 -328.793L228.43 -328.793C294.043 -308.865 359.777 -267.63 419.909 -207.758C426.183 -201.505 433.301 -194.426 442.625 -193.272C455.672 -191.808 467.012 -203.245 470.407 -215.181Z" fill="#FFFBEF"/>
<path d="M34.8487 -187.33C22.9038 -193.207 11.324 -199.799 0.172297 -207.069L0.172297 -204.985C11.0928 -197.94 22.412 -191.534 34.0732 -185.797C50.2911 -177.649 67.819 -170.019 86.2775 -169.175C106.649 -168.262 125.625 -176.961 134.535 -191.36C139.223 -198.87 141.308 -207.654 143.325 -216.163C145.445 -225.103 147.634 -234.335 152.856 -241.845C157.492 -248.511 164.265 -253.454 170.832 -258.242C174.106 -260.637 177.484 -263.1 180.586 -265.787C189.497 -273.434 198.218 -286.732 193.461 -299.013C190.497 -306.66 183.12 -311.517 177.743 -314.514C165.678 -321.404 152.321 -325.59 138.844 -328.931L131.381 -328.931C147.134 -325.349 162.835 -320.922 176.898 -313.016C182.069 -310.157 189.1 -305.523 191.858 -298.41C196.287 -286.973 187.946 -274.399 179.466 -267.096C176.416 -264.478 173.055 -262.032 169.815 -259.655C163.145 -254.78 156.251 -249.751 151.442 -242.844C146.031 -235.058 143.807 -225.62 141.653 -216.577C139.671 -208.206 137.603 -199.559 133.036 -192.29C124.418 -178.407 105.994 -170.036 86.243 -170.915C68.2327 -171.724 50.8944 -179.286 34.8487 -187.33Z" fill="#FFFBEF"/>
<path d="M437.024 -271.109C434.387 -266.269 429.268 -263.72 425.442 -262.497C410.654 -257.519 395.936 -263.324 388.473 -267.233C377.925 -272.762 368.756 -280.858 359.898 -288.678L357.674 -290.642C341.956 -304.421 324.342 -318.665 304.953 -328.983L301.213 -328.983C321.619 -318.648 340.112 -303.818 356.537 -289.367L358.743 -287.403C367.688 -279.515 376.943 -271.35 387.68 -265.718C395.384 -261.687 410.603 -255.693 425.993 -260.878C430.112 -262.273 435.628 -265.046 438.54 -270.368C440.798 -274.485 441.022 -279.325 440.953 -283.907C440.671 -299.422 437.381 -314.736 431.267 -329L429.32 -329C435.55 -314.754 438.901 -299.417 439.178 -283.872C439.299 -279.428 439.092 -274.881 437.024 -271.109Z" fill="#FFFBEF"/>
<path d="M0.172299 -252.024L0.172299 -250.026C6.89825 -245.938 13.9478 -242.406 21.2505 -239.468C34.1938 -234.387 53.7037 -229.616 73.1617 -235.868C86.0471 -240.028 97.098 -248.51 104.443 -259.879C108.423 -265.644 110.725 -272.399 111.096 -279.394C111.389 -296.911 95.8428 -309.261 89.104 -313.739C78.56 -320.431 67.092 -325.544 55.0652 -328.914L48.9641 -328.914C62.752 -325.021 76.2813 -320.302 88.1561 -312.31C94.6536 -307.986 109.734 -296.188 109.372 -279.428C109.009 -272.752 106.802 -266.307 102.995 -260.809C95.7937 -249.825 85.056 -241.628 72.5586 -237.573C53.6003 -231.459 34.5041 -236.144 21.8193 -241.121C14.3084 -244.138 7.06683 -247.786 0.172299 -252.024Z" fill="#FFFBEF"/>
<path d="M0.1723 -284.63L0.1723 -282.908L4.63617 -281.564C16.1835 -278.119 30.4884 -273.848 43.9143 -277.43C45.407 -277.743 46.8023 -278.41 47.9817 -279.377C50.0154 -281.237 50.6014 -284.544 49.7052 -288.351C45.9308 -303.129 29.4715 -310.346 16.3213 -313.808C14.5117 -314.291 12.6848 -314.738 10.8579 -315.203C7.30756 -316.082 3.73987 -316.926 0.24121 -318.028L0.24121 -316.306C3.68817 -315.307 7.0318 -314.446 10.4271 -313.602C12.2712 -313.136 14.0808 -312.689 15.8904 -312.206C28.5925 -308.865 44.4831 -301.872 48.0334 -287.989C48.4127 -286.473 49.0847 -282.822 46.8787 -280.72C45.9025 -279.947 44.7566 -279.415 43.5351 -279.17C30.6606 -275.725 16.5453 -279.911 5.20483 -283.287L0.1723 -284.63Z" fill="#FFFBEF"/>
<path d="M230.516 -70.4105C225.07 -93.1294 187.911 -108.752 166.747 -114.419C143.894 -120.551 117.714 -121.412 88.9316 -116.985C68.3533 -113.816 32.1429 -104.17 21.0092 -75.1129C19.011 -69.824 18.0003 -64.2134 18.0275 -58.5601C18.0275 -40.4573 27.8169 -21.4934 44.414 -10.0392C62.9759 2.79296 88.2767 6.89251 115.646 1.51852C139.929 -3.26987 162.369 -14.397 184.068 -25.145C186.757 -26.4885 189.876 -27.8663 193.185 -29.3131C211.23 -37.2536 235.859 -48.1049 230.516 -70.4105ZM115.37 -0.169649C99.8586 2.87906 69.9906 5.49728 45.4482 -11.4515C24.301 -26.075 14.5116 -53.1689 22.6809 -74.4926C33.5044 -102.741 69.0427 -112.162 89.2591 -115.28C117.8 -119.672 143.738 -118.725 166.368 -112.748C187.049 -107.202 223.57 -91.9409 228.827 -70.0143C229.287 -68.1544 229.525 -66.2464 229.533 -64.3304C229.533 -47.2094 209.196 -38.2354 192.547 -30.8979C189.238 -29.4338 186.084 -28.0385 183.361 -26.695C161.766 -15.9814 139.447 -4.90634 115.37 -0.169649Z" fill="#FFFBEF"/>
<path d="M175.123 -64.8988C175.048 -67.4322 174.447 -69.9223 173.358 -72.2114C172.269 -74.5004 170.716 -76.5384 168.798 -78.196C156.734 -88.6511 130.881 -86.5325 115.37 -85.2751C113.233 -85.1029 111.32 -84.9479 109.7 -84.8445C97.6352 -84.1039 87.7768 -82.6743 78.8664 -78.1615C68.2153 -72.7702 61.2007 -63.2453 60.563 -53.3241L60.563 -51.9805C60.4975 -49.7013 61.0135 -47.4428 62.0625 -45.4179C64.4409 -41.0946 69.4217 -39.1828 73.5064 -37.9771C83.1407 -35.1523 94.1882 -33.7916 108.2 -33.671C115.818 -33.671 154.614 -34.0672 169.504 -49.6897C171.47 -51.6789 172.989 -54.0646 173.958 -56.6876C174.927 -59.3105 175.324 -62.11 175.123 -64.8988ZM108.166 -35.3934C94.2743 -35.514 83.4164 -36.8574 73.9373 -39.6306C70.1801 -40.7329 65.5956 -42.49 63.5964 -46.2449C62.5536 -48.3827 62.1241 -50.7676 62.3555 -53.1346C63.0794 -64.2616 71.8002 -72.5292 79.7282 -76.5425C88.3456 -80.9175 98.0144 -82.3127 109.872 -83.0533C111.509 -83.1395 113.44 -83.3117 115.577 -83.4839C130.812 -84.7069 156.303 -86.791 167.746 -76.8181C169.484 -75.3116 170.891 -73.4633 171.882 -71.3888C172.872 -69.3144 173.424 -67.0582 173.503 -64.7611C173.675 -62.2077 173.304 -59.6468 172.412 -57.2477C171.521 -54.8486 170.131 -52.6658 168.333 -50.8436C153.562 -35.4623 112.75 -35.359 108.166 -35.3934Z" fill="#FFFBEF"/>
<path d="M731.032 278.073C720.933 274.835 710.506 271.958 700.406 269.185C675.14 262.209 649.012 255.009 626.124 241.626C588.724 219.906 557.909 180.152 537.003 126.671C535.704 123.329 534.418 119.953 533.142 116.543C523.68 91.5674 513.908 65.7481 492.072 50.9523C480.61 43.1842 466.995 39.4809 455.137 36.6044C428.751 30.2256 401.882 26.0373 374.806 24.0823C359.794 22.9972 350.367 26.3558 346.782 34.0551C345.842 36.108 345.365 38.3428 345.386 40.6005C345.386 46.1467 347.902 51.7274 350.091 55.8957C371.273 96.0974 408.965 124.38 445.417 151.732C482.885 179.86 521.647 208.934 541.932 250.858C558.839 285.72 561.218 326.646 563.338 362.731C567.801 438.983 572.851 525.398 536.813 599.393C526.145 621.286 511.943 641.679 498.224 661.401C485.798 679.246 472.941 697.693 462.703 717.26C441.46 758.52 431.529 804.667 433.921 851.007C435.567 890.083 445.831 928.314 463.979 962.965L465.926 962.965C425.752 887.85 424.563 793.943 464.289 718.156C474.475 698.692 487.297 680.262 499.689 662.486C513.477 642.73 527.696 622.285 538.416 600.255C574.609 525.863 569.577 439.207 565.113 362.748C562.993 326.577 560.58 285.41 543.535 250.238C523.025 207.935 484.092 178.723 446.451 150.475C410.154 123.243 372.617 95.0811 351.659 55.2067C348.747 49.6949 345.265 41.5995 348.368 34.9165C351.625 27.9233 360.432 24.8918 374.702 25.9253C401.691 27.8715 428.473 32.0424 454.775 38.3957C466.478 41.2377 479.921 44.8893 491.141 52.5025C512.529 66.9882 522.164 92.5492 531.557 117.283C532.849 120.728 534.125 124.173 535.434 127.428C556.478 181.255 587.553 221.319 625.28 243.245C648.374 256.663 674.606 263.914 699.993 270.804C710.058 273.577 720.485 276.454 730.55 279.675C771.793 292.937 826.789 318.774 861.914 368.208L861.914 365.28C826.479 316.776 772.034 291.215 731.032 278.073Z" fill="#FFFBEF"/>
<path d="M720.054 302.652C710.609 300.465 700.872 298.777 691.444 297.157C673.123 294.005 654.165 290.75 636.81 283.499C606.856 270.976 579.831 246.036 554.203 207.246C545.344 193.846 537.123 179.687 529.161 166.011C518.217 147.185 506.894 127.721 493.761 109.877C471.769 79.9753 448.605 64.9902 424.925 65.3346L424.287 65.3346L424.115 65.9719C423.314 68.8843 422.908 71.891 422.908 74.9114C422.908 94.0649 439.023 111.324 455.43 125.999C513.167 177.672 569.749 235.684 592.706 310.506C601.202 338.186 605.442 368.983 606.494 410.408C608.872 507.467 591.086 582.496 552.083 639.802C546.361 648.19 540.019 656.372 533.935 664.278C528.472 671.374 522.801 678.694 517.596 686.17C486.712 730.385 469.339 783.729 467.426 840.431C465.796 882.377 473.269 924.179 489.331 962.965L491.365 962.965C454.258 874.467 464.03 765.919 519.044 687.152C524.214 679.728 529.885 672.408 535.348 665.328C541.467 657.405 547.792 649.206 553.531 640.766C592.757 583.151 610.647 507.794 608.252 410.373C607.235 368.828 602.96 337.893 594.464 310.041C571.386 234.84 514.597 176.552 456.688 124.759C438.316 108.344 420.34 88.6909 425.666 67.0916C448.519 67.0916 470.976 81.8011 492.433 110.962C505.497 128.72 516.804 148.149 527.713 166.924C535.693 180.704 543.931 194.793 552.824 208.262C578.677 247.345 605.908 272.492 636.206 285.152C653.734 292.472 672.796 295.762 691.203 298.932C700.613 300.551 710.333 302.221 719.726 304.409C776.749 317.938 827.128 351.229 861.914 398.368L861.914 395.491C826.92 348.945 776.734 316.101 720.054 302.652Z" fill="#FFFBEF"/>
<path d="M815.087 372.393C792.492 357.305 766.019 345.248 729.24 333.26C707.507 326.18 682.706 320.531 663.127 332.433C641.894 345.368 637.861 372.514 637.861 391.116C637.861 395.974 638.137 400.263 638.447 403.57C642.894 450.713 656.061 485.041 679.914 511.584C725.948 562.826 793.13 595.639 861.897 601.03L861.897 599.307C793.612 593.916 726.913 561.31 681.189 510.43C657.612 484.18 644.565 450.144 640.153 403.397C638.688 387.758 638.068 349.675 664.006 333.863C682.965 322.339 707.335 327.903 728.689 334.862C765.313 346.798 791.647 358.803 814.122 373.789C832.683 385.913 848.879 401.316 861.914 419.244L861.914 416.35C848.995 399.075 833.146 384.198 815.087 372.393Z" fill="#FFFBEF"/>
<path d="M727.999 369.224C723.082 368.101 718.049 367.564 713.005 367.622C690.272 368.535 673.83 390.29 671.072 410.787C670.677 413.727 670.481 416.69 670.487 419.657C670.487 435.676 676.105 452.952 687.515 472.14C723.501 532.666 791.561 572.592 861.914 574.849L861.914 573.126C792.147 570.87 724.673 531.271 688.997 471.261C675.657 448.87 670.349 429.113 672.779 410.976C675.45 391.185 691.255 370.189 713.074 369.31C717.985 369.254 722.885 369.78 727.672 370.878C782.591 382.346 830.802 414.921 861.914 461.581L861.914 458.498C830.477 412.583 782.493 380.595 727.999 369.224Z" fill="#FFFBEF"/>
<path d="M829.409 462.753C818.689 451.264 807.624 439.379 794.405 430.267C784.064 423.102 767.777 414.765 749.353 415.575C744.46 415.57 739.654 416.866 735.427 419.33C729.257 423.257 725.517 431.025 725.517 439.551C725.517 440.395 725.517 441.274 725.621 442.118C726.414 451.023 730.705 459.032 734.807 465.698C748.546 487.724 767.141 506.32 789.17 520.067C811.199 533.814 836.08 542.347 861.914 545.016L861.914 543.294C811.364 538.126 762.865 508.035 736.272 464.819C732.273 458.326 728.085 450.523 727.344 441.98C726.551 433.109 730.102 424.756 736.358 420.794C740.332 418.514 744.84 417.325 749.422 417.349C767.381 416.522 783.271 424.721 793.423 431.732C806.487 440.74 817.551 452.556 828.151 463.975L861.914 500.147L861.914 497.615L829.409 462.753Z" fill="#FFFBEF"/>
<path d="M819.964 491.879C823.825 468.592 786.804 455.828 772.224 452.866C771.397 452.584 770.514 452.508 769.652 452.647C768.79 452.785 767.974 453.132 767.277 453.658C766.858 454.159 766.541 454.738 766.346 455.362C766.151 455.985 766.081 456.642 766.14 457.292L766.14 457.447C766.14 465.939 770 474.93 776.808 482.767C784.305 491.38 801.264 506.985 811.778 504.022C816.069 502.799 818.827 498.717 819.964 491.879ZM778.101 481.544C771.569 474.017 767.932 465.422 767.863 457.43C767.731 456.53 767.96 455.613 768.501 454.881C769.242 454.14 770.69 454.313 771.948 454.554C785.133 457.241 821.929 469.78 818.327 491.586C817.31 497.718 814.983 501.335 811.433 502.351C801.264 505.193 783.943 488.365 778.101 481.63L778.101 481.544Z" fill="#FFFBEF"/>
<path d="M646.668 642.454C655.837 635.565 665.109 627.9 670.797 617.479C674.416 610.402 676.751 602.739 677.691 594.846C681.896 566.736 675.398 540.4 659.853 522.624C655.372 517.457 651.235 514.443 646.668 513.048C641.722 511.497 634.983 512.066 631.019 516.785C629.511 518.79 628.346 521.031 627.572 523.417C616.076 553.422 603.167 583.306 589.173 612.208L588.845 612.863C585.122 620.545 581.279 628.503 580.021 637.08C579.802 638.604 579.692 640.14 579.693 641.679C579.615 645.431 580.3 649.16 581.707 652.639C583.115 656.118 585.215 659.275 587.88 661.918C590.627 664.428 593.956 666.215 597.567 667.117C601.177 668.02 604.956 668.008 608.562 667.085C618.782 664.88 629.485 656.217 638.947 648.569C641.67 646.33 644.272 644.315 646.668 642.454ZM589.069 660.661C583.278 655.252 580.452 646.313 581.779 637.322C583.003 629.019 586.794 621.182 590.396 613.621L590.724 612.966C604.736 584.012 617.679 554.093 629.175 524.037C629.88 521.831 630.939 519.754 632.311 517.888C635.259 514.443 640.929 513.065 646.099 514.684C650.305 515.993 654.234 518.887 658.508 523.761C670.676 537.679 677.174 556.97 677.174 578.259C677.165 583.725 676.75 589.183 675.933 594.588C675.007 602.282 672.725 609.752 669.194 616.652C663.679 626.78 654.579 634.376 645.548 641.076C643.135 642.799 640.515 644.969 637.758 647.208C628.451 654.735 617.92 663.261 608.096 665.38C604.782 666.228 601.308 666.24 597.988 665.417C594.667 664.593 591.603 662.959 589.069 660.661Z" fill="#FFFBEF"/>
<path d="M648.202 616.549C653.579 609.263 656.699 595.277 657.336 585.373C657.799 581.166 657.121 576.912 655.372 573.057C654.411 571.072 652.891 569.41 650.999 568.275C649.108 567.14 646.925 566.581 644.72 566.667C642.409 567.006 640.231 567.958 638.412 569.423C630.209 575.383 625.848 585.114 622.091 594.553C620.078 599.014 618.909 603.809 618.644 608.695C618.622 610.912 619.056 613.111 619.919 615.154C620.906 617.508 622.511 619.552 624.565 621.068C626.619 622.584 629.046 623.516 631.587 623.766C634.741 624.065 637.92 623.56 640.826 622.298C643.731 621.036 646.269 619.058 648.202 616.549ZM631.708 622.044C629.453 621.854 627.295 621.046 625.47 619.709C623.645 618.372 622.226 616.557 621.367 614.465C618.765 608.436 621.16 601.357 623.625 595.191C627.296 585.976 631.536 576.502 639.36 570.818C640.935 569.527 642.828 568.682 644.841 568.372C646.703 568.32 648.539 568.812 650.125 569.788C651.711 570.764 652.977 572.182 653.769 573.867C655.112 576.649 655.745 579.72 655.613 582.806C655.613 583.581 655.613 584.408 655.613 585.269C655.096 593.33 652.338 608.04 646.823 615.516C645.067 617.802 642.754 619.602 640.106 620.745C637.457 621.887 634.561 622.334 631.691 622.044L631.708 622.044Z" fill="#FFFBEF"/>
<path d="M794.836 634.962C772.672 628.279 755.041 627.952 740.942 633.963C732.928 637.408 726.121 642.765 719.968 648.104C715.552 651.761 711.464 655.796 707.748 660.161C705.525 662.9 703.543 665.862 701.613 668.773C700.251 670.789 698.855 672.856 697.407 674.819C682.775 694.558 659.887 706.994 639.602 717.105L638.688 717.553C632.718 720.291 627.023 723.59 621.677 727.405C615.86 731.948 611.018 737.615 607.441 744.07C603.864 750.524 601.625 757.633 600.858 764.971C600.666 766.826 600.568 768.688 600.565 770.552C600.629 783.506 604.946 796.08 612.853 806.344C615.817 810.276 619.375 813.722 623.401 816.558C628.867 820.096 634.937 822.6 641.308 823.948C652.626 826.594 664.358 826.965 675.821 825.037C687.283 823.109 698.248 818.921 708.076 812.717C712.419 809.944 716.555 806.775 720.571 803.709C723.604 801.366 726.741 798.955 729.947 796.819C749.613 783.35 773.037 776.441 796.87 777.08C820.429 777.819 843.17 785.895 861.914 800.178L861.914 798.025C843.081 783.981 820.39 776.052 796.904 775.306C772.706 774.661 748.922 781.671 728.947 795.338C725.707 797.577 722.553 799.989 719.502 802.331C715.521 805.38 711.419 808.532 707.128 811.253C687.613 823.435 664.066 827.398 641.635 822.277C635.5 820.98 629.657 818.563 624.401 815.146C620.514 812.423 617.083 809.104 614.232 805.311C605.407 793.882 601.243 779.535 602.581 765.161C603.317 758.046 605.478 751.153 608.937 744.891C612.395 738.629 617.08 733.128 622.712 728.714C627.977 724.979 633.579 721.744 639.447 719.051L640.36 718.586C660.835 708.407 683.93 695.85 698.786 675.801C700.268 673.803 701.682 671.701 703.043 669.686C704.939 666.861 706.921 663.951 709.093 661.264C712.76 656.948 716.797 652.96 721.157 649.344C727.224 644.091 733.893 638.786 741.684 635.479C755.471 629.622 772.706 629.984 794.405 636.547C818.792 643.944 841.673 655.608 861.983 670.995L861.983 668.825C841.739 653.725 819.016 642.266 794.836 634.962Z" fill="#FFFBEF"/>
<path d="M861.914 692.009L861.914 689.753C849.162 678.951 834.411 670.758 818.499 665.638C797.593 659.162 775.774 659.489 757.074 666.551C738.375 673.613 722.984 687.221 708.127 700.259C695.563 711.352 682.551 722.806 667.522 730.333C665.351 731.418 663.093 732.434 660.904 733.433C656.422 735.338 652.084 737.566 647.926 740.099C640.67 744.784 635.862 750.916 634.431 757.324C634.11 758.777 633.948 760.262 633.949 761.75C633.949 772.085 641.825 781.3 650.356 785.262C659.18 789.361 670.142 789.998 683.878 787.208C698.717 784.177 713.022 778.337 726.862 772.705C742.683 766.263 759.039 759.58 776.119 757.203C794.353 754.654 812.881 757.048 828.582 759.718C840.06 761.682 851.676 764.248 861.914 769.036L861.914 767.142C851.694 762.491 840.215 759.959 828.875 758.013C813.036 755.326 794.405 752.845 775.877 755.498C758.643 757.927 742.132 764.644 726.207 771.12C712.419 776.736 698.217 782.54 683.533 785.537C670.176 788.259 659.56 787.656 651.08 783.711C641.963 779.474 633.621 768.916 636.12 757.703C637.465 751.709 641.997 745.956 648.874 741.512C652.954 739.021 657.21 736.834 661.611 734.967C663.817 733.968 666.092 732.934 668.298 731.832C683.533 724.218 696.615 712.678 709.282 701.517C724.001 688.512 739.236 675.077 757.695 668.119C776.153 661.16 797.456 660.884 818.017 667.24C834.158 672.482 849.085 680.904 861.914 692.009Z" fill="#FFFBEF"/>
<path d="M861.914 722.048L861.914 719.74C848.682 708.37 832.664 700.72 815.5 697.572C797.835 694.127 778.566 694.817 758.212 699.484C752.576 700.776 746.475 702.791 743.838 708.097C743.09 709.594 742.707 711.246 742.718 712.919C742.851 715.498 743.594 718.008 744.885 720.245C746.176 722.481 747.979 724.38 750.146 725.786C755.73 729.455 762.486 730.161 769.104 730.953C793.457 733.537 818.051 736.947 842.18 741.047C849.798 742.356 856.588 743.785 862 747.626L862 745.508C856.485 742.063 849.849 740.616 842.473 739.359C818.344 735.242 793.681 731.832 769.277 729.231C762.951 728.559 756.419 727.87 751.18 724.442C746.303 721.239 742.718 714.401 745.458 708.941C747.785 704.307 753.438 702.464 758.677 701.258C778.807 696.66 797.835 696.091 815.259 699.364C832.594 702.517 848.732 710.363 861.914 722.048Z" fill="#FFFBEF"/>
<path d="M861.914 856.708L861.914 854.245C847.711 840.452 828.881 832.433 809.089 831.75C787.287 830.906 764.054 838.347 743.717 852.729C740.115 855.261 736.582 858.017 733.187 860.687C728.361 864.459 723.38 868.352 718.158 871.659C707.679 878.29 694.908 883.441 677.984 887.867C655.958 893.62 601.134 903.507 567.922 870.936C550.205 853.573 543.069 828.615 536.175 804.26C531.47 787.759 524.283 779.216 514.821 778.837C508.203 778.579 501.499 782.971 497.725 790.033C494.519 796.078 493.64 803.037 492.951 810.254C491.606 824.596 490.928 838.347 490.917 851.507C490.917 895.687 498.621 932.926 513.874 962.914L515.752 962.914C495.829 924.211 488.745 873.123 494.674 810.409C495.363 803.123 496.191 796.63 499.258 790.842C502.705 784.349 508.789 780.318 514.77 780.508C523.387 780.852 530.057 788.982 534.573 804.777C541.467 829.184 548.722 854.435 566.767 872.124C600.616 905.298 656.164 895.308 678.466 889.486C695.58 885.008 708.489 879.789 719.123 873.072C724.432 869.627 729.464 865.786 734.29 861.996C737.737 859.344 741.184 856.588 744.751 854.073C764.795 839.932 787.649 832.594 809.089 833.404C829.478 834.282 848.953 842.98 861.914 856.708Z" fill="#FFFBEF"/>
<path d="M861.914 887.919L861.914 885.456C847.712 870.574 825.721 863.96 806.917 864.218C779.962 864.58 754.162 876.275 732.101 887.092C729.688 888.281 727.292 889.469 724.88 890.675C704.077 901.01 682.585 911.706 659.542 915.667C628.864 920.938 594.136 914.582 553.393 896.256C549.05 894.309 544.121 892.105 539.123 893.121C531.039 894.843 527.368 903.679 527.368 912.912C527.368 914.932 527.541 916.949 527.886 918.94C530.798 935.786 539.226 950.461 549.791 963L552.049 963C541.208 950.409 532.522 935.648 529.643 918.647C527.92 908.416 530.729 896.583 539.519 894.791C543.966 893.896 548.619 895.98 552.738 897.84C593.809 916.305 628.864 922.695 659.887 917.373C683.171 913.359 704.784 902.611 725.69 892.208C728.103 891.019 730.515 889.814 732.911 888.625C754.817 877.843 780.393 866.234 807.021 865.941C825.945 865.596 848.126 872.452 861.914 887.919Z" fill="#FFFBEF"/>
<path d="M861.914 941.366L861.914 938.369C847.833 919.043 822.825 908.64 801.04 906.797C771.534 904.282 742.08 913.394 716.09 921.42C688.807 929.86 660.576 938.645 631.863 936.492C630.14 936.371 628.52 936.216 626.848 936.044C621.075 935.26 615.227 935.208 609.441 935.889C602.547 936.991 594.326 941.056 591.654 948.962C591.099 950.568 590.825 952.258 590.844 953.957C590.866 957.091 591.622 960.176 593.05 962.965L594.981 962.965C593.781 960.973 593.008 958.753 592.711 956.446C592.414 954.139 592.6 951.796 593.257 949.565C595.687 942.331 603.598 938.61 609.699 937.629C615.338 936.977 621.036 937.041 626.658 937.818C628.382 937.973 630.105 938.128 631.708 938.266C660.766 940.384 689.152 931.6 716.59 923.125C742.442 915.133 771.741 906.091 800.868 908.571C822.997 910.397 848.471 921.214 861.914 941.366Z" fill="#FFFBEF"/>
<path d="M809.003 962.965L812.76 962.965C798.972 955.525 782.444 950.34 763.331 947.463C742.063 944.294 704.439 942.641 676.226 962.965L679.225 962.965C706.8 944.467 742.597 946.12 763.089 949.186C779.027 951.324 794.524 955.975 809.003 962.965Z" fill="#FFFBEF"/>
<path d="M39.9158 643.143C71.0419 640.491 107.735 638.527 143.807 643.85C208.852 653.461 267.312 685.291 323.842 716.088C339.354 724.563 357.037 734.157 369.273 748.591C385.302 767.538 391.144 792.978 396.298 815.473C405.311 854.796 415.532 899.373 406.173 941.659C404.932 947.274 403.329 952.906 401.796 958.349L400.503 962.914L402.226 962.914L403.381 958.832C404.932 953.354 406.535 947.687 407.793 942.038C417.221 899.373 406.966 854.59 397.9 815.094C392.73 792.393 386.818 766.677 370.514 747.471C358.071 732.796 340.284 723.116 324.601 714.573C267.933 683.707 209.351 651.79 143.997 642.23C107.804 636.874 70.9385 638.786 39.7089 641.507C26.3864 642.644 12.7365 644.16 0.068866 648.087L0.0688659 649.809C12.8054 645.813 26.5415 644.315 39.9158 643.143Z" fill="#FFFBEF"/>
<path d="M237.737 700.122C295.474 722.186 330.219 748.798 347.058 783.832C355.434 801.246 359.122 820.796 361.707 839.312C366.447 872.314 370.687 918.751 358.657 962.914L360.38 962.914C372.341 918.596 368.084 872.124 363.344 839.071C360.673 820.399 357.019 800.712 348.54 783.074C326.135 736.568 274.895 712.454 238.237 698.52C177.122 675.163 87.8112 653.133 0.0514698 675.163L0.0514697 676.886C87.6389 654.856 176.76 676.817 237.737 700.122Z" fill="#FFFBEF"/>
<path d="M102.806 702.464C136.527 707.538 169.512 716.665 201.044 729.644C256.971 752.725 293.164 784.176 308.676 823.155C315.57 840.81 318.189 860.05 320.206 878.273C323.153 905.109 325.376 934.993 318.741 962.931L320.464 962.931C327.083 934.855 324.825 904.954 321.86 878.084C319.844 859.774 317.293 840.397 310.227 822.535C294.716 783.108 258.16 751.33 201.647 728.077C169.992 715.033 136.872 705.867 103.012 700.776C61.3214 694.507 27.4204 696.935 0.120438 708.165L0.120438 710.026C27.2998 698.658 61.0973 696.195 102.806 702.464Z" fill="#FFFBEF"/>
<path d="M9.49623 778.096C13.9601 784.418 16.8383 791.876 19.6303 798.972C20.7506 801.866 21.9054 804.863 23.1636 807.757C34.8126 834.162 55.3345 855.665 81.176 868.541C89.1444 872.279 97.3082 875.585 105.632 878.445C113.147 881.184 120.902 883.992 128.21 887.454C137.7 892.193 146.907 897.478 155.786 903.283C172.452 913.738 189.669 924.538 209.369 927.242C216.297 928.009 223.274 928.263 230.24 928C235.255 928 240.443 927.862 245.493 928.207C255.524 928.878 269.139 931.807 277.033 941.831C281.519 947.934 283.748 955.404 283.341 962.965L285.064 962.965C285.432 955.022 283.039 947.196 278.291 940.815C270.001 930.291 255.885 927.242 245.545 926.536C240.374 926.192 235.204 926.26 230.137 926.329C223.263 926.59 216.378 926.342 209.541 925.589C190.203 922.936 173.141 912.223 156.647 901.871C147.721 896.031 138.462 890.717 128.916 885.955C121.54 882.51 113.733 879.617 106.184 876.878C97.9189 874.036 89.8126 870.753 81.8998 867.043C56.4486 854.34 36.2437 833.142 24.7836 807.119C23.5427 804.26 22.388 801.28 21.3367 798.404C18.5101 791.152 15.5803 783.643 10.9958 777.149C8.11354 773.047 4.46803 769.539 0.258436 766.814L0.258436 768.847C3.85316 771.369 6.97944 774.499 9.49623 778.096Z" fill="#FFFBEF"/>
<path d="M13.2535 851.73C15.3389 854.796 17.3898 858 19.3546 861.101C25.7487 871.108 32.3497 881.442 41.622 889.125C53.8587 899.27 69.4735 903.8 84.5712 908.175C91.1032 910.069 97.8593 912.033 104.236 914.41C115.393 918.888 126.241 924.101 136.707 930.015C153.631 939.092 171.176 948.462 190.428 951.115C192.048 951.339 193.702 951.529 195.357 951.701C201.975 952.424 208.852 953.182 214.315 956.868C216.603 958.431 218.506 960.492 219.882 962.897L221.795 962.897C220.277 959.919 218.044 957.362 215.297 955.456C209.541 951.494 202.475 950.719 195.615 949.978C193.892 949.806 192.358 949.617 190.738 949.393C171.779 946.792 154.407 937.473 137.62 928.482C127.068 922.527 116.128 917.285 104.874 912.791C98.428 910.379 91.6548 908.416 85.0883 906.504C70.1629 902.181 54.7205 897.702 42.7595 887.781C33.694 880.271 27.162 870.04 20.8541 860.222C18.872 857.122 16.8211 853.901 14.7185 850.818C10.5683 844.579 5.6847 838.86 0.172251 833.783L0.172251 836.108C5.07893 840.833 9.46443 846.071 13.2535 851.73Z" fill="#FFFBEF"/>
<path d="M63.5964 931.962C84.9676 940.264 106.856 948.79 123.608 962.965L126.193 962.965C109.079 947.825 86.3637 938.955 64.148 930.36C41.036 921.369 17.2864 912.119 0.10334 895.739L0.10334 898.098C17.4071 913.962 40.8464 923.057 63.5964 931.962Z" fill="#FFFBEF"/>
<path d="M52.3076 962.965C44.3212 956.088 35.5651 950.158 26.2141 945.293L23.784 943.95C15.6102 939.678 7.72297 934.879 0.172247 929.585L0.172247 931.703C7.48163 936.743 15.0841 941.344 22.9395 945.483L25.3868 946.826C34.0326 951.355 42.1877 956.763 49.7224 962.965L52.3076 962.965Z" fill="#FFFBEF"/>
<path d="M214.918 833.008C217.331 824.654 207.266 812.941 201.251 805.948L199.803 804.226C176.272 776.431 143.291 758.31 107.2 753.345C103.581 752.88 99.4104 752.535 95.8255 754.292C93.6903 755.488 91.9209 757.242 90.7065 759.366C89.4921 761.49 88.8786 763.904 88.9316 766.349C88.9144 766.676 88.9144 767.004 88.9316 767.331C89.4918 772.413 91.6873 777.176 95.1878 780.904C104.822 792.048 119.317 796.406 133.104 800.798C142.704 803.761 152.614 806.809 161.008 812.011C165.581 815.281 169.792 819.029 173.572 823.19C183.275 832.956 194.254 844.048 205.904 840.414C210.937 838.95 213.884 836.47 214.918 833.008ZM174.933 822.07C171.056 817.821 166.741 813.993 162.059 810.65C153.442 805.328 143.445 802.245 133.759 799.248C119.42 794.821 105.873 790.636 96.5666 779.87C93.315 776.422 91.2604 772.019 90.7068 767.314C90.4852 765.043 90.9233 762.756 91.9687 760.728C93.0141 758.699 94.6225 757.015 96.6011 755.877C99.7551 754.327 103.598 754.654 106.942 755.085C142.608 759.991 175.202 777.897 198.459 805.363L199.907 807.085C205.077 813.165 213.539 822.948 213.539 830.286C213.543 831.055 213.438 831.82 213.229 832.56C212.419 835.419 209.782 837.555 205.491 838.898C194.926 842.205 184.292 831.509 174.933 822.07Z" fill="#FFFBEF"/>
</g>
</svg>
