<svg width="258" height="732" viewBox="0 0 258 732" fill="none" xmlns="http://www.w3.org/2000/svg">
<g opacity="0.15">
<path d="M-332.431 613.733C-326.157 616.937 -319.849 620.399 -313.731 623.758C-297.927 632.37 -281.571 641.396 -264.009 646.976C-210.581 663.925 -148.018 645.891 -111.842 603.123C-96.0897 584.486 -85.4041 562.129 -75.9766 542.39C-62.6885 514.555 -51.8478 489.322 -54.0194 462.193C-55.0535 449.206 -59.1899 436.736 -63.1194 424.679C-66.513 415.209 -69.1806 405.495 -71.0991 395.621C-74.4427 375.779 -71.53 355.178 -68.7207 335.336C-66.2044 317.56 -63.5503 299.165 -65.2737 281.027C-69.548 235.021 -100.329 191.254 -159.428 147.263C-167.58 141.2 -176.042 135.206 -184.246 129.281C-220.835 103.134 -258.666 76.0919 -282.036 37.8538C-289.912 24.97 -296.1 10.8115 -302.097 -2.88186C-306.182 -12.2347 -310.405 -21.8285 -315.162 -31.1641C-320.918 -42.36 -330.363 -57.7241 -345.926 -61.7547C-355.939 -64.3555 -366.452 -61.6515 -375.414 -58.6716C-392.356 -53.022 -408.953 -45.1677 -424.999 -37.5718C-454.298 -23.7923 -484.511 -9.40991 -516.809 -8.9104C-547.504 -8.44535 -578.734 -20.864 -603.793 -43.204L-603.793 -36.3142C-578.372 -15.0077 -547.315 -3.26081 -516.723 -3.72586C-483.305 -4.24259 -452.54 -18.7971 -422.793 -32.8866C-406.885 -40.4136 -390.426 -48.1992 -373.777 -53.7455C-365.539 -56.4842 -355.939 -58.9989 -347.218 -56.7425C-333.672 -53.2976 -325.054 -39.1046 -319.763 -28.7872C-315.075 -19.6755 -310.887 -10.0816 -306.837 -0.797693C-300.77 12.9818 -294.514 27.3814 -286.448 40.5408C-262.526 79.6918 -224.265 107.044 -187.245 133.552C-179.075 139.391 -170.63 145.437 -162.513 151.483C-104.673 194.544 -74.615 237.105 -70.4097 281.561C-68.7897 299.13 -71.3404 317.199 -73.8567 334.681C-76.7177 354.989 -79.6821 376.02 -76.2179 396.689C-74.2525 406.82 -71.5216 416.787 -68.0486 426.505C-64.188 438.269 -60.1722 450.446 -59.1899 462.796C-57.1217 488.633 -67.6867 513.229 -80.6645 540.306C-89.9541 559.752 -100.485 581.799 -115.806 599.919C-150.672 641.155 -210.977 658.482 -262.457 642.188C-279.537 636.762 -295.669 627.926 -311.266 619.366C-317.402 615.921 -323.762 612.476 -330.104 609.272C-378.572 584.814 -431.9 571.502 -486.183 570.311C-526.019 569.329 -565.75 574.814 -603.828 586.553L-603.828 591.979C-515.396 564.231 -414.71 571.723 -332.431 613.733Z" fill="#FFFBEF"/>
<path d="M240.196 158.183C235.974 155.29 231.579 152.292 227.236 149.571C204.721 135.477 179.367 126.531 152.988 123.373C141.734 122.047 130.049 121.65 118.743 121.426C91.9596 120.703 66.6417 120.031 44.8741 107.182C7.52621 85.1347 -1.28081 36.9754 -3.22835 10.2259C-4.27965 -4.39753 -4.15901 -19.4171 -4.03838 -33.9545C-3.8488 -57.328 -3.64198 -81.5111 -8.34709 -104.919C-9.48457 -110.586 -10.9151 -116.27 -12.3111 -121.765C-14.7317 -130.524 -16.5854 -139.43 -17.8607 -148.428C-20.0668 -167.047 -17.2231 -186.115 -13.8278 -205.63C-10.9151 -222.389 -7.83005 -238.735 -2.02192 -254.289C9.24966 -284.517 30.3623 -310.182 50.7684 -334.985C60.5578 -346.904 70.5712 -359.099 79.6195 -371.897L73.2943 -371.897C64.901 -360.305 55.7493 -349.178 46.7871 -338.275C26.1053 -313.127 4.71692 -287.118 -6.8649 -256.08C-12.8282 -240.13 -15.9649 -223.526 -18.9293 -206.508C-21.5317 -191.54 -23.8067 -176.814 -23.8067 -162.207C-23.8209 -157.396 -23.5504 -152.587 -22.9967 -147.808C-21.6984 -138.589 -19.8044 -129.464 -17.3265 -120.49C-15.9477 -115.064 -14.5344 -109.449 -13.4141 -103.903C-8.81242 -81.0289 -9.01924 -57.1213 -9.20882 -33.989C-9.32945 -19.3655 -9.45015 -4.22535 -8.38158 10.6048C-6.3651 38.3533 2.87277 88.3901 42.2544 111.626C65.1767 125.147 92.3388 125.888 118.605 126.594C129.79 126.904 141.355 127.214 152.385 128.506C177.998 131.576 202.615 140.263 224.478 153.946C228.752 156.633 233.096 159.596 237.266 162.455C243.988 167.054 250.796 171.722 257.948 175.632L257.948 169.672C251.864 166.158 245.987 162.093 240.196 158.183Z" fill="#FFFBEF"/>
<path d="M257.724 602.09C223.448 575.322 182.139 559.066 138.804 555.291C131.738 554.706 124.189 554.413 116.898 556.342C103.989 559.787 94.045 569.346 85.2036 579.216C81.4464 583.436 77.7064 587.828 74.1043 592.065C62.0399 606.31 49.424 621.054 33.7748 631.354C26.5652 635.872 19.0824 639.939 11.3695 643.532C-1.19466 649.715 -14.1897 656.105 -24.2549 666.371C-38.9389 681.356 -44.3335 701.664 -46.2637 716.046C-47.0033 721.527 -47.3776 727.051 -47.3841 732.582C-47.3841 765.515 -34.1305 796.312 -10.9668 815.672C18.6943 840.441 63.7979 842.197 91.7183 819.702C100.181 812.813 107.006 804.2 113.607 795.795C122.224 784.823 130.376 774.454 141.854 767.926C166.879 753.664 198.988 762.896 227.115 772.645L257.914 783.325L257.914 777.864L228.821 767.771C199.608 757.643 166.19 748.118 139.286 763.43C126.946 770.475 118.105 781.723 109.539 792.609C103.128 800.773 96.4751 809.23 88.4781 815.672C62.4018 836.686 20.1765 834.946 -7.64049 811.71C-32.924 790.61 -46.0741 753.337 -41.145 716.735C-39.3181 703.128 -34.2511 684.009 -20.5666 669.988C-11.1219 660.36 0.907975 654.486 13.6617 648.165C21.556 644.485 29.2117 640.314 36.5841 635.677C52.8537 624.964 65.642 609.944 77.9477 595.407C81.5497 591.187 85.2553 586.794 88.978 582.661C97.2679 573.377 106.54 564.386 118.122 561.337C124.745 559.904 131.563 559.601 138.287 560.441C180.617 564.137 220.97 580.009 254.467 606.137L257.914 608.859L257.914 602.228C257.914 602.228 257.793 602.124 257.724 602.09Z" fill="#FFFBEF"/>
<path d="M-346.408 795.382C-352.389 760.778 -382.601 729.326 -406.627 712.894C-436.202 692.707 -470.982 682.011 -501.091 674.225C-510.484 671.797 -521.221 669.644 -530.063 674.828C-536.715 678.755 -540.404 686.041 -542.558 691.174C-546.807 701.397 -548.969 712.366 -548.918 723.435C-548.918 746.93 -539.352 770.751 -517.895 782.79C-510.191 787.131 -501.642 789.543 -493.387 791.868C-489.699 792.919 -485.89 793.986 -482.236 795.209C-467.072 800.347 -453.131 808.556 -441.286 819.323C-438.666 821.718 -436.116 824.319 -433.513 826.833C-425.154 835.153 -416.502 843.765 -405.024 847.64C-391.236 852.308 -375.604 848.846 -363.35 838.391C-350.286 827.143 -343.789 810.694 -346.408 795.382ZM-403.421 842.714C-413.762 839.269 -421.604 831.432 -429.911 823.165C-432.479 820.598 -435.082 817.997 -437.856 815.5C-450.228 804.252 -464.791 795.678 -480.633 790.318C-484.408 789.043 -488.285 787.958 -492.025 786.873C-500.367 784.53 -508.243 782.308 -515.413 778.261C-544.592 761.863 -549.762 721.317 -537.818 693.172C-534.768 685.99 -531.579 681.701 -527.477 679.272C-520.342 675.069 -510.811 677.033 -502.435 679.272C-472.74 686.954 -438.494 697.461 -409.591 717.166C-386.376 733.012 -357.232 763.241 -351.544 796.26C-349.218 809.764 -354.991 824.405 -366.797 834.446C-377.621 843.713 -391.322 846.814 -403.421 842.714Z" fill="#FFFBEF"/>
<path d="M-239.638 -275.906C-281.321 -298.192 -329.519 -305.112 -375.794 -295.455C-396.251 -291.08 -409.402 -283.846 -417.157 -272.667C-422.104 -265.554 -424.965 -256.563 -425.913 -245.108C-426.119 -242.645 -426.223 -240.234 -426.223 -237.891C-426.416 -228.724 -424.494 -219.636 -420.604 -211.331C-409.626 -188.94 -385.307 -180.327 -361.816 -172.008C-352.518 -168.909 -343.398 -165.297 -334.499 -161.191C-314.903 -151.614 -298.444 -136.25 -282.536 -121.403C-274.401 -113.807 -265.973 -105.901 -257.166 -98.8906C-224.213 -72.434 -188.641 -64.2007 -162.013 -76.8778C-140.383 -87.2125 -129.129 -102.973 -128.595 -123.866C-127.164 -180.31 -204.996 -257.165 -239.638 -275.906ZM-133.765 -124.038C-134.248 -105.246 -144.502 -90.9501 -164.236 -81.58C-200.981 -64.0973 -242.189 -93.5166 -253.857 -102.956C-262.475 -109.845 -270.868 -117.682 -278.934 -125.227C-295.135 -140.333 -311.87 -155.938 -332.155 -165.859C-341.226 -170.059 -350.524 -173.751 -360.007 -176.917C-383.584 -185.271 -405.834 -193.177 -415.899 -213.639C-420.087 -222.165 -421.707 -232.586 -420.69 -244.643C-419.829 -255.133 -417.243 -263.314 -412.849 -269.636C-405.955 -279.678 -393.718 -286.257 -374.622 -290.305C-329.519 -299.713 -282.543 -292.97 -241.914 -271.255C-209.564 -253.755 -133.765 -178.949 -133.765 -125.554L-133.765 -124.038Z" fill="#FFFBEF"/>
<path d="M221.221 122.718C211.121 116.569 200.677 110.213 189.474 105.769C171.843 98.7764 152.626 96.6406 134.047 94.5736C127.739 93.8674 121.207 93.1441 114.83 92.2484C83.0837 87.7184 61.1609 77.8316 47.7867 62.0196C34.671 46.5177 30.0521 26.0034 26.4328 6.31597C14.9137 -56.6005 10.5313 -120.615 13.3688 -184.513C14.1271 -201.238 15.437 -220.546 21.6415 -238.236C27.8461 -255.925 38.4972 -271.393 49.8377 -287.084C70.7091 -315.986 92.8214 -344.424 115.726 -371.914L113.469 -371.914C90.8738 -344.734 69.0545 -316.641 48.4417 -288.1C37.0322 -272.288 26.2605 -256.614 20.0214 -238.804C13.7824 -220.994 12.4036 -201.427 11.6625 -184.599C11.088 -171.968 10.8066 -159.337 10.818 -146.705C10.8125 -95.2565 15.4735 -43.9129 24.7438 6.69497C28.1907 25.6418 33.0682 47.3617 46.4597 63.1909C60.1269 79.3473 82.4115 89.4235 114.589 94.0225C120.983 94.9181 127.532 95.6588 133.857 96.365C152.333 98.4147 171.429 100.533 188.837 107.44C199.901 111.815 210.277 118.137 220.325 124.251C227.219 128.471 234.406 132.863 241.782 136.549C246.978 139.167 252.372 141.373 257.914 143.146L257.914 141.424C252.644 139.676 247.511 137.54 242.558 135.034C235.25 131.262 228.115 126.921 221.221 122.718Z" fill="#FFFBEF"/>
<path d="M239.317 73.0088C230.715 66.8693 221.658 61.3933 212.224 56.6284C197.644 49.7387 181.563 47.4478 166.018 45.2086C160.296 44.3819 154.384 43.4861 148.645 42.4527C121.362 37.3715 103.335 28.4321 91.8907 14.3081C80.7398 0.528618 76.6206 -18.1427 73.639 -34.5575C63.6343 -89.6232 59.8534 -145.638 62.3674 -201.548C63.1085 -218.221 64.5046 -235.996 69.5888 -252.291C72.304 -260.75 75.7646 -268.953 79.9297 -276.801C83.8593 -284.449 88.2197 -291.907 92.4422 -299.193L96.8371 -306.737C103.731 -318.57 110.504 -330.162 117.036 -341.289C123.568 -352.416 128.859 -361.166 134.133 -369.589L135.547 -371.862L133.513 -371.862L132.582 -370.381C127.308 -361.941 122.017 -353.157 115.468 -342.047C108.919 -330.937 102.163 -319.328 95.2687 -307.478L90.8738 -299.933C86.634 -292.699 82.2564 -285.224 78.3097 -277.542C74.1438 -269.598 70.6836 -261.304 67.9688 -252.756C62.7983 -236.186 61.4195 -218.307 60.6784 -201.599C60.1728 -190.415 59.9258 -179.231 59.9373 -168.046C59.9411 -123.164 63.9788 -78.373 72.0017 -34.2129C75.035 -17.5914 79.2231 1.3381 90.6325 15.4276C102.335 29.8789 120.69 39.0078 148.404 44.1751C154.16 45.2602 160.106 46.1215 165.845 46.9483C181.27 49.1703 197.213 51.4783 211.552 58.213C220.909 62.9431 229.891 68.3788 238.421 74.4728C244.729 78.7273 251.227 83.085 257.983 86.926L257.983 84.9453C251.52 81.2248 245.332 77.0738 239.317 73.0088Z" fill="#FFFBEF"/>
<path d="M257.673 23.1442C250.46 17.431 242.877 12.2005 234.974 7.48724C223.289 0.90753 210.191 -1.64166 197.54 -4.12198C192.559 -5.08655 187.423 -6.10276 182.477 -7.32569C168.396 -10.7706 148.266 -17.3675 135.943 -33.4034C126.757 -45.4605 123.293 -61.4103 120.759 -75.4309C112.342 -122.648 109.209 -170.655 111.418 -218.565C112.073 -233.137 113.314 -250.207 117.588 -266.311C119.771 -274.274 122.483 -282.083 125.705 -289.685C127.843 -294.852 130.1 -300.019 132.289 -304.963L135.012 -311.146C141.01 -324.926 146.336 -338.378 150.886 -350.952L153.005 -356.843C154.832 -362.01 156.59 -366.833 158.538 -371.897L156.694 -371.897C154.832 -367.039 153.143 -362.337 151.385 -357.428L149.265 -351.537C144.733 -338.998 139.407 -325.701 133.427 -311.921L130.704 -305.738C128.515 -300.76 126.257 -295.627 124.103 -290.425C120.857 -282.754 118.122 -274.877 115.916 -266.845C111.607 -250.586 110.349 -233.396 109.712 -218.738C109.263 -208.977 109.045 -199.217 109.057 -189.456C109.037 -151.142 112.428 -112.903 119.191 -75.1898C121.759 -60.9797 125.292 -44.7888 134.702 -32.4217C147.266 -15.9552 167.776 -9.30649 182.115 -5.72382C187.096 -4.48368 192.266 -3.48468 197.264 -2.50287C209.777 -0.0570089 222.738 2.47497 234.181 8.91687C242.017 13.5836 249.537 18.7622 256.69 24.4188L257.966 25.4006L257.966 23.2303L257.673 23.1442Z" fill="#FFFBEF"/>
<path d="M257.724 -41.6367C248.797 -47.7513 238.611 -50.5933 228.77 -53.3492C224.633 -54.5032 220.376 -55.6918 216.326 -57.1042C204.417 -61.238 189.526 -67.7143 180.133 -81.0976C172.877 -91.4322 170.068 -104.695 168.069 -116.304C161.132 -155.673 158.56 -195.686 160.399 -235.618C160.868 -250.664 162.597 -265.644 165.57 -280.401C167.293 -288.221 169.396 -295.696 171.481 -302.62L172.739 -306.737C174.463 -312.455 176.186 -317.847 177.582 -323.255C181.049 -335.534 183.436 -348.093 184.717 -360.787C184.993 -363.75 185.166 -366.574 185.355 -369.399L185.51 -371.931L183.787 -371.931L183.632 -369.503C183.459 -366.712 183.27 -363.905 183.011 -360.89C181.708 -348.299 179.339 -335.842 175.928 -323.651C174.446 -318.277 172.808 -312.886 171.085 -307.185L169.844 -303.068C167.741 -296.179 165.57 -288.583 163.881 -280.677C160.901 -265.828 159.171 -250.755 158.71 -235.618C158.331 -227.247 158.147 -218.904 158.159 -210.591C158.12 -178.831 160.882 -147.131 166.414 -115.856C168.517 -104.058 171.378 -90.5884 178.823 -79.9609C188.595 -66.0092 204.675 -59.2916 215.844 -55.33C219.945 -53.9004 224.237 -52.6948 228.391 -51.5407C238.094 -48.8193 248.142 -46.0116 256.828 -40.0692L258 -39.2253L258 -41.3438C257.924 -41.455 257.831 -41.5539 257.724 -41.6367Z" fill="#FFFBEF"/>
<path d="M250.21 -106.848C241.592 -111.309 230.993 -117.82 224.358 -128.792C219.066 -137.404 216.912 -147.98 215.309 -157.178C209.9 -188.696 207.923 -220.708 209.415 -252.652C209.996 -266.651 211.354 -280.608 213.482 -294.456C214.275 -299.52 215.206 -304.549 216.102 -309.407L217.222 -315.573C218.618 -323.393 219.532 -329.68 220.101 -335.364C221.393 -349.143 220.842 -360.942 218.377 -370.674L218.032 -371.914L216.309 -371.914L216.757 -370.192C219.067 -360.787 219.635 -348.764 218.36 -335.45C217.808 -329.818 216.895 -323.582 215.499 -315.797L214.379 -309.648C213.5 -304.773 212.569 -299.744 211.759 -294.663C209.623 -280.752 208.265 -266.732 207.691 -252.67C207.358 -245.711 207.197 -238.775 207.209 -231.863C207.17 -206.71 209.303 -181.602 213.586 -156.816C215.223 -147.463 217.412 -136.732 222.875 -127.827C229.769 -116.494 240.748 -109.811 249.486 -105.246C252.244 -103.817 255.139 -102.542 257.983 -101.285L257.983 -103.179C255.311 -104.385 252.743 -105.556 250.21 -106.848Z" fill="#FFFBEF"/>
<path d="M257.914 -363.043L257.914 -368.659C257.5 -369.778 257.069 -370.863 256.604 -371.914L254.743 -371.914C256.006 -369.035 257.066 -366.071 257.914 -363.043Z" fill="#FFFBEF"/>
<path d="M256.604 -269.773C255.83 -252.838 256.268 -235.869 257.914 -218.996L257.914 -289.616C257.362 -283.053 256.897 -276.388 256.604 -269.773Z" fill="#FFFBEF"/>
<path d="M-347.546 -276.215C-363.057 -274.028 -374.57 -269.463 -383.015 -262.264C-387.052 -258.94 -390.332 -254.792 -392.636 -250.099C-394.939 -245.405 -396.213 -240.274 -396.372 -235.049C-396.384 -232.444 -396.018 -229.85 -395.286 -227.35C-392.236 -217.015 -382.688 -208.179 -369.055 -203.063C-362.983 -200.952 -356.783 -199.227 -350.493 -197.896C-345.047 -196.604 -339.428 -195.261 -334.103 -193.418C-311.956 -185.77 -293.963 -169.304 -278.848 -154.508C-276.9 -152.613 -274.953 -150.684 -273.005 -148.755C-258.804 -134.717 -244.12 -120.18 -226.471 -110.362C-209.357 -100.854 -173.043 -89.262 -158.014 -113.479C-144.657 -135.027 -162.616 -167.53 -174.525 -184.995C-190.192 -207.99 -211.304 -225.834 -227.953 -238.821C-238.833 -247.61 -250.505 -255.371 -262.819 -262.005C-288.931 -275.327 -318.514 -280.289 -347.546 -276.215ZM-263.578 -260.403C-251.359 -253.82 -239.779 -246.117 -228.987 -237.392C-212.442 -224.491 -191.45 -206.75 -175.904 -183.996C-164.253 -166.892 -146.605 -135.079 -159.445 -114.358C-173.784 -91.26 -208.978 -102.611 -225.592 -111.843C-243.085 -121.558 -257.683 -135.957 -271.799 -149.961L-277.641 -155.731C-292.894 -170.682 -311.06 -187.269 -333.534 -195.037C-338.946 -196.897 -344.616 -198.241 -350.097 -199.55C-356.318 -200.883 -362.448 -202.609 -368.452 -204.717C-381.567 -209.626 -390.753 -218.083 -393.632 -227.884C-397.389 -240.63 -390.461 -253.72 -381.912 -260.989C-373.708 -267.965 -362.402 -272.409 -347.305 -274.545C-318.605 -278.538 -289.371 -273.6 -263.578 -260.403Z" fill="#FFFBEF"/>
<path d="M-312.8 -249.569C-321.797 -248.605 -328.88 -245.901 -333.896 -241.543C-336.202 -239.503 -338.049 -236.998 -339.315 -234.192C-340.58 -231.386 -341.236 -228.344 -341.238 -225.266C-341.248 -222.769 -340.792 -220.292 -339.894 -217.963L-339.618 -217.291C-336.085 -209.04 -327.553 -203.959 -320.987 -201.152C-318.16 -199.929 -315.162 -198.912 -311.99 -197.827C-308.268 -196.553 -304.424 -195.244 -300.581 -193.521C-287.896 -187.803 -276.814 -177.778 -267.421 -168.821L-264.819 -166.307C-256.201 -158.022 -247.36 -149.461 -237.019 -143.777C-226.316 -137.904 -205.996 -131.858 -197.706 -146.413C-194.259 -152.458 -194.07 -160.192 -197.172 -169.338C-199.671 -176.693 -204.238 -184.737 -211.149 -193.883C-220.345 -205.67 -231.073 -216.178 -243.051 -225.128C-249.478 -230.278 -256.321 -234.887 -263.509 -238.908C-269.153 -241.955 -275.096 -244.414 -281.243 -246.245C-289.923 -248.92 -298.981 -250.165 -308.061 -249.931C-309.629 -249.793 -311.232 -249.69 -312.8 -249.569ZM-281.778 -244.574C-275.743 -242.778 -269.91 -240.366 -264.37 -237.375C-257.266 -233.406 -250.504 -228.855 -244.154 -223.767C-232.305 -214.865 -221.693 -204.428 -212.597 -192.729C-205.807 -183.721 -201.308 -175.849 -198.809 -168.615C-195.862 -160.003 -196 -152.699 -199.188 -147.084C-206.823 -133.701 -226.04 -139.557 -236.192 -145.104C-246.343 -150.65 -255.15 -159.176 -263.612 -167.375L-266.232 -169.889C-275.728 -178.949 -286.914 -189.095 -299.874 -194.916C-303.787 -196.639 -307.682 -198 -311.439 -199.292C-314.576 -200.359 -317.523 -201.375 -320.297 -202.564C-326.571 -205.251 -334.723 -210.074 -338.032 -217.808L-338.291 -218.428C-339.625 -222.178 -339.811 -226.24 -338.826 -230.096C-337.841 -233.952 -335.728 -237.427 -332.758 -240.079C-328.019 -244.195 -321.245 -246.762 -312.611 -247.675C-311.094 -247.847 -309.526 -247.95 -307.992 -248.019C-299.104 -248.289 -290.233 -247.108 -281.726 -244.523L-281.778 -244.574Z" fill="#FFFBEF"/>
<path d="M-287.086 -215.034C-287.02 -212.184 -285.966 -209.444 -284.104 -207.283C-281.884 -204.961 -279.321 -202.992 -276.504 -201.444C-275.349 -200.738 -274.143 -199.998 -273.057 -199.205C-271.118 -197.581 -269.266 -195.856 -267.507 -194.038C-264.215 -190.731 -260.131 -186.649 -255.994 -183.135C-249.221 -177.416 -244.344 -175.039 -241.052 -175.883C-240.189 -176.129 -239.403 -176.587 -238.764 -177.216C-238.126 -177.845 -237.656 -178.625 -237.398 -179.483C-236.036 -183.049 -236.485 -187.097 -238.777 -191.54C-241.194 -195.813 -244.284 -199.669 -247.929 -202.96C-254.249 -208.733 -261.053 -213.953 -268.266 -218.565L-268.938 -219.013C-271.194 -220.684 -273.734 -221.933 -276.435 -222.699C-277.876 -223.102 -279.395 -223.142 -280.856 -222.818C-282.317 -222.493 -283.676 -221.813 -284.811 -220.839C-285.582 -220.089 -286.184 -219.184 -286.577 -218.183C-286.969 -217.181 -287.143 -216.108 -287.086 -215.034ZM-276.745 -220.891C-274.262 -220.156 -271.929 -218.99 -269.851 -217.446L-269.179 -216.998C-262.058 -212.434 -255.336 -207.277 -249.083 -201.582C-245.578 -198.42 -242.604 -194.716 -240.276 -190.61C-239.068 -188.466 -238.399 -186.06 -238.329 -183.6C-238.318 -182.369 -238.54 -181.148 -238.984 -180C-239.147 -179.402 -239.458 -178.855 -239.889 -178.41C-240.32 -177.964 -240.856 -177.634 -241.448 -177.451C-244.12 -176.779 -248.618 -179.173 -254.84 -184.341C-258.924 -187.785 -262.992 -191.85 -266.249 -195.123C-268.066 -197.06 -270 -198.884 -272.04 -200.583C-273.195 -201.393 -274.418 -202.151 -275.608 -202.874C-278.268 -204.331 -280.691 -206.184 -282.795 -208.368C-285.5 -211.521 -286.483 -216.705 -283.605 -219.427C-282.671 -220.199 -281.565 -220.735 -280.38 -220.99C-279.195 -221.245 -277.966 -221.211 -276.797 -220.891L-276.745 -220.891Z" fill="#FFFBEF"/>
<path d="M-409.247 554.912C-388.565 562.112 -368.383 571.981 -348.925 581.524C-328.536 591.531 -307.561 601.866 -285.587 609.083C-234.606 626.1 -186.348 620.761 -156.515 594.769C-145.14 584.865 -136.574 572.378 -128.284 560.114C-104.604 525.338 -83.8012 491.01 -89.2474 453.478C-90.3737 446.751 -91.9396 440.106 -93.9353 433.584C-95.1417 429.295 -96.3999 424.851 -97.3823 420.441C-101.363 402.373 -100.95 383.392 -100.553 365.031L-100.398 357.349C-99.933 330.272 -100.812 302.851 -103.001 275.843C-103.845 265.353 -104.948 255.174 -109.05 245.976C-112.721 237.725 -118.633 230.715 -123.872 224.807C-140.952 205.567 -167.201 183.899 -195.207 189.962C-216.664 194.595 -234.399 215.644 -242.655 246.217C-244.895 254.485 -246.55 263.08 -248.17 271.399C-251.341 287.814 -254.633 304.78 -262.44 319.627C-277.952 349.356 -312.542 370.939 -354.888 377.363C-384.911 381.893 -415.865 379.396 -445.802 376.984C-453.213 376.381 -460.865 375.761 -468.396 375.262C-500.039 373.161 -531.779 372.954 -563.447 374.642C-576.424 375.331 -590.471 376.485 -603.81 380.154L-603.81 381.876C-590.488 378.138 -576.373 376.984 -563.36 376.295C-531.779 374.61 -500.125 374.817 -468.569 376.915C-461.054 377.415 -453.402 378.035 -446.008 378.638C-415.968 381.049 -384.911 383.564 -354.664 378.982C-311.784 372.489 -276.745 350.579 -260.958 320.42C-253.03 305.262 -249.721 288.158 -246.515 271.623C-244.912 263.338 -243.241 254.777 -241.035 246.561C-232.934 216.608 -215.682 196.042 -194.88 191.53C-167.683 185.656 -141.969 206.945 -125.199 225.858C-120.029 231.662 -114.238 238.535 -110.653 246.527C-106.672 255.501 -105.586 265.474 -104.742 275.808C-102.57 302.765 -101.691 330.117 -102.156 357.159L-102.311 364.824C-102.708 383.288 -103.121 402.356 -99.0886 420.648C-98.1234 425.109 -96.8653 429.553 -95.6416 433.876C-93.669 440.331 -92.1203 446.908 -91.0054 453.564C-85.6454 490.476 -106.275 524.477 -129.767 558.977C-137.988 571.034 -146.502 583.539 -157.704 593.305C-187.003 618.883 -234.692 624.102 -285.087 607.274C-306.872 600.005 -327.881 589.688 -348.201 579.715C-367.693 570.156 -387.841 560.269 -408.695 553.035C-474.187 530.35 -543.54 534.191 -603.845 544.422L-603.845 546.145C-543.678 536.189 -474.411 532.314 -409.247 554.912Z" fill="#FFFBEF"/>
<path d="M-486.028 353.111C-452.161 352.974 -417.088 352.836 -383.256 348.719C-369.934 347.1 -355.887 344.723 -343.461 338.384C-332.293 332.718 -322.107 323.899 -310.439 309.809C-291.964 287.504 -280.244 265.026 -275.608 242.789C-268.283 207.755 -277.969 170.447 -285.742 140.631C-295.945 101.394 -308.647 52.5461 -332.19 10.932C-339.084 -1.29733 -348.994 -16.0414 -364.333 -21.5532C-371.588 -24.154 -380.206 -24.7224 -390.702 -23.2756C-414.331 -20.0547 -436.598 -9.03101 -458.142 1.63086C-486.889 15.8754 -514.051 29.3104 -544.316 26.0378C-566.583 23.6264 -586.386 12.1033 -603.759 -0.987281L-603.759 1.18301C-586.524 14.0841 -566.721 25.2971 -544.506 27.743C-513.672 31.0845 -485.011 16.8916 -457.314 3.181C-435.892 -7.4292 -413.745 -18.3839 -390.392 -21.5704C-380.189 -22.9484 -371.83 -22.3972 -364.85 -19.848C-350.045 -14.5429 -340.376 -0.126033 -333.62 11.8449C-310.181 53.1834 -297.427 101.98 -287.345 141.131C-279.606 170.86 -269.989 207.875 -277.228 242.496C-281.812 264.406 -293.394 286.694 -311.697 308.793C-323.21 322.693 -333.224 331.357 -344.168 336.92C-356.353 343.121 -370.227 345.533 -383.394 347.048C-417.192 351.165 -452.161 351.303 -485.959 351.441C-525.013 351.596 -564.963 351.768 -603.759 358.072L-603.759 359.794C-565.067 353.439 -525.082 353.284 -486.028 353.111Z" fill="#FFFBEF"/>
<path d="M-509.622 323.141C-482.822 322.641 -455.126 322.125 -428.239 318.973C-424.12 318.508 -420.794 318.043 -417.743 317.526C-409.743 316.382 -401.948 314.097 -394.597 310.739C-385.014 306.158 -376.018 298.837 -366.263 287.676C-350.751 269.832 -340.566 251.35 -336.274 232.73C-329.932 205.171 -335.912 176.889 -343.168 147.9C-352.147 111.488 -363.264 73.1809 -383.67 39.7829C-390.081 29.276 -398.371 17.9424 -411.056 13.5847C-417.14 11.5005 -424.361 11.0699 -433.134 12.2411C-452.592 14.8764 -471.051 23.6265 -488.802 32.1009C-493.284 34.2367 -497.902 36.4241 -502.452 38.491C-520.721 46.7587 -540.524 53.993 -561.637 51.5644C-576.89 49.7558 -590.678 43.0555 -603.862 34.0127L-603.862 36.0968C-590.764 44.9329 -577.062 51.4782 -561.844 53.3212C-540.317 55.8704 -520.239 48.4812 -501.746 40.1101C-497.179 38.0432 -492.542 35.8385 -488.061 33.7027C-470.378 25.2972 -452.092 16.5989 -432.91 14.0153C-424.43 12.8612 -417.399 13.2746 -411.625 15.2726C-399.457 19.4409 -391.408 30.4817 -385.152 40.7302C-364.867 73.9388 -353.802 112.091 -344.857 148.365C-337.687 177.147 -331.759 205.206 -337.963 232.403C-342.186 250.73 -352.147 268.97 -367.573 286.591C-377.155 297.563 -385.98 304.763 -395.338 309.241C-402.543 312.526 -410.18 314.765 -418.019 315.889C-421.052 316.389 -424.361 316.837 -428.36 317.319C-455.177 320.454 -482.822 320.971 -509.57 321.47C-540.8 322.039 -572.702 322.659 -603.759 327.464L-603.759 329.187C-572.805 324.329 -540.869 323.709 -509.622 323.141Z" fill="#FFFBEF"/>
<path d="M-532.234 292.998C-512.828 292.258 -492.749 291.483 -473.222 289.329C-469.775 288.968 -467.155 288.623 -464.605 288.244C-458.086 287.357 -451.713 285.62 -445.646 283.077C-437.632 279.632 -429.894 273.845 -422.017 265.525C-409.471 252.297 -400.767 237.467 -396.872 222.671C-390.978 200.28 -395.407 177.061 -400.439 155.152C-408.85 118.653 -420.156 90.3364 -434.995 68.6165C-440.493 60.5727 -447.473 51.926 -457.625 48.7051C-463.414 47.0959 -469.487 46.7842 -475.411 47.7922C-490.681 49.8247 -505.21 56.4044 -519.256 62.6052C-523.186 64.3276 -527.271 66.1878 -531.321 67.8758C-545.901 74.0077 -561.723 79.3816 -578.785 77.108C-587.617 75.7921 -596.116 72.8049 -603.828 68.3064L-603.828 70.27C-596.168 74.6417 -587.765 77.5615 -579.044 78.8822C-561.585 81.2075 -545.488 75.7646 -530.787 69.5294C-526.754 67.8069 -522.669 66.0845 -518.722 64.2415C-504.779 58.0063 -490.371 51.5643 -475.359 49.5663C-469.684 48.5934 -463.863 48.8875 -458.314 50.4275C-448.663 53.4762 -441.906 61.8645 -436.598 69.6499C-421.862 91.1976 -410.643 119.308 -402.301 155.617C-397.303 177.302 -392.908 200.314 -398.716 222.292C-402.542 236.812 -411.091 251.384 -423.448 264.406C-431.152 272.553 -438.701 278.185 -446.508 281.63C-452.435 284.08 -458.659 285.742 -465.018 286.574C-467.466 286.953 -470.189 287.297 -473.498 287.659C-492.973 289.795 -513 290.57 -532.389 291.31C-556.104 292.223 -580.285 293.153 -603.914 296.633L-603.914 298.355C-580.199 294.721 -555.984 293.825 -532.234 292.998Z" fill="#FFFBEF"/>
<path d="M-552.399 262.115C-541.162 261.392 -529.563 260.634 -518.205 259.514C-515.999 259.29 -513.793 259.066 -511.604 258.774C-506.594 258.211 -501.663 257.09 -496.903 255.432C-489.846 252.709 -483.402 248.61 -477.945 243.375C-468.632 235.035 -461.632 224.433 -457.625 212.595C-452.299 196.042 -454.781 177.94 -457.9 162.403C-461.554 144.231 -469.5 118.205 -486.545 97.3984C-491.302 91.5765 -496.765 85.9097 -504.4 83.8083C-508.813 82.7395 -513.397 82.5697 -517.878 83.3089C-528.908 84.7557 -539.49 89.0102 -549.728 93.1268C-553.175 94.5219 -556.759 95.9515 -560.275 97.2433C-570.616 101.067 -582.956 104.701 -595.986 102.635C-598.642 102.196 -601.259 101.545 -603.811 100.688L-603.811 102.411C-601.345 103.217 -598.821 103.833 -596.262 104.254C-582.836 106.389 -570.237 102.686 -559.672 98.7763C-556.225 97.4672 -552.554 96.0377 -549.09 94.6425C-538.939 90.5604 -528.408 86.3404 -517.654 84.9279C-513.404 84.2248 -509.056 84.377 -504.865 85.3758C-497.678 87.3566 -492.456 92.8167 -487.872 98.4147C-471.12 119.032 -463.226 144.869 -459.607 162.765C-456.539 178.077 -454.074 195.905 -459.279 212.095C-463.208 223.646 -470.046 233.991 -479.134 242.135C-484.427 247.201 -490.671 251.17 -497.506 253.813C-502.142 255.435 -506.947 256.527 -511.828 257.068C-514 257.344 -516.189 257.585 -518.377 257.809C-529.701 258.929 -541.3 259.669 -552.502 260.393C-569.548 261.495 -586.834 262.615 -603.828 265.112L-603.828 266.834C-586.817 264.354 -569.479 263.217 -552.399 262.115Z" fill="#FFFBEF"/>
<path d="M-563.205 229.785C-561.654 229.664 -560.103 229.544 -558.569 229.389C-555.046 229.124 -551.548 228.588 -548.108 227.787C-543.005 226.509 -538.181 224.308 -533.872 221.293C-527.13 216.56 -521.775 210.115 -518.36 202.622C-514.379 193.734 -513.397 182.969 -515.327 169.724C-517.843 152.499 -526.357 136.274 -538.111 126.18C-541.748 122.652 -546.256 120.15 -551.175 118.929C-554.201 118.439 -557.285 118.439 -560.31 118.929C-566.907 119.956 -573.397 121.582 -579.699 123.786C-582.801 124.768 -586.007 125.801 -589.144 126.645C-593.91 128.012 -598.822 128.804 -603.776 129.005L-603.776 130.728C-598.67 130.536 -593.606 129.727 -588.696 128.316C-585.507 127.472 -582.284 126.439 -579.165 125.44C-572.942 123.247 -566.533 121.621 -560.017 120.582C-557.163 120.124 -554.254 120.124 -551.399 120.582C-546.775 121.764 -542.543 124.14 -539.128 127.472C-527.684 137.307 -519.377 153.188 -516.93 169.947C-515.034 182.866 -515.982 193.321 -519.825 201.899C-523.146 209.132 -528.348 215.342 -534.888 219.881C-539.032 222.774 -543.67 224.887 -548.573 226.116C-551.924 226.892 -555.329 227.416 -558.759 227.684C-560.293 227.821 -561.827 227.942 -563.378 228.062C-576.821 229.13 -590.471 230.233 -603.862 232.248L-603.862 233.97C-590.402 231.955 -576.717 230.853 -563.205 229.785Z" fill="#FFFBEF"/>
<path d="M-590.04 199.246C-585.165 197.898 -580.855 195.015 -577.75 191.025C-574.645 187.034 -572.911 182.149 -572.805 177.096C-572.904 172.036 -574.635 167.143 -577.74 163.146C-580.846 159.149 -585.159 156.26 -590.04 154.911C-594.631 153.924 -599.368 153.813 -604 154.583L-604 156.306C-599.516 155.51 -594.921 155.598 -590.471 156.564C-585.969 157.823 -581.994 160.499 -579.134 164.194C-576.275 167.889 -574.684 172.408 -574.597 177.078C-574.697 181.754 -576.304 186.273 -579.179 189.963C-582.055 193.653 -586.045 196.317 -590.557 197.558C-594.449 198.361 -598.434 198.622 -602.397 198.333C-602.931 198.333 -603.466 198.333 -604 198.333L-604 200.056C-603.483 200.056 -602.966 200.056 -602.449 200.056C-598.295 200.362 -594.119 200.089 -590.04 199.246Z" fill="#FFFBEF"/>
<path d="M-272.919 568.399C-272.542 572.105 -271.509 575.715 -269.868 579.061C-266.525 585.072 -259.528 589.189 -249.445 590.963C-224.041 595.458 -194.949 585.571 -173.612 565.126C-155.722 548.263 -142.279 524.27 -133.317 493.852C-127.509 474.095 -125.079 456.75 -125.906 440.852C-126.544 428.416 -129.25 416.067 -131.835 404.13C-133.558 396.551 -135.195 388.714 -136.367 380.929C-138.918 363.911 -138.987 346.342 -139.056 329.359C-139.056 319.024 -139.056 308.449 -139.728 298.011C-140.349 286.97 -141.624 275.326 -146.743 264.888C-152.292 253.572 -162.254 245.58 -172.595 244.064C-204.238 239.448 -214.958 277.204 -221.37 299.767L-221.663 300.801C-225.403 313.909 -230.901 326.276 -236.226 338.247C-239.57 345.739 -243.12 353.49 -246.05 361.431C-265.939 413.672 -276.418 469.083 -276.418 519.533C-276.506 535.887 -275.336 552.224 -272.919 568.399ZM-234.761 338.936C-229.418 326.879 -223.886 314.494 -220.111 301.266L-219.819 300.233C-213.562 278.22 -203.083 241.36 -172.957 245.769C-163.081 247.216 -153.654 254.829 -148.346 265.646C-143.365 275.808 -142.107 287.245 -141.452 298.114C-140.866 308.449 -140.814 319.11 -140.78 329.376C-140.78 346.411 -140.642 364.032 -138.074 381.187C-136.902 389.024 -135.178 396.878 -133.524 404.492C-130.938 416.376 -128.267 428.606 -127.629 440.956C-126.819 456.63 -129.215 473.785 -134.971 493.369C-143.813 523.495 -157.17 547.23 -174.612 563.903C-195.638 583.952 -224.144 593.667 -249.014 589.275C-255.632 588.103 -264.353 585.227 -268.231 578.217C-269.775 575.054 -270.744 571.642 -271.092 568.14C-280.623 506.701 -270.885 431.586 -244.413 362.034C-241.517 354.162 -238.07 346.394 -234.744 338.936L-234.761 338.936Z" fill="#FFFBEF"/>
<path d="M-234.33 526.802C-218.422 533.468 -200.188 529.541 -186.728 516.467C-176.852 506.942 -169.303 493.301 -164.322 475.904C-161.303 466.193 -159.832 456.067 -159.962 445.899C-160.36 438.637 -161.317 431.416 -162.823 424.3C-163.581 420.269 -164.357 416.101 -164.891 412.002C-165.785 404.213 -166.257 396.382 -166.304 388.542L-166.304 386.113C-166.442 379.224 -166.58 372.213 -167.166 365.306C-167.445 358.853 -168.893 352.503 -171.44 346.566C-174.594 340.004 -179.937 335.319 -185.745 334.061C-188.191 333.467 -190.737 333.41 -193.206 333.895C-195.676 334.379 -198.011 335.394 -200.05 336.869C-208.15 342.656 -212.442 355.075 -215.286 363.274C-217.686 369.846 -220.436 376.286 -223.524 382.565C-225.644 387.061 -227.833 391.711 -229.746 396.465C-241.598 425.418 -247.85 456.354 -248.17 487.634C-248.191 495.552 -247.696 503.463 -246.688 511.317C-246.475 513.384 -245.964 515.408 -245.171 517.329C-243.361 521.325 -239.707 524.546 -234.33 526.802ZM-243.603 516.467C-244.328 514.689 -244.792 512.815 -244.981 510.904C-249.549 476.128 -243.413 434.634 -228.16 397.034C-226.247 392.331 -224.076 387.715 -221.973 383.254C-218.863 376.937 -216.096 370.457 -213.683 363.842C-210.908 355.833 -206.789 343.741 -199.068 338.281C-197.231 336.937 -195.121 336.014 -192.887 335.576C-190.653 335.138 -188.35 335.198 -186.142 335.749C-180.851 336.886 -175.956 341.21 -173.026 347.307C-170.577 353.057 -169.182 359.201 -168.907 365.444C-168.338 372.334 -168.2 379.344 -168.045 386.113L-168.045 388.542C-167.999 396.445 -167.521 404.34 -166.615 412.191C-166.08 416.342 -165.287 420.528 -164.546 424.593C-163.05 431.617 -162.099 438.746 -161.703 445.916C-161.53 455.966 -162.961 465.978 -165.942 475.577C-170.889 492.681 -178.283 506.081 -187.917 515.382C-200.877 527.904 -218.405 531.694 -233.658 525.303C-238.622 523.133 -241.896 520.205 -243.62 516.553L-243.603 516.467Z" fill="#FFFBEF"/>
<path d="M-193.535 437.89C-193.973 434.628 -194.855 431.44 -196.155 428.416C-197.62 424.834 -199.464 422.905 -201.791 422.491C-204.117 422.078 -206.237 423.129 -208.685 425.626C-215.734 432.791 -219.939 443.264 -220.542 455.114L-220.542 456.027C-220.542 462.641 -216.957 469.083 -211.925 471.253C-207.944 472.976 -203.652 471.805 -199.861 467.912C-194.173 462.038 -192.691 445.003 -193.535 437.89ZM-211.304 469.686C-215.837 467.705 -219.129 461.349 -218.819 455.2C-218.25 443.78 -214.2 433.704 -207.461 426.832C-205.427 424.782 -203.669 423.904 -202.084 424.196C-200.498 424.489 -198.964 426.074 -197.741 429.071C-196.509 431.949 -195.668 434.978 -195.242 438.079C-195.094 439.487 -195.024 440.901 -195.035 442.316C-195.035 450.309 -196.862 462.331 -201.136 466.706C-204.462 470.099 -207.978 471.133 -211.304 469.686Z" fill="#FFFBEF"/>
<path d="M-459.452 514.314C-448.456 516.037 -437.27 518.345 -426.447 520.532C-397.648 526.354 -367.849 532.383 -338.239 529.558C-331.742 528.938 -324.313 527.732 -318.591 523.46C-311.801 518.396 -308.612 510.008 -306.527 503.256C-300.098 481.726 -300.512 460.523 -307.716 443.539C-311.163 435.375 -315.799 429.26 -321.504 425.402C-328.691 420.51 -337.515 419.184 -345.185 418.512C-357.63 417.698 -370.113 417.623 -382.567 418.288C-391.977 418.616 -401.715 418.943 -411.263 418.598C-434.289 417.754 -457.297 412.932 -479.53 408.264C-491.957 405.663 -504.814 402.959 -517.568 400.978C-552.037 395.621 -580.526 397.154 -603.742 405.646L-603.742 407.489C-580.613 398.877 -552.278 397.326 -517.757 402.683C-505.055 404.664 -492.232 407.351 -479.84 409.952C-457.435 414.637 -434.444 419.46 -411.28 420.287C-401.663 420.631 -391.908 420.286 -382.446 419.976C-370.061 419.314 -357.648 419.383 -345.271 420.183C-337.825 420.82 -329.277 422.095 -322.435 426.78C-317.057 430.449 -312.645 436.288 -309.302 444.159C-302.27 460.781 -301.856 481.571 -308.182 502.722C-310.129 509.216 -313.162 517.277 -319.556 522.031C-324.934 526.044 -332.069 527.198 -338.343 527.784C-367.642 530.591 -397.372 524.58 -426.051 518.793C-436.874 516.588 -448.077 514.332 -459.107 512.575C-507.136 504.974 -556.147 506.141 -603.759 516.019L-603.759 517.742C-556.26 507.886 -507.366 506.725 -459.452 514.314Z" fill="#FFFBEF"/>
<path d="M-602.966 476.972C-596.072 475.766 -589.747 472.717 -583.646 469.755C-581.011 468.716 -578.651 467.083 -576.752 464.984C-575.748 463.809 -575.169 462.332 -575.107 460.789C-575.044 459.246 -575.502 457.727 -576.407 456.475C-578.648 453.908 -582.405 454.201 -585.766 454.839L-603.793 458.197L-603.793 459.92L-585.455 456.475C-582.56 455.941 -579.372 455.648 -577.7 457.56C-577.061 458.508 -576.755 459.642 -576.83 460.783C-576.905 461.923 -577.356 463.007 -578.113 463.864C-579.851 465.744 -581.989 467.21 -584.37 468.153C-590.367 471.064 -596.572 474.061 -603.225 475.215C-603.414 475.215 -603.604 475.215 -603.793 475.215L-603.793 476.937C-603.535 477.041 -603.242 477.024 -602.966 476.972Z" fill="#FFFBEF"/>
<path d="M-564.636 498.898C-504.94 494.894 -444.982 499.922 -386.79 513.815L-384.618 514.332C-376.121 516.381 -367.383 518.483 -358.421 518.379C-347.46 518.224 -337.843 514.349 -332.017 507.735C-328.45 503.652 -325.882 498.209 -323.969 490.613C-319.918 474.474 -322.814 460.557 -331.759 453.34C-337.705 448.552 -345.547 447.191 -353.13 446.209C-364.901 444.693 -376.948 443.643 -388.599 442.626C-412.452 440.542 -437.098 438.389 -460.52 432.102C-466.587 430.38 -472.585 428.537 -478.565 426.677C-484.546 424.816 -490.629 422.853 -496.679 421.217C-531.778 411.934 -568.676 411.828 -603.828 420.907L-603.828 422.629C-568.839 413.502 -532.083 413.567 -497.127 422.818C-491.06 424.437 -484.976 426.367 -479.082 428.244C-473.188 430.122 -467.018 432.051 -460.968 433.687C-437.391 440.008 -412.711 442.179 -388.754 444.263C-377.121 445.279 -365.091 446.33 -353.354 447.863C-346.046 448.793 -338.429 450.102 -332.827 454.615C-320.401 464.639 -324.21 484.327 -325.64 490.131C-327.485 497.452 -329.932 502.653 -333.327 506.529C-338.808 512.781 -347.959 516.45 -358.438 516.588C-367.056 516.691 -375.811 514.607 -384.291 512.592L-386.445 512.075C-444.808 498.149 -504.939 493.103 -564.808 497.107C-577.978 497.748 -591.05 499.71 -603.828 502.963L-603.828 504.686C-591.074 501.155 -577.596 499.777 -564.636 498.898Z" fill="#FFFBEF"/>
<path d="M-548.125 483.586C-535.477 483.212 -522.818 483.545 -510.208 484.585L-456.591 488.03C-444.251 488.805 -428.912 489.752 -416.554 482.776C-414.853 481.948 -413.424 480.651 -412.435 479.039C-410.487 475.353 -412.745 470.995 -415.503 468.136C-423.465 459.902 -435.047 457.439 -446.267 455.045C-448.766 454.511 -451.248 453.977 -453.678 453.323C-465.949 450.343 -477.807 445.296 -489.388 440.422C-503.728 434.342 -518.567 428.072 -534.199 425.695C-557.001 422.25 -579.544 426.987 -603.845 434.1L-603.845 435.823C-579.561 428.692 -557.07 423.904 -534.458 427.331C-518.946 429.674 -504.297 435.943 -490.043 441.937C-478.462 446.829 -466.466 451.91 -454.057 454.925C-451.627 455.51 -449.111 456.044 -446.612 456.647C-435.65 458.99 -424.31 461.418 -416.726 469.273C-414.383 471.684 -412.418 475.301 -413.934 478.16C-414.78 479.475 -415.973 480.53 -417.381 481.209C-429.273 487.978 -444.337 487.014 -456.453 486.239L-510.053 482.794C-522.744 481.752 -535.483 481.418 -548.211 481.795C-567.169 482.708 -585.679 486.738 -603.828 491.716L-603.828 493.438C-585.628 488.564 -567.049 484.482 -548.125 483.586Z" fill="#FFFBEF"/>
<path d="M-573.27 474.302C-572.254 473.837 -571.237 473.355 -570.22 472.872C-565.777 470.531 -561.058 468.754 -556.173 467.585C-551.614 466.877 -546.994 466.64 -542.386 466.878C-534.199 467.016 -525.737 467.154 -519.274 461.987L-518.86 461.659L-518.963 461.143C-520.566 453.478 -527.822 447.07 -538.37 444.022C-554.364 439.388 -571.116 442.006 -587.369 444.556C-592.78 445.4 -598.278 446.278 -603.776 446.864L-603.776 448.586C-598.175 447.983 -592.591 447.122 -587.11 446.261C-571.064 443.746 -554.467 441.094 -538.852 445.675C-529.166 448.483 -522.445 454.167 -520.773 460.97C-526.685 465.414 -534.302 465.294 -542.368 465.156C-547.075 464.918 -551.794 465.166 -556.449 465.897C-561.474 467.097 -566.331 468.913 -570.909 471.305C-571.926 471.787 -572.926 472.27 -573.942 472.735C-583.575 477.02 -593.556 480.477 -603.776 483.069L-603.776 484.792C-593.332 482.155 -583.127 478.646 -573.27 474.302Z" fill="#FFFBEF"/>
<path d="M163.794 164.935C147.725 160.936 131.455 157.786 115.054 155.496C100.767 153.257 85.9964 150.932 71.7259 147.435C35.1536 138.496 8.92217 122.718 -6.22722 100.516C-16.189 85.927 -21.2732 68.3581 -24.927 53.0973C-35.1645 10.312 -39.0079 -34.2647 -42.7133 -77.3601L-47.8838 -137.887C-51.7616 -182.894 -56.1565 -233.912 -35.9745 -278.162C-26.9952 -297.832 -13.5692 -315.194 -0.470796 -331.988L30.5519 -371.914L28.3631 -371.914L-1.84955 -333.056C-14.948 -316.176 -28.5118 -298.728 -37.5601 -278.885C-49.5039 -252.67 -52.9336 -224.198 -52.9336 -195.984C-52.9336 -176.142 -51.2101 -156.368 -49.6245 -137.731L-44.4541 -77.2051C-40.7486 -34.1441 -36.9052 10.6393 -26.6333 53.4935C-22.945 68.9094 -17.809 86.6677 -7.67495 101.481C7.71575 124.045 34.2919 140.063 71.2951 149.106C85.6344 152.551 100.439 154.945 114.779 157.201C130.824 159.733 147.421 162.369 163.346 166.606C198.372 176.062 230.737 193.481 257.914 217.504L257.914 215.213C230.773 191.522 198.584 174.326 163.794 164.935Z" fill="#FFFBEF"/>
<path d="M95.9064 198.075C90.4429 196.697 84.8416 195.44 79.4126 194.199C61.1782 190.083 42.3061 185.811 25.64 176.975C-6.2272 160.13 -24.5306 130.159 -34.2855 108.078C-47.3323 78.4 -52.9164 45.8976 -57.1044 17.753C-61.7923 -13.6643 -65.515 -45.7705 -69.1688 -76.8777C-75.1148 -128.224 -81.2332 -181.309 -79.3373 -233.861C-77.4415 -286.412 -67.273 -332.884 -49.073 -371.88L-50.9688 -371.88C-68.9965 -332.832 -79.1305 -286.516 -81.0608 -233.93C-81.3021 -227.178 -81.4228 -220.426 -81.4228 -213.674C-81.4228 -167.65 -76.08 -121.489 -70.875 -76.6021C-67.2902 -45.5982 -63.5675 -13.4404 -58.8107 18.0113C-54.6054 46.2593 -49.004 78.8994 -35.8711 108.766C-26.0128 131.158 -7.46813 161.49 24.8472 178.56C41.7028 187.482 60.6784 191.771 79.0335 195.922C84.4452 197.145 90.0466 198.402 95.4928 199.78C156.534 215.233 212.505 246.282 257.914 289.881L257.914 287.504C212.502 244.271 156.703 213.471 95.9064 198.075Z" fill="#FFFBEF"/>
<path d="M-518.498 -179.277C-503.585 -178.22 -488.625 -177.996 -473.688 -178.605C-450.162 -179.139 -425.826 -179.69 -402.921 -173.334C-367.762 -163.585 -339.48 -138.885 -312.128 -114.771C-294.652 -99.4416 -276.573 -83.6125 -256.649 -71.5382C-235.709 -58.8438 -210.977 -49.1465 -181.04 -42.0329C-168.011 -38.9325 -154.223 -36.5727 -141.555 -40.3104C-127.767 -44.4615 -115.393 -56.4496 -108.637 -72.3649C-102.242 -87.3501 -100.95 -104.041 -100.536 -118.388C-99.3643 -159.314 -104.742 -200.755 -109.981 -240.819C-115.565 -283.76 -121.321 -328.009 -118.943 -371.725L-120.667 -371.725C-123.045 -327.837 -117.22 -283.536 -111.687 -240.544C-106.517 -200.532 -101.088 -159.176 -102.26 -118.388C-102.673 -104.213 -103.983 -87.7118 -110.222 -72.985C-116.789 -57.483 -128.698 -45.9255 -142.055 -41.9811C-154.929 -38.1229 -168.717 -40.8271 -180.644 -43.7036C-210.391 -50.8172 -234.968 -60.394 -255.753 -72.985C-275.539 -85.042 -293.566 -100.785 -311.008 -116.046C-338.498 -140.16 -366.918 -165.049 -402.456 -174.902C-425.602 -181.326 -450.076 -180.775 -473.739 -180.241C-488.625 -179.633 -503.533 -179.852 -518.395 -180.896C-548.717 -183.7 -577.977 -193.487 -603.879 -209.488L-603.879 -207.473C-577.947 -191.681 -548.74 -182.035 -518.498 -179.277Z" fill="#FFFBEF"/>
<path d="M-133.593 -258.181C-130.146 -270.617 -132.714 -283.846 -135.04 -295.507L-150.276 -371.862L-151.999 -371.862L-136.695 -295.162C-134.403 -283.691 -131.8 -270.686 -135.213 -258.664C-138.418 -247.365 -149.001 -236.565 -161.168 -237.995C-169.906 -239.062 -176.8 -245.918 -182.884 -251.981C-241.569 -310.423 -305.613 -351.193 -369.71 -371.793L-375.57 -371.793C-309.957 -351.865 -244.223 -310.63 -184.091 -250.758C-177.817 -244.505 -170.699 -237.426 -161.375 -236.272C-148.328 -234.808 -136.988 -246.245 -133.593 -258.181Z" fill="#FFFBEF"/>
<path d="M-569.151 -230.33C-581.096 -236.207 -592.676 -242.799 -603.828 -250.069L-603.828 -247.985C-592.907 -240.94 -581.588 -234.534 -569.927 -228.797C-553.709 -220.649 -536.181 -213.019 -517.722 -212.175C-497.351 -211.262 -478.375 -219.961 -469.465 -234.36C-464.777 -241.87 -462.692 -250.654 -460.675 -259.163C-458.555 -268.103 -456.366 -277.335 -451.144 -284.845C-446.508 -291.511 -439.735 -296.454 -433.168 -301.242C-429.894 -303.637 -426.516 -306.1 -423.414 -308.787C-414.503 -316.434 -405.782 -329.732 -410.539 -342.013C-413.503 -349.66 -420.88 -354.517 -426.257 -357.514C-438.322 -364.404 -451.679 -368.59 -465.156 -371.931L-472.619 -371.931C-456.866 -368.349 -441.165 -363.922 -427.102 -356.016C-421.931 -353.157 -414.9 -348.523 -412.142 -341.41C-407.713 -329.973 -416.054 -317.399 -424.534 -310.096C-427.584 -307.478 -430.945 -305.032 -434.185 -302.655C-440.855 -297.78 -447.749 -292.751 -452.558 -285.844C-457.969 -278.058 -460.193 -268.62 -462.347 -259.577C-464.329 -251.206 -466.397 -242.559 -470.964 -235.29C-479.582 -221.407 -498.006 -213.036 -517.757 -213.915C-535.767 -214.724 -553.106 -222.286 -569.151 -230.33Z" fill="#FFFBEF"/>
<path d="M-166.976 -314.109C-169.613 -309.269 -174.732 -306.72 -178.558 -305.497C-193.346 -300.519 -208.064 -306.324 -215.527 -310.233C-226.075 -315.762 -235.244 -323.858 -244.102 -331.678L-246.326 -333.642C-262.044 -347.421 -279.658 -361.665 -299.047 -371.983L-302.787 -371.983C-282.381 -361.648 -263.888 -346.818 -247.463 -332.367L-245.257 -330.403C-236.312 -322.515 -227.057 -314.35 -216.32 -308.718C-208.616 -304.687 -193.397 -298.693 -178.007 -303.878C-173.888 -305.273 -168.372 -308.046 -165.46 -313.368C-163.202 -317.485 -162.978 -322.325 -163.047 -326.907C-163.329 -342.422 -166.619 -357.736 -172.733 -372L-174.68 -372C-168.45 -357.754 -165.099 -342.417 -164.822 -326.872C-164.701 -322.428 -164.908 -317.881 -166.976 -314.109Z" fill="#FFFBEF"/>
<path d="M-603.828 -295.024L-603.828 -293.026C-597.102 -288.938 -590.052 -285.406 -582.75 -282.468C-569.806 -277.387 -550.296 -272.616 -530.838 -278.868C-517.953 -283.028 -506.902 -291.51 -499.557 -302.879C-495.577 -308.644 -493.275 -315.399 -492.904 -322.394C-492.611 -339.911 -508.157 -352.261 -514.896 -356.739C-525.44 -363.431 -536.908 -368.544 -548.935 -371.914L-555.036 -371.914C-541.248 -368.021 -527.719 -363.302 -515.844 -355.31C-509.346 -350.986 -494.266 -339.188 -494.628 -322.428C-494.991 -315.752 -497.198 -309.307 -501.005 -303.809C-508.206 -292.825 -518.944 -284.628 -531.441 -280.573C-550.4 -274.459 -569.496 -279.144 -582.181 -284.121C-589.692 -287.138 -596.933 -290.786 -603.828 -295.024Z" fill="#FFFBEF"/>
<path d="M-603.828 -327.63L-603.828 -325.908L-599.364 -324.564C-587.816 -321.119 -573.512 -316.848 -560.086 -320.43C-558.593 -320.743 -557.198 -321.41 -556.018 -322.377C-553.985 -324.237 -553.399 -327.544 -554.295 -331.351C-558.069 -346.129 -574.529 -353.346 -587.679 -356.808C-589.488 -357.291 -591.315 -357.738 -593.142 -358.203C-596.692 -359.082 -600.26 -359.926 -603.759 -361.028L-603.759 -359.306C-600.312 -358.307 -596.968 -357.446 -593.573 -356.602C-591.729 -356.136 -589.919 -355.689 -588.11 -355.206C-575.407 -351.865 -559.517 -344.872 -555.967 -330.989C-555.587 -329.473 -554.915 -325.822 -557.121 -323.72C-558.097 -322.947 -559.243 -322.415 -560.465 -322.17C-573.339 -318.725 -587.455 -322.911 -598.795 -326.287L-603.828 -327.63Z" fill="#FFFBEF"/>
<path d="M-373.484 -113.41C-378.93 -136.129 -416.089 -151.752 -437.253 -157.419C-460.106 -163.551 -486.286 -164.412 -515.068 -159.985C-535.647 -156.816 -571.857 -147.17 -582.991 -118.113C-584.989 -112.824 -586 -107.213 -585.972 -101.56C-585.972 -83.4573 -576.183 -64.4934 -559.586 -53.0392C-541.024 -40.207 -515.723 -36.1075 -488.354 -41.4815C-464.071 -46.2699 -441.631 -57.397 -419.932 -68.145C-417.243 -69.4885 -414.124 -70.8663 -410.815 -72.3131C-392.77 -80.2536 -368.141 -91.1049 -373.484 -113.41ZM-488.63 -43.1696C-504.141 -40.1209 -534.009 -37.5027 -558.552 -54.4515C-579.699 -69.075 -589.488 -96.1689 -581.319 -117.493C-570.496 -145.741 -534.957 -155.162 -514.741 -158.28C-486.2 -162.672 -460.262 -161.725 -437.632 -155.748C-416.951 -150.202 -380.43 -134.941 -375.173 -113.014C-374.713 -111.154 -374.475 -109.246 -374.467 -107.33C-374.467 -90.2094 -394.804 -81.2354 -411.453 -73.8979C-414.762 -72.4338 -417.916 -71.0385 -420.639 -69.695C-442.234 -58.9814 -464.553 -47.9063 -488.63 -43.1696Z" fill="#FFFBEF"/>
<path d="M-428.877 -107.899C-428.952 -110.432 -429.553 -112.922 -430.642 -115.211C-431.731 -117.5 -433.284 -119.538 -435.202 -121.196C-447.266 -131.651 -473.119 -129.533 -488.63 -128.275C-490.767 -128.103 -492.68 -127.948 -494.3 -127.845C-506.365 -127.104 -516.223 -125.674 -525.134 -121.161C-535.785 -115.77 -542.799 -106.245 -543.437 -96.3241L-543.437 -94.9805C-543.502 -92.7013 -542.986 -90.4428 -541.938 -88.4179C-539.559 -84.0946 -534.578 -82.1828 -530.494 -80.9771C-520.859 -78.1523 -509.812 -76.7916 -495.8 -76.671C-488.182 -76.671 -449.386 -77.0672 -434.496 -92.6897C-432.53 -94.6789 -431.011 -97.0646 -430.042 -99.6876C-429.073 -102.31 -428.676 -105.11 -428.877 -107.899ZM-495.834 -78.3934C-509.726 -78.514 -520.584 -79.8574 -530.063 -82.6306C-533.82 -83.7329 -538.404 -85.49 -540.404 -89.2449C-541.446 -91.3827 -541.876 -93.7676 -541.644 -96.1346C-540.921 -107.262 -532.2 -115.529 -524.272 -119.542C-515.654 -123.917 -505.986 -125.313 -494.128 -126.053C-492.491 -126.139 -490.56 -126.312 -488.423 -126.484C-473.188 -127.707 -447.697 -129.791 -436.254 -119.818C-434.516 -118.312 -433.109 -116.463 -432.118 -114.389C-431.128 -112.314 -430.576 -110.058 -430.497 -107.761C-430.325 -105.208 -430.696 -102.647 -431.588 -100.248C-432.479 -97.8486 -433.869 -95.6658 -435.667 -93.8436C-450.438 -78.4623 -491.25 -78.359 -495.834 -78.3934Z" fill="#FFFBEF"/>
<path d="M127.032 235.073C116.933 231.835 106.506 228.958 96.4062 226.185C71.1399 219.209 45.0119 212.009 22.1241 198.626C-15.2755 176.906 -46.0914 137.152 -66.9972 83.6706C-68.2956 80.3291 -69.5825 76.9532 -70.8578 73.5427C-80.3198 48.5674 -90.0919 22.7481 -111.928 7.95235C-123.39 0.184157 -137.005 -3.51912 -148.863 -6.39559C-175.249 -12.7744 -202.118 -16.9627 -229.194 -18.9177C-244.206 -20.0028 -253.633 -16.6442 -257.218 -8.94488C-258.158 -6.89196 -258.635 -4.65725 -258.614 -2.39953C-258.614 3.14671 -256.098 8.72743 -253.909 12.8957C-232.727 53.0974 -195.035 81.3798 -158.583 108.732C-121.115 136.86 -82.3535 165.934 -62.0681 207.858C-45.1607 242.72 -42.7823 283.646 -40.6624 319.731C-36.1986 395.983 -31.1488 482.398 -67.1868 556.393C-77.8552 578.286 -92.0567 598.679 -105.776 618.401C-118.202 636.246 -131.059 654.693 -141.297 674.26C-162.54 715.52 -172.471 761.667 -170.079 808.007C-168.433 847.083 -158.169 885.314 -140.021 919.965L-138.074 919.965C-178.248 844.85 -179.437 750.943 -139.711 675.156C-129.525 655.692 -116.703 637.262 -104.311 619.486C-90.5228 599.73 -76.3041 579.285 -65.584 557.255C-29.3909 482.863 -34.4234 396.207 -38.8872 319.748C-41.0071 283.577 -43.42 242.41 -60.4653 207.238C-80.9747 164.935 -119.908 135.723 -157.549 107.475C-193.846 80.2429 -231.383 52.0811 -252.341 12.2067C-255.253 6.69489 -258.735 -1.4005 -255.632 -8.08355C-252.375 -15.0767 -243.568 -18.1082 -229.298 -17.0747C-202.309 -15.1285 -175.527 -10.9576 -149.225 -4.6043C-137.522 -1.76229 -124.079 1.8893 -112.859 9.50246C-91.4707 23.9882 -81.8364 49.5492 -72.4434 74.2834C-71.1508 77.7283 -69.8754 81.1731 -68.5656 84.4285C-47.5219 138.255 -16.4474 178.319 21.2796 200.245C44.3743 213.663 70.6056 220.914 95.9925 227.804C106.058 230.577 116.485 233.454 126.55 236.675C167.793 249.937 222.789 275.774 257.914 325.208L257.914 322.28C222.479 273.776 168.034 248.215 127.032 235.073Z" fill="#FFFBEF"/>
<path d="M116.054 259.652C106.609 257.465 96.8715 255.777 87.4441 254.157C69.1234 251.005 50.1652 247.75 32.8097 240.499C2.85556 227.976 -24.1687 203.036 -49.7969 164.246C-58.6556 150.846 -66.8766 136.687 -74.8391 123.011C-85.7832 104.185 -97.1065 84.7213 -110.239 66.8768C-132.231 36.9753 -155.395 21.9902 -179.075 22.3346L-179.713 22.3346L-179.885 22.9719C-180.686 25.8843 -181.092 28.891 -181.092 31.9114C-181.092 51.0649 -164.977 68.3237 -148.57 82.9989C-90.833 134.672 -34.2511 192.684 -11.2943 267.506C-2.79751 295.186 1.44226 325.983 2.49357 367.408C4.87197 464.467 -12.9143 539.496 -51.9168 596.802C-57.6387 605.19 -63.9811 613.372 -70.065 621.278C-75.5285 628.374 -81.1987 635.694 -86.4037 643.17C-117.288 687.385 -134.661 740.729 -136.574 797.431C-138.204 839.377 -130.731 881.179 -114.669 919.965L-112.635 919.965C-149.742 831.467 -139.97 722.919 -84.9559 644.152C-79.7855 636.728 -74.1152 629.408 -68.6518 622.328C-62.5335 614.405 -56.2082 606.206 -50.469 597.766C-11.2426 540.151 6.6472 464.794 4.25155 367.373C3.23471 325.828 -1.03952 294.893 -9.53631 267.041C-32.6137 191.84 -89.4025 133.552 -147.312 81.7587C-165.684 65.3439 -183.66 45.6909 -178.334 24.0916C-155.481 24.0916 -133.024 38.8011 -111.567 67.962C-98.5025 85.7203 -87.1965 105.149 -76.2868 123.924C-68.3071 137.704 -60.0688 151.793 -51.1757 165.262C-25.3234 204.345 1.90763 229.492 32.2065 242.152C49.7343 249.472 68.796 252.762 87.2028 255.932C96.613 257.551 106.333 259.221 115.726 261.409C172.749 274.938 223.128 308.229 257.914 355.368L257.914 352.491C222.92 305.945 172.734 273.101 116.054 259.652Z" fill="#FFFBEF"/>
<path d="M211.087 329.393C188.492 314.305 162.019 302.248 125.24 290.26C103.507 283.18 78.706 277.531 59.1273 289.433C37.894 302.368 33.861 329.514 33.861 348.116C33.861 352.974 34.1367 357.263 34.447 360.57C38.8936 407.713 52.061 442.041 75.914 468.584C121.948 519.826 189.13 552.639 257.897 558.03L257.897 556.307C189.612 550.916 122.913 518.31 77.1894 467.43C53.6121 441.18 40.5653 407.144 36.1532 360.397C34.6882 344.758 34.0678 306.675 60.0063 290.863C78.9646 279.339 103.335 284.903 124.689 291.862C161.313 303.798 187.647 315.803 210.122 330.789C228.683 342.913 244.879 358.316 257.914 376.244L257.914 373.35C244.995 356.075 229.146 341.198 211.087 329.393Z" fill="#FFFBEF"/>
<path d="M123.999 326.224C119.082 325.101 114.049 324.564 109.005 324.622C86.2721 325.535 69.8301 347.29 67.0725 367.787C66.6772 370.727 66.4815 373.69 66.4865 376.657C66.4865 392.676 72.1051 409.952 83.5145 429.14C119.501 489.666 187.561 529.592 257.914 531.849L257.914 530.126C188.147 527.87 120.673 488.271 84.9967 428.261C71.657 405.87 66.3487 386.113 68.7788 367.976C71.4502 348.185 87.2545 327.189 109.074 326.31C113.985 326.254 118.885 326.78 123.672 327.878C178.591 339.346 226.802 371.921 257.914 418.581L257.914 415.498C226.477 369.583 178.493 337.595 123.999 326.224Z" fill="#FFFBEF"/>
<path d="M225.409 419.753C214.689 408.264 203.624 396.379 190.405 387.267C180.064 380.102 163.777 371.765 145.353 372.575C140.46 372.57 135.654 373.866 131.427 376.33C125.257 380.257 121.517 388.025 121.517 396.551C121.517 397.395 121.517 398.274 121.621 399.118C122.414 408.023 126.705 416.032 130.807 422.698C144.546 444.724 163.141 463.32 185.17 477.067C207.199 490.814 232.08 499.347 257.914 502.016L257.914 500.294C207.364 495.126 158.865 465.035 132.272 421.819C128.273 415.326 124.085 407.523 123.344 398.98C122.551 390.109 126.102 381.756 132.358 377.794C136.332 375.514 140.84 374.325 145.422 374.349C163.381 373.522 179.271 381.721 189.423 388.732C202.487 397.74 213.551 409.556 224.151 420.975L257.914 457.147L257.914 454.615L225.409 419.753Z" fill="#FFFBEF"/>
<path d="M215.964 448.879C219.825 425.592 182.804 412.828 168.224 409.866C167.397 409.584 166.514 409.508 165.652 409.647C164.79 409.785 163.974 410.132 163.277 410.658C162.858 411.159 162.541 411.738 162.346 412.362C162.151 412.985 162.081 413.642 162.14 414.292L162.14 414.447C162.14 422.939 166 431.93 172.808 439.767C180.305 448.38 197.264 463.985 207.778 461.022C212.069 459.799 214.827 455.717 215.964 448.879ZM174.101 438.544C167.569 431.017 163.932 422.422 163.863 414.43C163.731 413.53 163.96 412.613 164.501 411.881C165.242 411.14 166.69 411.313 167.948 411.554C181.133 414.241 217.929 426.78 214.327 448.586C213.31 454.718 210.983 458.335 207.433 459.351C197.264 462.193 179.943 445.365 174.101 438.63L174.101 438.544Z" fill="#FFFBEF"/>
<path d="M42.668 599.454C51.8369 592.565 61.1092 584.9 66.7967 574.479C70.4164 567.402 72.7506 559.739 73.6907 551.846C77.896 523.736 71.3985 497.4 55.8527 479.624C51.3716 474.457 47.2352 471.443 42.668 470.048C37.7216 468.497 30.9828 469.066 27.0188 473.785C25.5111 475.79 24.3464 478.031 23.5718 480.417C12.0762 510.422 -0.832712 540.306 -14.8274 569.208L-15.1549 569.863C-18.8776 577.545 -22.7209 585.503 -23.9791 594.08C-24.1984 595.604 -24.3078 597.14 -24.3066 598.679C-24.385 602.431 -23.6998 606.16 -22.2926 609.639C-20.8853 613.118 -18.7853 616.275 -16.12 618.918C-13.3734 621.428 -10.0443 623.215 -6.43345 624.117C-2.82261 625.02 0.956286 625.008 4.56179 624.085C14.782 621.88 25.4849 613.217 34.9468 605.569C37.6699 603.33 40.2723 601.315 42.668 599.454ZM-14.9308 617.661C-20.7217 612.252 -23.5482 603.313 -22.2211 594.322C-20.9975 586.019 -17.2058 578.182 -13.6037 570.621L-13.2763 569.966C0.735647 541.012 13.679 511.093 25.1746 481.037C25.8797 478.831 26.9391 476.754 28.3114 474.888C31.2586 471.443 36.9288 470.065 42.0993 471.684C46.3046 472.993 50.2341 475.887 54.5084 480.761C66.6761 494.679 73.1737 513.97 73.1737 535.259C73.1647 540.725 72.7499 546.183 71.9327 551.588C71.0067 559.282 68.7252 566.752 65.1939 573.652C59.6788 583.78 50.5788 591.376 41.5477 598.076C39.1348 599.799 36.5152 601.969 33.7576 604.208C24.4508 611.735 13.9203 620.261 4.09647 622.38C0.781786 623.228 -2.69154 623.24 -6.01228 622.417C-9.33299 621.593 -12.3974 619.959 -14.9308 617.661Z" fill="#FFFBEF"/>
<path d="M44.2018 573.549C49.5791 566.263 52.6986 552.277 53.3363 542.373C53.7991 538.166 53.1205 533.912 51.3715 530.057C50.4108 528.072 48.8913 526.41 46.9994 525.275C45.1075 524.14 42.9254 523.581 40.7204 523.667C38.4093 524.006 36.2312 524.958 34.4125 526.423C26.2087 532.383 21.8483 542.114 18.0911 551.553C16.0781 556.014 14.9094 560.809 14.6441 565.695C14.6221 567.912 15.0562 570.111 15.9195 572.154C16.9057 574.508 18.5111 576.552 20.5653 578.068C22.6195 579.584 25.046 580.516 27.5875 580.766C30.7415 581.065 33.9199 580.56 36.8256 579.298C39.7312 578.036 42.269 576.058 44.2018 573.549ZM27.7081 579.044C25.4534 578.854 23.2947 578.046 21.4701 576.709C19.6454 575.372 18.2256 573.557 17.3672 571.465C14.7647 565.436 17.1604 558.357 19.625 552.191C23.296 542.976 27.5358 533.502 35.3604 527.818C36.9348 526.527 38.8277 525.682 40.841 525.372C42.7028 525.32 44.5393 525.812 46.1253 526.788C47.7112 527.764 48.9775 529.182 49.7687 530.867C51.1119 533.649 51.7454 536.72 51.6128 539.806C51.6128 540.581 51.6128 541.408 51.6128 542.269C51.0958 550.33 48.3382 565.04 42.8231 572.516C41.0665 574.802 38.7542 576.602 36.1058 577.745C33.4574 578.887 30.5608 579.334 27.6909 579.044L27.7081 579.044Z" fill="#FFFBEF"/>
<path d="M190.836 591.962C168.672 585.279 151.041 584.952 136.942 590.963C128.928 594.408 122.121 599.765 115.968 605.104C111.552 608.761 107.464 612.796 103.748 617.161C101.525 619.9 99.5429 622.862 97.6126 625.773C96.251 627.789 94.855 629.856 93.4073 631.819C78.7749 651.558 55.8871 663.994 35.6017 674.105L34.6883 674.553C28.7185 677.291 23.0226 680.59 17.6774 684.405C11.8597 688.948 7.01778 694.615 3.44066 701.07C-0.136461 707.524 -2.37532 714.633 -3.1422 721.971C-3.33425 723.826 -3.43205 725.688 -3.43523 727.552C-3.37133 740.506 0.945874 753.08 8.85321 763.344C11.8169 767.276 15.3755 770.722 19.4009 773.558C24.8673 777.096 30.9369 779.6 37.3079 780.948C48.6261 783.594 60.3581 783.965 71.8208 782.037C83.2835 780.109 94.2479 775.921 104.076 769.717C108.419 766.944 112.555 763.775 116.571 760.709C119.604 758.366 122.741 755.955 125.947 753.819C145.613 740.35 169.037 733.441 192.87 734.08C216.429 734.819 239.17 742.895 257.914 757.178L257.914 755.025C239.081 740.981 216.39 733.052 192.904 732.306C168.706 731.661 144.922 738.671 124.947 752.338C121.707 754.577 118.553 756.989 115.502 759.331C111.521 762.38 107.419 765.532 103.128 768.253C83.6131 780.435 60.066 784.398 37.6354 779.277C31.5003 777.98 25.6574 775.563 20.4006 772.146C16.5144 769.423 13.0826 766.104 10.232 762.311C1.40651 750.882 -2.75673 736.535 -1.41872 722.161C-0.683184 715.046 1.47829 708.153 4.93677 701.891C8.39526 695.629 13.0799 690.128 18.7115 685.714C23.9767 681.979 29.5794 678.744 35.4466 676.051L36.36 675.586C56.835 665.407 79.9297 652.85 94.7861 632.801C96.2683 630.803 97.6816 628.701 99.0431 626.686C100.939 623.861 102.921 620.951 105.093 618.264C108.76 613.948 112.797 609.96 117.157 606.344C123.224 601.091 129.893 595.786 137.684 592.479C151.471 586.622 168.706 586.984 190.405 593.547C214.792 600.944 237.673 612.608 257.983 627.995L257.983 625.825C237.739 610.725 215.016 599.266 190.836 591.962Z" fill="#FFFBEF"/>
<path d="M257.914 649.009L257.914 646.753C245.162 635.951 230.411 627.758 214.499 622.638C193.593 616.162 171.774 616.489 153.074 623.551C134.375 630.613 118.984 644.221 104.127 657.259C91.5632 668.352 78.5509 679.806 63.5221 687.333C61.3505 688.418 59.0928 689.434 56.9039 690.433C52.4219 692.338 48.0845 694.566 43.9261 697.099C36.6702 701.784 31.8618 707.916 30.4313 714.324C30.11 715.777 29.9482 717.262 29.9487 718.75C29.9487 729.085 37.825 738.3 46.3562 742.262C55.1805 746.361 66.1418 746.998 79.878 744.208C94.7172 741.177 109.022 735.337 122.862 729.705C138.683 723.263 155.039 716.58 172.119 714.203C190.353 711.654 208.881 714.048 224.582 716.718C236.06 718.682 247.676 721.248 257.914 726.036L257.914 724.142C247.694 719.491 236.215 716.959 224.875 715.013C209.036 712.326 190.405 709.845 171.877 712.498C154.643 714.927 138.132 721.644 122.207 728.12C108.419 733.736 94.2173 739.54 79.5333 742.537C66.1763 745.259 55.5596 744.656 47.0801 740.711C37.9629 736.474 29.6212 725.916 32.1202 714.703C33.4646 708.709 37.9974 702.956 44.8741 698.512C48.9536 696.021 53.2105 693.834 57.6106 691.967C59.8166 690.968 62.0916 689.934 64.2977 688.832C79.5333 681.218 92.6145 669.678 105.282 658.517C120.001 645.512 135.236 632.077 153.695 625.119C172.153 618.16 193.456 617.884 214.017 624.24C230.158 629.482 245.085 637.904 257.914 649.009Z" fill="#FFFBEF"/>
<path d="M257.914 679.048L257.914 676.74C244.682 665.37 228.664 657.72 211.5 654.572C193.835 651.127 174.566 651.817 154.212 656.484C148.576 657.776 142.475 659.791 139.838 665.097C139.09 666.594 138.707 668.246 138.718 669.919C138.851 672.498 139.594 675.008 140.885 677.245C142.176 679.481 143.979 681.38 146.146 682.786C151.73 686.455 158.486 687.161 165.104 687.953C189.457 690.537 214.051 693.947 238.18 698.047C245.798 699.356 252.588 700.785 258 704.626L258 702.508C252.485 699.063 245.849 697.616 238.473 696.359C214.344 692.242 189.681 688.832 165.277 686.231C158.951 685.559 152.419 684.87 147.18 681.442C142.303 678.239 138.718 671.401 141.458 665.941C143.785 661.307 149.438 659.464 154.677 658.258C174.807 653.66 193.835 653.091 211.259 656.364C228.594 659.517 244.732 667.363 257.914 679.048Z" fill="#FFFBEF"/>
<path d="M257.914 813.708L257.914 811.245C243.711 797.452 224.881 789.433 205.089 788.75C183.287 787.906 160.054 795.347 139.717 809.729C136.115 812.261 132.582 815.017 129.187 817.687C124.361 821.459 119.38 825.352 114.158 828.659C103.679 835.29 90.9083 840.441 73.9837 844.867C51.9575 850.62 -2.86645 860.507 -36.078 827.936C-53.7954 810.573 -60.9306 785.615 -67.8245 761.26C-72.5297 744.759 -79.7166 736.216 -89.1785 735.837C-95.7967 735.579 -102.501 739.971 -106.275 747.033C-109.481 753.078 -110.36 760.037 -111.049 767.254C-112.394 781.596 -113.072 795.347 -113.083 808.507C-113.083 852.687 -105.379 889.926 -90.1264 919.914L-88.2478 919.914C-108.171 881.211 -115.255 830.123 -109.326 767.409C-108.637 760.123 -107.809 753.63 -104.742 747.842C-101.295 741.349 -95.2107 737.318 -89.2302 737.508C-80.6128 737.852 -73.9429 745.982 -69.4274 761.777C-62.5334 786.184 -55.2776 811.435 -37.2327 829.124C-3.38351 862.298 52.1644 852.308 74.4662 846.486C91.5804 842.008 104.489 836.789 115.123 830.072C120.432 826.627 125.464 822.786 130.29 818.996C133.737 816.344 137.184 813.588 140.751 811.073C160.795 796.932 183.649 789.594 205.089 790.404C225.478 791.282 244.953 799.98 257.914 813.708Z" fill="#FFFBEF"/>
<path d="M257.914 844.919L257.914 842.456C243.712 827.574 221.721 820.96 202.917 821.218C175.962 821.58 150.162 833.275 128.101 844.092C125.688 845.281 123.292 846.469 120.88 847.675C100.077 858.01 78.5853 868.706 55.5424 872.667C24.8644 877.938 -9.86382 871.582 -50.607 853.256C-54.9501 851.309 -59.8793 849.105 -64.8774 850.121C-72.9605 851.843 -76.6315 860.679 -76.6315 869.912C-76.6321 871.932 -76.4591 873.949 -76.1145 875.94C-73.2018 892.786 -64.774 907.461 -54.209 920L-51.9513 920C-62.792 907.409 -71.4783 892.648 -74.3566 875.647C-76.08 865.416 -73.2707 853.583 -64.481 851.791C-60.0344 850.896 -55.381 852.98 -51.2619 854.84C-10.1913 873.305 24.8644 879.695 55.8871 874.373C79.1713 870.359 100.784 859.611 121.69 849.208C124.103 848.019 126.515 846.814 128.911 845.625C150.817 834.843 176.393 823.234 203.021 822.941C221.945 822.596 244.126 829.452 257.914 844.919Z" fill="#FFFBEF"/>
<path d="M257.914 898.366L257.914 895.369C243.833 876.043 218.825 865.64 197.04 863.797C167.534 861.282 138.08 870.394 112.09 878.42C84.8072 886.86 56.5765 895.645 27.8632 893.492C26.1397 893.371 24.5197 893.216 22.8479 893.044C17.0752 892.26 11.2265 892.208 5.44074 892.889C-1.45318 893.991 -9.67422 898.056 -12.3456 905.962C-12.9006 907.568 -13.1746 909.258 -13.1557 910.957C-13.1336 914.091 -12.3781 917.176 -10.9496 919.965L-9.01931 919.965C-10.2194 917.973 -10.9923 915.753 -11.2889 913.446C-11.5856 911.139 -11.3997 908.796 -10.7428 906.565C-8.31268 899.331 -0.40188 895.61 5.69925 894.629C11.3377 893.977 17.0359 894.041 22.6583 894.818C24.3818 894.973 26.1053 895.128 27.7081 895.266C56.766 897.384 85.1518 888.6 112.59 880.125C138.442 872.133 167.741 863.091 196.868 865.571C218.997 867.397 244.471 878.214 257.914 898.366Z" fill="#FFFBEF"/>
<path d="M205.003 919.965L208.76 919.965C194.972 912.525 178.444 907.34 159.331 904.463C138.063 901.294 100.439 899.641 72.2257 919.965L75.2246 919.965C102.8 901.467 138.597 903.12 159.089 906.186C175.027 908.324 190.524 912.975 205.003 919.965Z" fill="#FFFBEF"/>
<path d="M-564.084 600.143C-532.958 597.491 -496.265 595.527 -460.193 600.85C-395.148 610.461 -336.688 642.291 -280.158 673.088C-264.646 681.563 -246.963 691.157 -234.727 705.591C-218.698 724.538 -212.856 749.978 -207.702 772.473C-198.689 811.796 -188.468 856.373 -197.827 898.659C-199.068 904.274 -200.671 909.906 -202.204 915.349L-203.497 919.914L-201.774 919.914L-200.619 915.832C-199.068 910.354 -197.465 904.687 -196.207 899.038C-186.779 856.373 -197.034 811.59 -206.1 772.094C-211.27 749.393 -217.182 723.677 -233.486 704.471C-245.929 689.796 -263.716 680.116 -279.399 671.573C-336.067 640.707 -394.649 608.79 -460.003 599.23C-496.196 593.874 -533.062 595.786 -564.291 598.507C-577.614 599.644 -591.264 601.16 -603.931 605.087L-603.931 606.809C-591.195 602.813 -577.458 601.315 -564.084 600.143Z" fill="#FFFBEF"/>
<path d="M-366.263 657.122C-308.526 679.186 -273.781 705.798 -256.942 740.832C-248.566 758.246 -244.878 777.796 -242.293 796.312C-237.553 829.314 -233.313 875.751 -245.343 919.914L-243.62 919.914C-231.659 875.596 -235.916 829.124 -240.656 796.071C-243.327 777.399 -246.981 757.712 -255.46 740.074C-277.865 693.568 -329.105 669.454 -365.763 655.52C-426.878 632.163 -516.189 610.133 -603.949 632.163L-603.949 633.886C-516.361 611.856 -427.24 633.817 -366.263 657.122Z" fill="#FFFBEF"/>
<path d="M-501.194 659.464C-467.473 664.538 -434.488 673.665 -402.956 686.644C-347.029 709.725 -310.836 741.176 -295.324 780.155C-288.43 797.81 -285.811 817.05 -283.794 835.273C-280.847 862.109 -278.624 891.993 -285.259 919.931L-283.536 919.931C-276.917 891.855 -279.175 861.954 -282.14 835.084C-284.156 816.774 -286.707 797.397 -293.773 779.535C-309.284 740.108 -345.84 708.33 -402.353 685.077C-434.008 672.033 -467.128 662.867 -500.988 657.776C-542.679 651.507 -576.58 653.935 -603.88 665.165L-603.88 667.026C-576.7 655.658 -542.903 653.195 -501.194 659.464Z" fill="#FFFBEF"/>
<path d="M-594.504 735.096C-590.04 741.418 -587.162 748.876 -584.37 755.972C-583.249 758.866 -582.095 761.863 -580.836 764.757C-569.187 791.162 -548.665 812.665 -522.824 825.541C-514.856 829.279 -506.692 832.585 -498.368 835.445C-490.853 838.184 -483.098 840.992 -475.79 844.454C-466.3 849.193 -457.093 854.478 -448.214 860.283C-431.548 870.738 -414.331 881.538 -394.631 884.242C-387.703 885.009 -380.726 885.263 -373.76 885C-368.745 885 -363.557 884.862 -358.507 885.207C-348.476 885.878 -334.861 888.807 -326.967 898.831C-322.481 904.934 -320.252 912.404 -320.659 919.965L-318.936 919.965C-318.568 912.022 -320.961 904.196 -325.709 897.815C-333.999 887.291 -348.115 884.242 -358.455 883.536C-363.626 883.192 -368.796 883.26 -373.863 883.329C-380.737 883.59 -387.622 883.342 -394.459 882.589C-413.797 879.936 -430.859 869.223 -447.353 858.871C-456.279 853.031 -465.538 847.717 -475.084 842.955C-482.46 839.51 -490.267 836.617 -497.816 833.878C-506.081 831.036 -514.187 827.753 -522.1 824.043C-547.551 811.34 -567.756 790.142 -579.216 764.119C-580.457 761.26 -581.612 758.28 -582.663 755.404C-585.49 748.152 -588.42 740.643 -593.004 734.149C-595.886 730.047 -599.532 726.539 -603.742 723.814L-603.742 725.847C-600.147 728.369 -597.021 731.499 -594.504 735.096Z" fill="#FFFBEF"/>
<path d="M-590.746 808.73C-588.661 811.796 -586.61 815 -584.645 818.101C-578.251 828.108 -571.65 838.442 -562.378 846.125C-550.141 856.27 -534.527 860.8 -519.429 865.175C-512.897 867.069 -506.141 869.033 -499.764 871.41C-488.607 875.888 -477.759 881.101 -467.293 887.015C-450.369 896.092 -432.824 905.462 -413.572 908.115C-411.952 908.339 -410.298 908.529 -408.643 908.701C-402.025 909.424 -395.148 910.182 -389.685 913.868C-387.397 915.431 -385.494 917.492 -384.118 919.897L-382.205 919.897C-383.723 916.919 -385.956 914.362 -388.703 912.456C-394.459 908.494 -401.525 907.719 -408.385 906.978C-410.108 906.806 -411.642 906.617 -413.262 906.393C-432.221 903.792 -449.593 894.473 -466.38 885.482C-476.932 879.527 -487.872 874.285 -499.126 869.791C-505.572 867.379 -512.345 865.416 -518.912 863.504C-533.837 859.181 -549.279 854.702 -561.24 844.781C-570.306 837.271 -576.838 827.04 -583.146 817.222C-585.128 814.122 -587.179 810.901 -589.282 807.818C-593.432 801.579 -598.315 795.86 -603.828 790.783L-603.828 793.108C-598.921 797.833 -594.536 803.071 -590.746 808.73Z" fill="#FFFBEF"/>
<path d="M-540.404 888.962C-519.032 897.264 -497.144 905.79 -480.392 919.965L-477.807 919.965C-494.921 904.825 -517.636 895.955 -539.852 887.36C-562.964 878.369 -586.714 869.119 -603.897 852.739L-603.897 855.098C-586.593 870.962 -563.154 880.057 -540.404 888.962Z" fill="#FFFBEF"/>
<path d="M-551.692 919.965C-559.679 913.088 -568.435 907.158 -577.786 902.293L-580.216 900.95C-588.39 896.678 -596.277 891.879 -603.828 886.585L-603.828 888.703C-596.518 893.743 -588.916 898.344 -581.06 902.483L-578.613 903.826C-569.967 908.355 -561.812 913.763 -554.278 919.965L-551.692 919.965Z" fill="#FFFBEF"/>
<path d="M-389.082 790.008C-386.669 781.654 -396.734 769.941 -402.749 762.948L-404.197 761.226C-427.728 733.431 -460.709 715.31 -496.8 710.345C-500.419 709.88 -504.59 709.535 -508.174 711.292C-510.31 712.488 -512.079 714.242 -513.294 716.366C-514.508 718.49 -515.121 720.904 -515.068 723.349C-515.086 723.676 -515.086 724.004 -515.068 724.331C-514.508 729.413 -512.313 734.176 -508.812 737.904C-499.178 749.048 -484.683 753.406 -470.896 757.798C-461.296 760.761 -451.386 763.809 -442.992 769.011C-438.419 772.281 -434.208 776.029 -430.428 780.19C-420.725 789.956 -409.746 801.048 -398.096 797.414C-393.063 795.95 -390.116 793.47 -389.082 790.008ZM-429.067 779.07C-432.944 774.821 -437.259 770.993 -441.941 767.65C-450.558 762.328 -460.555 759.245 -470.241 756.248C-484.58 751.821 -498.127 747.636 -507.433 736.87C-510.685 733.422 -512.74 729.019 -513.293 724.314C-513.515 722.043 -513.077 719.756 -512.031 717.728C-510.986 715.699 -509.378 714.015 -507.399 712.877C-504.245 711.327 -500.402 711.654 -497.058 712.085C-461.392 716.991 -428.798 734.897 -405.541 762.363L-404.093 764.085C-398.923 770.165 -390.461 779.948 -390.461 787.286C-390.457 788.055 -390.562 788.82 -390.771 789.56C-391.581 792.419 -394.218 794.555 -398.509 795.898C-409.074 799.205 -419.708 788.509 -429.067 779.07Z" fill="#FFFBEF"/>
</g>
</svg>
