<svg width="1183" height="1019" viewBox="0 0 1183 1019" fill="none" xmlns="http://www.w3.org/2000/svg">
<g opacity="0.1" filter="url(#filter0_d_604_14)">
<path d="M24.6542 318.511C20.9025 325.869 16.8481 333.267 12.9149 340.443C2.82954 358.979 -7.73979 378.162 -14.2751 398.76C-34.123 461.423 -13.0043 534.8 37.0794 577.229C58.9041 595.705 85.0856 608.237 108.201 619.294C140.797 634.879 170.347 647.594 202.116 645.047C217.324 643.834 231.928 638.983 246.047 634.374C257.137 630.394 268.512 627.265 280.075 625.015C303.312 621.093 327.436 624.51 350.672 627.804C371.488 630.756 393.031 633.869 414.27 631.847C468.146 626.834 519.4 590.732 570.916 521.418C578.016 511.857 585.035 501.932 591.974 492.31C622.593 449.396 654.261 405.027 699.04 377.617C714.127 368.379 730.708 361.122 746.743 354.087C757.696 349.297 768.931 344.344 779.863 338.765C792.974 332.014 810.966 320.937 815.686 302.683C818.732 290.939 815.565 278.609 812.076 268.097C805.46 248.227 796.262 228.761 787.367 209.942C771.23 175.578 754.388 140.143 753.803 102.262C753.258 66.2612 767.801 29.6336 793.963 0.242554H785.894C760.943 30.0581 747.187 66.4835 747.732 102.363C748.337 141.558 765.381 177.64 781.88 212.529C790.695 231.187 799.812 250.491 806.307 270.018C809.514 279.68 812.459 290.939 809.817 301.167C805.783 317.056 789.162 327.163 777.08 333.368C766.409 338.866 755.174 343.778 744.303 348.529C728.166 355.644 711.303 362.982 695.893 372.442C650.045 400.499 618.014 445.374 586.972 488.793C580.134 498.375 573.054 508.279 565.974 517.8C515.547 585.638 465.706 620.891 413.645 625.823C393.071 627.724 371.912 624.732 351.439 621.781C327.658 618.425 303.029 614.948 278.825 619.011C266.961 621.316 255.289 624.519 243.909 628.593C230.133 633.121 215.872 637.831 201.41 638.983C171.154 641.408 142.35 629.017 110.642 613.796C87.869 602.901 62.0506 590.55 40.8311 572.58C-7.4574 531.687 -27.749 460.959 -8.66753 400.58C-2.31378 380.548 8.03373 361.627 18.0585 343.334C22.0927 336.138 26.1267 328.679 29.8785 321.24C58.5204 264.395 74.1097 201.848 75.5045 138.182C76.6541 91.4607 70.2304 44.8615 56.4836 0.202087H50.1297C82.6246 103.92 73.8504 222.01 24.6542 318.511Z" fill="#342F2C"/>
<path d="M558.128 990.119C561.516 985.167 565.026 980.012 568.213 974.918C584.718 948.511 595.194 918.775 598.892 887.836C600.445 874.637 600.909 860.932 601.172 847.671C602.019 816.259 602.805 786.565 617.853 761.034C643.671 717.231 700.068 706.902 731.393 704.617C748.518 703.384 766.107 703.526 783.131 703.667C810.502 703.89 838.822 704.132 866.234 698.614C872.87 697.28 879.527 695.602 885.961 693.965C896.219 691.126 906.649 688.951 917.185 687.456C938.99 684.868 961.318 688.204 984.172 692.186C1003.8 695.602 1022.94 699.22 1041.15 706.032C1076.55 719.252 1106.61 744.014 1135.65 767.948C1149.61 779.429 1163.89 791.173 1178.88 801.786V794.367C1165.3 784.523 1152.27 773.789 1139.51 763.278C1110.06 739.021 1079.6 713.936 1043.25 700.352C1024.57 693.358 1005.13 689.679 985.201 686.202C967.672 683.15 950.426 680.482 933.322 680.482C927.687 680.465 922.056 680.783 916.459 681.432C905.663 682.955 894.978 685.176 884.468 688.082C878.115 689.699 871.539 691.357 865.044 692.671C838.258 698.068 810.26 697.825 783.171 697.603C766.046 697.462 748.317 697.32 730.95 698.573C698.455 700.938 639.859 711.773 612.649 757.962C596.815 784.846 595.947 816.704 595.12 847.51C594.757 860.629 594.394 874.192 592.882 887.129C589.286 917.169 579.113 946.042 563.089 971.684C559.943 976.697 556.473 981.791 553.125 986.683C547.74 994.566 542.273 1002.55 537.695 1010.94H544.674C548.788 1003.8 553.549 996.911 558.128 990.119Z" fill="#342F2C"/>
<path d="M38.2896 1010.68C69.6358 970.476 88.6728 922.026 93.0932 871.2C93.779 862.913 94.122 854.059 91.8629 845.508C87.8287 830.368 76.634 818.705 65.0762 808.335C60.1344 803.928 54.9909 799.542 50.0289 795.317C33.3478 781.168 16.0818 766.371 4.01972 748.017C-1.27075 739.561 -6.03351 730.785 -10.241 721.739C-17.4823 707.003 -24.9655 691.761 -36.9872 679.956C-54.5357 662.734 -78.3169 656.407 -95.1593 654.143C-101.578 653.276 -108.047 652.837 -114.523 652.829C-153.09 652.829 -189.155 668.374 -211.826 695.541C-240.832 730.329 -242.889 783.229 -216.546 815.976C-208.478 825.901 -198.393 833.906 -188.549 841.648C-175.701 851.755 -163.558 861.316 -155.913 874.778C-139.212 904.129 -150.023 941.787 -161.44 974.777L-173.946 1010.9H-167.552L-155.732 976.778C-143.872 942.515 -132.717 903.32 -150.649 871.766C-158.899 857.293 -172.07 846.923 -184.818 836.877C-194.379 829.358 -204.283 821.555 -211.826 812.176C-236.435 781.592 -234.397 732.068 -207.187 699.443C-182.478 669.789 -138.829 654.366 -95.9662 660.147C-80.0314 662.289 -57.642 668.232 -41.2231 684.282C-29.9477 695.359 -23.0695 709.469 -15.6669 724.427C-11.3574 733.686 -6.47321 742.665 -1.04314 751.312C11.503 770.393 29.0918 785.392 46.1158 799.825C51.0576 804.05 56.2012 808.396 61.0422 812.762C71.9142 822.485 82.4432 833.36 86.0134 846.944C87.691 854.712 88.0456 862.708 87.0622 870.594C82.7341 920.242 64.1475 967.57 33.5495 1006.86L30.3626 1010.9H38.1282C38.1282 1010.9 38.2493 1010.76 38.2896 1010.68Z" fill="#342F2C"/>
<path d="M-188.065 302.117C-147.543 295.103 -110.711 259.668 -91.4682 231.49C-67.8282 196.803 -55.3022 156.011 -46.1851 120.697C-43.341 109.681 -40.8197 97.0875 -46.891 86.7177C-51.4899 78.9151 -60.022 74.5893 -66.0329 72.0626C-78.0046 67.079 -90.8494 64.5431 -103.813 64.6036C-131.325 64.6036 -159.221 75.8224 -173.321 100.989C-178.404 110.024 -181.228 120.051 -183.951 129.733C-185.181 134.059 -186.432 138.526 -187.864 142.811C-193.88 160.597 -203.494 176.947 -216.103 190.84C-218.906 193.912 -221.952 196.904 -224.897 199.956C-234.639 209.76 -244.725 219.907 -249.263 233.37C-254.729 249.541 -250.675 267.875 -238.431 282.247C-225.26 297.569 -205.997 305.19 -188.065 302.117ZM-243.494 235.25C-239.46 223.121 -230.283 213.924 -220.601 204.181C-217.595 201.169 -214.549 198.117 -211.625 194.862C-198.452 180.352 -188.413 163.271 -182.135 144.691C-180.643 140.264 -179.372 135.716 -178.101 131.33C-175.358 121.546 -172.756 112.309 -168.016 103.9C-148.813 69.6773 -101.332 63.6131 -68.3727 77.6214C-59.9616 81.1993 -54.9391 84.9389 -52.095 89.7498C-47.1734 98.1184 -49.4728 109.297 -52.095 119.121C-61.0911 153.949 -73.3953 194.114 -96.4705 228.013C-115.027 255.241 -150.427 289.423 -189.094 296.094C-204.908 298.823 -222.053 292.051 -233.812 278.204C-244.664 265.51 -248.295 249.44 -243.494 235.25Z" fill="#342F2C"/>
<path d="M1066.47 427.343C1092.57 378.456 1100.67 321.926 1089.36 267.653C1084.24 243.659 1075.77 228.235 1062.68 219.139C1054.35 213.338 1043.82 209.982 1030.4 208.87C1027.52 208.628 1024.69 208.507 1021.95 208.507C1011.22 208.28 1000.57 210.535 990.849 215.096C964.627 227.973 954.541 256.495 944.799 284.046C941.169 294.952 936.94 305.648 932.132 316.085C920.917 339.069 902.925 358.373 885.537 377.03C876.642 386.571 867.384 396.456 859.175 406.785C828.192 445.434 818.551 487.156 833.396 518.386C845.499 543.755 863.955 556.955 888.422 557.581C954.521 559.259 1044.52 467.973 1066.47 427.343ZM888.624 551.517C866.617 550.951 849.876 538.924 838.903 515.779C818.43 472.683 852.881 424.351 863.935 410.666C872.003 400.559 881.181 390.715 890.016 381.255C907.705 362.254 925.98 342.626 937.598 318.834C942.517 308.195 946.84 297.29 950.547 286.169C960.33 258.516 969.589 232.42 993.551 220.615C1003.54 215.703 1015.74 213.803 1029.86 214.995C1042.14 216.006 1051.72 219.038 1059.13 224.193C1070.89 232.278 1078.59 246.63 1083.33 269.027C1094.35 321.926 1086.45 377.022 1061.02 424.674C1040.53 462.616 952.928 551.517 890.399 551.517H888.624Z" fill="#342F2C"/>
<path d="M599.659 967.863C606.86 956.018 614.303 943.768 619.507 930.629C627.696 909.951 630.197 887.412 632.618 865.621C633.445 858.223 634.292 850.562 635.341 843.083C640.646 805.849 652.223 780.137 670.74 764.451C688.894 749.068 712.917 743.65 735.972 739.406C809.651 725.895 884.614 720.755 959.443 724.083C979.028 724.973 1001.64 726.509 1022.35 733.786C1043.07 741.063 1061.18 753.555 1079.56 766.856C1113.41 791.335 1146.71 817.27 1178.9 844.134V841.486C1147.07 814.985 1114.17 789.395 1080.75 765.219C1062.23 751.837 1043.88 739.203 1023.02 731.886C1002.16 724.569 979.25 722.951 959.544 722.082C944.752 721.408 929.96 721.078 915.168 721.092C854.919 721.085 794.793 726.552 735.528 737.425C713.341 741.467 687.905 747.188 669.369 762.894C650.448 778.924 638.649 805.06 633.263 842.8C632.214 850.299 631.347 857.98 630.52 865.399C628.12 887.068 625.639 909.465 617.55 929.881C612.427 942.859 605.024 955.028 597.864 966.812C592.922 974.898 587.778 983.327 583.462 991.979C580.396 998.073 577.813 1004.4 575.736 1010.9H577.754C579.801 1004.72 582.302 998.698 585.237 992.888C589.654 984.318 594.737 975.949 599.659 967.863Z" fill="#342F2C"/>
<path d="M657.871 989.088C665.061 978.999 671.474 968.376 677.054 957.312C685.122 940.211 687.805 921.351 690.427 903.118C691.395 896.407 692.444 889.474 693.654 882.743C699.604 850.744 710.073 829.6 726.613 816.178C742.749 803.1 764.614 798.268 783.837 794.771C848.322 783.037 913.918 778.603 979.391 781.552C998.917 782.421 1019.73 784.058 1038.81 790.021C1048.72 793.206 1058.33 797.264 1067.52 802.15C1076.47 806.758 1085.21 811.872 1093.74 816.825L1102.57 821.979C1116.43 830.065 1130.01 838.009 1143.04 845.67C1156.07 853.331 1166.31 859.537 1176.18 865.722L1178.84 867.38V864.995L1177.1 863.903C1167.22 857.718 1156.93 851.512 1143.92 843.831C1130.91 836.149 1117.32 828.226 1103.44 820.14L1094.61 814.985C1086.13 810.013 1077.38 804.878 1068.38 800.249C1059.08 795.364 1049.37 791.305 1039.36 788.121C1019.95 782.057 999.017 780.44 979.452 779.571C966.354 778.978 953.257 778.688 940.16 778.701C887.6 778.706 835.147 783.441 783.434 792.851C763.969 796.409 741.801 801.321 725.302 814.702C708.379 828.428 697.688 849.956 691.637 882.46C690.366 889.211 689.358 896.185 688.389 902.916C685.787 921.008 683.085 939.705 675.198 956.523C669.659 967.497 663.293 978.032 656.157 988.037C651.175 995.435 646.072 1003.06 641.573 1010.98H643.893C648.25 1003.4 653.111 996.143 657.871 989.088Z" fill="#342F2C"/>
<path d="M716.265 1010.62C722.956 1002.16 729.081 993.263 734.6 983.994C742.306 970.289 745.291 954.927 748.195 940.09C749.325 934.248 750.515 928.224 751.947 922.423C755.981 905.908 763.707 882.298 782.486 867.845C796.605 857.071 815.283 853.008 831.702 850.036C886.996 840.164 943.215 836.49 999.32 839.08C1016.38 839.849 1036.37 841.304 1055.23 846.317C1064.56 848.878 1073.7 852.059 1082.6 855.838C1088.66 858.344 1094.71 860.992 1100.5 863.56L1107.74 866.753C1123.87 873.788 1139.63 880.034 1154.35 885.37L1161.25 887.857C1167.3 889.999 1172.95 892.061 1178.88 894.345V892.182C1173.19 889.999 1167.68 888.018 1161.94 885.957L1155.04 883.47C1140.35 878.154 1124.78 871.908 1108.64 864.894L1101.4 861.7C1095.57 859.133 1089.56 856.485 1083.47 853.958C1074.49 850.151 1065.26 846.944 1055.86 844.356C1036.82 839.303 1016.69 837.827 999.522 837.079C988.092 836.554 976.662 836.298 965.232 836.311C920.364 836.288 875.584 840.266 831.42 848.197C814.779 851.209 795.818 855.353 781.336 866.389C762.053 881.125 754.267 905.18 750.071 921.998C748.619 927.84 747.449 933.904 746.299 939.766C743.435 954.441 740.47 969.642 732.926 983.064C727.461 992.255 721.397 1001.07 714.773 1009.46L713.623 1010.96H716.164L716.265 1010.62Z" fill="#342F2C"/>
<path d="M792.127 1010.68C799.288 1000.21 802.616 988.259 805.843 976.717C807.195 971.866 808.586 966.873 810.24 962.123C815.081 948.155 822.665 930.69 838.338 919.673C850.44 911.163 865.972 907.868 879.567 905.524C925.669 897.388 972.527 894.372 1019.29 896.528C1036.91 897.078 1054.45 899.106 1071.73 902.593C1080.89 904.614 1089.64 907.08 1097.75 909.526L1102.57 911.002C1109.27 913.023 1115.58 915.044 1121.92 916.682C1136.3 920.748 1151 923.548 1165.87 925.05C1169.34 925.374 1172.65 925.576 1175.95 925.798L1178.92 925.98V923.959L1176.08 923.777C1172.81 923.575 1169.52 923.352 1165.99 923.049C1151.25 921.521 1136.66 918.742 1122.38 914.741C1116.09 913.003 1109.77 911.082 1103.1 909.061L1098.28 907.606C1090.21 905.14 1081.31 902.593 1072.06 900.612C1054.67 897.117 1037.02 895.088 1019.29 894.548C1009.49 894.103 999.717 893.887 989.981 893.901C952.789 893.855 915.666 897.095 879.042 903.583C865.226 906.049 849.452 909.405 837.007 918.137C820.669 929.598 812.802 948.458 808.163 961.557C806.489 966.368 805.077 971.401 803.725 976.272C800.538 987.653 797.25 999.438 790.292 1009.63L789.303 1011H791.784C791.914 1010.91 792.03 1010.8 792.127 1010.68Z" fill="#342F2C"/>
<path d="M868.493 1001.86C873.717 991.756 881.342 979.325 894.191 971.542C904.276 965.337 916.661 962.81 927.432 960.93C964.342 954.585 1001.83 952.267 1039.24 954.017C1055.63 954.698 1071.97 956.291 1088.19 958.787C1094.12 959.717 1100.01 960.809 1105.7 961.86L1112.92 963.174C1122.08 964.811 1129.44 965.882 1136.1 966.55C1152.23 968.066 1166.05 967.419 1177.45 964.528L1178.9 964.124V962.102L1176.88 962.628C1165.87 965.337 1151.79 966.004 1136.2 964.508C1129.6 963.861 1122.3 962.79 1113.18 961.152L1105.98 959.838C1100.27 958.808 1094.38 957.716 1088.43 956.766C1072.14 954.261 1055.73 952.668 1039.26 951.995C1031.11 951.605 1022.99 951.416 1014.89 951.429C985.437 951.384 956.033 953.886 927.008 958.909C916.056 960.829 903.489 963.396 893.061 969.804C879.789 977.89 871.962 990.766 866.617 1001.01C864.943 1004.25 863.451 1007.64 861.978 1010.98H864.197C865.609 1007.85 866.98 1004.83 868.493 1001.86Z" fill="#342F2C"/>
<path d="M1168.51 1010.9H1175.09C1176.4 1010.41 1177.67 1009.91 1178.9 1009.36V1007.18C1175.53 1008.66 1172.06 1009.9 1168.51 1010.9Z" fill="#342F2C"/>
<path d="M1059.29 1009.36C1039.46 1008.46 1019.58 1008.97 999.824 1010.9H1082.52C1074.84 1010.25 1067.03 1009.71 1059.29 1009.36Z" fill="#342F2C"/>
<path d="M1066.83 300.783C1064.27 282.591 1058.92 269.088 1050.49 259.183C1046.6 254.448 1041.74 250.601 1036.25 247.899C1030.75 245.198 1024.74 243.703 1018.62 243.517C1015.57 243.504 1012.54 243.933 1009.61 244.791C997.505 248.369 987.157 259.567 981.166 275.556C978.694 282.678 976.673 289.949 975.115 297.327C973.602 303.714 972.029 310.304 969.871 316.55C960.915 342.525 941.632 363.628 924.305 381.356C922.087 383.64 919.827 385.924 917.568 388.209C901.129 404.865 884.105 422.087 872.608 442.786C861.474 462.859 847.899 505.449 876.259 523.076C901.492 538.742 939.554 517.679 960.007 503.711C986.935 485.336 1007.83 460.575 1023.04 441.048C1033.33 428.287 1042.42 414.598 1050.19 400.155C1065.79 369.53 1071.6 334.834 1066.83 300.783ZM1048.31 399.266C1040.61 413.596 1031.58 427.178 1021.37 439.835C1006.26 459.24 985.483 483.861 958.838 502.094C938.808 515.758 901.553 536.458 877.288 521.398C850.239 504.58 863.531 463.303 874.343 443.817C885.719 423.3 902.582 406.179 918.98 389.624L925.737 382.771C943.246 364.882 962.67 343.576 971.767 317.217C973.945 310.87 975.518 304.22 977.051 297.792C978.613 290.495 980.634 283.305 983.103 276.264C988.851 260.881 998.755 250.107 1010.23 246.731C1025.16 242.325 1040.49 250.451 1049 260.477C1057.17 270.099 1062.37 283.359 1064.87 301.066C1069.55 334.727 1063.77 369.014 1048.31 399.266Z" fill="#342F2C"/>
<path d="M1035.63 341.535C1034.5 330.983 1031.33 322.675 1026.23 316.793C1023.84 314.088 1020.9 311.922 1017.62 310.437C1014.33 308.953 1010.77 308.184 1007.17 308.182C1004.24 308.17 1001.34 308.705 998.614 309.758L997.827 310.082C988.166 314.226 982.215 324.231 978.928 331.933C977.495 335.248 976.305 338.765 975.035 342.485C973.542 346.851 972.009 351.359 969.992 355.866C963.295 370.744 951.556 383.741 941.067 394.758L938.122 397.81C928.42 407.917 918.395 418.287 911.739 430.415C904.861 442.968 897.781 466.8 914.825 476.523C921.905 480.566 930.962 480.788 941.672 477.15C950.285 474.219 959.705 468.862 970.416 460.756C984.219 449.972 996.524 437.388 1007.01 423.34C1013.04 415.803 1018.43 407.777 1023.14 399.346C1026.71 392.727 1029.59 385.757 1031.73 378.546C1034.87 368.366 1036.33 357.743 1036.05 347.093C1035.89 345.254 1035.77 343.374 1035.63 341.535ZM1029.78 377.92C1027.67 384.997 1024.85 391.839 1021.35 398.336C1016.7 406.668 1011.37 414.599 1005.41 422.047C994.987 435.944 982.764 448.391 969.064 459.058C958.515 467.023 949.297 472.299 940.825 475.23C930.74 478.686 922.188 478.525 915.612 474.785C899.939 465.83 906.797 443.292 913.292 431.386C919.787 419.48 929.772 409.15 939.373 399.225L942.318 396.153C952.928 385.015 964.808 371.896 971.626 356.695C973.643 352.107 975.236 347.538 976.749 343.132C978 339.453 979.19 335.996 980.581 332.742C983.728 325.384 989.376 315.822 998.433 311.941L999.159 311.638C1003.55 310.073 1008.31 309.855 1012.82 311.01C1017.34 312.166 1021.41 314.644 1024.51 318.127C1029.33 323.686 1032.34 331.63 1033.41 341.757C1033.61 343.536 1033.73 345.375 1033.81 347.174C1034.13 357.598 1032.74 368.003 1029.72 377.98L1029.78 377.92Z" fill="#342F2C"/>
<path d="M995.185 371.694C991.847 371.771 988.638 373.007 986.108 375.191C983.388 377.795 981.082 380.801 979.27 384.105C978.443 385.459 977.576 386.874 976.648 388.148C974.746 390.422 972.726 392.594 970.597 394.657C966.724 398.518 961.944 403.308 957.829 408.16C951.132 416.104 948.349 421.824 949.337 425.685C949.624 426.697 950.161 427.619 950.898 428.368C951.635 429.117 952.548 429.668 953.553 429.971C957.728 431.567 962.468 431.042 967.672 428.353C972.676 425.518 977.191 421.894 981.045 417.62C987.805 410.206 993.919 402.227 999.32 393.767L999.844 392.979C1001.8 390.333 1003.26 387.354 1004.16 384.186C1004.63 382.495 1004.68 380.714 1004.3 379C1003.92 377.287 1003.12 375.694 1001.98 374.362C1001.1 373.457 1000.04 372.752 998.872 372.291C997.699 371.831 996.442 371.627 995.185 371.694ZM1002.04 383.822C1001.18 386.734 999.817 389.471 998.009 391.908L997.484 392.696C992.14 401.048 986.101 408.932 979.432 416.266C975.729 420.377 971.391 423.864 966.583 426.595C964.072 428.012 961.254 428.796 958.373 428.879C956.932 428.892 955.502 428.631 954.158 428.111C953.458 427.919 952.817 427.554 952.296 427.049C951.774 426.544 951.388 425.915 951.173 425.22C950.386 422.087 953.19 416.811 959.241 409.514C963.275 404.723 968.035 399.953 971.868 396.132C974.136 394.002 976.272 391.734 978.262 389.341C979.21 387.986 980.097 386.551 980.945 385.156C982.651 382.036 984.821 379.194 987.379 376.727C991.07 373.553 997.142 372.401 1000.33 375.777C1001.23 376.872 1001.86 378.169 1002.16 379.559C1002.46 380.949 1002.42 382.39 1002.04 383.761V383.822Z" fill="#342F2C"/>
<path d="M93.5372 228.417C85.1058 252.674 73.548 276.345 62.3735 299.166C50.6543 323.079 38.5519 347.68 30.1004 373.452C10.1718 433.245 16.4247 489.844 46.8623 524.835C58.4604 538.176 73.0841 548.222 87.4456 557.945C128.17 585.719 168.37 610.117 212.322 603.73C220.199 602.409 227.982 600.572 235.619 598.231C240.642 596.816 245.846 595.341 251.009 594.189C272.168 589.519 294.396 590.004 315.898 590.469L324.894 590.651C356.603 591.197 388.714 590.166 420.342 587.599C432.626 586.608 444.547 585.315 455.318 580.504C464.979 576.198 473.189 569.265 480.108 563.12C502.638 543.088 528.013 512.302 520.913 479.454C515.487 454.288 490.838 433.488 455.035 423.805C445.353 421.177 435.288 419.237 425.546 417.337C406.323 413.617 386.455 409.757 369.068 400.6C334.254 382.407 308.98 341.838 301.456 292.172C296.151 256.959 299.076 220.655 301.9 185.544C302.606 176.852 303.332 167.877 303.917 159.043C306.377 121.931 306.62 84.7045 304.643 47.5633C303.836 32.3422 302.485 15.8679 298.188 0.22229H296.171C300.548 15.8477 301.9 32.4028 302.707 47.6644C304.68 84.7045 304.438 121.83 301.981 158.841C301.396 167.654 300.669 176.629 299.963 185.301C297.14 220.534 294.195 256.959 299.56 292.435C307.164 342.727 332.821 383.822 368.14 402.338C385.89 411.636 405.92 415.518 425.284 419.277C434.986 421.157 445.011 423.118 454.632 425.705C489.709 435.206 513.792 455.44 519.077 479.838C525.955 511.736 501.024 541.895 478.877 561.563C472.08 567.627 464.031 574.419 454.672 578.624C444.163 583.293 432.485 584.567 420.382 585.557C388.815 588.104 356.784 589.135 325.116 588.589L316.14 588.407C294.517 587.942 272.188 587.457 250.767 592.187C245.543 593.319 240.339 594.795 235.276 596.23C227.718 598.544 220.016 600.36 212.221 601.668C168.995 607.954 129.179 583.758 88.7769 556.207C74.6575 546.565 60.0136 536.579 48.5768 523.44C18.6234 489.076 12.5116 433.144 32.2183 374.039C40.7303 348.488 52.8126 323.847 64.4914 300.015C75.6861 277.153 87.2641 253.523 95.7358 229.064C122.301 152.251 117.802 70.9104 105.821 0.181824H103.804C115.463 70.7487 120.001 151.989 93.5372 228.417Z" fill="#342F2C"/>
<path d="M329.856 138.364C330.018 178.085 330.179 219.22 335 258.9C336.896 274.525 339.68 291 347.102 305.574C353.738 318.673 364.066 330.619 380.565 344.304C406.686 365.973 433.009 379.719 459.049 385.156C500.077 393.747 543.766 382.387 578.682 373.27C624.63 361.304 681.834 346.406 730.566 318.794C744.888 310.708 762.154 299.085 768.608 281.095C771.654 272.585 772.32 262.478 770.625 250.167C766.853 222.454 753.944 196.338 741.459 171.07C724.777 137.354 709.044 105.496 712.877 70.0008C715.701 43.8844 729.195 20.6585 744.525 0.282837H741.983C726.875 20.4968 713.744 43.7226 710.88 69.7783C706.967 105.941 723.587 139.557 739.643 172.041C752.068 197.167 764.897 223.142 768.628 250.531C770.242 262.498 769.597 272.302 766.611 280.488C760.399 297.852 743.516 309.192 729.497 317.116C681.088 344.607 623.944 359.565 578.097 371.391C543.282 380.467 499.935 391.746 459.392 383.256C433.735 377.879 407.634 364.295 381.756 342.828C365.478 329.325 355.332 317.581 348.817 304.745C341.555 290.454 338.731 274.182 336.956 258.738C332.136 219.099 331.974 178.085 331.813 138.445C331.631 92.6403 331.43 45.7844 324.047 0.282837H322.03C329.473 45.6631 329.655 92.5594 329.856 138.364Z" fill="#342F2C"/>
<path d="M364.953 110.691C365.538 142.124 366.143 174.608 369.835 206.142C370.379 210.973 370.924 214.874 371.529 218.452C372.868 227.835 375.545 236.978 379.476 245.599C384.842 256.838 393.414 267.39 406.485 278.831C427.381 297.024 449.024 308.97 470.829 314.003C503.102 321.442 536.222 314.428 570.169 305.918C612.81 295.386 657.67 282.348 696.781 258.415C709.085 250.895 722.357 241.172 727.46 226.295C729.901 219.159 730.405 210.69 729.033 200.401C725.947 177.579 715.701 155.93 705.777 135.11C703.275 129.854 700.714 124.437 698.293 119.1C688.611 97.6737 680.14 74.4478 682.984 49.6857C685.102 31.7964 692.948 15.6253 703.538 0.161621H701.097C690.75 15.5242 683.085 31.5943 680.926 49.4432C677.941 74.6904 686.594 98.2396 696.397 119.929C698.818 125.286 701.4 130.723 703.901 135.979C713.744 156.719 723.93 178.166 726.956 200.664C728.307 210.609 727.823 218.856 725.483 225.628C720.602 239.899 707.673 249.339 695.671 256.677C656.782 280.468 612.104 293.446 569.625 303.937C535.92 312.346 503.062 319.299 471.212 312.022C449.751 307.07 428.39 295.386 407.755 277.295C394.907 266.056 386.475 255.706 381.231 244.73C377.384 236.28 374.762 227.322 373.445 218.129C372.86 214.571 372.336 210.69 371.771 206C368.1 174.547 367.495 142.124 366.91 110.752C366.244 74.1244 365.518 36.7084 359.89 0.282898H357.873C363.561 36.5871 364.288 74.0435 364.953 110.691Z" fill="#342F2C"/>
<path d="M400.252 84.1707C401.119 106.932 402.027 130.481 404.548 153.383C404.972 157.426 405.375 160.499 405.819 163.49C406.858 171.135 408.892 178.611 411.87 185.726C415.904 195.125 422.682 204.201 432.424 213.439C447.915 228.155 465.282 238.363 482.609 242.931C508.831 249.844 536.021 244.649 561.678 238.747C604.419 228.882 637.58 215.622 663.015 198.218C672.435 191.77 682.56 183.583 686.332 171.677C688.217 164.887 688.582 157.764 687.401 150.816C685.021 132.907 677.316 115.866 670.054 99.3918C668.037 94.7831 665.859 89.9924 663.882 85.2421C656.701 68.1411 650.408 49.5848 653.071 29.573C654.612 19.215 658.11 9.24653 663.378 0.202087H661.079C655.959 9.18612 652.54 19.0407 650.993 29.2697C648.27 49.7464 654.644 68.6263 661.946 85.8688C663.963 90.5988 665.98 95.3895 668.138 100.018C675.44 116.372 682.984 133.27 685.324 150.877C686.463 157.534 686.119 164.361 684.315 170.868C680.745 182.188 670.922 190.112 661.805 196.338C636.571 213.621 603.653 226.78 561.133 236.564C535.738 242.426 508.79 247.58 483.052 240.768C466.048 236.281 448.984 226.255 433.735 211.761C424.194 202.725 417.599 193.872 413.564 184.715C410.696 177.763 408.75 170.464 407.775 163.005C407.332 160.135 406.928 156.941 406.505 153.06C404.004 130.218 403.096 106.73 402.229 83.9889C401.16 56.1745 400.07 27.8143 395.996 0.101013H393.979C398.235 27.9154 399.284 56.3159 400.252 84.1707Z" fill="#342F2C"/>
<path d="M436.418 60.5204C437.265 73.6999 438.153 87.3038 439.464 100.625C439.726 103.212 439.988 105.8 440.331 108.367C440.99 114.243 442.302 120.026 444.244 125.609C447.433 133.886 452.233 141.444 458.364 147.845C468.13 158.767 480.546 166.977 494.408 171.677C513.792 177.923 534.992 175.012 553.186 171.353C574.466 167.068 604.944 157.749 629.31 137.758C636.127 132.179 642.764 125.771 645.224 116.816C646.476 111.64 646.675 106.264 645.809 101.009C644.115 88.072 639.133 75.6606 634.312 63.6536C632.678 59.6108 631.004 55.4063 629.491 51.2827C625.013 39.1543 620.757 24.681 623.178 9.39923C623.692 6.28411 624.454 3.21531 625.457 0.222168H623.44C622.496 3.11382 621.775 6.07371 621.282 9.07587C618.781 24.8225 623.117 39.599 627.696 51.9901C629.229 56.0329 630.903 60.3385 632.537 64.4015C637.317 76.3075 642.259 88.6582 643.913 101.272C644.737 106.256 644.558 111.356 643.389 116.27C641.069 124.7 634.675 130.825 628.12 136.201C603.975 155.849 573.719 165.107 552.762 169.352C534.83 172.95 513.954 175.841 494.993 169.736C481.468 165.128 469.353 157.109 459.816 146.45C453.884 140.242 449.236 132.918 446.14 124.902C444.241 119.465 442.962 113.829 442.328 108.104C442.005 105.557 441.723 102.99 441.46 100.423C440.149 87.1422 439.282 73.5382 438.435 60.3992C437.144 40.4076 435.833 20.1329 432.908 0.201965H430.891C433.796 20.1531 435.127 40.4884 436.418 60.5204Z" fill="#342F2C"/>
<path d="M474.278 47.8463C474.419 49.6655 474.561 51.4848 474.742 53.2838C475.053 57.4159 475.68 61.518 476.618 65.5537C478.114 71.5378 480.692 77.1967 484.222 82.2504C489.765 90.157 497.313 96.4374 506.087 100.443C516.495 105.112 529.102 106.265 544.613 104.001C564.784 101.049 583.784 91.0637 595.604 77.2778C599.736 73.0122 602.667 67.7253 604.096 61.9556C604.67 58.4075 604.67 54.7902 604.096 51.2422C602.894 43.5045 600.99 35.8928 598.408 28.5015C597.259 24.863 596.048 21.1033 595.06 17.4243C593.46 11.8346 592.532 6.07317 592.297 0.262695H590.28C590.504 6.25119 591.452 12.1903 593.103 17.9499C594.092 21.6895 595.302 25.4695 596.472 29.1282C599.04 36.4269 600.943 43.9434 602.16 51.5858C602.696 54.9334 602.696 58.3452 602.16 61.6927C600.776 67.1162 597.994 72.0797 594.092 76.0851C582.574 89.5071 563.977 99.2503 544.351 102.121C529.223 104.344 516.979 103.232 506.934 98.7247C498.464 94.8299 491.192 88.7288 485.876 81.0577C482.488 76.1976 480.014 70.7585 478.575 65.0079C477.665 61.0773 477.052 57.0841 476.739 53.0615C476.578 51.2625 476.436 49.4633 476.295 47.644C475.045 31.8772 473.754 15.8678 471.394 0.16156H469.377C471.737 15.9486 473.028 31.9985 474.278 47.8463Z" fill="#342F2C"/>
<path d="M510.041 16.3732C511.619 22.0907 514.995 27.1456 519.668 30.7871C524.341 34.4287 530.062 36.4627 535.98 36.5872C541.905 36.4713 547.635 34.4411 552.316 30.799C556.997 27.1568 560.379 22.0972 561.96 16.3732C563.116 10.9884 563.246 5.43323 562.343 0H560.326C561.258 5.25856 561.155 10.6488 560.023 15.8679C558.549 21.1474 555.416 25.81 551.089 29.1636C546.761 32.5173 541.47 34.3834 536 34.4849C530.525 34.3684 525.233 32.4838 520.912 29.1113C516.591 25.7388 513.471 21.0586 512.017 15.7668C511.077 11.202 510.772 6.52867 511.11 1.87988C511.11 1.25325 511.11 0.626632 511.11 0H509.093C509.093 0.606418 509.093 1.21273 509.093 1.81915C508.734 6.69108 509.053 11.5893 510.041 16.3732Z" fill="#342F2C"/>
<path d="M77.7435 388.31C73.403 388.752 69.1755 389.963 65.2579 391.888C58.2183 395.809 53.3976 404.016 51.32 415.841C46.0555 445.636 57.6334 479.757 81.576 504.782C101.323 525.764 129.421 541.531 165.042 552.043C188.178 558.855 208.49 561.705 227.107 560.734C241.67 559.987 256.133 556.813 270.111 553.781C278.986 551.759 288.164 549.839 297.281 548.465C317.209 545.473 337.783 545.392 357.672 545.311C369.774 545.311 382.159 545.311 394.382 544.523C407.312 543.795 420.947 542.299 433.17 536.296C446.423 529.787 455.782 518.103 457.557 505.975C462.962 468.862 418.748 456.289 392.325 448.769L391.115 448.426C375.765 444.039 361.282 437.591 347.264 431.345C338.489 427.424 329.413 423.26 320.114 419.823C258.936 396.496 194.047 384.206 134.968 384.206C115.816 384.103 96.6851 385.475 77.7435 388.31ZM346.457 433.063C360.576 439.33 375.079 445.818 390.57 450.245L391.78 450.589C417.558 457.926 460.723 470.216 455.56 505.55C453.865 517.133 444.95 528.19 432.283 534.416C420.382 540.258 406.989 541.733 394.261 542.502C382.159 543.189 369.673 543.249 357.652 543.29C337.703 543.29 317.068 543.452 296.978 546.463C287.801 547.838 278.603 549.859 269.687 551.8C255.77 554.832 241.448 557.965 226.986 558.713C208.631 559.663 188.541 556.853 165.607 550.102C130.328 539.732 102.533 524.066 83.008 503.61C59.5294 478.949 48.1532 445.515 53.2967 416.346C54.6683 408.584 58.0367 398.356 66.2462 393.808C69.9498 391.997 73.9454 390.861 78.0461 390.452C149.995 379.274 237.959 390.695 319.408 421.743C328.626 425.139 337.723 429.182 346.457 433.084V433.063Z" fill="#342F2C"/>
<path d="M126.456 433.569C118.649 452.226 123.248 473.612 138.558 489.4C149.712 500.982 165.687 509.836 186.06 515.678C197.432 519.219 209.289 520.945 221.197 520.792C229.702 520.324 238.158 519.203 246.491 517.436C251.211 516.547 256.092 515.637 260.893 515.011C270.014 513.962 279.185 513.408 288.365 513.353H291.209C299.278 513.191 307.487 513.03 315.575 512.342C323.133 512.015 330.569 510.317 337.521 507.329C345.206 503.63 350.692 497.364 352.165 490.552C352.861 487.683 352.928 484.698 352.36 481.801C351.792 478.904 350.604 476.166 348.877 473.774C342.1 464.274 327.557 459.24 317.956 455.905C310.259 453.09 302.717 449.865 295.364 446.243C290.1 443.756 284.654 441.189 279.087 438.945C245.182 425.045 208.954 417.712 172.323 417.337C163.051 417.312 153.786 417.893 144.589 419.075C142.169 419.325 139.798 419.924 137.549 420.854C132.87 422.976 129.098 427.262 126.456 433.569ZM138.558 422.694C140.641 421.843 142.835 421.298 145.073 421.076C185.798 415.72 234.388 422.916 278.421 440.805C283.928 443.049 289.333 445.596 294.558 448.062C301.955 451.709 309.544 454.955 317.29 457.785C326.669 461.039 340.829 465.87 347.223 474.926C348.797 477.08 349.879 479.555 350.391 482.175C350.904 484.796 350.834 487.497 350.188 490.087C348.857 496.292 343.794 502.033 336.654 505.47C329.92 508.341 322.725 509.978 315.414 510.301C307.346 510.968 299.136 511.13 291.209 511.311H288.365C279.11 511.366 269.865 511.926 260.671 512.989C255.81 513.616 250.908 514.546 246.148 515.415C237.923 517.17 229.574 518.286 221.177 518.75C209.409 518.953 197.684 517.274 186.443 513.778C166.413 507.976 150.721 499.304 139.829 488.005C125.165 472.804 120.727 452.246 128.21 434.357C130.752 428.535 134.181 424.695 138.457 422.673L138.558 422.694Z" fill="#342F2C"/>
<path d="M230.576 481.415C234.397 480.901 238.129 479.868 241.67 478.343C245.866 476.624 248.125 474.461 248.609 471.733C249.093 469.004 247.863 466.517 244.938 463.647C236.547 455.38 224.283 450.447 210.406 449.74H209.337C201.591 449.74 194.047 453.944 191.506 459.847C189.489 464.516 190.86 469.55 195.419 473.997C202.297 480.667 222.246 482.406 230.576 481.415ZM193.341 460.575C195.661 455.258 203.104 451.397 210.305 451.761C223.678 452.428 235.478 457.179 243.526 465.082C245.926 467.467 246.955 469.529 246.612 471.389C246.269 473.249 244.413 475.048 240.904 476.483C237.534 477.928 233.986 478.914 230.355 479.414C228.706 479.588 227.05 479.668 225.393 479.656C216.033 479.656 201.954 477.514 196.831 472.501C192.857 468.6 191.647 464.476 193.341 460.575Z" fill="#342F2C"/>
<path d="M141.079 169.534C139.062 182.431 136.359 195.549 133.798 208.244C126.98 242.021 119.92 276.971 123.228 311.699C123.954 319.319 125.366 328.032 130.369 334.743C136.299 342.707 146.122 346.447 154.029 348.892C179.242 356.432 204.072 355.947 223.96 347.498C233.521 343.455 240.682 338.017 245.2 331.327C250.929 322.897 252.482 312.548 253.268 303.553C254.222 288.956 254.31 274.315 253.531 259.708C253.147 248.672 252.764 237.251 253.168 226.052C254.156 199.046 259.804 172.061 265.27 145.985C268.316 131.411 271.482 116.331 273.802 101.373C280.075 60.9448 278.28 27.5312 268.336 0.302979H266.178C276.263 27.4301 278.078 60.6618 271.805 101.15C269.486 116.048 266.339 131.087 263.293 145.621C257.807 171.899 252.159 198.864 251.191 226.032C250.787 237.311 251.191 248.753 251.554 259.85C252.33 274.376 252.249 288.935 251.312 303.452C250.565 312.184 249.073 322.21 243.586 330.235C239.29 336.542 232.452 341.716 223.234 345.638C203.77 353.885 179.424 354.37 154.654 346.952C147.05 344.668 137.61 341.11 132.043 333.611C127.343 327.304 125.992 318.935 125.306 311.577C122.018 277.214 129.057 242.345 135.835 208.709C138.417 196.014 141.059 182.875 143.117 169.938C152.018 113.607 150.651 56.1252 139.082 0.282776H137.065C148.607 55.9923 149.967 113.338 141.079 169.534Z" fill="#342F2C"/>
<path d="M184.809 1.21277C186.221 9.29834 189.791 16.7169 193.261 23.8726C194.477 26.9631 196.389 29.7302 198.848 31.9582C200.223 33.1349 201.953 33.8145 203.76 33.8878C205.567 33.9611 207.347 33.4238 208.812 32.3624C211.818 29.7346 211.475 25.3279 210.728 21.3862L206.795 0.242554H204.778L208.812 21.7501C209.438 25.146 209.781 28.8856 207.542 30.8463C206.431 31.5952 205.104 31.9539 203.768 31.8661C202.432 31.7784 201.163 31.2491 200.159 30.3612C197.957 28.3236 196.241 25.8159 195.137 23.0236C191.728 15.9891 188.218 8.71206 186.867 0.909485C186.867 0.687132 186.867 0.464907 186.867 0.242554H184.85C184.729 0.545763 184.749 0.889346 184.809 1.21277Z" fill="#342F2C"/>
<path d="M159.132 46.1685C163.822 116.183 157.933 186.505 141.664 254.756L141.059 257.303C138.659 267.269 136.198 277.517 136.319 288.028C136.501 300.884 141.039 312.164 148.784 318.996C153.565 323.18 159.939 326.192 168.834 328.436C187.734 333.186 204.032 329.79 212.483 319.299C218.091 312.325 219.684 303.128 220.834 294.234C222.609 280.428 223.839 266.298 225.03 252.634C227.47 224.658 229.991 195.752 237.354 168.281C239.371 161.166 241.529 154.131 243.708 147.117C245.886 140.103 248.185 132.967 250.102 125.872C260.972 84.7059 261.097 41.4305 250.465 0.202087H248.448C259.136 41.2391 259.06 84.3477 248.226 125.346C246.33 132.462 244.071 139.597 241.872 146.51C239.673 153.424 237.414 160.66 235.498 167.755C228.095 195.408 225.554 224.354 223.113 252.452C221.923 266.096 220.693 280.205 218.898 293.971C217.808 302.542 216.275 311.476 210.991 318.046C199.251 332.62 176.196 328.153 169.399 326.475C160.826 324.312 154.735 321.442 150.196 317.46C142.875 311.032 138.578 300.298 138.417 288.008C138.296 277.901 140.736 267.632 143.096 257.687L143.701 255.16C160.009 186.709 165.919 116.184 161.23 45.9664C160.479 30.52 158.181 15.1882 154.372 0.202087H152.355C156.49 15.1604 158.103 30.9676 159.132 46.1685Z" fill="#342F2C"/>
<path d="M177.064 65.5335C177.502 80.3673 177.112 95.2142 175.894 110.004L171.86 172.89C170.952 187.363 169.843 205.353 178.012 219.847C178.982 221.842 180.501 223.518 182.389 224.678C186.705 226.962 191.808 224.314 195.157 221.08C204.798 211.741 207.683 198.157 210.486 184.998C211.112 182.067 211.737 179.156 212.503 176.306C215.993 161.914 221.903 148.006 227.611 134.423C234.732 117.605 242.074 100.2 244.857 81.8665C248.891 55.1234 243.344 28.6835 235.014 0.181824H232.997C241.348 28.6633 246.955 55.0425 242.941 81.5632C240.198 99.7557 232.856 116.938 225.836 133.655C220.108 147.238 214.157 161.307 210.628 175.861C209.942 178.711 209.317 181.662 208.611 184.594C205.867 197.45 203.023 210.75 193.825 219.645C191.002 222.394 186.766 224.698 183.417 222.919C181.878 221.927 180.643 220.528 179.847 218.876C171.92 204.929 173.05 187.262 173.957 173.051L177.992 110.186C179.212 95.3016 179.602 80.3606 179.161 65.4325C178.092 43.1972 173.372 21.4874 167.543 0.202087H165.526C171.234 21.548 176.015 43.3386 177.064 65.5335Z" fill="#342F2C"/>
<path d="M187.936 36.0413C188.48 37.2339 189.045 38.4266 189.61 39.6193C192.352 44.8302 194.432 50.3647 195.802 56.0936C196.631 61.4413 196.908 66.8603 196.629 72.2648C196.468 81.8665 196.306 91.7914 202.358 99.3716L202.741 99.8568L203.346 99.7355C212.322 97.8556 219.825 89.3455 223.396 76.9745C228.822 58.216 225.756 38.5681 222.77 19.5063C221.782 13.1592 220.753 6.711 220.067 0.262756H218.05C218.756 6.83229 219.765 13.3816 220.773 19.8096C223.718 38.6288 226.825 58.0948 221.459 76.4086C218.171 87.7689 211.515 95.6523 203.548 97.613C198.344 90.6797 198.485 81.745 198.646 72.2849C198.925 66.7647 198.634 61.2305 197.779 55.7701C196.373 49.877 194.246 44.1806 191.445 38.8107C190.881 37.618 190.316 36.4457 189.771 35.2531C184.753 23.9551 180.704 12.2494 177.669 0.262756H175.652C178.74 12.5125 182.849 24.4807 187.936 36.0413Z" fill="#342F2C"/>
<path d="M550.221 900.511C554.903 881.663 558.593 862.582 561.274 843.346C563.896 826.588 566.619 809.265 570.714 792.528C581.183 749.634 599.659 718.868 625.659 701.1C642.743 689.416 663.317 683.453 681.189 679.168C731.293 667.161 783.494 662.653 833.961 658.307L904.841 652.243C957.547 647.695 1017.29 642.54 1069.11 666.211C1092.15 676.742 1112.48 692.489 1132.14 707.852L1178.9 744.237V741.669L1133.39 706.234C1113.63 690.872 1093.19 674.963 1069.96 664.351C1039.26 650.343 1005.92 646.32 972.876 646.32C949.64 646.32 926.484 648.342 904.659 650.201L833.78 656.266C783.353 660.612 730.909 665.119 680.725 677.167C662.672 681.493 641.876 687.516 624.529 699.402C598.106 717.453 579.347 748.623 568.757 792.022C564.723 808.84 561.92 826.204 559.277 843.022C556.312 861.841 553.226 881.307 548.264 899.985C537.191 941.066 516.792 979.025 488.66 1010.9H491.342C519.087 979.067 539.223 941.314 550.221 900.511Z" fill="#342F2C"/>
<path d="M511.412 820.888C513.026 814.48 514.498 807.911 515.951 801.543C520.771 780.157 525.774 758.023 536.121 738.476C555.848 701.1 590.945 679.633 616.804 668.192C651.558 652.89 689.62 646.341 722.579 641.429C759.37 635.93 796.968 631.564 833.396 627.279C893.525 620.305 955.691 613.129 1017.23 615.353C1078.77 617.576 1133.19 629.502 1178.86 650.848V648.625C1133.13 627.481 1078.89 615.595 1017.31 613.331C1009.41 613.048 1001.5 612.907 993.592 612.907C939.696 612.907 885.638 619.173 833.073 625.278C796.766 629.482 759.108 633.848 722.276 639.427C689.196 644.36 650.973 650.929 615.997 666.332C589.775 677.895 554.255 699.645 534.266 737.546C523.817 757.315 518.795 779.571 513.934 801.098C512.501 807.446 511.029 814.015 509.415 820.403C491.319 891.995 454.959 957.641 403.903 1010.9H406.686C457.314 957.637 493.383 892.194 511.412 820.888Z" fill="#342F2C"/>
<path d="M953.311 100.281C952.074 117.772 951.811 135.318 952.524 152.837C953.149 180.429 953.795 208.972 946.352 235.836C934.935 277.072 906.011 310.243 877.772 342.323C859.82 362.82 841.283 384.024 827.143 407.392C812.278 431.952 800.922 460.959 792.591 496.07C788.96 511.352 786.197 527.523 790.574 542.38C795.435 558.551 809.474 573.065 828.112 580.989C845.66 588.488 865.205 590.004 882.007 590.489C929.933 591.864 978.464 585.557 1025.38 579.412C1075.67 572.863 1127.48 566.111 1178.68 568.901V566.88C1127.28 564.09 1075.4 570.922 1025.06 577.411C978.201 583.475 929.772 589.843 882.007 588.468C865.407 587.983 846.084 586.447 828.838 579.129C810.684 571.428 797.15 557.46 792.531 541.794C788.012 526.694 791.179 510.523 794.548 496.535C802.878 461.646 814.093 432.821 828.838 408.443C842.957 385.237 861.393 364.093 879.264 343.637C907.503 311.396 936.65 278.063 948.187 236.382C955.711 209.234 955.066 180.531 954.44 152.777C953.728 135.318 953.984 117.833 955.207 100.403C958.491 64.839 969.951 30.5215 988.69 0.141357H986.33C967.836 30.5559 956.541 64.8121 953.311 100.281Z" fill="#342F2C"/>
<path d="M1045.71 551.719C1060.28 555.762 1075.77 552.75 1089.42 550.021L1178.84 532.152V530.131L1089.02 548.081C1075.59 550.769 1060.36 553.821 1046.28 549.819C1033.05 546.059 1020.4 533.648 1022.07 519.377C1023.32 509.128 1031.35 501.043 1038.45 493.907C1106.89 425.079 1154.63 349.964 1178.76 274.788V267.915C1155.42 344.87 1107.13 421.966 1037.02 492.492C1029.7 499.85 1021.41 508.198 1020.06 519.134C1018.34 534.436 1031.73 547.737 1045.71 551.719Z" fill="#342F2C"/>
<path d="M1013.1 40.8725C1019.98 26.8628 1027.7 13.2814 1036.21 0.202087H1033.77C1025.52 13.0102 1018.02 26.2859 1011.3 39.9628C1001.76 58.9841 992.825 79.5418 991.837 101.191C990.768 125.084 1000.95 147.339 1017.82 157.79C1026.61 163.288 1036.9 165.734 1046.86 168.099C1057.33 170.585 1068.14 173.153 1076.94 179.277C1084.74 184.715 1090.53 192.659 1096.14 200.361C1098.94 204.201 1101.83 208.163 1104.97 211.802C1113.93 222.252 1129.5 232.48 1143.88 226.901C1152.84 223.425 1158.53 214.773 1162.04 208.466C1170.1 194.317 1175.01 178.651 1178.92 162.843V154.091C1174.72 172.566 1169.54 190.981 1160.28 207.476C1156.93 213.54 1151.51 221.787 1143.18 225.021C1129.78 230.216 1115.06 220.433 1106.51 210.488C1103.44 206.91 1100.58 202.968 1097.79 199.168C1092.08 191.345 1086.2 183.26 1078.11 177.62C1068.99 171.273 1057.94 168.665 1047.35 166.138C1037.54 163.814 1027.42 161.388 1018.91 156.031C1002.65 145.924 992.845 124.316 993.874 101.15C994.822 80.0269 1003.68 59.6917 1013.1 40.8725Z" fill="#342F2C"/>
<path d="M1111.21 512.565C1105.54 509.472 1102.55 503.468 1101.12 498.981C1095.29 481.637 1102.09 464.375 1106.67 455.622C1113.14 443.251 1122.62 432.497 1131.78 422.107L1134.08 419.5C1150.22 401.065 1166.9 380.406 1178.98 357.665V353.279C1166.88 377.212 1149.51 398.902 1132.59 418.166L1130.29 420.753C1121.05 431.244 1111.49 442.099 1104.89 454.692C1100.17 463.728 1093.15 481.577 1099.23 499.628C1100.86 504.459 1104.11 510.927 1110.34 514.344C1115.16 516.992 1120.83 517.254 1126.19 517.174C1144.36 516.842 1162.3 512.984 1179 505.813V503.529C1162.32 510.837 1144.36 514.766 1126.15 515.091C1120.95 515.233 1115.62 514.99 1111.21 512.565Z" fill="#342F2C"/>
<path d="M1088.86 0.202087H1086.52C1081.73 8.09063 1077.59 16.3587 1074.15 24.9236C1068.2 40.1043 1062.62 62.9865 1069.94 85.808C1074.81 100.921 1084.74 113.882 1098.06 122.496C1104.81 127.164 1112.72 129.865 1120.91 130.299C1141.42 130.643 1155.88 112.41 1161.13 104.506C1168.97 92.1394 1174.95 78.6891 1178.9 64.5834V57.4277C1174.34 73.5989 1168.81 89.4668 1159.45 103.394C1154.39 111.015 1140.58 128.702 1120.95 128.278C1113.13 127.852 1105.58 125.263 1099.14 120.798C1086.28 112.352 1076.68 99.7582 1071.93 85.1006C1064.77 62.8653 1070.26 40.4682 1076.09 25.5908C1079.62 16.7816 1083.89 8.28838 1088.86 0.202087Z" fill="#342F2C"/>
<path d="M1127.04 0.202087H1125.02L1123.45 5.43756C1119.42 18.9809 1114.41 35.7584 1118.61 51.5051C1118.97 53.2558 1119.76 54.8923 1120.89 56.2755C1123.07 58.6608 1126.94 59.348 1131.4 58.2969C1148.7 53.87 1157.16 34.5658 1161.21 19.1425C1161.77 17.0201 1162.3 14.8774 1162.84 12.7347C1163.87 8.57067 1164.86 4.38633 1166.15 0.282898H1164.13C1162.96 4.32569 1161.96 8.24722 1160.97 12.2294C1160.42 14.3923 1159.9 16.5147 1159.33 18.6371C1155.42 33.5348 1147.23 52.1721 1130.97 56.3362C1129.2 56.7809 1124.92 57.5692 1122.46 54.9818C1121.56 53.8369 1120.93 52.493 1120.65 51.0603C1116.61 35.9605 1121.51 19.4053 1125.47 6.10449L1127.04 0.202087Z" fill="#342F2C"/>
<path d="M876.178 270.361C902.783 263.974 921.078 220.392 927.714 195.57C934.895 168.766 935.903 138.061 930.719 104.304C927.008 80.1683 915.713 37.6989 881.685 24.6407C875.491 22.2971 868.921 21.1117 862.301 21.1436C841.101 21.1436 818.894 32.6251 805.48 52.0911C790.453 73.8615 785.652 103.536 791.945 135.635C797.553 164.117 810.583 190.435 823.17 215.885C824.743 219.038 826.357 222.697 828.051 226.578C837.35 247.742 850.057 276.628 876.178 270.361ZM793.922 135.312C790.352 117.119 787.286 82.0887 807.134 53.3041C824.259 28.5016 855.987 17.02 880.958 26.6014C914.038 39.2957 925.072 80.9769 928.723 104.688C933.866 138.162 932.757 168.584 925.758 195.125C919.263 219.382 901.391 262.215 875.714 268.38C873.536 268.921 871.302 269.199 869.058 269.209C849.008 269.209 838.499 245.357 829.907 225.83C828.192 221.949 826.558 218.25 824.985 215.056C812.439 189.728 799.469 163.551 793.922 135.312Z" fill="#342F2C"/>
<path d="M869.724 205.394C872.69 205.306 875.606 204.601 878.287 203.324C880.968 202.047 883.354 200.225 885.295 197.975C897.539 183.825 895.058 153.505 893.585 135.312C893.384 132.805 893.202 130.562 893.081 128.662C892.214 114.512 890.54 102.949 885.255 92.4988C878.941 80.0066 867.787 71.7795 856.169 71.0316H854.596C851.926 70.9548 849.282 71.56 846.91 72.7902C841.848 75.5797 839.609 81.4216 838.197 86.2123C834.889 97.5119 833.295 110.469 833.154 126.903C833.154 135.838 833.618 181.339 851.913 198.804C854.242 201.11 857.036 202.89 860.108 204.027C863.179 205.163 866.458 205.629 869.724 205.394ZM835.171 126.862C835.312 110.57 836.886 97.8353 840.133 86.7177C841.424 82.311 843.482 76.9341 847.879 74.5893C850.382 73.3662 853.175 72.8624 855.947 73.1339C868.977 73.9829 878.659 84.211 883.359 93.5095C888.482 103.616 890.116 114.957 890.983 128.864C891.084 130.784 891.286 133.048 891.488 135.555C892.92 153.424 895.361 183.32 883.682 196.742C881.917 198.779 879.753 200.43 877.324 201.592C874.894 202.754 872.252 203.401 869.562 203.494C866.572 203.696 863.573 203.26 860.764 202.215C857.954 201.169 855.398 199.538 853.264 197.429C835.252 180.106 835.131 132.239 835.171 126.862Z" fill="#342F2C"/>
<path d="M468.086 857.394C471.878 845.549 475.246 833.32 478.494 821.474C486.663 791.841 495.094 761.196 510.767 734.352C536.202 690.488 582.756 654.345 645.386 629.826C649.299 628.303 653.252 626.794 657.246 625.298C686.493 614.2 716.729 602.739 734.056 577.128C743.153 563.686 747.489 547.717 750.858 533.81C758.328 502.862 763.233 471.349 765.522 439.592C766.793 421.986 762.86 410.929 753.843 406.725C751.439 405.622 748.822 405.063 746.178 405.087C739.683 405.087 733.148 408.039 728.267 410.606C681.189 435.449 648.068 479.656 616.037 522.409C583.099 566.354 549.051 611.815 499.955 635.607C459.13 655.437 411.204 658.226 368.947 660.713C279.652 665.948 178.456 671.871 91.8024 629.603C66.1655 617.091 42.2834 600.435 19.1881 584.344C-1.70873 569.77 -23.3114 554.691 -46.2253 542.683C-94.5432 517.768 -148.583 506.121 -202.85 508.926C-248.611 510.857 -293.381 522.895 -333.96 544.179V546.463C-245.995 499.345 -136.025 497.95 -47.2742 544.543C-24.4814 556.49 -2.8988 571.529 17.9173 586.063C41.053 602.234 64.9956 618.91 90.7939 631.483C177.911 673.933 279.389 668.03 368.927 662.795C411.285 660.308 459.493 657.478 500.681 637.487C550.221 613.432 584.43 567.769 617.51 523.622C649.4 481.051 682.379 437.025 729.074 412.445C735.528 409.029 745.008 404.946 752.835 408.584C761.024 412.405 764.574 422.734 763.364 439.471C761.085 471.125 756.2 502.537 748.76 533.385C745.432 547.11 741.156 562.877 732.241 576.036C715.277 601.122 685.344 612.422 656.379 623.438C652.345 624.954 648.311 626.45 644.498 627.986C581.465 652.668 534.548 689.113 508.871 733.362C493.158 760.448 484.666 791.214 476.598 820.989C473.35 832.794 469.982 845.023 466.21 856.828C450.678 905.2 420.422 969.703 362.533 1010.9H365.962C422.762 969.339 452.696 905.483 468.086 857.394Z" fill="#342F2C"/>
<path d="M439.302 844.518C441.864 833.441 443.841 822.02 445.737 810.963C449.428 789.475 453.24 767.24 461.732 746.885C476.396 711.753 505.603 680.057 551.027 649.999C566.72 639.609 583.3 629.967 599.316 620.628C621.362 607.793 644.155 594.512 665.052 579.109C700.068 553.316 717.617 526.149 717.213 498.375V497.627L716.467 497.424C713.056 496.485 709.535 496.009 705.998 496.01C683.569 496.01 663.358 514.91 646.172 534.153C585.66 601.87 517.726 668.232 430.104 695.157C397.69 705.123 361.625 710.095 313.115 711.328C199.453 714.118 111.59 693.257 44.482 647.513C34.6589 640.802 25.0779 633.363 15.8195 626.228C7.50922 619.82 -1.06325 613.169 -9.81731 607.065C-61.5954 570.842 -124.064 550.466 -190.466 548.222C-239.586 546.311 -288.538 555.076 -333.96 573.914V576.299C-230.323 532.779 -103.207 544.24 -10.9671 608.763C-2.27354 614.827 6.29892 621.477 14.5891 627.885C23.8676 635.061 33.4689 642.48 43.3525 649.211C110.823 695.218 199.07 716.2 313.155 713.39C361.807 712.198 398.033 707.185 430.649 697.219C518.714 670.153 586.972 603.548 647.625 535.629C666.847 514.081 689.862 492.998 715.156 499.244C715.156 526.047 697.93 552.386 663.781 577.553C642.985 592.875 620.233 606.135 598.247 618.93C582.11 628.29 565.611 637.952 549.837 648.382C504.07 678.703 474.621 710.641 459.796 746.177C451.223 766.735 447.371 789.091 443.659 810.68C441.763 821.717 439.807 833.117 437.245 844.134C421.402 911.013 382.417 970.1 327.214 1010.9H330.583C385.091 969.856 423.552 910.996 439.302 844.518Z" fill="#342F2C"/>
<path d="M357.631 955.978C375.301 929.477 389.42 898.429 403.459 855.292C411.749 829.802 418.365 800.714 404.427 777.751C389.279 752.848 357.49 748.118 335.706 748.118C330.018 748.118 324.995 748.441 321.122 748.805C265.915 754.02 225.715 769.464 194.632 797.44C134.625 851.431 96.1996 930.225 89.8862 1010.88H91.9033C98.2167 930.791 136.4 852.563 195.984 798.936C226.724 771.283 266.581 755.981 321.324 750.806C339.639 749.088 384.236 748.36 402.753 778.782C416.247 801.018 409.732 829.6 401.583 854.645C387.605 897.6 373.546 928.487 355.997 954.846C341.8 976.616 323.762 995.611 302.767 1010.9H306.156C326.385 995.747 343.808 977.159 357.631 955.978Z" fill="#342F2C"/>
<path d="M361.343 853.837C362.657 848.069 363.287 842.166 363.219 836.251C362.15 809.588 336.674 790.304 312.671 787.07C309.228 786.606 305.757 786.377 302.283 786.383C283.524 786.383 263.293 792.972 240.823 806.354C169.943 848.561 123.188 928.386 120.546 1010.9H122.563C125.205 929.073 171.577 849.935 241.852 808.093C268.074 792.447 291.209 786.221 312.449 789.071C335.625 792.204 360.213 810.741 361.242 836.331C361.308 842.091 360.692 847.838 359.406 853.453C345.977 917.865 307.83 974.409 253.188 1010.9H256.798C310.567 974.028 348.027 917.75 361.343 853.837Z" fill="#342F2C"/>
<path d="M251.816 972.775C265.27 960.202 279.188 947.225 289.858 931.721C298.249 919.593 308.011 900.49 307.063 878.882C307.07 873.143 305.552 867.506 302.666 862.549C298.067 855.312 288.97 850.926 278.986 850.926C277.998 850.926 276.969 850.926 275.981 851.047C265.552 851.977 256.173 857.01 248.367 861.821C222.574 877.935 200.796 899.744 184.698 925.581C168.6 951.418 158.606 980.6 155.481 1010.9H157.498C163.549 951.611 198.787 894.729 249.396 863.539C257 858.85 266.137 853.938 276.142 853.069C286.53 852.139 296.313 856.303 300.952 863.64C303.622 868.302 305.014 873.588 304.986 878.963C305.954 900.025 296.353 918.663 288.143 930.569C277.594 945.891 263.757 958.868 250.384 971.3L208.026 1010.9H210.991L251.816 972.775Z" fill="#342F2C"/>
<path d="M217.708 961.698C244.978 966.226 259.925 922.807 263.394 905.706C263.724 904.736 263.812 903.701 263.651 902.689C263.489 901.678 263.082 900.722 262.466 899.904C261.879 899.412 261.201 899.041 260.471 898.812C259.741 898.583 258.972 898.501 258.21 898.57H258.029C248.084 898.57 237.555 903.098 228.378 911.082C218.292 919.876 200.018 939.766 203.487 952.097C204.919 957.13 209.7 960.364 217.708 961.698ZM229.81 912.599C238.624 904.937 248.69 900.672 258.049 900.591C259.103 900.436 260.177 900.705 261.034 901.339C261.901 902.209 261.7 903.907 261.417 905.382C258.271 920.846 243.586 964.003 218.05 959.778C210.87 958.585 206.634 955.856 205.444 951.692C202.116 939.766 221.822 919.451 229.709 912.599H229.81Z" fill="#342F2C"/>
<path d="M41.3758 758.447C49.4441 769.201 58.42 780.076 70.6232 786.747C78.9111 790.992 87.8849 793.73 97.1274 794.832C130.046 799.764 160.887 792.144 181.703 773.911C187.754 768.655 191.284 763.804 192.918 758.447C194.733 752.646 194.067 744.742 188.541 740.093C186.193 738.325 183.569 736.959 180.775 736.05C145.638 722.567 110.642 707.427 76.7955 691.013L76.0289 690.629C67.0328 686.263 57.714 681.755 47.669 680.28C45.8853 680.023 44.0856 679.894 42.2835 679.896C37.89 679.804 33.5236 680.607 29.4494 682.258C25.3753 683.908 21.6783 686.371 18.583 689.497C15.6432 692.719 13.5506 696.623 12.4941 700.858C11.4376 705.093 11.4506 709.525 12.5318 713.754C15.1137 725.741 25.2595 738.294 34.2153 749.391C36.8375 752.585 39.1974 755.637 41.3758 758.447ZM20.0554 690.892C26.3889 684.1 36.8575 680.785 47.3865 682.342C57.1088 683.777 66.2865 688.224 75.1414 692.449L75.9079 692.833C109.815 709.267 144.851 724.447 180.049 737.93C182.632 738.757 185.064 739.999 187.25 741.609C191.284 745.065 192.898 751.716 191.002 757.78C189.469 762.712 186.08 767.321 180.372 772.334C164.074 786.605 141.483 794.226 116.552 794.226C110.151 794.215 103.759 793.729 97.43 792.77C88.4193 791.684 79.6715 789.008 71.5914 784.867C59.731 778.398 50.8358 767.725 42.9894 757.133C40.9724 754.303 38.4308 751.231 35.8087 747.996C26.9941 737.081 17.0096 724.73 14.5286 713.208C13.536 709.321 13.5212 705.247 14.4858 701.352C15.4503 697.458 17.3641 693.863 20.0554 690.892Z" fill="#342F2C"/>
<path d="M71.7123 760.246C80.2445 766.553 96.6231 770.212 108.221 770.959C113.148 771.502 118.129 770.706 122.643 768.655C124.968 767.528 126.914 765.746 128.244 763.527C129.573 761.308 130.227 758.749 130.127 756.163C129.729 753.452 128.615 750.898 126.899 748.765C119.92 739.143 108.524 734.029 97.4703 729.622C92.2468 727.261 86.632 725.89 80.9102 725.579C78.3133 725.553 75.7386 726.062 73.3461 727.075C70.5893 728.232 68.1963 730.115 66.4207 732.524C64.6451 734.933 63.5533 737.779 63.2609 740.76C62.9106 744.459 63.5021 748.187 64.9802 751.595C66.4582 755.003 68.7744 757.979 71.7123 760.246ZM65.2779 740.901C65.4996 738.257 66.4457 735.725 68.0117 733.585C69.5777 731.445 71.7029 729.78 74.153 728.773C81.2127 725.721 89.503 728.53 96.7241 731.421C107.515 735.727 118.609 740.699 125.265 749.876C126.778 751.723 127.767 753.943 128.13 756.304C128.191 758.488 127.615 760.642 126.471 762.502C125.328 764.362 123.669 765.847 121.695 766.775C118.437 768.351 114.841 769.094 111.227 768.938C110.319 768.938 109.351 768.938 108.342 768.938C98.9025 768.332 81.6766 765.097 72.9226 758.629C70.2447 756.569 68.1368 753.857 66.7989 750.751C65.4609 747.644 64.9373 744.247 65.2779 740.881V740.901Z" fill="#342F2C"/>
<path d="M50.1498 932.226C57.9761 906.231 58.3593 885.552 51.3198 869.017C47.2856 859.618 41.0125 851.633 34.7596 844.417C30.4767 839.238 25.7525 834.443 20.6402 830.085C17.4331 827.478 13.9637 825.153 10.5549 822.889C8.19491 821.292 5.77438 819.655 3.47492 817.957C-19.6406 800.795 -34.2038 773.951 -46.044 750.159L-46.5684 749.088C-49.7749 742.086 -53.6381 735.406 -58.106 729.137C-63.4256 722.314 -70.0629 716.635 -77.6214 712.439C-85.1799 708.244 -93.5045 705.618 -102.098 704.718C-104.269 704.493 -106.451 704.378 -108.633 704.375C-123.803 704.45 -138.528 709.513 -150.548 718.787C-155.152 722.263 -159.188 726.437 -162.509 731.158C-166.652 737.569 -169.584 744.688 -171.162 752.161C-174.262 765.435 -174.695 779.195 -172.438 792.639C-170.18 806.083 -165.276 818.943 -158.011 830.469C-154.764 835.563 -151.052 840.415 -147.462 845.124C-144.719 848.682 -141.895 852.361 -139.394 856.121C-123.621 879.186 -115.53 906.66 -116.278 934.612C-117.144 962.244 -126.6 988.915 -143.327 1010.9H-140.806C-124.36 988.811 -115.073 962.197 -114.2 934.652C-113.444 906.271 -121.655 878.376 -137.659 854.948C-140.281 851.148 -143.105 847.449 -145.848 843.871C-149.419 839.202 -153.11 834.391 -156.297 829.358C-170.562 806.47 -175.203 778.852 -169.206 752.545C-167.688 745.349 -164.856 738.496 -160.855 732.331C-157.666 727.773 -153.779 723.748 -149.338 720.404C-135.954 710.053 -119.153 705.171 -102.32 706.74C-93.9886 707.602 -85.9159 710.138 -78.5831 714.194C-71.2502 718.25 -64.8075 723.745 -59.639 730.35C-55.2655 736.525 -51.4772 743.096 -48.3233 749.977L-47.7786 751.049C-35.8578 775.063 -21.1535 802.15 2.32514 819.574C4.66494 821.312 7.12594 822.97 9.48591 824.567C12.7939 826.79 16.2026 829.115 19.3492 831.662C24.4026 835.964 29.0731 840.698 33.3074 845.812C39.4595 852.927 45.672 860.75 49.5447 869.886C56.4028 886.058 55.9791 906.272 48.2941 931.721C39.631 960.324 25.9722 987.159 7.95283 1010.98H10.4945C28.1775 987.236 41.5966 960.587 50.1498 932.226Z" fill="#342F2C"/>
<path d="M-16.6552 1010.9H-14.0129C-1.36407 995.942 8.23045 978.642 14.226 959.98C21.8102 935.461 21.427 909.87 13.1571 887.938C4.88709 866.005 -11.0478 847.954 -26.3169 830.53C-39.3068 815.794 -52.7203 800.532 -61.5348 782.906C-62.8056 780.359 -63.9957 777.711 -65.1656 775.144C-67.3956 769.887 -70.0045 764.8 -72.9716 759.923C-78.458 751.413 -85.6388 745.773 -93.1423 744.095C-94.8446 743.718 -96.5828 743.529 -98.3261 743.529C-110.428 743.529 -121.22 752.767 -125.859 762.773C-130.66 773.122 -131.406 785.978 -128.138 802.089C-124.588 819.493 -117.75 836.271 -111.155 852.503C-103.611 871.059 -95.7846 890.242 -93.001 910.274C-90.0158 931.66 -92.8195 953.39 -95.946 971.805C-98.2454 985.268 -101.251 998.892 -106.858 1010.9H-104.64C-99.1935 998.912 -96.2284 985.45 -93.9491 972.149C-90.8025 953.572 -87.8979 931.721 -91.0042 909.991C-93.8483 889.777 -101.715 870.412 -109.299 851.734C-115.875 835.563 -122.672 818.907 -126.182 801.685C-129.369 786.019 -128.663 773.567 -124.044 763.622C-119.082 752.929 -106.717 743.145 -93.5861 746.076C-86.5667 747.653 -79.8297 752.969 -74.6257 761.034C-71.7093 765.819 -69.1475 770.812 -66.9609 775.973C-65.791 778.56 -64.5806 781.228 -63.2897 783.816C-54.3743 801.685 -40.8601 817.027 -27.7895 831.884C-12.5606 849.147 3.17254 867.016 11.3215 888.665C19.4704 910.314 19.7931 935.299 12.3502 959.414C6.21207 978.346 -3.65067 995.852 -16.6552 1010.9Z" fill="#342F2C"/>
<path d="M-51.8328 1010.9H-49.1299C-35.8154 995.38 -26.8563 976.593 -23.1703 956.463C-19.1362 935.744 -19.9431 913.144 -25.4094 889.272C-26.9222 882.662 -29.2821 875.506 -35.4947 872.413C-37.2481 871.536 -39.1829 871.086 -41.1424 871.099C-44.162 871.256 -47.1018 872.127 -49.7208 873.641C-52.3397 875.155 -54.5634 877.27 -56.2098 879.812C-60.5061 886.361 -61.3332 894.285 -62.261 902.047C-65.2866 930.609 -69.2804 959.454 -74.081 987.754C-75.6139 996.689 -77.2881 1004.65 -81.7862 1011H-79.3052C-75.2711 1004.53 -73.5768 996.749 -72.1043 988.098C-67.2835 959.798 -63.2897 930.872 -60.2439 902.249C-59.4573 894.83 -58.6505 887.169 -54.6365 881.024C-50.8848 875.304 -42.8771 871.099 -36.483 874.313C-31.0571 877.042 -28.8988 883.672 -27.4869 889.817C-22.1013 913.427 -21.4357 935.743 -25.2681 956.18C-28.9605 976.512 -38.1489 995.439 -51.8328 1010.9Z" fill="#342F2C"/>
<path d="M-209.527 1010.9H-206.642C-190.49 994.241 -181.099 972.157 -180.3 948.943C-179.311 923.373 -188.025 896.124 -204.867 872.272C-207.833 868.047 -211.06 863.903 -214.186 859.921C-218.604 854.261 -223.162 848.419 -227.035 842.294C-234.801 830.004 -240.832 815.026 -246.016 795.176C-252.753 769.342 -264.331 705.042 -226.188 666.09C-205.856 645.31 -176.629 636.941 -148.107 628.855C-128.784 623.337 -118.779 614.908 -118.335 603.81C-118.033 596.048 -123.176 588.185 -131.446 583.758C-138.526 579.998 -146.675 578.968 -155.127 578.159C-171.922 576.582 -188.025 575.787 -203.435 575.774C-255.173 575.774 -298.782 584.809 -333.899 602.699V604.902C-288.576 581.535 -228.749 573.227 -155.308 580.18C-146.776 580.989 -139.172 581.959 -132.394 585.557C-124.79 589.6 -120.07 596.736 -120.292 603.75C-120.695 613.857 -130.216 621.68 -148.712 626.976C-177.294 635.061 -206.864 643.571 -227.58 664.735C-266.428 704.435 -254.729 769.585 -247.912 795.742C-242.667 815.814 -236.556 830.954 -228.689 843.426C-224.655 849.652 -220.157 855.555 -215.719 861.215C-212.613 865.258 -209.386 869.3 -206.441 873.485C-189.881 896.993 -181.288 923.797 -182.236 948.943C-183.265 972.856 -193.451 995.698 -209.527 1010.9Z" fill="#342F2C"/>
<path d="M-246.076 1010.9H-243.192C-225.764 994.243 -218.019 968.45 -218.321 946.396C-218.745 914.782 -232.441 884.521 -245.108 858.648C-246.5 855.818 -247.892 853.008 -249.304 850.178C-261.406 825.78 -273.932 800.573 -278.571 773.547C-284.743 737.566 -277.3 696.835 -255.839 649.049C-253.56 643.955 -250.978 638.174 -252.168 632.312C-254.185 622.832 -264.532 618.526 -275.344 618.526C-277.71 618.526 -280.072 618.728 -282.404 619.133C-302.13 622.549 -319.316 632.433 -334 644.824V647.473C-319.255 634.758 -301.969 624.57 -282.061 621.194C-270.079 619.173 -256.222 622.468 -254.124 632.777C-253.075 637.992 -255.516 643.45 -257.694 648.281C-279.317 696.451 -286.801 737.566 -280.568 773.951C-275.868 801.26 -263.282 826.608 -251.099 851.128C-249.707 853.958 -248.295 856.788 -246.903 859.598C-234.276 885.29 -220.681 915.287 -220.338 946.518C-219.935 968.712 -227.963 994.728 -246.076 1010.9Z" fill="#342F2C"/>
<path d="M-308.666 1010.9H-305.156C-282.525 994.384 -270.341 965.054 -268.183 939.503C-265.238 904.897 -275.908 870.351 -285.308 839.869C-295.192 807.87 -305.479 774.76 -302.957 741.083C-302.816 739.062 -302.635 737.162 -302.433 735.201C-301.515 728.43 -301.454 721.571 -302.251 714.785C-303.542 706.699 -308.302 697.057 -317.561 693.924C-319.442 693.273 -321.421 692.952 -323.41 692.974C-327.08 693 -330.693 693.886 -333.96 695.561V697.825C-331.626 696.418 -329.026 695.511 -326.325 695.163C-323.624 694.816 -320.88 695.034 -318.267 695.804C-309.795 698.654 -305.438 707.932 -304.289 715.088C-303.526 721.701 -303.6 728.384 -304.511 734.979C-304.692 737 -304.874 739.021 -305.035 740.901C-307.516 774.982 -297.229 808.274 -287.305 840.455C-277.946 870.776 -267.356 905.14 -270.261 939.301C-272.399 965.256 -285.066 995.132 -308.666 1010.9Z" fill="#342F2C"/>
<path d="M-333.96 948.842V953.249C-325.246 937.078 -319.175 917.692 -315.806 895.275C-312.095 870.331 -310.158 826.204 -333.96 793.114V796.631C-312.296 828.973 -314.233 870.958 -317.823 894.992C-320.327 913.684 -325.773 931.86 -333.96 948.842Z" fill="#342F2C"/>
<path d="M40.5689 46.8154C43.6752 83.3218 45.9747 126.357 39.742 168.665C28.4868 244.953 -8.78858 313.518 -44.8537 379.82C-54.7776 398.012 -66.0127 418.752 -82.9157 433.104C-105.103 451.903 -134.895 458.755 -161.238 464.799C-207.288 475.371 -259.49 487.358 -309.009 476.382C-315.584 474.926 -322.18 473.047 -328.554 471.247L-333.899 469.731V471.753L-329.119 473.107C-322.704 474.926 -316.068 476.806 -309.452 478.282C-259.49 489.339 -207.046 477.312 -160.795 466.679C-134.21 460.615 -104.095 453.682 -81.6047 434.559C-64.4193 419.965 -53.0833 399.104 -43.0787 380.709C-6.93287 314.246 30.4433 245.539 41.638 168.887C47.9111 126.438 45.6721 83.2005 42.4852 46.5728C41.1539 30.9474 39.3789 14.9381 34.78 0.0808105H32.7629C37.4425 15.0189 39.1973 31.1294 40.5689 46.8154Z" fill="#342F2C"/>
<path d="M-26.1557 278.831C-51.9943 346.548 -83.1578 387.299 -124.185 407.048C-144.577 416.872 -167.471 421.198 -189.155 424.23C-227.802 429.789 -282.182 434.761 -333.899 420.652V422.673C-282 436.702 -227.58 431.709 -188.872 426.15C-167.007 423.017 -143.952 418.732 -123.297 408.786C-68.8367 382.508 -40.5976 322.412 -24.2796 279.417C3.0718 207.738 28.87 102.99 3.07173 0.0604248H1.05464C26.8529 102.788 1.13519 207.314 -26.1557 278.831Z" fill="#342F2C"/>
<path d="M-28.899 120.576C-34.8412 160.127 -45.5282 198.813 -60.7282 235.795C-87.7569 301.39 -124.588 343.839 -170.235 362.031C-190.909 370.117 -213.44 373.19 -234.781 375.555C-266.206 379.011 -301.203 381.619 -333.919 373.836V375.858C-301.041 383.62 -266.025 380.972 -234.559 377.495C-213.117 375.13 -190.425 372.138 -169.508 363.851C-123.338 345.658 -86.123 302.784 -58.8926 236.503C-43.618 199.375 -32.8832 160.531 -26.9223 120.819C-19.5802 71.921 -22.4241 32.1602 -35.5754 0.141296H-37.7538C-24.4412 32.0187 -21.5569 71.6583 -28.899 120.576Z" fill="#342F2C"/>
<path d="M-117.468 11.1378C-124.871 16.3732 -133.605 19.7489 -141.915 23.0236C-145.304 24.3375 -148.813 25.6919 -152.202 27.1675C-183.124 40.8301 -208.305 64.8994 -223.384 95.2076C-227.761 104.553 -231.632 114.128 -234.982 123.891C-238.189 132.704 -241.477 141.801 -245.531 150.371C-251.081 161.502 -257.271 172.301 -264.068 182.714C-276.312 202.261 -288.959 222.454 -292.126 245.559C-293.024 253.685 -293.321 261.867 -293.013 270.038C-293.013 275.92 -292.852 282.005 -293.255 287.927C-294.042 299.692 -297.471 315.661 -309.21 324.919C-316.358 330.18 -325.104 332.795 -333.96 332.317V334.338C-324.657 334.77 -315.493 331.963 -308.02 326.394C-295.696 316.671 -292.126 300.116 -291.299 287.988C-290.895 281.924 -290.976 275.86 -291.057 269.917C-291.362 261.854 -291.072 253.78 -290.189 245.761C-287.083 223.081 -274.537 203.069 -262.414 183.724C-255.576 173.256 -249.353 162.396 -243.777 151.2C-239.743 142.549 -236.354 133.392 -233.147 124.538C-229.819 114.845 -225.974 105.337 -221.629 96.0565C-206.753 66.206 -181.929 42.5087 -151.456 29.0676C-148.107 27.6122 -144.618 26.2579 -141.249 25.0248C-132.757 21.7098 -123.963 18.2734 -116.359 12.8965C-111.555 9.51601 -107.447 5.24034 -104.256 0.303101H-106.636C-109.59 4.51924 -113.255 8.1859 -117.468 11.1378Z" fill="#342F2C"/>
<path d="M-203.698 15.5445C-207.288 17.9904 -211.04 20.3958 -214.67 22.7002C-226.39 30.1996 -238.492 37.9415 -247.488 48.8166C-259.369 63.1685 -264.673 81.4822 -269.797 99.1896C-272.016 106.851 -274.315 114.775 -277.099 122.254C-282.342 135.34 -288.447 148.062 -295.373 160.337C-306.003 180.187 -316.976 200.765 -320.082 223.344C-320.344 225.244 -320.566 227.184 -320.768 229.125C-321.615 236.887 -322.503 244.952 -326.819 251.36C-328.649 254.044 -331.063 256.276 -333.879 257.889V260.133C-330.391 258.352 -327.398 255.734 -325.165 252.512C-320.526 245.761 -319.618 237.473 -318.751 229.428C-318.549 227.407 -318.327 225.608 -318.065 223.708C-315.019 201.472 -304.107 181.097 -293.578 161.408C-286.604 149.032 -280.465 136.201 -275.203 123.002C-272.379 115.442 -270.079 107.498 -267.84 99.7962C-262.777 82.2909 -257.533 64.1792 -245.915 50.1508C-237.12 39.5182 -225.139 31.8571 -213.642 24.4588C-210.011 22.1342 -206.239 19.7287 -202.629 17.2626C-195.323 12.3951 -188.625 6.66742 -182.68 0.202087H-185.403C-190.936 5.95689 -197.07 11.1005 -203.698 15.5445Z" fill="#342F2C"/>
<path d="M-297.652 74.5894C-307.375 99.6546 -317.359 125.326 -333.96 144.974V148.006C-316.23 127.934 -305.842 101.292 -295.777 75.2362C-285.248 48.1293 -274.416 20.2746 -255.234 0.121277H-257.997C-276.574 20.4161 -287.224 47.907 -297.652 74.5894Z" fill="#342F2C"/>
<path d="M-333.96 61.3492C-325.906 51.9824 -318.961 41.7127 -313.265 30.7453L-311.691 27.8952C-306.689 18.3085 -301.069 9.05796 -294.869 0.202087H-297.35C-303.252 8.77491 -308.64 17.6915 -313.486 26.9047L-315.06 29.7751C-320.363 39.9153 -326.697 49.48 -333.96 58.3171V61.3492Z" fill="#342F2C"/>
<path d="M-181.772 252.068C-171.989 254.898 -158.273 243.093 -150.084 236.038L-148.067 234.34C-115.518 206.741 -94.2972 168.059 -88.4828 125.731C-87.9382 121.486 -87.5348 116.594 -89.5922 112.389C-90.9927 109.885 -93.0466 107.81 -95.5337 106.385C-98.0209 104.961 -100.848 104.242 -103.712 104.304C-104.095 104.284 -104.478 104.284 -104.861 104.304C-110.812 104.961 -116.39 107.536 -120.756 111.641C-133.806 122.941 -138.909 139.941 -144.053 156.112C-147.522 167.371 -151.092 178.994 -157.184 188.839C-161.014 194.202 -165.402 199.142 -170.275 203.574C-181.712 214.955 -194.701 227.831 -190.445 241.496C-188.731 247.398 -185.826 250.855 -181.772 252.068ZM-168.964 205.171C-163.988 200.624 -159.505 195.563 -155.591 190.072C-149.358 179.965 -145.747 168.24 -142.238 156.88C-137.054 140.062 -132.152 124.174 -119.546 113.259C-115.508 109.445 -110.352 107.035 -104.841 106.386C-102.182 106.126 -99.5041 106.64 -97.1287 107.866C-94.7533 109.092 -92.7811 110.978 -91.448 113.299C-89.6327 116.998 -90.0158 121.506 -90.5201 125.427C-96.2653 167.259 -117.235 205.486 -149.398 232.763L-151.415 234.461C-158.536 240.526 -169.992 250.451 -178.585 250.451C-179.485 250.454 -180.381 250.332 -181.248 250.087C-184.596 249.137 -187.097 246.044 -188.67 241.011C-192.543 228.62 -180.017 216.148 -168.964 205.171Z" fill="#342F2C"/>
</g>
<defs>
<filter id="filter0_d_604_14" x="-338" y="0" width="1521" height="1019" filterUnits="userSpaceOnUse" color-interpolation-filters="sRGB">
<feFlood flood-opacity="0" result="BackgroundImageFix"/>
<feColorMatrix in="SourceAlpha" type="matrix" values="0 0 0 0 0 0 0 0 0 0 0 0 0 0 0 0 0 0 127 0" result="hardAlpha"/>
<feOffset dy="4"/>
<feGaussianBlur stdDeviation="2"/>
<feComposite in2="hardAlpha" operator="out"/>
<feColorMatrix type="matrix" values="0 0 0 0 0 0 0 0 0 0 0 0 0 0 0 0 0 0 0.25 0"/>
<feBlend mode="normal" in2="BackgroundImageFix" result="effect1_dropShadow_604_14"/>
<feBlend mode="normal" in="SourceGraphic" in2="effect1_dropShadow_604_14" result="shape"/>
</filter>
</defs>
</svg>
