<svg width="72" height="47" viewBox="0 0 72 47" fill="none" xmlns="http://www.w3.org/2000/svg">
<path opacity="0.2" d="M-0.000355772 14.8632C-0.000355058 6.69515 7.49822 -5.59556e-06 15.6663 -4.88148e-06C24.7717 -4.08546e-06 31.7347 7.36467 31.7347 17.5413C31.7347 31.735 21.1563 42.3134 11.7831 47L11.7831 39.3675C14.5951 37.6268 16.7375 33.7436 17.9427 29.057C17.1392 29.3248 16.2019 29.4587 15.1307 29.4587C6.29309 29.4587 -0.000356486 23.0313 -0.000355772 14.8632ZM39.7689 14.8632C39.7689 6.69516 47.2674 -2.11882e-06 55.4355 -1.40474e-06C64.5409 -6.08721e-07 71.5039 7.36468 71.5039 17.5413C71.5039 31.735 60.9256 42.3134 51.5523 47L51.5523 39.3675C54.3643 37.6268 56.5068 33.7436 57.7119 29.057C56.9085 29.3248 55.9711 29.4587 54.8999 29.4587C46.0623 29.4587 39.7689 23.0313 39.7689 14.8632Z" fill="white"/>
</svg>
