<svg width="714" height="396" viewBox="0 0 714 396" fill="none" xmlns="http://www.w3.org/2000/svg">
<g opacity="0.1">
<path d="M271.569 985.733C277.843 988.937 284.151 992.399 290.269 995.758C306.073 1004.37 322.429 1013.4 339.991 1018.98C393.419 1035.93 455.982 1017.89 492.158 975.123C507.91 956.486 518.596 934.129 528.023 914.39C541.311 886.555 552.152 861.322 549.981 834.193C548.946 821.206 544.81 808.736 540.881 796.679C537.487 787.209 534.819 777.495 532.901 767.621C529.557 747.779 532.47 727.178 535.279 707.336C537.796 689.56 540.45 671.165 538.726 653.027C534.452 607.021 503.671 563.254 444.572 519.263C436.42 513.2 427.958 507.206 419.754 501.281C383.165 475.134 345.334 448.092 321.964 409.854C314.088 396.97 307.9 382.812 301.903 369.118C297.818 359.765 293.595 350.171 288.838 340.836C283.082 329.64 273.637 314.276 258.074 310.245C248.061 307.644 237.548 310.349 228.586 313.328C211.644 318.978 195.047 326.832 179.001 334.428C149.702 348.208 119.489 362.59 87.1909 363.09C56.4957 363.555 25.2662 351.136 0.206773 328.796L0.206772 335.686C25.6281 356.992 56.6853 368.739 87.2771 368.274C120.695 367.757 151.46 353.203 181.207 339.113C197.115 331.586 213.574 323.801 230.223 318.255C238.461 315.516 248.061 313.001 256.782 315.257C270.328 318.702 278.946 332.895 284.237 343.213C288.925 352.324 293.113 361.918 297.163 371.202C303.23 384.982 309.486 399.381 317.552 412.541C341.474 451.692 379.735 479.044 416.755 505.552C424.925 511.391 433.37 517.437 441.487 523.483C499.327 566.544 529.385 609.105 533.59 653.561C535.21 671.13 532.66 689.199 530.143 706.681C527.282 726.989 524.318 748.02 527.782 768.689C529.747 778.82 532.478 788.787 535.951 798.505C539.812 810.269 543.828 822.446 544.81 834.796C546.878 860.633 536.313 885.229 523.336 912.306C514.046 931.752 503.515 953.799 488.194 971.919C453.328 1013.15 393.023 1030.48 341.543 1014.19C324.463 1008.76 308.331 999.926 292.734 991.366C286.598 987.921 280.238 984.476 273.896 981.272C225.428 956.814 172.1 943.502 117.817 942.311C77.9812 941.329 38.2498 946.814 0.17226 958.553L0.17226 963.979C88.6042 936.231 189.29 943.723 271.569 985.733Z" fill="#FFFBEF"/>
<path d="M844.196 530.183C839.974 527.29 835.579 524.292 831.236 521.571C808.721 507.477 783.367 498.531 756.988 495.373C745.734 494.047 734.049 493.65 722.743 493.426C695.96 492.703 670.642 492.031 648.874 479.182C611.526 457.135 602.719 408.975 600.772 382.226C599.72 367.602 599.841 352.583 599.962 338.045C600.151 314.672 600.358 290.489 595.653 267.081C594.515 261.414 593.085 255.73 591.689 250.235C589.268 241.476 587.415 232.57 586.139 223.572C583.933 204.953 586.777 185.885 590.172 166.37C593.085 149.611 596.17 133.265 601.978 117.711C613.25 87.4825 634.362 61.8182 654.768 37.0151C664.558 25.0959 674.571 12.9009 683.619 0.103229L677.294 0.103229C668.901 11.6952 659.749 22.8222 650.787 33.7252C630.105 58.8728 608.717 84.8816 597.135 115.92C591.172 131.87 588.035 148.474 585.071 165.492C582.468 180.46 580.193 195.186 580.193 209.793C580.179 214.604 580.45 219.413 581.003 224.192C582.302 233.411 584.196 242.536 586.674 251.51C588.052 256.936 589.466 262.551 590.586 268.097C595.188 290.971 594.981 314.879 594.791 338.011C594.671 352.634 594.55 367.775 595.618 382.605C597.635 410.353 606.873 460.39 646.254 483.626C669.177 497.147 696.339 497.888 722.605 498.594C733.79 498.904 745.355 499.214 756.385 500.506C781.998 503.576 806.615 512.263 828.478 525.946C832.752 528.633 837.096 531.596 841.266 534.455C847.988 539.054 854.796 543.722 861.948 547.632L861.948 541.672C855.864 538.158 849.987 534.093 844.196 530.183Z" fill="#FFFBEF"/>
<path d="M861.724 974.09C827.448 947.322 786.139 931.066 742.804 927.291C735.738 926.706 728.189 926.413 720.898 928.342C707.989 931.787 698.045 941.346 689.204 951.216C685.446 955.436 681.706 959.828 678.104 964.065C666.04 978.31 653.424 993.054 637.775 1003.35C630.565 1007.87 623.082 1011.94 615.37 1015.53C602.805 1021.72 589.81 1028.11 579.745 1038.37C565.061 1053.36 559.667 1073.66 557.736 1088.05C556.997 1093.53 556.622 1099.05 556.616 1104.58C556.616 1137.51 569.87 1168.31 593.033 1187.67C622.694 1212.44 667.798 1214.2 695.718 1191.7C704.181 1184.81 711.006 1176.2 717.607 1167.79C726.224 1156.82 734.376 1146.45 745.854 1139.93C770.879 1125.66 802.988 1134.9 831.115 1144.65L861.914 1155.32L861.914 1149.86L832.821 1139.77C803.608 1129.64 770.19 1120.12 743.286 1135.43C730.946 1142.48 722.105 1153.72 713.539 1164.61C707.128 1172.77 700.475 1181.23 692.478 1187.67C666.402 1208.69 624.177 1206.95 596.36 1183.71C571.076 1162.61 557.926 1125.34 562.855 1088.74C564.682 1075.13 569.749 1056.01 583.433 1041.99C592.878 1032.36 604.908 1026.49 617.662 1020.16C625.556 1016.48 633.212 1012.31 640.584 1007.68C656.854 996.964 669.642 981.944 681.948 967.407C685.55 963.187 689.255 958.794 692.978 954.661C701.268 945.377 710.54 936.386 722.122 933.337C728.745 931.904 735.563 931.601 742.287 932.441C784.617 936.137 824.97 952.009 858.467 978.137L861.914 980.859L861.914 974.228C861.914 974.228 861.793 974.124 861.724 974.09Z" fill="#FFFBEF"/>
<path d="M257.592 1167.38C251.611 1132.78 221.399 1101.33 197.373 1084.89C167.798 1064.71 133.018 1054.01 102.909 1046.23C93.5161 1043.8 82.7788 1041.64 73.9373 1046.83C67.2847 1050.76 63.5964 1058.04 61.442 1063.17C57.193 1073.4 55.0308 1084.37 55.0824 1095.44C55.0824 1118.93 64.6477 1142.75 86.1051 1154.79C93.8091 1159.13 102.358 1161.54 110.613 1163.87C114.301 1164.92 118.11 1165.99 121.764 1167.21C136.928 1172.35 150.869 1180.56 162.714 1191.32C165.334 1193.72 167.884 1196.32 170.487 1198.83C178.846 1207.15 187.498 1215.76 198.976 1219.64C212.764 1224.31 228.396 1220.85 240.65 1210.39C253.714 1199.14 260.211 1182.69 257.592 1167.38ZM200.579 1214.71C190.238 1211.27 182.396 1203.43 174.089 1195.16C171.521 1192.6 168.918 1190 166.144 1187.5C153.772 1176.25 139.209 1167.68 123.367 1162.32C119.592 1161.04 115.715 1159.96 111.975 1158.87C103.633 1156.53 95.7566 1154.31 88.5869 1150.26C59.4084 1133.86 54.2379 1093.32 66.1817 1065.17C69.2322 1057.99 72.4206 1053.7 76.5225 1051.27C83.6578 1047.07 93.1886 1049.03 101.565 1051.27C131.26 1058.95 165.506 1069.46 194.409 1089.17C217.624 1105.01 246.768 1135.24 252.456 1168.26C254.782 1181.76 249.009 1196.4 237.203 1206.45C226.379 1215.71 212.678 1218.81 200.579 1214.71Z" fill="#FFFBEF"/>
<path d="M364.362 96.0945C322.679 73.8083 274.481 66.8878 228.206 76.5449C207.749 80.9199 194.598 88.1541 186.843 99.3327C181.896 106.446 179.035 115.437 178.087 126.892C177.881 129.355 177.777 131.766 177.777 134.109C177.584 143.276 179.506 152.364 183.396 160.669C194.374 183.06 218.693 191.673 242.184 199.992C251.482 203.091 260.602 206.703 269.501 210.809C289.097 220.386 305.556 235.75 321.464 250.597C329.599 258.193 338.027 266.099 346.834 273.109C379.787 299.566 415.359 307.799 441.987 295.122C463.617 284.788 474.871 269.027 475.405 248.134C476.836 191.69 399.004 114.835 364.362 96.0945ZM470.235 247.962C469.752 266.754 459.498 281.05 439.764 290.42C403.019 307.903 361.811 278.483 350.143 269.044C341.525 262.155 333.132 254.318 325.066 246.773C308.865 231.667 292.13 216.062 271.845 206.141C262.774 201.941 253.476 198.249 243.993 195.083C220.416 186.729 198.166 178.823 188.101 158.361C183.913 149.835 182.293 139.414 183.31 127.357C184.171 116.867 186.757 108.686 191.151 102.364C198.045 92.3224 210.282 85.7427 229.378 81.6949C274.481 72.2866 321.457 79.0302 362.086 100.745C394.436 118.245 470.235 193.051 470.235 246.446L470.235 247.962Z" fill="#FFFBEF"/>
<path d="M825.221 494.718C815.121 488.569 804.677 482.213 793.474 477.769C775.843 470.776 756.626 468.641 738.047 466.574C731.739 465.867 725.207 465.144 718.83 464.248C687.084 459.718 665.161 449.832 651.787 434.02C638.671 418.518 634.052 398.003 630.433 378.316C618.914 315.399 614.531 251.385 617.369 187.487C618.127 170.762 619.437 151.454 625.642 133.764C631.846 116.075 642.497 100.607 653.838 84.916C674.709 56.0135 696.821 27.5761 719.726 0.0859895L717.469 0.0859894C694.874 27.266 673.055 55.3591 652.442 83.8998C641.032 99.7118 630.26 115.386 624.021 133.196C617.782 151.006 616.404 170.573 615.663 187.401C615.088 200.032 614.807 212.663 614.818 225.295C614.813 276.744 619.474 328.087 628.744 378.695C632.191 397.642 637.068 419.362 650.46 435.191C664.127 451.347 686.412 461.424 718.589 466.022C724.983 466.918 731.532 467.659 737.857 468.365C756.333 470.415 775.429 472.533 792.837 479.44C803.901 483.815 814.277 490.137 824.325 496.251C831.219 500.471 838.406 504.863 845.782 508.549C850.978 511.168 856.372 513.373 861.914 515.146L861.914 513.424C856.644 511.676 851.511 509.54 846.558 507.034C839.25 503.262 832.115 498.921 825.221 494.718Z" fill="#FFFBEF"/>
<path d="M843.317 445.009C834.715 438.869 825.658 433.393 816.224 428.628C801.644 421.739 785.563 419.448 770.018 417.209C764.296 416.382 758.384 415.486 752.645 414.453C725.362 409.372 707.335 400.432 695.891 386.308C684.74 372.529 680.621 353.857 677.639 337.442C667.634 282.377 663.853 226.362 666.367 170.452C667.109 153.779 668.505 136.004 673.589 119.709C676.304 111.25 679.765 103.047 683.93 95.1989C687.859 87.5513 692.22 80.0931 696.442 72.8072L700.837 65.2632C707.731 53.43 714.504 41.8379 721.036 30.711C727.568 19.584 732.859 10.834 738.133 2.41124L739.547 0.137714L737.513 0.137714L736.582 1.61898C731.308 10.0589 726.017 18.8435 719.468 29.9532C712.919 41.0629 706.163 52.672 699.269 64.5224L694.874 72.0667C690.634 79.3009 686.256 86.7763 682.31 94.4584C678.144 102.402 674.684 110.696 671.969 119.244C666.798 135.814 665.419 153.693 664.678 170.401C664.173 181.585 663.926 192.769 663.937 203.954C663.941 248.836 667.979 293.627 676.002 337.787C679.035 354.409 683.223 373.338 694.633 387.428C706.335 401.879 724.69 411.008 752.404 416.175C758.16 417.26 764.106 418.122 769.845 418.948C785.27 421.17 801.213 423.478 815.552 430.213C824.909 434.943 833.891 440.379 842.421 446.473C848.729 450.727 855.227 455.085 861.983 458.926L861.983 456.945C855.52 453.225 849.332 449.074 843.317 445.009Z" fill="#FFFBEF"/>
<path d="M861.673 395.144C854.46 389.431 846.877 384.201 838.974 379.487C827.289 372.908 814.191 370.358 801.54 367.878C796.559 366.913 791.423 365.897 786.477 364.674C772.396 361.229 752.266 354.632 739.943 338.597C730.757 326.54 727.293 310.59 724.759 296.569C716.342 249.352 713.209 201.345 715.418 153.435C716.073 138.863 717.314 121.793 721.588 105.689C723.771 97.726 726.483 89.9174 729.705 82.3151C731.843 77.1478 734.1 71.9805 736.289 67.0371L739.012 60.8536C745.01 47.0741 750.336 33.6219 754.886 21.0481L757.005 15.1573C758.832 9.99 760.59 5.1672 762.538 0.103233L760.694 0.103232C758.832 4.9605 757.143 9.6628 755.385 14.5717L753.265 20.4626C748.733 33.0019 743.407 46.2991 737.427 60.0786L734.704 66.2621C732.515 71.2399 730.257 76.3728 728.103 81.5746C724.857 89.2459 722.122 97.123 719.916 105.155C715.607 121.414 714.349 138.604 713.712 153.262C713.263 163.023 713.045 172.783 713.057 182.544C713.037 220.858 716.428 259.097 723.191 296.81C725.759 311.02 729.292 327.211 738.702 339.578C751.266 356.045 771.776 362.694 786.115 366.276C791.096 367.516 796.266 368.515 801.264 369.497C813.777 371.943 826.738 374.475 838.181 380.917C846.017 385.584 853.537 390.762 860.69 396.419L861.966 397.401L861.966 395.23L861.673 395.144Z" fill="#FFFBEF"/>
<path d="M861.724 330.363C852.797 324.249 842.611 321.407 832.77 318.651C828.633 317.497 824.376 316.308 820.326 314.896C808.417 310.762 793.526 304.286 784.133 290.902C776.877 280.568 774.068 267.305 772.069 255.696C765.132 216.327 762.56 176.314 764.399 136.382C764.868 121.336 766.597 106.356 769.57 91.5991C771.293 83.7792 773.396 76.3038 775.481 69.3796L776.739 65.2632C778.463 59.5447 780.186 54.1533 781.582 48.7448C785.049 36.4655 787.436 23.9074 788.717 11.2131C788.993 8.25049 789.166 5.42569 789.355 2.60089L789.51 0.0687513L787.787 0.0687513L787.632 2.49745C787.459 5.28779 787.27 8.09537 787.011 11.1096C785.708 23.7006 783.339 36.1583 779.928 48.3487C778.446 53.7227 776.808 59.114 775.085 64.8153L773.844 68.9318C771.741 75.8215 769.57 83.4174 767.881 91.3234C764.901 106.172 763.171 121.245 762.71 136.382C762.331 144.753 762.147 153.096 762.159 161.409C762.12 193.169 764.882 224.869 770.414 256.144C772.517 267.942 775.378 281.412 782.823 292.039C792.595 305.991 808.675 312.708 819.844 316.67C823.945 318.1 828.237 319.305 832.391 320.459C842.094 323.181 852.142 325.988 860.828 331.931L862 332.775L862 330.656C861.924 330.545 861.831 330.446 861.724 330.363Z" fill="#FFFBEF"/>
<path d="M854.21 265.152C845.592 260.691 834.993 254.18 828.358 243.208C823.066 234.596 820.912 224.02 819.309 214.822C813.9 183.304 811.923 151.292 813.415 119.348C813.996 105.349 815.354 91.3925 817.482 77.5439C818.275 72.48 819.206 67.4506 820.102 62.5933L821.222 56.4271C822.618 48.6072 823.532 42.3201 824.101 36.6361C825.393 22.8566 824.842 11.0579 822.377 1.3261L822.032 0.0859939L820.309 0.0859939L820.757 1.80843C823.067 11.2129 823.635 23.2356 822.36 36.5501C821.808 42.1824 820.895 48.4177 819.499 56.2031L818.379 62.3521C817.5 67.2266 816.569 72.2561 815.759 77.3373C813.623 91.2484 812.265 105.268 811.691 119.33C811.358 126.289 811.197 133.225 811.209 140.137C811.17 165.29 813.303 190.398 817.586 215.184C819.223 224.537 821.412 235.268 826.875 244.173C833.769 255.506 844.748 262.189 853.486 266.754C856.244 268.183 859.139 269.458 861.983 270.715L861.983 268.821C859.311 267.615 856.743 266.444 854.21 265.152Z" fill="#FFFBEF"/>
<path d="M861.914 8.95659L861.914 3.34143C861.5 2.22184 861.069 1.13668 860.604 0.0859956L858.743 0.0859956C860.006 2.9649 861.066 5.9291 861.914 8.95659Z" fill="#FFFBEF"/>
<path d="M860.604 102.227C859.83 119.162 860.268 136.131 861.914 153.004L861.914 82.3841C861.362 88.9466 860.897 95.6124 860.604 102.227Z" fill="#FFFBEF"/>
<path d="M256.454 95.7847C240.943 97.9722 229.43 102.537 220.985 109.736C216.948 113.06 213.668 117.208 211.364 121.901C209.061 126.595 207.787 131.726 207.628 136.951C207.616 139.556 207.982 142.15 208.714 144.65C211.764 154.985 221.312 163.821 234.945 168.937C241.017 171.048 247.217 172.773 253.507 174.104C258.953 175.396 264.572 176.739 269.897 178.582C292.044 186.23 310.037 202.696 325.152 217.492C327.1 219.387 329.047 221.316 330.995 223.245C345.196 237.283 359.88 251.82 377.529 261.638C394.643 271.146 430.957 282.738 445.986 258.521C459.343 236.973 441.384 204.47 429.475 187.005C413.808 164.01 392.696 146.166 376.047 133.179C365.167 124.39 353.495 116.629 341.181 109.995C315.069 96.6728 285.486 91.7112 256.454 95.7847ZM340.422 111.597C352.641 118.18 364.221 125.883 375.013 134.608C391.558 147.509 412.55 165.25 428.096 188.004C439.747 205.108 457.395 236.921 444.555 257.642C430.216 280.74 395.022 269.389 378.408 260.157C360.915 250.442 346.317 236.043 332.201 222.039L326.359 216.269C311.106 201.318 292.94 184.731 270.466 176.963C265.054 175.103 259.384 173.759 253.903 172.45C247.682 171.117 241.551 169.391 235.548 167.283C222.433 162.374 213.246 153.917 210.368 144.116C206.611 131.37 213.539 118.28 222.088 111.011C230.292 104.035 241.598 99.5913 256.695 97.4554C285.395 93.4623 314.629 98.3997 340.422 111.597Z" fill="#FFFBEF"/>
<path d="M291.2 122.431C282.203 123.395 275.12 126.099 270.104 130.457C267.798 132.497 265.951 135.002 264.685 137.808C263.42 140.614 262.764 143.656 262.762 146.734C262.752 149.231 263.208 151.708 264.106 154.037L264.382 154.709C267.915 162.96 276.447 168.041 283.013 170.848C285.84 172.071 288.838 173.088 292.01 174.173C295.732 175.447 299.576 176.756 303.419 178.479C316.104 184.197 327.186 194.222 336.579 203.179L339.181 205.693C347.799 213.978 356.64 222.539 366.981 228.223C377.684 234.096 398.004 240.142 406.294 225.587C409.741 219.542 409.93 211.808 406.828 202.662C404.329 195.307 399.762 187.263 392.851 178.117C383.655 166.33 372.927 155.822 360.949 146.872C354.522 141.722 347.679 137.113 340.491 133.092C334.847 130.045 328.904 127.586 322.757 125.755C314.077 123.08 305.019 121.835 295.939 122.069C294.371 122.207 292.768 122.31 291.2 122.431ZM322.222 127.426C328.257 129.222 334.09 131.634 339.63 134.625C346.734 138.594 353.496 143.145 359.846 148.233C371.695 157.135 382.307 167.572 391.403 179.271C398.193 188.279 402.692 196.151 405.191 203.385C408.138 211.997 408 219.301 404.812 224.916C397.177 238.299 377.96 232.443 367.808 226.896C357.657 221.35 348.85 212.824 340.388 204.625L337.768 202.111C328.272 193.051 317.086 182.905 304.126 177.084C300.213 175.361 296.318 174 292.561 172.708C289.425 171.641 286.477 170.625 283.703 169.436C277.429 166.749 269.277 161.926 265.968 154.192L265.709 153.572C264.375 149.822 264.189 145.76 265.174 141.904C266.159 138.048 268.272 134.573 271.242 131.921C275.981 127.805 282.755 125.238 291.389 124.325C292.906 124.153 294.474 124.05 296.008 123.981C304.896 123.711 313.767 124.892 322.274 127.477L322.222 127.426Z" fill="#FFFBEF"/>
<path d="M316.914 156.966C316.98 159.816 318.034 162.556 319.896 164.717C322.116 167.039 324.679 169.008 327.496 170.556C328.651 171.262 329.857 172.002 330.943 172.795C332.882 174.419 334.734 176.144 336.493 177.962C339.785 181.269 343.869 185.351 348.006 188.865C354.779 194.584 359.656 196.961 362.948 196.117C363.811 195.871 364.597 195.413 365.236 194.784C365.874 194.155 366.344 193.375 366.602 192.517C367.964 188.951 367.515 184.903 365.223 180.46C362.806 176.187 359.716 172.331 356.071 169.04C349.751 163.267 342.947 158.047 335.734 153.435L335.062 152.987C332.806 151.316 330.266 150.067 327.565 149.301C326.124 148.898 324.605 148.858 323.144 149.182C321.683 149.507 320.324 150.187 319.189 151.161C318.418 151.911 317.816 152.816 317.423 153.817C317.031 154.819 316.857 155.892 316.914 156.966ZM327.255 151.109C329.738 151.844 332.071 153.01 334.149 154.554L334.821 155.002C341.942 159.566 348.664 164.723 354.917 170.418C358.422 173.58 361.396 177.284 363.724 181.39C364.932 183.534 365.601 185.94 365.671 188.4C365.682 189.631 365.46 190.852 365.016 192C364.853 192.598 364.542 193.145 364.111 193.59C363.68 194.036 363.144 194.366 362.552 194.549C359.88 195.221 355.382 192.827 349.16 187.659C345.076 184.215 341.008 180.15 337.751 176.877C335.934 174.94 334 173.116 331.96 171.417C330.805 170.607 329.582 169.849 328.392 169.126C325.732 167.669 323.309 165.816 321.205 163.632C318.5 160.479 317.517 155.295 320.395 152.573C321.329 151.801 322.435 151.265 323.62 151.01C324.805 150.755 326.034 150.789 327.203 151.109L327.255 151.109Z" fill="#FFFBEF"/>
<path d="M194.753 926.912C215.435 934.112 235.617 943.981 255.075 953.524C275.464 963.531 296.439 973.866 318.413 981.083C369.394 998.1 417.652 992.761 447.485 966.769C458.86 956.865 467.426 944.378 475.716 932.114C499.396 897.338 520.199 863.01 514.753 825.478C513.626 818.751 512.06 812.106 510.065 805.584C508.858 801.295 507.6 796.851 506.618 792.441C502.636 774.373 503.05 755.392 503.447 737.031L503.602 729.349C504.067 702.272 503.188 674.851 500.999 647.843C500.155 637.353 499.052 627.174 494.95 617.976C491.279 609.725 485.367 602.715 480.128 596.807C463.048 577.567 436.799 555.899 408.793 561.962C387.336 566.595 369.601 587.644 361.345 618.217C359.105 626.485 357.45 635.08 355.83 643.399C352.659 659.814 349.367 676.78 341.56 691.627C326.048 721.356 291.458 742.939 249.112 749.363C219.089 753.893 188.135 751.396 158.198 748.984C150.787 748.381 143.135 747.761 135.604 747.262C103.961 745.161 72.2209 744.954 40.5535 746.642C27.5757 747.331 13.5293 748.485 0.189542 752.154L0.189542 753.876C13.5121 750.138 27.6273 748.984 40.6396 748.295C72.2208 746.61 103.875 746.817 135.431 748.915C142.946 749.415 150.598 750.035 157.992 750.638C188.032 753.049 219.089 755.564 249.336 750.982C292.216 744.489 327.255 722.579 343.042 692.42C350.97 677.262 354.279 660.158 357.485 643.623C359.088 635.338 360.759 626.777 362.965 618.561C371.066 588.608 388.318 568.042 409.12 563.53C436.317 557.656 462.031 578.945 478.801 597.858C483.971 603.662 489.762 610.535 493.347 618.527C497.328 627.501 498.414 637.474 499.258 647.808C501.43 674.765 502.309 702.117 501.844 729.159L501.689 736.824C501.292 755.288 500.878 774.356 504.911 792.648C505.877 797.109 507.135 801.553 508.358 805.876C510.331 812.331 511.88 818.908 512.995 825.564C518.355 862.476 497.725 896.477 474.233 930.977C466.012 943.034 457.498 955.539 446.296 965.305C416.997 990.883 369.308 996.102 318.913 979.274C297.128 972.006 276.119 961.688 255.799 951.715C236.307 942.156 216.159 932.269 195.305 925.035C129.813 902.35 60.4597 906.191 0.154989 916.422L0.154989 918.145C60.3218 908.189 129.589 904.314 194.753 926.912Z" fill="#FFFBEF"/>
<path d="M117.972 725.111C151.839 724.974 186.912 724.836 220.744 720.719C234.066 719.1 248.113 716.723 260.539 710.384C271.707 704.718 281.893 695.899 293.561 681.809C312.036 659.504 323.756 637.026 328.392 614.789C335.717 579.755 326.031 542.447 318.258 512.631C308.055 473.394 295.353 424.546 271.81 382.932C264.916 370.703 255.006 355.959 239.667 350.447C232.412 347.846 223.794 347.278 213.298 348.724C189.669 351.945 167.402 362.969 145.858 373.631C117.111 387.875 89.9485 401.31 59.6841 398.038C37.4167 395.626 17.6138 384.103 0.241134 371.013L0.241134 373.183C17.476 386.084 37.2788 397.297 59.4945 399.743C90.3276 403.085 118.989 388.892 146.686 375.181C168.108 364.571 190.255 353.616 213.608 350.43C223.811 349.052 232.17 349.603 239.15 352.152C253.955 357.457 263.624 371.874 270.38 383.845C293.819 425.183 306.573 473.98 316.655 513.131C324.394 542.86 334.011 579.875 326.772 614.496C322.188 636.406 310.606 658.694 292.303 680.793C280.79 694.693 270.776 703.357 259.832 708.92C247.647 715.121 233.773 717.533 220.606 719.048C186.808 723.165 151.839 723.303 118.041 723.441C78.9871 723.596 39.0367 723.768 0.241118 730.072L0.241118 731.794C38.9333 725.439 78.9181 725.284 117.972 725.111Z" fill="#FFFBEF"/>
<path d="M94.3778 695.141C121.178 694.641 148.874 694.125 175.761 690.973C179.88 690.508 183.206 690.043 186.257 689.526C194.257 688.382 202.052 686.097 209.403 682.739C218.986 678.158 227.982 670.837 237.737 659.676C253.249 641.831 263.434 623.35 267.726 604.73C274.068 577.171 268.088 548.889 260.832 519.9C251.852 483.488 240.736 445.181 220.33 411.783C213.919 401.276 205.629 389.942 192.944 385.585C186.86 383.501 179.639 383.07 170.866 384.241C151.408 386.876 132.949 395.626 115.198 404.101C110.716 406.237 106.098 408.424 101.548 410.491C83.2787 418.759 63.4758 425.993 42.3631 423.564C27.1103 421.756 13.3224 415.056 0.1378 406.013L0.1378 408.097C13.2363 416.933 26.9379 423.478 42.1563 425.321C63.6826 427.87 83.7612 420.481 102.254 412.11C106.821 410.043 111.458 407.839 115.939 405.703C133.622 397.297 151.908 388.599 171.09 386.015C179.57 384.861 186.601 385.275 192.375 387.273C204.543 391.441 212.592 402.482 218.848 412.73C239.133 445.939 250.198 484.091 259.143 520.365C266.313 549.147 272.241 577.206 266.037 604.403C261.814 622.73 251.853 640.97 236.427 658.591C226.845 669.563 218.02 676.763 208.662 681.241C201.457 684.526 193.82 686.765 185.981 687.889C182.948 688.389 179.639 688.837 175.64 689.319C148.823 692.454 121.178 692.971 94.4296 693.47C63.2001 694.039 31.2983 694.659 0.24118 699.464L0.24118 701.187C31.1949 696.329 63.1311 695.709 94.3778 695.141Z" fill="#FFFBEF"/>
<path d="M71.7657 664.998C91.1721 664.258 111.251 663.483 130.778 661.329C134.225 660.968 136.845 660.623 139.395 660.244C145.914 659.357 152.287 657.62 158.354 655.077C166.368 651.632 174.106 645.845 181.983 637.525C194.529 624.297 203.233 609.467 207.128 594.671C213.022 572.279 208.593 549.061 203.561 527.152C195.15 490.653 183.844 462.336 169.005 440.616C163.507 432.573 156.527 423.926 146.375 420.705C140.586 419.096 134.513 418.784 128.589 419.792C113.319 421.825 98.79 428.404 84.7436 434.605C80.8141 436.328 76.7294 438.188 72.6792 439.876C58.0986 446.008 42.277 451.382 25.2145 449.108C16.3831 447.792 7.88377 444.805 0.172283 440.306L0.172283 442.27C7.83225 446.642 16.2345 449.561 24.956 450.882C42.4149 453.207 58.5122 447.765 73.2135 441.529C77.2464 439.807 81.3311 438.084 85.2779 436.241C99.2209 430.006 113.629 423.564 128.641 421.566C134.316 420.593 140.137 420.887 145.686 422.428C155.337 425.476 162.094 433.865 167.402 441.65C182.138 463.198 193.357 491.308 201.699 527.617C206.697 549.302 211.092 572.314 205.284 594.292C201.458 608.812 192.909 623.384 180.552 636.406C172.848 644.553 165.299 650.185 157.492 653.63C151.565 656.08 145.341 657.742 138.982 658.574C136.534 658.953 133.811 659.297 130.502 659.659C111.027 661.795 90.9999 662.57 71.6107 663.31C47.8956 664.223 23.715 665.153 0.0860914 668.633L0.0860913 670.355C23.8012 666.721 48.0161 665.825 71.7657 664.998Z" fill="#FFFBEF"/>
<path d="M51.601 634.115C62.8381 633.392 74.4371 632.634 85.7948 631.514C88.0009 631.29 90.207 631.066 92.3958 630.774C97.4056 630.211 102.337 629.09 107.097 627.432C114.154 624.709 120.598 620.61 126.055 615.375C135.368 607.035 142.368 596.433 146.375 584.595C151.701 568.042 149.219 549.94 146.1 534.403C142.446 516.231 134.5 490.205 117.455 469.398C112.698 463.577 107.235 457.91 99.6 455.808C95.1865 454.74 90.6029 454.57 86.1223 455.309C75.092 456.756 64.5099 461.01 54.2724 465.127C50.8254 466.522 47.2406 467.951 43.7247 469.243C33.3838 473.067 21.0435 476.701 8.01402 474.635C5.358 474.196 2.74145 473.545 0.189432 472.688L0.189432 474.411C2.65491 475.217 5.17862 475.833 7.73832 476.254C21.1643 478.389 33.7629 474.686 44.3279 470.776C47.7748 469.467 51.4459 468.038 54.9101 466.643C65.0614 462.56 75.5919 458.34 86.3464 456.928C90.5965 456.225 94.9442 456.377 99.1346 457.376C106.322 459.357 111.544 464.817 116.128 470.415C132.88 491.032 140.774 516.869 144.393 534.765C147.461 550.077 149.926 567.905 144.721 584.095C140.792 595.646 133.954 605.991 124.866 614.135C119.573 619.201 113.329 623.17 106.494 625.813C101.858 627.435 97.0534 628.527 92.1718 629.068C90.0002 629.344 87.8114 629.585 85.6225 629.809C74.2992 630.929 62.7002 631.669 51.4976 632.393C34.4523 633.495 17.1657 634.615 0.172152 637.112L0.172152 638.834C17.1829 636.354 34.5213 635.217 51.601 634.115Z" fill="#FFFBEF"/>
<path d="M40.7947 601.785C42.3458 601.664 43.897 601.544 45.4309 601.389C48.954 601.124 52.4515 600.588 55.8925 599.787C60.9946 598.509 65.8195 596.308 70.1285 593.293C76.8698 588.56 82.2246 582.115 85.6398 574.622C89.6211 565.734 90.6034 554.969 88.6731 541.724C86.1568 524.499 77.6428 508.274 65.8887 498.18C62.2517 494.652 57.744 492.15 52.8246 490.929C49.7995 490.439 46.7153 490.439 43.6902 490.929C37.0929 491.956 30.603 493.582 24.301 495.786C21.1987 496.768 17.9931 497.801 14.8564 498.645C10.0904 500.012 5.17811 500.804 0.223977 501.005L0.223977 502.728C5.32989 502.536 10.3937 501.727 15.3045 500.316C18.4929 499.472 21.7157 498.439 24.8352 497.44C31.0583 495.247 37.467 493.621 43.9831 492.582C46.8373 492.124 49.7464 492.124 52.6006 492.582C57.2247 493.764 61.4567 496.14 64.8717 499.472C76.3157 509.307 84.6229 525.188 87.0702 541.947C88.9661 554.866 88.0181 565.321 84.1748 573.899C80.854 581.132 75.652 587.342 69.1115 591.881C64.9677 594.774 60.3302 596.887 55.4271 598.116C52.0758 598.892 48.6711 599.416 45.2414 599.684C43.7075 599.821 42.1735 599.942 40.6223 600.062C27.1792 601.13 13.5292 602.233 0.13773 604.248L0.13773 605.97C13.5981 603.955 27.2826 602.853 40.7947 601.785Z" fill="#FFFBEF"/>
<path d="M13.9601 571.246C18.835 569.898 23.1449 567.015 26.2497 563.025C29.3546 559.034 31.0889 554.149 31.195 549.096C31.0962 544.036 29.3653 539.143 26.2599 535.146C23.1544 531.149 18.8405 528.26 13.9601 526.911C9.36888 525.924 4.63247 525.813 -2.30177e-05 526.583L-2.3093e-05 528.306C4.48354 527.51 9.07939 527.598 13.5293 528.564C18.0307 529.823 22.0061 532.499 24.8655 536.194C27.7249 539.889 29.316 544.408 29.4026 549.078C29.3032 553.754 27.6964 558.273 24.8209 561.963C21.9454 565.653 17.955 568.317 13.4431 569.558C9.55097 570.361 5.56648 570.622 1.60282 570.333C1.06854 570.333 0.534255 570.333 -2.49301e-05 570.333L-2.50053e-05 572.056C0.51702 572.056 1.03402 572.056 1.55106 572.056C5.70497 572.362 9.88124 572.089 13.9601 571.246Z" fill="#FFFBEF"/>
<path d="M331.081 940.399C331.458 944.105 332.491 947.715 334.132 951.061C337.475 957.072 344.472 961.189 354.555 962.963C379.959 967.458 409.051 957.571 430.388 937.126C448.278 920.263 461.721 896.27 470.683 865.852C476.491 846.095 478.921 828.75 478.094 812.852C477.456 800.416 474.751 788.066 472.165 776.13C470.442 768.551 468.805 760.714 467.633 752.929C465.082 735.911 465.013 718.342 464.944 701.359C464.944 691.024 464.944 680.449 464.272 670.011C463.651 658.97 462.376 647.326 457.257 636.888C451.708 625.572 441.746 617.58 431.405 616.064C399.762 611.448 389.042 649.204 382.63 671.767L382.337 672.801C378.597 685.909 373.099 698.276 367.774 710.247C364.43 717.739 360.88 725.49 357.95 733.431C338.061 785.672 327.582 841.083 327.582 891.533C327.494 907.887 328.664 924.224 331.081 940.399ZM369.239 710.936C374.582 698.879 380.114 686.494 383.889 673.266L384.181 672.233C390.438 650.22 400.917 613.36 431.043 617.769C440.919 619.216 450.346 626.829 455.654 637.646C460.635 647.808 461.893 659.245 462.548 670.114C463.134 680.449 463.186 691.11 463.22 701.376C463.22 718.411 463.358 736.032 465.926 753.187C467.098 761.024 468.822 768.879 470.476 776.492C473.062 788.376 475.733 800.606 476.371 812.956C477.181 828.63 474.785 845.785 469.029 865.369C460.187 895.495 446.83 919.23 429.388 935.903C408.362 955.952 379.856 965.667 354.986 961.275C348.368 960.103 339.647 957.227 335.769 950.217C334.225 947.054 333.256 943.642 332.908 940.14C323.377 878.701 333.115 803.586 359.587 734.034C362.483 726.162 365.93 718.394 369.256 710.936L369.239 710.936Z" fill="#FFFBEF"/>
<path d="M369.67 898.802C385.578 905.468 403.812 901.541 417.272 888.467C427.148 878.942 434.697 865.301 439.678 847.904C442.697 838.193 444.168 828.067 444.038 817.899C443.64 810.637 442.683 803.416 441.177 796.3C440.419 792.269 439.643 788.101 439.109 784.002C438.215 776.213 437.743 768.382 437.696 760.542L437.696 758.113C437.558 751.224 437.42 744.213 436.834 737.306C436.555 730.853 435.107 724.503 432.56 718.566C429.406 712.004 424.063 707.319 418.255 706.061C415.809 705.467 413.263 705.41 410.794 705.895C408.324 706.379 405.989 707.394 403.95 708.869C395.85 714.656 391.558 727.075 388.714 735.274C386.314 741.846 383.564 748.286 380.476 754.565C378.356 759.061 376.167 763.711 374.254 768.465C362.402 797.418 356.15 828.354 355.83 859.634C355.809 867.552 356.304 875.463 357.312 883.317C357.525 885.384 358.036 887.408 358.829 889.329C360.639 893.325 364.293 896.546 369.67 898.802ZM360.397 888.467C359.672 886.689 359.208 884.815 359.019 882.904C354.451 848.128 360.587 806.634 375.84 769.034C377.753 764.331 379.924 759.715 382.027 755.254C385.137 748.937 387.904 742.457 390.317 735.842C393.092 727.833 397.211 715.741 404.932 710.281C406.769 708.937 408.879 708.014 411.113 707.576C413.347 707.138 415.65 707.198 417.858 707.749C423.149 708.886 428.044 713.209 430.974 719.307C433.423 725.057 434.818 731.201 435.093 737.444C435.662 744.334 435.8 751.344 435.955 758.113L435.955 760.542C436.001 768.445 436.479 776.34 437.385 784.191C437.92 788.342 438.713 792.528 439.454 796.593C440.95 803.617 441.901 810.746 442.297 817.916C442.47 827.966 441.039 837.978 438.058 847.577C433.111 864.681 425.717 878.081 416.083 887.382C403.123 899.904 385.595 903.694 370.342 897.303C365.378 895.133 362.104 892.205 360.38 888.553L360.397 888.467Z" fill="#FFFBEF"/>
<path d="M410.465 809.89C410.027 806.628 409.145 803.44 407.845 800.416C406.38 796.834 404.536 794.905 402.209 794.491C399.882 794.078 397.763 795.128 395.315 797.626C388.266 804.791 384.061 815.264 383.458 827.114L383.458 828.027C383.458 834.641 387.043 841.083 392.075 843.253C396.056 844.976 400.348 843.805 404.139 839.912C409.827 834.038 411.309 817.003 410.465 809.89ZM392.696 841.686C388.163 839.705 384.871 833.349 385.181 827.2C385.75 815.78 389.8 805.704 396.539 798.832C398.573 796.782 400.331 795.904 401.916 796.196C403.502 796.489 405.036 798.074 406.259 801.071C407.491 803.949 408.332 806.978 408.758 810.079C408.906 811.487 408.976 812.901 408.965 814.316C408.965 822.309 407.138 834.331 402.864 838.706C399.538 842.099 396.022 843.133 392.696 841.686Z" fill="#FFFBEF"/>
<path d="M144.548 886.314C155.544 888.037 166.73 890.345 177.553 892.532C206.352 898.354 236.151 904.383 265.761 901.558C272.258 900.938 279.687 899.732 285.409 895.46C292.199 890.396 295.388 882.008 297.473 875.256C303.902 853.726 303.488 832.523 296.284 815.539C292.837 807.375 288.201 801.26 282.496 797.402C275.309 792.51 266.485 791.184 258.815 790.512C246.37 789.698 233.887 789.623 221.433 790.288C212.023 790.616 202.285 790.943 192.737 790.598C169.711 789.754 146.703 784.932 124.47 780.264C112.043 777.663 99.1862 774.959 86.4325 772.978C51.9628 767.621 23.4736 769.154 0.258328 777.646L0.258328 779.489C23.3875 770.877 51.7215 769.326 86.2429 774.683C98.945 776.664 111.768 779.351 124.16 781.952C146.565 786.637 169.556 791.46 192.72 792.287C202.337 792.631 212.092 792.286 221.554 791.976C233.939 791.314 246.352 791.383 258.729 792.183C266.175 792.821 274.723 794.095 281.565 798.78C286.943 802.449 291.355 808.288 294.698 816.159C301.73 832.781 302.144 853.571 295.818 874.722C293.871 881.216 290.838 889.277 284.444 894.031C279.066 898.044 271.931 899.198 265.657 899.784C236.358 902.591 206.628 896.58 177.949 890.793C167.126 888.588 155.923 886.332 144.893 884.575C96.8638 876.974 47.8535 878.141 0.24105 888.019L0.24105 889.742C47.7401 879.886 96.6344 878.725 144.548 886.314Z" fill="#FFFBEF"/>
<path d="M1.03402 848.972C7.92795 847.766 14.2531 844.717 20.3543 841.755C22.9892 840.716 25.3486 839.083 27.2483 836.984C28.2516 835.809 28.8309 834.332 28.8935 832.789C28.956 831.246 28.4979 829.727 27.5929 828.475C25.3523 825.908 21.5951 826.201 18.2343 826.839L0.206751 830.197L0.206751 831.92L18.5446 828.475C21.44 827.941 24.6284 827.648 26.3002 829.56C26.9387 830.508 27.2446 831.642 27.1698 832.783C27.0949 833.923 26.6436 835.007 25.8866 835.864C24.1493 837.744 22.0111 839.21 19.6303 840.153C13.6326 843.064 7.42806 846.061 0.775415 847.215C0.585831 847.215 0.396333 847.215 0.20675 847.215L0.20675 848.937C0.465272 849.041 0.758263 849.024 1.03402 848.972Z" fill="#FFFBEF"/>
<path d="M39.3643 870.898C99.0597 866.894 159.018 871.922 217.21 885.815L219.382 886.332C227.879 888.381 236.617 890.483 245.579 890.379C256.54 890.224 266.157 886.349 271.983 879.735C275.55 875.652 278.118 870.209 280.031 862.613C284.082 846.474 281.186 832.557 272.241 825.34C266.295 820.552 258.453 819.191 250.87 818.209C239.099 816.693 227.052 815.643 215.401 814.626C191.548 812.542 166.902 810.389 143.48 804.102C137.413 802.38 131.415 800.537 125.435 798.677C119.454 796.816 113.371 794.853 107.321 793.217C72.2221 783.934 35.3245 783.828 0.172268 792.907L0.172268 794.629C35.1613 785.502 71.9167 785.567 106.873 794.818C112.94 796.437 119.024 798.367 124.918 800.244C130.812 802.122 136.982 804.051 143.032 805.687C166.609 812.008 191.289 814.179 215.246 816.263C226.879 817.279 238.909 818.33 250.646 819.863C257.954 820.793 265.571 822.102 271.173 826.615C283.599 836.639 279.79 856.327 278.36 862.131C276.515 869.452 274.068 874.653 270.673 878.529C265.192 884.781 256.041 888.45 245.562 888.588C236.944 888.691 228.189 886.607 219.709 884.592L217.555 884.075C159.192 870.149 99.0613 865.103 39.192 869.107C26.022 869.748 12.9497 871.71 0.172264 874.963L0.172264 876.686C12.926 873.155 26.4037 871.777 39.3643 870.898Z" fill="#FFFBEF"/>
<path d="M55.8753 855.586C68.5229 855.212 81.1816 855.545 93.7919 856.585L147.409 860.03C159.75 860.805 175.088 861.752 187.446 854.776C189.147 853.948 190.576 852.651 191.565 851.039C193.513 847.353 191.255 842.995 188.497 840.136C180.535 831.903 168.953 829.439 157.733 827.045C155.234 826.511 152.752 825.977 150.322 825.323C138.051 822.343 126.193 817.296 114.612 812.422C100.272 806.342 85.433 800.072 69.8011 797.695C46.9994 794.25 24.4561 798.987 0.154994 806.1L0.154994 807.823C24.4389 800.692 46.9303 795.904 69.5424 799.331C85.0538 801.674 99.7034 807.943 113.957 813.937C125.538 818.829 137.534 823.91 149.943 826.925C152.373 827.51 154.889 828.044 157.388 828.647C168.35 830.99 179.69 833.418 187.274 841.273C189.617 843.684 191.582 847.301 190.066 850.16C189.22 851.475 188.027 852.53 186.619 853.209C174.727 859.978 159.663 859.014 147.547 858.239L93.9469 854.794C81.2561 853.752 68.5171 853.418 55.7891 853.795C36.8308 854.708 18.3205 858.738 0.172264 863.716L0.172264 865.438C18.3722 860.564 36.9514 856.482 55.8753 855.586Z" fill="#FFFBEF"/>
<path d="M30.7296 846.302C31.7464 845.837 32.7633 845.355 33.7802 844.872C38.2232 842.531 42.942 840.754 47.8266 839.585C52.3861 838.877 57.0064 838.64 61.6145 838.878C69.801 839.016 78.2633 839.154 84.7263 833.987L85.14 833.659L85.0366 833.143C83.4337 825.478 76.1779 819.07 65.6302 816.022C49.6362 811.388 32.8839 814.006 16.6315 816.556C11.2198 817.4 5.72194 818.278 0.224024 818.864L0.224024 820.586C5.82534 819.983 11.4094 819.122 16.8901 818.261C32.9357 815.746 49.5329 813.094 65.1476 817.675C74.8336 820.483 81.5551 826.167 83.2269 832.97C77.3153 837.414 69.6975 837.294 61.6316 837.156C56.925 836.918 52.2064 837.166 47.5508 837.897C42.5262 839.097 37.6692 840.913 33.0907 843.305C32.0739 843.787 31.0744 844.27 30.0575 844.735C20.4246 849.02 10.4441 852.477 0.224023 855.069L0.224023 856.792C10.6684 854.155 20.8728 850.646 30.7296 846.302Z" fill="#FFFBEF"/>
<path d="M767.794 536.935C751.725 532.936 735.455 529.786 719.054 527.496C704.767 525.257 689.996 522.932 675.726 519.435C639.154 510.496 612.922 494.718 597.773 472.516C587.811 457.927 582.727 440.358 579.073 425.097C568.836 382.312 564.992 337.735 561.287 294.64L556.116 234.113C552.238 189.106 547.844 138.088 568.026 93.8383C577.005 74.1681 590.431 56.8059 603.529 40.0122L634.552 0.0859858L632.363 0.0859857L602.15 38.9443C589.052 55.8241 575.488 73.2723 566.44 93.1148C554.496 119.33 551.066 147.802 551.066 176.016C551.066 195.858 552.79 215.632 554.375 234.269L559.546 294.795C563.251 337.856 567.095 382.639 577.367 425.494C581.055 440.909 586.191 458.668 596.325 473.481C611.716 496.045 638.292 512.063 675.295 521.106C689.634 524.551 704.439 526.945 718.779 529.201C734.824 531.733 751.421 534.369 767.346 538.606C802.372 548.062 834.737 565.481 861.914 589.504L861.914 587.213C834.773 563.522 802.584 546.326 767.794 536.935Z" fill="#FFFBEF"/>
<path d="M699.906 570.075C694.443 568.697 688.842 567.44 683.413 566.199C665.178 562.083 646.306 557.811 629.64 548.975C597.773 532.13 579.469 502.159 569.714 480.078C556.668 450.4 551.084 417.898 546.896 389.753C542.208 358.336 538.485 326.23 534.831 295.122C528.885 243.776 522.767 190.691 524.663 138.139C526.558 85.5878 536.727 39.1164 554.927 0.120465L553.031 0.120465C535.004 39.1681 524.869 85.4844 522.939 138.07C522.698 144.822 522.577 151.574 522.577 158.326C522.577 204.35 527.92 250.511 533.125 295.398C536.71 326.402 540.433 358.56 545.189 390.011C549.395 418.259 554.996 450.899 568.129 480.766C577.987 503.158 596.532 533.49 628.847 550.56C645.703 559.482 664.678 563.771 683.033 567.922C688.445 569.145 694.047 570.402 699.493 571.78C760.534 587.233 816.505 618.282 861.914 661.881L861.914 659.504C816.502 616.271 760.703 585.471 699.906 570.075Z" fill="#FFFBEF"/>
<path d="M85.5019 192.723C100.415 193.78 115.375 194.004 130.312 193.395C153.838 192.861 178.174 192.31 201.079 198.666C236.238 208.415 264.52 233.115 291.872 257.229C309.348 272.558 327.427 288.388 347.351 300.462C368.291 313.156 393.023 322.853 422.96 329.967C435.989 333.068 449.777 335.427 462.445 331.69C476.233 327.539 488.607 315.55 495.363 299.635C501.758 284.65 503.05 267.96 503.464 253.612C504.636 212.687 499.258 171.245 494.019 131.181C488.435 88.2403 482.679 43.9909 485.057 0.275422L483.333 0.275422C480.955 44.1631 486.78 88.4643 492.313 131.456C497.483 171.468 502.912 212.824 501.74 253.612C501.327 267.787 500.017 284.288 493.778 299.015C487.211 314.517 475.302 326.074 461.945 330.019C449.071 333.877 435.283 331.173 423.356 328.296C393.609 321.183 369.032 311.606 348.247 299.015C328.461 286.958 310.434 271.215 292.992 255.954C265.502 231.84 237.082 206.951 201.544 197.098C178.398 190.674 153.924 191.225 130.261 191.759C115.375 192.367 100.467 192.149 85.6053 191.104C55.2832 188.3 26.0232 178.513 0.120537 162.512L0.120537 164.527C26.0526 180.319 55.2602 189.965 85.5019 192.723Z" fill="#FFFBEF"/>
<path d="M470.407 113.819C473.854 101.383 471.286 88.1542 468.96 76.4933L453.724 0.137701L452.001 0.137701L467.305 76.8379C469.597 88.3093 472.2 101.314 468.787 113.336C465.582 124.635 454.999 135.435 442.832 134.005C434.094 132.938 427.2 126.082 421.116 120.019C362.431 61.577 298.387 20.807 234.29 0.206657L228.43 0.206656C294.043 20.1353 359.777 61.3704 419.909 121.242C426.183 127.495 433.301 134.574 442.625 135.728C455.672 137.192 467.012 125.755 470.407 113.819Z" fill="#FFFBEF"/>
<path d="M34.8487 141.67C22.9038 135.793 11.324 129.201 0.172297 121.931L0.172297 124.015C11.0928 131.06 22.412 137.466 34.0732 143.203C50.2912 151.351 67.819 158.981 86.2775 159.825C106.649 160.738 125.625 152.039 134.535 137.64C139.223 130.13 141.308 121.346 143.325 112.837C145.445 103.897 147.634 94.6651 152.856 87.1552C157.492 80.4894 164.265 75.546 170.832 70.7576C174.106 68.3634 177.484 65.9003 180.586 63.2133C189.497 55.5657 198.218 42.2684 193.461 29.9874C190.497 22.3398 183.12 17.4826 177.743 14.4855C165.678 7.59577 152.321 3.41025 138.844 0.0687229L131.381 0.0687226C147.134 3.65139 162.835 8.07804 176.898 15.984C182.069 18.8433 189.1 23.4768 191.858 30.5905C196.287 42.0275 187.946 54.6011 179.466 61.9043C176.416 64.5224 173.055 66.9683 169.815 69.3453C163.145 74.2198 156.251 79.2491 151.442 86.1561C146.031 93.9415 143.807 103.38 141.653 112.423C139.671 120.794 137.603 129.441 133.036 136.71C124.418 150.593 105.994 158.964 86.243 158.085C68.2326 157.276 50.8944 149.714 34.8487 141.67Z" fill="#FFFBEF"/>
<path d="M437.024 57.8911C434.387 62.7311 429.268 65.2803 425.442 66.5032C410.654 71.4811 395.936 65.6765 388.473 61.7665C377.925 56.2375 368.756 48.1419 359.898 40.3221L357.674 38.3585C341.956 24.579 324.342 10.3346 304.953 0.0172168L301.213 0.0172167C321.619 10.3518 340.112 25.182 356.537 39.6333L358.743 41.5967C367.688 49.4854 376.943 57.6499 387.68 63.2823C395.384 67.3128 410.603 73.3068 425.993 68.1222C430.112 66.7271 435.628 63.9539 438.54 58.6316C440.798 54.515 441.022 49.6749 440.953 45.0933C440.67 29.5778 437.381 14.2644 431.267 -1.88279e-05L429.32 -1.89131e-05C435.55 14.246 438.901 29.5827 439.178 45.1277C439.299 49.5716 439.092 54.1189 437.024 57.8911Z" fill="#FFFBEF"/>
<path d="M0.172299 76.9756L0.172299 78.9737C6.89824 83.0622 13.9478 86.5935 21.2505 89.5322C34.1938 94.6134 53.7036 99.3845 73.1617 93.132C86.0471 88.9725 97.0981 80.4902 104.443 69.1214C108.423 63.3558 110.725 56.6005 111.096 49.606C111.389 32.0888 95.8428 19.7391 89.104 15.2607C78.56 8.56855 67.092 3.45595 55.0652 0.0859604L48.9641 0.0859602C62.752 3.97867 76.2813 8.69817 88.1561 16.6903C94.6536 21.0136 109.734 32.8122 109.372 49.5715C109.009 56.2478 106.802 62.693 102.995 68.1912C95.7937 79.1747 85.056 87.372 72.5586 91.4268C53.6003 97.5415 34.5041 92.8564 21.8193 87.8785C14.3084 84.8618 7.06684 81.2145 0.172299 76.9756Z" fill="#FFFBEF"/>
<path d="M0.1723 44.37L0.1723 46.0924L4.63617 47.4357C16.1835 50.8806 30.4884 55.1523 43.9143 51.5696C45.407 51.2573 46.8023 50.5896 47.9817 49.6233C50.0154 47.763 50.6014 44.456 49.7052 40.6494C45.9308 25.8709 29.4715 18.6539 16.3213 15.1918C14.5117 14.7095 12.6848 14.2618 10.8579 13.7967C7.30753 12.9183 3.73988 12.0742 0.24121 10.9719L0.24121 12.6943C3.68818 13.6933 7.0318 14.5545 10.4271 15.3984C12.2712 15.8635 14.0808 16.3114 15.8904 16.7937C28.5925 20.1353 44.4831 27.1282 48.0334 41.0111C48.4126 42.5268 49.0847 46.1783 46.8787 48.2797C45.9025 49.0535 44.7566 49.5848 43.5351 49.83C30.6607 53.2748 16.5454 49.0893 5.20483 45.7133L0.1723 44.37Z" fill="#FFFBEF"/>
<path d="M230.516 258.59C225.07 235.871 187.911 220.248 166.747 214.581C143.894 208.449 117.714 207.588 88.9316 212.015C68.3532 215.184 32.1429 224.83 21.0092 253.887C19.011 259.176 18.0003 264.787 18.0275 270.44C18.0275 288.543 27.8169 307.507 44.414 318.961C62.976 331.793 88.2767 335.893 115.646 330.519C139.929 325.73 162.369 314.603 184.068 303.855C186.757 302.512 189.876 301.134 193.185 299.687C211.23 291.746 235.859 280.895 230.516 258.59ZM115.37 328.83C99.8586 331.879 69.9906 334.497 45.4482 317.549C24.301 302.925 14.5116 275.831 22.6809 254.507C33.5044 226.259 69.0426 216.838 89.2591 213.72C117.8 209.328 143.738 210.275 166.368 216.252C187.05 221.798 223.57 237.059 228.827 258.986C229.287 260.846 229.525 262.754 229.533 264.67C229.533 281.791 209.196 290.765 192.547 298.102C189.238 299.566 186.084 300.961 183.361 302.305C161.766 313.019 139.447 324.094 115.37 328.83Z" fill="#FFFBEF"/>
<path d="M175.123 264.101C175.048 261.568 174.447 259.078 173.358 256.789C172.269 254.5 170.716 252.462 168.798 250.804C156.734 240.349 130.881 242.467 115.37 243.725C113.233 243.897 111.32 244.052 109.7 244.155C97.6352 244.896 87.7769 246.326 78.8664 250.839C68.2153 256.23 61.2007 265.755 60.563 275.676L60.563 277.019C60.4975 279.299 61.0136 281.557 62.0625 283.582C64.4409 287.905 69.4217 289.817 73.5064 291.023C83.1407 293.848 94.1882 295.208 108.2 295.329C115.818 295.329 154.614 294.933 169.504 279.31C171.47 277.321 172.989 274.935 173.958 272.312C174.927 269.69 175.324 266.89 175.123 264.101ZM108.166 293.607C94.2744 293.486 83.4165 292.143 73.9373 289.369C70.1801 288.267 65.5957 286.51 63.5964 282.755C62.5536 280.617 62.124 278.232 62.3555 275.865C63.0794 264.738 71.8002 256.471 79.7282 252.458C88.3456 248.083 98.0144 246.687 109.872 245.947C111.509 245.861 113.44 245.688 115.577 245.516C130.812 244.293 156.303 242.209 167.746 252.182C169.483 253.688 170.891 255.537 171.882 257.611C172.872 259.686 173.424 261.942 173.503 264.239C173.675 266.792 173.304 269.353 172.412 271.752C171.521 274.151 170.131 276.334 168.333 278.156C153.562 293.538 112.75 293.641 108.166 293.607Z" fill="#FFFBEF"/>
<path d="M731.032 607.073C720.933 603.835 710.506 600.958 700.406 598.185C675.14 591.209 649.012 584.009 626.124 570.626C588.724 548.906 557.909 509.152 537.003 455.671C535.704 452.329 534.418 448.953 533.142 445.543C523.68 420.567 513.908 394.748 492.072 379.952C480.61 372.184 466.995 368.481 455.137 365.604C428.751 359.226 401.882 355.037 374.806 353.082C359.794 351.997 350.367 355.356 346.782 363.055C345.842 365.108 345.365 367.343 345.386 369.6C345.386 375.147 347.902 380.727 350.091 384.896C371.273 425.097 408.965 453.38 445.417 480.732C482.885 508.859 521.647 537.934 541.932 579.858C558.839 614.72 561.218 655.646 563.338 691.731C567.801 767.983 572.851 854.398 536.813 928.393C526.145 950.286 511.943 970.679 498.224 990.401C485.798 1008.25 472.941 1026.69 462.703 1046.26C441.46 1087.52 431.529 1133.67 433.921 1180.01C435.567 1219.08 445.831 1257.31 463.979 1291.97L465.926 1291.97C425.752 1216.85 424.563 1122.94 464.289 1047.16C474.475 1027.69 487.297 1009.26 499.689 991.486C513.477 971.73 527.696 951.285 538.416 929.255C574.609 854.863 569.577 768.207 565.113 691.748C562.993 655.577 560.58 614.41 543.535 579.238C523.025 536.935 484.092 507.723 446.451 479.475C410.154 452.243 372.617 424.081 351.659 384.207C348.747 378.695 345.265 370.6 348.368 363.916C351.625 356.923 360.432 353.892 374.702 354.925C401.691 356.871 428.473 361.042 454.775 367.396C466.478 370.238 479.921 373.889 491.141 381.502C512.529 395.988 522.164 421.549 531.557 446.283C532.849 449.728 534.125 453.173 535.434 456.428C556.478 510.255 587.553 550.319 625.28 572.245C648.374 585.663 674.606 592.914 699.993 599.804C710.058 602.577 720.485 605.454 730.55 608.675C771.793 621.937 826.789 647.774 861.914 697.208L861.914 694.28C826.479 645.776 772.034 620.215 731.032 607.073Z" fill="#FFFBEF"/>
<path d="M720.054 631.652C710.609 629.465 700.872 627.777 691.444 626.157C673.123 623.005 654.165 619.75 636.81 612.499C606.856 599.976 579.831 575.035 554.203 536.246C545.344 522.846 537.123 508.687 529.161 495.011C518.217 476.185 506.894 456.721 493.761 438.877C471.769 408.975 448.605 393.99 424.925 394.335L424.287 394.335L424.115 394.972C423.314 397.884 422.908 400.891 422.908 403.911C422.908 423.065 439.023 440.324 455.43 454.999C513.167 506.672 569.749 564.684 592.706 639.506C601.202 667.186 605.442 697.983 606.494 739.408C608.872 836.467 591.086 911.496 552.083 968.802C546.361 977.19 540.019 985.372 533.935 993.278C528.472 1000.37 522.801 1007.69 517.596 1015.17C486.712 1059.38 469.339 1112.73 467.426 1169.43C465.796 1211.38 473.269 1253.18 489.331 1291.97L491.365 1291.97C454.258 1203.47 464.03 1094.92 519.044 1016.15C524.215 1008.73 529.885 1001.41 535.348 994.328C541.467 986.405 547.792 978.206 553.531 969.766C592.757 912.151 610.647 836.794 608.252 739.373C607.235 697.828 602.96 666.893 594.464 639.041C571.386 563.84 514.597 505.552 456.688 453.759C438.316 437.344 420.34 417.691 425.666 396.092C448.519 396.092 470.976 410.801 492.433 439.962C505.497 457.72 516.804 477.149 527.713 495.924C535.693 509.704 543.931 523.793 552.824 537.262C578.677 576.345 605.908 601.492 636.206 614.152C653.734 621.472 672.796 624.762 691.203 627.932C700.613 629.551 710.333 631.221 719.726 633.409C776.749 646.938 827.128 680.229 861.914 727.368L861.914 724.491C826.92 677.945 776.734 645.101 720.054 631.652Z" fill="#FFFBEF"/>
<path d="M815.087 701.393C792.492 686.305 766.019 674.248 729.24 662.26C707.507 655.18 682.706 649.531 663.127 661.433C641.894 674.368 637.861 701.514 637.861 720.116C637.861 724.974 638.137 729.262 638.447 732.57C642.894 779.713 656.061 814.041 679.914 840.584C725.948 891.826 793.13 924.639 861.897 930.03L861.897 928.307C793.612 922.916 726.913 890.31 681.189 839.43C657.612 813.18 644.565 779.144 640.153 732.397C638.688 716.758 638.068 678.675 664.006 662.863C682.965 651.339 707.335 656.903 728.689 663.862C765.313 675.798 791.647 687.803 814.122 702.789C832.683 714.913 848.879 730.316 861.914 748.244L861.914 745.35C848.995 728.076 833.146 713.198 815.087 701.393Z" fill="#FFFBEF"/>
<path d="M727.999 698.224C723.082 697.101 718.049 696.564 713.005 696.622C690.272 697.535 673.83 719.29 671.072 739.787C670.677 742.727 670.481 745.69 670.487 748.657C670.487 764.676 676.105 781.952 687.515 801.14C723.501 861.666 791.561 901.592 861.914 903.849L861.914 902.126C792.147 899.87 724.673 860.271 688.997 800.261C675.657 777.87 670.349 758.113 672.779 739.976C675.45 720.185 691.255 699.189 713.074 698.31C717.985 698.254 722.885 698.78 727.672 699.878C782.591 711.346 830.802 743.921 861.914 790.581L861.914 787.498C830.477 741.583 782.493 709.595 727.999 698.224Z" fill="#FFFBEF"/>
<path d="M829.409 791.753C818.689 780.264 807.624 768.379 794.405 759.267C784.064 752.102 767.777 743.765 749.353 744.575C744.46 744.57 739.654 745.866 735.427 748.33C729.257 752.257 725.517 760.025 725.517 768.551C725.517 769.395 725.517 770.274 725.621 771.118C726.414 780.023 730.705 788.032 734.807 794.698C748.546 816.724 767.141 835.32 789.17 849.067C811.199 862.814 836.08 871.347 861.914 874.016L861.914 872.294C811.364 867.126 762.865 837.035 736.272 793.819C732.273 787.326 728.085 779.523 727.344 770.98C726.551 762.109 730.102 753.756 736.358 749.794C740.332 747.514 744.84 746.325 749.422 746.349C767.381 745.522 783.271 753.721 793.423 760.732C806.487 769.74 817.551 781.556 828.151 792.975L861.914 829.147L861.914 826.615L829.409 791.753Z" fill="#FFFBEF"/>
<path d="M819.964 820.879C823.825 797.592 786.804 784.828 772.224 781.866C771.397 781.584 770.514 781.508 769.652 781.647C768.79 781.785 767.974 782.132 767.277 782.658C766.858 783.159 766.541 783.738 766.346 784.362C766.151 784.986 766.081 785.642 766.14 786.292L766.14 786.447C766.14 794.939 770 803.93 776.808 811.767C784.305 820.38 801.264 835.985 811.778 833.022C816.069 831.799 818.827 827.717 819.964 820.879ZM778.101 810.544C771.569 803.017 767.932 794.422 767.863 786.43C767.731 785.53 767.96 784.613 768.501 783.881C769.242 783.14 770.69 783.313 771.948 783.554C785.133 786.241 821.929 798.78 818.327 820.586C817.31 826.718 814.983 830.335 811.433 831.351C801.264 834.193 783.943 817.365 778.101 810.63L778.101 810.544Z" fill="#FFFBEF"/>
<path d="M646.668 971.454C655.837 964.565 665.109 956.9 670.797 946.479C674.416 939.402 676.751 931.739 677.691 923.846C681.896 895.736 675.398 869.4 659.853 851.624C655.372 846.457 651.235 843.443 646.668 842.048C641.722 840.497 634.983 841.066 631.019 845.785C629.511 847.79 628.346 850.031 627.572 852.417C616.076 882.422 603.167 912.306 589.173 941.208L588.845 941.863C585.122 949.545 581.279 957.503 580.021 966.08C579.802 967.604 579.692 969.14 579.693 970.679C579.615 974.431 580.3 978.16 581.707 981.639C583.115 985.118 585.215 988.275 587.88 990.918C590.627 993.428 593.956 995.215 597.567 996.117C601.177 997.02 604.956 997.008 608.562 996.085C618.782 993.88 629.485 985.217 638.947 977.569C641.67 975.33 644.272 973.315 646.668 971.454ZM589.069 989.661C583.278 984.252 580.452 975.313 581.779 966.322C583.003 958.019 586.794 950.182 590.396 942.621L590.724 941.966C604.736 913.012 617.679 883.093 629.175 853.037C629.88 850.831 630.939 848.754 632.311 846.888C635.259 843.443 640.929 842.065 646.099 843.684C650.305 844.993 654.234 847.887 658.508 852.761C670.676 866.679 677.174 885.97 677.174 907.259C677.165 912.725 676.75 918.183 675.933 923.588C675.007 931.282 672.725 938.752 669.194 945.652C663.679 955.78 654.579 963.376 645.548 970.076C643.135 971.799 640.515 973.969 637.758 976.208C628.451 983.735 617.92 992.261 608.096 994.38C604.782 995.228 601.308 995.24 597.988 994.417C594.667 993.593 591.603 991.959 589.069 989.661Z" fill="#FFFBEF"/>
<path d="M648.202 945.549C653.579 938.263 656.699 924.277 657.336 914.373C657.799 910.166 657.12 905.912 655.372 902.057C654.411 900.072 652.891 898.41 650.999 897.275C649.108 896.14 646.925 895.581 644.72 895.667C642.409 896.006 640.231 896.958 638.412 898.423C630.209 904.383 625.848 914.114 622.091 923.553C620.078 928.014 618.909 932.809 618.644 937.695C618.622 939.912 619.056 942.111 619.919 944.154C620.906 946.508 622.511 948.552 624.565 950.068C626.619 951.584 629.046 952.516 631.587 952.766C634.741 953.065 637.92 952.56 640.826 951.298C643.731 950.036 646.269 948.058 648.202 945.549ZM631.708 951.044C629.453 950.854 627.295 950.046 625.47 948.709C623.645 947.372 622.226 945.557 621.367 943.465C618.765 937.436 621.16 930.357 623.625 924.191C627.296 914.976 631.536 905.502 639.36 899.818C640.935 898.527 642.828 897.682 644.841 897.372C646.703 897.32 648.539 897.812 650.125 898.788C651.711 899.764 652.977 901.182 653.769 902.867C655.112 905.649 655.745 908.72 655.613 911.806C655.613 912.581 655.613 913.408 655.613 914.269C655.096 922.33 652.338 937.04 646.823 944.516C645.066 946.802 642.754 948.602 640.106 949.745C637.457 950.887 634.561 951.334 631.691 951.044L631.708 951.044Z" fill="#FFFBEF"/>
<path d="M794.836 963.962C772.672 957.279 755.041 956.952 740.942 962.963C732.928 966.408 726.121 971.765 719.968 977.104C715.552 980.761 711.464 984.796 707.748 989.161C705.525 991.9 703.543 994.862 701.613 997.773C700.251 999.789 698.855 1001.86 697.407 1003.82C682.775 1023.56 659.887 1035.99 639.602 1046.1L638.688 1046.55C632.718 1049.29 627.023 1052.59 621.677 1056.41C615.86 1060.95 611.018 1066.62 607.441 1073.07C603.864 1079.52 601.625 1086.63 600.858 1093.97C600.666 1095.83 600.568 1097.69 600.565 1099.55C600.629 1112.51 604.946 1125.08 612.853 1135.34C615.817 1139.28 619.376 1142.72 623.401 1145.56C628.867 1149.1 634.937 1151.6 641.308 1152.95C652.626 1155.59 664.358 1155.96 675.821 1154.04C687.283 1152.11 698.248 1147.92 708.076 1141.72C712.419 1138.94 716.555 1135.77 720.571 1132.71C723.604 1130.37 726.741 1127.96 729.947 1125.82C749.613 1112.35 773.037 1105.44 796.87 1106.08C820.429 1106.82 843.17 1114.89 861.914 1129.18L861.914 1127.03C843.081 1112.98 820.39 1105.05 796.904 1104.31C772.706 1103.66 748.922 1110.67 728.947 1124.34C725.707 1126.58 722.553 1128.99 719.502 1131.33C715.521 1134.38 711.419 1137.53 707.128 1140.25C687.613 1152.43 664.066 1156.4 641.635 1151.28C635.5 1149.98 629.657 1147.56 624.401 1144.15C620.514 1141.42 617.083 1138.1 614.232 1134.31C605.407 1122.88 601.243 1108.54 602.581 1094.16C603.317 1087.05 605.478 1080.15 608.937 1073.89C612.395 1067.63 617.08 1062.13 622.712 1057.71C627.977 1053.98 633.579 1050.74 639.447 1048.05L640.36 1047.59C660.835 1037.41 683.93 1024.85 698.786 1004.8C700.268 1002.8 701.682 1000.7 703.043 998.686C704.939 995.861 706.921 992.951 709.093 990.264C712.76 985.948 716.797 981.96 721.157 978.344C727.224 973.091 733.893 967.786 741.684 964.479C755.471 958.622 772.706 958.984 794.405 965.547C818.792 972.944 841.673 984.608 861.983 999.995L861.983 997.825C841.739 982.725 819.016 971.266 794.836 963.962Z" fill="#FFFBEF"/>
<path d="M861.914 1021.01L861.914 1018.75C849.162 1007.95 834.411 999.758 818.499 994.638C797.593 988.162 775.774 988.489 757.074 995.551C738.375 1002.61 722.984 1016.22 708.127 1029.26C695.563 1040.35 682.551 1051.81 667.522 1059.33C665.351 1060.42 663.093 1061.43 660.904 1062.43C656.422 1064.34 652.084 1066.57 647.926 1069.1C640.67 1073.78 635.862 1079.92 634.431 1086.32C634.11 1087.78 633.948 1089.26 633.949 1090.75C633.949 1101.08 641.825 1110.3 650.356 1114.26C659.18 1118.36 670.142 1119 683.878 1116.21C698.717 1113.18 713.022 1107.34 726.862 1101.71C742.683 1095.26 759.039 1088.58 776.119 1086.2C794.353 1083.65 812.881 1086.05 828.582 1088.72C840.06 1090.68 851.676 1093.25 861.914 1098.04L861.914 1096.14C851.694 1091.49 840.215 1088.96 828.875 1087.01C813.036 1084.33 794.405 1081.85 775.877 1084.5C758.643 1086.93 742.132 1093.64 726.207 1100.12C712.419 1105.74 698.217 1111.54 683.533 1114.54C670.176 1117.26 659.56 1116.66 651.08 1112.71C641.963 1108.47 633.621 1097.92 636.12 1086.7C637.465 1080.71 641.997 1074.96 648.874 1070.51C652.954 1068.02 657.21 1065.83 661.611 1063.97C663.817 1062.97 666.092 1061.93 668.298 1060.83C683.533 1053.22 696.615 1041.68 709.282 1030.52C724.001 1017.51 739.236 1004.08 757.695 997.119C776.153 990.16 797.456 989.885 818.017 996.24C834.158 1001.48 849.085 1009.9 861.914 1021.01Z" fill="#FFFBEF"/>
<path d="M861.914 1051.05L861.914 1048.74C848.682 1037.37 832.664 1029.72 815.5 1026.57C797.835 1023.13 778.566 1023.82 758.212 1028.48C752.576 1029.78 746.475 1031.79 743.838 1037.1C743.09 1038.59 742.707 1040.25 742.718 1041.92C742.851 1044.5 743.594 1047.01 744.885 1049.24C746.176 1051.48 747.979 1053.38 750.146 1054.79C755.73 1058.45 762.486 1059.16 769.104 1059.95C793.457 1062.54 818.051 1065.95 842.18 1070.05C849.798 1071.36 856.588 1072.79 862 1076.63L862 1074.51C856.485 1071.06 849.849 1069.62 842.473 1068.36C818.344 1064.24 793.681 1060.83 769.277 1058.23C762.951 1057.56 756.419 1056.87 751.18 1053.44C746.303 1050.24 742.718 1043.4 745.458 1037.94C747.785 1033.31 753.438 1031.46 758.677 1030.26C778.807 1025.66 797.835 1025.09 815.259 1028.36C832.594 1031.52 848.732 1039.36 861.914 1051.05Z" fill="#FFFBEF"/>
<path d="M861.914 1185.71L861.914 1183.25C847.711 1169.45 828.881 1161.43 809.089 1160.75C787.287 1159.91 764.054 1167.35 743.717 1181.73C740.115 1184.26 736.582 1187.02 733.187 1189.69C728.361 1193.46 723.38 1197.35 718.158 1200.66C707.679 1207.29 694.908 1212.44 677.984 1216.87C655.958 1222.62 601.134 1232.51 567.922 1199.94C550.205 1182.57 543.069 1157.62 536.175 1133.26C531.47 1116.76 524.283 1108.22 514.821 1107.84C508.203 1107.58 501.499 1111.97 497.725 1119.03C494.519 1125.08 493.64 1132.04 492.951 1139.25C491.606 1153.6 490.928 1167.35 490.917 1180.51C490.917 1224.69 498.621 1261.93 513.874 1291.91L515.752 1291.91C495.829 1253.21 488.745 1202.12 494.674 1139.41C495.363 1132.12 496.191 1125.63 499.258 1119.84C502.705 1113.35 508.789 1109.32 514.77 1109.51C523.387 1109.85 530.057 1117.98 534.573 1133.78C541.467 1158.18 548.722 1183.43 566.767 1201.12C600.616 1234.3 656.164 1224.31 678.466 1218.49C695.58 1214.01 708.489 1208.79 719.123 1202.07C724.432 1198.63 729.464 1194.79 734.29 1191C737.737 1188.34 741.184 1185.59 744.751 1183.07C764.795 1168.93 787.649 1161.59 809.089 1162.4C829.478 1163.28 848.953 1171.98 861.914 1185.71Z" fill="#FFFBEF"/>
<path d="M861.914 1216.92L861.914 1214.46C847.712 1199.57 825.721 1192.96 806.917 1193.22C779.962 1193.58 754.162 1205.28 732.101 1216.09C729.688 1217.28 727.292 1218.47 724.88 1219.67C704.077 1230.01 682.585 1240.71 659.542 1244.67C628.864 1249.94 594.136 1243.58 553.393 1225.26C549.05 1223.31 544.121 1221.1 539.123 1222.12C531.039 1223.84 527.368 1232.68 527.368 1241.91C527.368 1243.93 527.541 1245.95 527.886 1247.94C530.798 1264.79 539.226 1279.46 549.791 1292L552.049 1292C541.208 1279.41 532.522 1264.65 529.643 1247.65C527.92 1237.42 530.729 1225.58 539.519 1223.79C543.966 1222.9 548.619 1224.98 552.738 1226.84C593.809 1245.3 628.864 1251.7 659.887 1246.37C683.171 1242.36 704.784 1231.61 725.69 1221.21C728.103 1220.02 730.515 1218.81 732.911 1217.63C754.817 1206.84 780.393 1195.23 807.021 1194.94C825.945 1194.6 848.126 1201.45 861.914 1216.92Z" fill="#FFFBEF"/>
<path d="M861.914 1270.37L861.914 1267.37C847.833 1248.04 822.825 1237.64 801.04 1235.8C771.534 1233.28 742.08 1242.39 716.09 1250.42C688.807 1258.86 660.576 1267.64 631.863 1265.49C630.14 1265.37 628.52 1265.22 626.848 1265.04C621.075 1264.26 615.227 1264.21 609.441 1264.89C602.547 1265.99 594.326 1270.06 591.654 1277.96C591.099 1279.57 590.825 1281.26 590.844 1282.96C590.866 1286.09 591.622 1289.18 593.05 1291.97L594.981 1291.97C593.781 1289.97 593.008 1287.75 592.711 1285.45C592.414 1283.14 592.6 1280.8 593.257 1278.56C595.687 1271.33 603.598 1267.61 609.699 1266.63C615.338 1265.98 621.036 1266.04 626.658 1266.82C628.382 1266.97 630.105 1267.13 631.708 1267.27C660.766 1269.38 689.152 1260.6 716.59 1252.13C742.442 1244.13 771.741 1235.09 800.868 1237.57C822.997 1239.4 848.471 1250.21 861.914 1270.37Z" fill="#FFFBEF"/>
<path d="M809.003 1291.97L812.76 1291.97C798.972 1284.52 782.444 1279.34 763.331 1276.46C742.063 1273.29 704.439 1271.64 676.226 1291.97L679.225 1291.97C706.8 1273.47 742.597 1275.12 763.089 1278.19C779.027 1280.32 794.524 1284.97 809.003 1291.97Z" fill="#FFFBEF"/>
<path d="M39.9158 972.143C71.0419 969.491 107.735 967.527 143.807 972.85C208.852 982.461 267.312 1014.29 323.842 1045.09C339.354 1053.56 357.037 1063.16 369.273 1077.59C385.302 1096.54 391.144 1121.98 396.298 1144.47C405.311 1183.8 415.532 1228.37 406.173 1270.66C404.932 1276.27 403.329 1281.91 401.796 1287.35L400.503 1291.91L402.226 1291.91L403.381 1287.83C404.932 1282.35 406.535 1276.69 407.793 1271.04C417.221 1228.37 406.966 1183.59 397.9 1144.09C392.73 1121.39 386.818 1095.68 370.514 1076.47C358.071 1061.8 340.284 1052.12 324.601 1043.57C267.933 1012.71 209.351 980.79 143.997 971.23C107.804 965.874 70.9385 967.786 39.7089 970.507C26.3864 971.644 12.7365 973.16 0.068866 977.087L0.0688659 978.809C12.8054 974.813 26.5416 973.315 39.9158 972.143Z" fill="#FFFBEF"/>
<path d="M237.737 1029.12C295.474 1051.19 330.219 1077.8 347.058 1112.83C355.434 1130.25 359.122 1149.8 361.707 1168.31C366.447 1201.31 370.687 1247.75 358.657 1291.91L360.38 1291.91C372.341 1247.6 368.084 1201.12 363.344 1168.07C360.673 1149.4 357.019 1129.71 348.54 1112.07C326.135 1065.57 274.895 1041.45 238.237 1027.52C177.122 1004.16 87.8112 982.133 0.0514698 1004.16L0.0514697 1005.89C87.6389 983.856 176.76 1005.82 237.737 1029.12Z" fill="#FFFBEF"/>
<path d="M102.806 1031.46C136.527 1036.54 169.512 1045.66 201.044 1058.64C256.971 1081.72 293.164 1113.18 308.676 1152.16C315.57 1169.81 318.189 1189.05 320.206 1207.27C323.153 1234.11 325.376 1263.99 318.741 1291.93L320.464 1291.93C327.083 1263.86 324.825 1233.95 321.86 1207.08C319.844 1188.77 317.293 1169.4 310.227 1151.54C294.716 1112.11 258.16 1080.33 201.647 1057.08C169.992 1044.03 136.872 1034.87 103.012 1029.78C61.3214 1023.51 27.4204 1025.94 0.120438 1037.17L0.120438 1039.03C27.2998 1027.66 61.0973 1025.19 102.806 1031.46Z" fill="#FFFBEF"/>
<path d="M9.49623 1107.1C13.96 1113.42 16.8383 1120.88 19.6303 1127.97C20.7506 1130.87 21.9054 1133.86 23.1636 1136.76C34.8126 1163.16 55.3346 1184.66 81.176 1197.54C89.1444 1201.28 97.3083 1204.58 105.632 1207.45C113.147 1210.18 120.902 1212.99 128.21 1216.45C137.7 1221.19 146.907 1226.48 155.786 1232.28C172.452 1242.74 189.669 1253.54 209.369 1256.24C216.298 1257.01 223.274 1257.26 230.24 1257C235.255 1257 240.443 1256.86 245.493 1257.21C255.524 1257.88 269.139 1260.81 277.033 1270.83C281.519 1276.93 283.748 1284.4 283.341 1291.97L285.064 1291.97C285.432 1284.02 283.039 1276.2 278.291 1269.81C270.001 1259.29 255.885 1256.24 245.545 1255.54C240.374 1255.19 235.204 1255.26 230.137 1255.33C223.263 1255.59 216.379 1255.34 209.541 1254.59C190.203 1251.94 173.141 1241.22 156.647 1230.87C147.721 1225.03 138.462 1219.72 128.916 1214.96C121.54 1211.51 113.733 1208.62 106.184 1205.88C97.9189 1203.04 89.8126 1199.75 81.8998 1196.04C56.4486 1183.34 36.2437 1162.14 24.7836 1136.12C23.5427 1133.26 22.388 1130.28 21.3367 1127.4C18.5102 1120.15 15.5803 1112.64 10.9958 1106.15C8.11354 1102.05 4.46803 1098.54 0.258436 1095.81L0.258436 1097.85C3.8532 1100.37 6.97941 1103.5 9.49623 1107.1Z" fill="#FFFBEF"/>
<path d="M13.2535 1180.73C15.339 1183.8 17.3899 1187 19.3546 1190.1C25.7487 1200.11 32.3497 1210.44 41.622 1218.12C53.8587 1228.27 69.4735 1232.8 84.5712 1237.17C91.1032 1239.07 97.8593 1241.03 104.236 1243.41C115.393 1247.89 126.241 1253.1 136.707 1259.02C153.631 1268.09 171.176 1277.46 190.428 1280.12C192.048 1280.34 193.702 1280.53 195.357 1280.7C201.975 1281.42 208.852 1282.18 214.315 1285.87C216.603 1287.43 218.506 1289.49 219.882 1291.9L221.795 1291.9C220.277 1288.92 218.044 1286.36 215.297 1284.46C209.541 1280.49 202.475 1279.72 195.615 1278.98C193.892 1278.81 192.358 1278.62 190.738 1278.39C171.779 1275.79 154.407 1266.47 137.62 1257.48C127.067 1251.53 116.128 1246.28 104.874 1241.79C98.428 1239.38 91.6548 1237.42 85.0883 1235.5C70.163 1231.18 54.7205 1226.7 42.7595 1216.78C33.694 1209.27 27.162 1199.04 20.8541 1189.22C18.8721 1186.12 16.8211 1182.9 14.7185 1179.82C10.5683 1173.58 5.68473 1167.86 0.172251 1162.78L0.172251 1165.11C5.07892 1169.83 9.46447 1175.07 13.2535 1180.73Z" fill="#FFFBEF"/>
<path d="M63.5964 1260.96C84.9676 1269.26 106.856 1277.79 123.608 1291.97L126.193 1291.97C109.079 1276.83 86.3637 1267.95 64.148 1259.36C41.036 1250.37 17.2865 1241.12 0.10334 1224.74L0.10334 1227.1C17.4071 1242.96 40.8464 1252.06 63.5964 1260.96Z" fill="#FFFBEF"/>
<path d="M52.3076 1291.97C44.3212 1285.09 35.5651 1279.16 26.2141 1274.29L23.784 1272.95C15.6102 1268.68 7.72295 1263.88 0.172247 1258.58L0.172247 1260.7C7.48162 1265.74 15.0841 1270.34 22.9395 1274.48L25.3868 1275.83C34.0326 1280.36 42.1877 1285.76 49.7224 1291.97L52.3076 1291.97Z" fill="#FFFBEF"/>
<path d="M214.918 1162.01C217.331 1153.65 207.266 1141.94 201.251 1134.95L199.803 1133.23C176.272 1105.43 143.291 1087.31 107.2 1082.34C103.581 1081.88 99.4104 1081.54 95.8255 1083.29C93.6903 1084.49 91.9209 1086.24 90.7065 1088.37C89.4921 1090.49 88.8786 1092.9 88.9316 1095.35C88.9144 1095.68 88.9144 1096 88.9316 1096.33C89.4919 1101.41 91.6872 1106.18 95.1878 1109.9C104.822 1121.05 119.317 1125.41 133.104 1129.8C142.704 1132.76 152.614 1135.81 161.008 1141.01C165.581 1144.28 169.792 1148.03 173.572 1152.19C183.275 1161.96 194.254 1173.05 205.904 1169.41C210.937 1167.95 213.884 1165.47 214.918 1162.01ZM174.933 1151.07C171.056 1146.82 166.741 1142.99 162.059 1139.65C153.442 1134.33 143.445 1131.24 133.759 1128.25C119.42 1123.82 105.873 1119.64 96.5666 1108.87C93.315 1105.42 91.2604 1101.02 90.7068 1096.31C90.4852 1094.04 90.9233 1091.76 91.9687 1089.73C93.0141 1087.7 94.6225 1086.02 96.6011 1084.88C99.7551 1083.33 103.598 1083.65 106.942 1084.08C142.608 1088.99 175.202 1106.9 198.459 1134.36L199.907 1136.08C205.077 1142.17 213.539 1151.95 213.539 1159.29C213.543 1160.05 213.438 1160.82 213.229 1161.56C212.419 1164.42 209.782 1166.55 205.491 1167.9C194.926 1171.21 184.292 1160.51 174.933 1151.07Z" fill="#FFFBEF"/>
</g>
</svg>
